<?xml version="1.0" standalone="no"?>
<!DOCTYPE svg PUBLIC "-//W3C//DTD SVG 1.1//EN" "http://www.w3.org/Graphics/SVG/1.1/DTD/svg11.dtd" >
<svg>
<metadata>
Created by FontForge 20090914 at Tue Apr  9 13:19:41 2013
 By www-data
Created by MyScriptFont.com
</metadata>
<defs>
<font id="BrookeShappell8" horiz-adv-x="10" >
  <font-face 
    font-family="BrookeShappell8"
    font-weight="500"
    font-stretch="normal"
    units-per-em="1000"
    panose-1="2 0 6 3 0 0 0 0 0 0"
    ascent="800"
    descent="-200"
    x-height="525.001"
    cap-height="706"
    bbox="8.88469 -196.031 647.083 797.546"
    underline-thickness="50"
    underline-position="-100"
    unicode-range="U+0020-U+20AC"
  />
<missing-glyph horiz-adv-x="364" 
d="M33 0v666h265v-666h-265zM66 33h199v600h-199v-600z" />
    <glyph glyph-name=".notdef" horiz-adv-x="364" 
d="M33 0v666h265v-666h-265zM66 33h199v600h-199v-600z" />
    <glyph glyph-name="space" unicode=" " horiz-adv-x="420" 
 />
    <glyph glyph-name="exclam" unicode="!" horiz-adv-x="135" 
d="M15 94c4.66699 13.333 11.501 20 20.501 20s18.833 -6.66699 29.5 -20c7.33301 -10 11 -21 11 -33s-3.5 -22.667 -10.5 -32s-15.167 -13.333 -24.5 -12c-12.667 2.66699 -21.834 12.167 -27.501 28.5s-5.16699 32.5 1.5 48.5zM88.001 620
c12.667 6 21.8311 8.33105 27.498 6.99805s8.83398 -6.66602 9.50098 -15.999c2 -29.333 -0.666992 -153 -8 -371c-0.666992 -14.667 -3.83398 -28.167 -9.50098 -40.5s-12.167 -20.166 -19.5 -23.499s-14.666 -2 -21.999 4c-3.33301 4 -5.16602 12 -5.49902 24
s0.666992 28.167 3 48.5s5 42.333 8 66s5.33301 52.167 7 85.5s1.5 66 -0.5 98c-3.33301 74.667 0 114 10 118z" />
    <glyph glyph-name="numbersign" unicode="#" horiz-adv-x="606" 
d="M216 570c9.33301 15.333 19.667 16.3311 31 2.99805c12.667 -15.333 16.334 -35.333 11.001 -60c-4 -20.667 -4.33301 -32.334 -1 -35.001s17 -1.66699 41 3c12.667 2 25.667 6.5 39 13.5s22.333 14.167 27 21.5c10 13.333 23.667 19 41 17c13.333 -1.33301 18 -7 14 -17
c-0.666992 -0.666992 -1.33398 -1.66699 -2.00098 -3c-4.66699 -7.33301 -1.33398 -12 9.99902 -14c9.33301 -1.33301 30 -2 62 -2c22.667 0 38.834 -4.33301 48.501 -13s11.5 -20.334 5.5 -35.001c-4.66699 -12.667 -29.667 -16.334 -75 -11.001l-68 8l1 -70
c1.33301 -46 7.66602 -67.833 18.999 -65.5s43.333 6.83301 96 13.5c34 3.33301 55.833 4.33301 65.5 3s14.5 -7 14.5 -17c0 -15.333 -22.333 -26 -67 -32c-2.66699 0 -6.33398 -0.333008 -11.001 -1c-15.333 -2 -26.166 -3.33301 -32.499 -4s-14.5 -2.33398 -24.5 -5.00098
s-16.667 -4.16699 -20 -4.5s-7.83301 -2.66602 -13.5 -6.99902s-9 -7.33301 -10 -9s-2.33301 -6.16699 -4 -13.5s-2.16699 -12.833 -1.5 -16.5s1.66699 -11.334 3 -23.001s2.83301 -21 4.5 -28s4.16699 -18.833 7.5 -35.5l3 -12c4.66699 -24.667 8 -43.167 10 -55.5
s2.5 -22.666 1.5 -30.999s-3.5 -13.5 -7.5 -15.5s-10 -3 -18 -3c-12.667 0 -22.334 15 -29.001 45s-9 69 -7 117c2.66699 44.667 1.66699 69.667 -3 75c-3.33301 3.33301 -13.333 3.33301 -30 0l-71 -15c-13.333 -2.66699 -22.833 -8.16699 -28.5 -16.5
s-9.5 -21.833 -11.5 -40.5c-2 -14 -2.33301 -25.833 -1 -35.5s3.33301 -14.5 6 -14.5c5.33301 0 8.83301 -6.5 10.5 -19.5s1.33398 -27.5 -0.999023 -43.5s-5.83301 -28 -10.5 -36c-3.33301 -5.33301 -8.5 -9.16602 -15.5 -11.499s-13.833 -2.16602 -20.5 0.500977
c-11.333 4.66699 -17 19.334 -17 44.001s6 65 18 121c2.66699 16 1 25 -5 27s-29 0.333008 -69 -5c-37.333 -4.66699 -59.833 -6.16699 -67.5 -4.5s-10.5 8.83398 -8.5 21.501c2 10.667 8.33301 18.334 19 23.001s29.667 8.33398 57 11.001l72 7l8 152l-54 -10
c-25.333 -4.66699 -55 -12.334 -89 -23.001c-21.333 -8 -36.333 -11.333 -45 -10s-13 10.333 -13 27c0 19.333 9.33301 29 28 29s52.334 5 101.001 15c34.667 8 55.167 14.833 61.5 20.5s8.83301 19.5 7.5 41.5c-2.66699 30 0 51.333 8 64zM367.001 371.498
c0 33 -1.66992 53.001 -5.00293 60.001s-12.666 9.83301 -27.999 8.5c-42 -4 -68.333 -13 -79 -27s-16 -46 -16 -96c0 -8 0.166992 -14.333 0.5 -19s0.833008 -8.83398 1.5 -12.501s2.33398 -6 5.00098 -7s5 -2 7 -3s5.83301 -0.833008 11.5 0.5s10.834 2.5 15.501 3.5
s11.667 2.83301 21 5.5s18.333 4.66699 27 6c18 4 29 10.167 33 18.5s6 29 6 62z" />
    <glyph glyph-name="dollar" unicode="$" horiz-adv-x="345" 
d="M187 619c2.66699 10.667 8.83496 17.335 18.502 20.002s19 1 28 -5s14.5 -15 16.5 -27c1.33301 -10 7.16602 -21.333 17.499 -34s21 -24 32 -34s20.333 -20.5 28 -31.5s9.83398 -20.5 6.50098 -28.5c-6 -16 -16 -23.167 -30 -21.5s-24 11.167 -30 28.5
c-8.66699 28 -18.334 34.333 -29.001 19c-10 -14.667 -16 -44 -18 -88c-2 -42 -0.833008 -69.5 3.5 -82.5s18.5 -30.833 42.5 -53.5c41.333 -39.333 62 -81.333 62 -126s-20.667 -77 -62 -97c-28 -12.667 -43.333 -23 -46 -31c-3.33301 -8 -11.833 -12 -25.5 -12
s-20.5 4 -20.5 12c0 4 -4.33301 8.66699 -13 14s-19.334 10.333 -32.001 15c-36 12.667 -66 32.167 -90 58.5s-36 52.833 -36 79.5c0 27.333 2.83301 49.5 8.5 66.5s12.834 25.5 21.501 25.5c3.33301 0 5.5 -4.16699 6.5 -12.5s0.166992 -18.5 -2.5 -30.5
c-5.33301 -28.667 -0.333008 -55 15 -79c12 -18.667 33.167 -37.167 63.5 -55.5s49.166 -23.833 56.499 -16.5c5.33301 5.33301 10 35.666 14 90.999l6 83l-56 17c-34 10 -63 26.833 -87 50.5s-35.667 46.834 -35 69.501c0 34 9.5 66.167 28.5 96.5s43.5 52.5 73.5 66.5
c15.333 7.33301 29.333 16.166 42 26.499s20 19.166 22 26.499zM196.001 434.001c0 56.667 -3.00098 89.334 -9.00098 98.001c-5.33301 8 -20.333 9 -45 3c-2 -0.666992 -4.66699 -1.33398 -8 -2.00098c-12 -3.33301 -24.667 -14.5 -38 -33.5s-23.166 -39.5 -29.499 -61.5
s-6.83301 -38.333 -1.5 -49c10 -18.667 13 -30.334 9 -35.001c-2.66699 -2.66699 -1.5 -4.66699 3.5 -6s15.333 -3.16602 31 -5.49902s29.167 -4.5 40.5 -6.5l47 -10v108zM277 217.001c-35.333 46 -53.002 30.666 -53.002 -46.001c0 -47.333 6.33301 -71 19 -71
c15.333 0 27.833 6.5 37.5 19.5s14.334 28.833 14.001 47.5s-6.16602 35.334 -17.499 50.001z" />
    <glyph glyph-name="percent" unicode="%" horiz-adv-x="552" 
d="M412 267c18.667 14.667 35.502 19.833 50.502 15.5s30.833 -18.833 47.5 -43.5c21.333 -31.333 32.166 -66.5 32.499 -105.5s-9.5 -71.167 -29.5 -96.5c-11.333 -14 -23 -23.667 -35 -29s-29 -8 -51 -8c-25.333 0 -42.333 2.66699 -51 8s-17.334 18 -26.001 38
c-15.333 36 -16.833 75.667 -4.5 119s34.5 77.333 66.5 102zM496.002 173.999c-10 29.333 -25.832 42.833 -47.499 40.5s-39.834 -19.5 -54.501 -51.5c-14 -28.667 -19.167 -53.167 -15.5 -73.5s15.5 -33.5 35.5 -39.5c32 -10.667 56.833 -2.66699 74.5 24
s20.167 60 7.5 100zM65.0029 524.999c24.667 22.667 49.668 32.5 75.001 29.5s44.333 -17.833 57 -44.5c8.66699 -18 12.667 -32.667 12 -44s-6.66699 -29.666 -18 -54.999c-21.333 -46.667 -49.5 -77 -84.5 -91s-62.833 -6 -83.5 24
c-14.667 20.667 -17.334 50.667 -8.00098 90s26 69.666 50 90.999zM166.004 476.999c-3.33301 9.33301 -8.16797 15.834 -14.501 19.501s-11.833 3.83398 -16.5 0.500977s-7 -9.33301 -7 -18c0 -15.333 -8.66699 -20.333 -26 -15c-11.333 4 -22.333 0.166992 -33 -11.5
s-16.5 -24.834 -17.5 -39.501s2.5 -27.667 10.5 -39c13.333 -13.333 29 -15 47 -5c18 9.33301 33.333 26.166 46 50.499s16.334 43.5 11.001 57.5zM336.002 466c8.66699 8.66699 22.166 26.833 40.499 54.5l51 75c15.667 22.333 25.834 33.5 30.501 33.5
c33.333 0 19 -39.667 -43 -119c-2 -2 -3.66699 -4 -5 -6c-51.333 -64 -104.666 -139 -159.999 -225l-128.5 -196c-30.333 -44.667 -52.833 -67.334 -67.5 -68.001c-22 0 -29 8.66699 -21 26c4 8.66699 11.333 18.334 22 29.001c27.333 27.333 62.166 71.833 104.499 133.5
l114.5 172.5c34 53.333 54.667 83.333 62 90z" />
    <glyph glyph-name="ampersand" unicode="&#x26;" horiz-adv-x="30" 
d="M11 -121c0 38.667 1.33105 56.666 3.99805 53.999c0.666992 0 1.33398 -2.66699 2.00098 -8c4 -27.333 3.66699 -57.333 -1 -90c-1.33301 -11.333 -2.66602 -10.333 -3.99902 3c-0.666992 8.66699 -1 22.334 -1 41.001zM9.99805 185.999
c0 14 1.33203 21.332 3.99902 21.999c4 0.666992 6 -6.33301 6 -21c0 -7.33301 -1 -13.666 -3 -18.999c-3.33301 -8.66699 -5.66602 -6.66699 -6.99902 6v12z" />
    <glyph glyph-name="quotesingle" unicode="'" horiz-adv-x="127" 
d="M71 575.5c4 7.66699 12.667 11.166 26 10.499s20 -5 20 -13c0 -5.33301 -9.5 -30.5 -28.5 -75.5s-28.5 -75.167 -28.5 -90.5c-0.666992 -30.667 -8 -50.334 -22 -59.001c-6.66699 -4.66699 -13.667 -3.66699 -21 3c-6 6.66699 -8 18.334 -6 35.001s9 43.334 21 80.001
c22 65.333 35 101.833 39 109.5z" />
    <glyph glyph-name="parenleft" unicode="(" horiz-adv-x="244" 
d="M143 588c54 34 84 29.333 90 -14c2 -12.667 0.5 -21 -4.5 -25s-16.5 -6 -34.5 -6c-22 0 -43.333 -11.167 -64 -33.5s-37.334 -51.333 -50.001 -87s-22 -73.667 -28 -114s-6.66699 -80.833 -2 -121.5s14.667 -75 30 -103c10 -17.333 21.167 -31 33.5 -41
s23.5 -14.667 33.5 -14s17.333 6.66699 22 18s10 9.33301 16 -6c6 -14.667 3.83301 -34.667 -6.5 -60s-21.833 -38 -34.5 -38c-16.667 0 -38.667 18.167 -66 54.5s-46 72.5 -56 108.5c-11.333 40 -14.666 94.333 -9.99902 163s15.667 129 33 181c14 42 26.667 71 38 87
s31.333 33 60 51z" />
    <glyph glyph-name="parenright" unicode=")" horiz-adv-x="328" 
d="M23 624c9.33301 9.33301 20.9961 12.499 34.9961 9.49902s21 -9.83301 21 -20.5c0 -3.33301 5.33301 -9.66602 16 -18.999s23.334 -18.666 38.001 -27.999c30 -18.667 65.667 -59.667 107 -123s66 -114.333 74 -153c14 -66 -14.667 -156 -86 -270
c-33.333 -52.667 -58.166 -86 -74.499 -100s-31.166 -14.333 -44.499 -1c-26 25.333 -16.333 51.666 29 78.999c42.667 26.667 78 68.5 106 125.5s37.667 107.833 29 152.5c-7.33301 39.333 -31.166 86.5 -71.499 141.5s-80.833 95.833 -121.5 122.5
c-37.333 24.667 -59.333 41.667 -66 51s-3.66699 20.333 9 33z" />
    <glyph glyph-name="asterisk" unicode="*" horiz-adv-x="356" 
d="M283 286c-7.33301 0 -18.001 8.3291 -32.001 24.9961l-40.5 50c-13 16.667 -21.833 25 -26.5 25c-3.33301 0 -5.33301 -8.5 -6 -25.5s0.333008 -37.167 3 -60.5c4.66699 -36.667 6.16699 -60.167 4.5 -70.5s-7.16699 -15.5 -16.5 -15.5c-12 0 -22.167 11 -30.5 33
s-8.83301 39.333 -1.5 52c3.33301 4 3 7.5 -1 10.5s-10.333 4.5 -19 4.5c-16.667 0 -26.167 8 -28.5 24s3.5 31.333 17.5 46c9.33301 9.33301 8 14.333 -4 15c-6.66699 0.666992 -18.334 0.333984 -35.001 -0.999023c-24 -2 -39.5 -1.66699 -46.5 1s-10.5 10.167 -10.5 22.5
s3.5 19.833 10.5 22.5s22.5 3.33398 46.5 2.00098l57 -5l-35 30c-24 19.333 -40 29 -48 29c-4.66699 0 -7.66699 3 -9 9s-0.666016 13.5 2.00098 22.5s6.66699 17.5 12 25.5c6 9.33301 11.667 13 17 11s14 -10.333 26 -25l30 -36l-3 43
c-1.33301 28.667 -1.5 46.834 -0.5 54.501s9.83301 9.83398 26.5 6.50098c10 -2 16.5 -7.5 19.5 -16.5s3.83301 -25.167 2.5 -48.5c-1.33301 -16.667 -1.33301 -30.834 0 -42.501s3.5 -17.5 6.5 -17.5s9 4.83301 18 14.5s17.833 21.5 26.5 35.5
c16.667 24 32.167 39.333 46.5 46s25.5 3.66699 33.5 -9c2 -3.33301 0.833008 -10 -3.5 -20s-10.166 -20 -17.499 -30c-17.333 -22 -22.666 -34 -15.999 -36c2 -0.666992 4.66699 -1 8 -1c5.33301 0 11 1.33301 17 4s10.333 6 13 10c6.66699 10.667 16.667 12 30 4
s20 -19.333 20 -34c0 -11.333 -4.16699 -18.666 -12.5 -21.999s-25.833 -5 -52.5 -5c-42.667 0 -64 -3 -64 -9c0 -4.66699 14.667 -23.667 44 -57c42 -48.667 56 -77.667 42 -87c-4.66699 -2.66699 -11.334 -4 -20.001 -4z" />
    <glyph glyph-name="plus" unicode="+" horiz-adv-x="475" 
d="M151 536c8 7.33301 18.333 7.83203 31 1.49902s18 -14.5 16 -24.5c-3.33301 -13.333 -7.33301 -45.666 -12 -96.999l-6 -77l144 7c81.333 4.66699 126.333 4.66699 135 0c5.33301 -2.66699 7 -10 5 -22c-0.666992 -7.33301 -2.33398 -12.666 -5.00098 -15.999
s-8.16699 -6.33301 -16.5 -9s-20.5 -3.5 -36.5 -2.5s-38.333 1.5 -67 1.5c-34 0.666992 -64.833 0 -92.5 -2s-44.167 -4.66699 -49.5 -8c-11.333 -9.33301 -16.166 -30.333 -14.499 -63s4.83398 -63 9.50098 -91s7.66699 -44 9 -48c2.66699 -6 3.5 -13.333 2.5 -22
s-3.5 -15.667 -7.5 -21c-16.667 -26 -29 -20 -37 18c-5.33301 25.333 -8 61.666 -8 108.999v116h-70c-30.667 0 -50.167 1.66699 -58.5 5s-12.5 11.333 -12.5 24c0 13.333 3.83301 21 11.5 23s28.5 0.666992 62.5 -4l73 -10l-7 102
c-4.66699 67.333 -4.33398 104 0.999023 110z" />
    <glyph glyph-name="comma" unicode="," horiz-adv-x="98" 
d="M27 119c16.667 6.66699 28.999 6.33203 36.999 -1.00098s14.667 -24.333 20 -51c6.66699 -30 6 -58.167 -2 -84.5s-19.667 -39.5 -35 -39.5c-8 0 -12.833 6.66699 -14.5 20s-1.16699 28 1.5 44s3.83398 30.667 3.50098 44s-3.83301 20 -10.5 20
c-11.333 0 -17 6.83301 -17 20.5s5.66699 22.834 17 27.501z" />
    <glyph glyph-name="hyphen" unicode="-" horiz-adv-x="252" 
d="M159 234c6.66699 6.66699 22.167 4.66504 46.5 -6.00195s36.5 -20.334 36.5 -29.001c0 -8 -6.16699 -13.333 -18.5 -16s-34.5 -4 -66.5 -4c-57.333 0 -91.333 -3.66699 -102 -11c-9.33301 -5.33301 -20.166 -1.66602 -32.499 11.001s-15.833 23.334 -10.5 32.001
c4 6.66699 29.167 11.834 75.5 15.501s70.166 6.16699 71.499 7.5z" />
    <glyph glyph-name="period" unicode="." horiz-adv-x="79" 
d="M20 66c12.667 14.667 24 19.001 34 13.001s15 -20.333 15 -43c0 -25.333 -5.66699 -40.333 -17 -45s-22.333 3 -33 23c-6 11.333 -9 20.666 -9 27.999s3.33301 15.333 10 24z" />
    <glyph glyph-name="slash" unicode="/" horiz-adv-x="362" 
d="M242 518c20.667 44.667 37.498 76.6621 50.498 95.9951s24.5 29 34.5 29c22.667 0 29.667 -8.33301 21 -25c-4.66699 -8.66699 -13 -20 -25 -34c-17.333 -19.333 -40.5 -56.666 -69.5 -111.999s-43.5 -89.333 -43.5 -102c0 -11.333 -13.167 -46.166 -39.5 -104.499
s-43.166 -90.166 -50.499 -95.499c-8.66699 -6 -11.834 -10.833 -9.50098 -14.5s-3.5 -22.167 -17.5 -55.5l-38 -90c-4.66699 -10.667 -10 -19.167 -16 -25.5s-11 -8.16602 -15 -5.49902c-5.33301 3.33301 -9.33301 11.5 -12 24.5s-3.16699 25.167 -1.5 36.5
s5.16699 17 10.5 17c6.66699 0 31.834 42.833 75.501 128.5s69.5 142.834 77.5 171.501c6.66699 24 29.334 77.667 68.001 161z" />
    <glyph glyph-name="zero" unicode="0" horiz-adv-x="448" 
d="M151 573c26 13.333 53.499 20.835 82.499 22.502s55.833 -2 80.5 -11s46.834 -23.167 66.501 -42.5s33.167 -42 40.5 -68c13.333 -43.333 18.833 -94.5 16.5 -153.5s-11.833 -110.5 -28.5 -154.5c-16.667 -45.333 -38.667 -82 -66 -110s-55.5 -45.667 -84.5 -53
s-58.5 -6.16602 -88.5 3.50098s-56.667 26.667 -80 51s-42.5 57.166 -57.5 98.499s-22.5 87.333 -22.5 138c0 44 2.66699 76.167 8 96.5s18 47.166 38 80.499c14 22 29.833 42.667 47.5 62s33.5 32.666 47.5 39.999zM349.999 507.002
c-24.667 24.667 -61.499 36.334 -110.499 35.001s-87.5 -15.333 -115.5 -42c-36.667 -34.667 -62 -80.5 -76 -137.5s-14 -112.333 0 -166s39.333 -92.834 76 -117.501c11.333 -7.33301 20.666 -14.5 27.999 -21.5s10.333 -11.5 9 -13.5s0.333984 -3.33301 5.00098 -4
c10 -1.33301 26.667 -1 50 1c42 3.33301 78.833 21.5 110.5 54.5s54.167 75.333 67.5 127s14.666 106.167 3.99902 163.5c-10 58.667 -26 99 -48 121z" />
    <glyph glyph-name="one" unicode="1" horiz-adv-x="145" 
d="M10 582c0 12.667 10.667 17.667 32 15c13.333 -1.33301 22 -8 26 -20c6.66699 -16.667 14.667 -80.334 24 -191.001c12 -138 23.333 -220.333 34 -247c7.33301 -16.667 10.5 -29 9.5 -37s-6.16699 -16.667 -15.5 -26c-29.333 -29.333 -46 -15.666 -50 41.001
c-0.666992 9.33301 -1 20 -1 32c-1.33301 63.333 -7.33301 144 -18 242s-19.667 150.667 -27 158c-9.33301 9.33301 -14 20.333 -14 33z" />
    <glyph glyph-name="two" unicode="2" horiz-adv-x="426" 
d="M105 554c44 23.333 77.833 34.835 101.5 34.502s44.167 -12.833 61.5 -37.5c20 -28 24.333 -75.5 13 -142.5s-35.333 -135.167 -72 -204.5c-23.333 -43.333 -35 -67 -35 -71c0.666992 -1.33301 6 -2 16 -2s24.5 0.5 43.5 1.5s39.5 2.5 61.5 4.5c68 6 106 6.33301 114 1
c4.66699 -2.66699 7 -9 7 -19c0 -13.333 -6 -22 -18 -26s-42.667 -8 -92 -12c-74 -5.33301 -129 -11.333 -165 -18c-23.333 -4.66699 -38 -5.83398 -44 -3.50098s-9 9.5 -9 21.5c0 8 3.33301 18 10 30s14.667 22.333 24 31c22 20.667 42.333 51.167 61 91.5
s32.667 80.833 42 121.5s13.5 78.167 12.5 112.5s-8.83301 56.166 -23.5 65.499s-36.5 8.5 -65.5 -2.5s-55.5 -28.833 -79.5 -53.5c-13.333 -13.333 -23.5 -21.166 -30.5 -23.499s-13.5 0.166992 -19.5 7.5c-11.333 13.333 -11.333 26.166 0 38.499s40 30.5 86 54.5z" />
    <glyph glyph-name="three" unicode="3" horiz-adv-x="396" 
d="M94 597c46.667 11.333 86.9961 14.835 120.996 10.502s60.5 -13.666 79.5 -27.999s28.5 -34 28.5 -59s-10.667 -52.167 -32 -81.5c-20.667 -30 -25 -47 -13 -51c20.667 -6.66699 41.334 -22.167 62.001 -46.5s33.667 -48.166 39 -71.499
c16.667 -74.667 6.5 -131.334 -30.5 -170.001s-99.833 -57.667 -188.5 -57c-29.333 0 -44 2.33301 -44 7c0 1.33301 2.33301 3.66602 7 6.99902c14 9.33301 15.333 14 4 14s-19.666 -4 -24.999 -12c-6.66699 -10.667 -18.167 -13.5 -34.5 -8.5s-25.833 14.5 -28.5 28.5
c-3.33301 18.667 2.5 30.667 17.5 36s34.167 1.66602 57.5 -11.001c26 -12.667 59.5 -16.667 100.5 -12s73.167 16.667 96.5 36c25.333 20.667 37 50.334 35 89.001s-16.333 69.667 -43 93c-22 18 -43.167 27.5 -63.5 28.5s-63.5 -5.16699 -129.5 -18.5
c-22 -4.66699 -35.167 -5.83398 -39.5 -3.50098s-5.16602 11.5 -2.49902 27.5c2 14 6.5 23.5 13.5 28.5s19.833 8.16699 38.5 9.5c24 2 47.667 8.83301 71 20.5s41.833 25.167 55.5 40.5s23.167 31.333 28.5 48s2.33301 31.667 -9 45s-37.833 20 -79.5 20
s-79.167 -7 -112.5 -21c-23.333 -9.33301 -38.166 -14 -44.499 -14s-11.5 5.33301 -15.5 16c-6.66699 15.333 -4.5 27.166 6.5 35.499s35.5 16.5 73.5 24.5z" />
    <glyph glyph-name="four" unicode="4" horiz-adv-x="497" 
d="M231 593c0 12.667 2.33496 21.832 7.00195 27.499s12 8.5 22 8.5c12.667 0 20.667 -5.66699 24 -17s5 -40.666 5 -87.999v-104l75 11c69.333 9.33301 108.333 11.666 117 6.99902c5.33301 -2.66699 7 -11.5 5 -26.5s-7 -24 -15 -27s-27 -3.5 -57 -1.5
c-12.667 0.666992 -23 1.33398 -31 2.00098s-16.5 0.833984 -25.5 0.500977s-15.833 -0.833008 -20.5 -1.5s-9.66699 -2.33398 -15 -5.00098s-9.16602 -5.16699 -11.499 -7.5s-4.83301 -6.33301 -7.5 -12s-4.33398 -11.167 -5.00098 -16.5s-1.33398 -12.833 -2.00098 -22.5
s-1 -18.834 -1 -27.501s0.333008 -20 1 -34c2 -74.667 6.33301 -117.667 13 -129c7.33301 -12 7.33301 -27.167 0 -45.5s-17 -27.5 -29 -27.5c-10 0 -15.667 2.66699 -17 8c-4 8.66699 -5 64 -3 166l1 139l-125 4c-30.667 1.33301 -53.334 2.5 -68.001 3.5
s-27 2.66699 -37 5s-16 5.16602 -18 8.49902s-3 8.33301 -3 15c0 12.667 14.5 29.667 43.5 51s60.833 38.333 95.5 51c6.66699 2.66699 12.5 6.83398 17.5 12.501s7.5 11.167 7.5 16.5s2.83301 10 8.5 14s12.5 6 20.5 6c10 0 17.167 2.83301 21.5 8.5s6.5 14.834 6.5 27.501
zM256.002 463.998c-2 33.333 -5.33301 49.667 -10 49c-12.667 -2.66699 -42 -16.834 -88 -42.501s-69 -40.5 -69 -44.5c0 -3.33301 8.33301 -6.16602 25 -8.49902s36.667 -3.5 60 -3.5h86z" />
    <glyph glyph-name="five" unicode="5" horiz-adv-x="369" 
d="M270 576c14 14 26.3301 14.001 36.9971 0.000976562c10.667 -14.667 10.667 -30.667 0 -48c-2 -3.33301 -4.66699 -6.66602 -8 -9.99902c-10.667 -10 -19.167 -14.833 -25.5 -14.5s-18.166 6.16602 -35.499 17.499c-21.333 14 -31.333 18 -30 12
c0 -0.666992 0.333008 -1.33398 1 -2.00098c3.33301 -6 -3.66699 -11 -21 -15c-10 -2 -22.667 -3.66699 -38 -5l-68 -4l-9 -154l40 9c26.667 6 64 12 112 18c46 5.33301 78.5 -1.16699 97.5 -19.5s30.5 -54.166 34.5 -107.499c2.66699 -32.667 2 -56 -2 -70
s-15.667 -32 -35 -54l-43 -50l-124 1c-33.333 0 -60 1.16699 -80 3.5s-35.5 6 -46.5 11s-16.5 11.667 -16.5 20s3 18.833 9 31.5c8.66699 15.333 18.5 23 29.5 23s22.5 -7.66699 34.5 -23c14.667 -20.667 45.334 -29.834 92.001 -27.501s81.667 14.5 105 36.5
s35.833 48.667 37.5 80s-7.83301 57 -28.5 77c-12 10.667 -24.167 17 -36.5 19s-32.5 1 -60.5 -3c-27.333 -4.66699 -53.5 -11 -78.5 -19s-42.833 -14.167 -53.5 -18.5s-17.334 -5.5 -20.001 -3.5c-3.33301 4 -6.66602 50.667 -9.99902 140l-5 134l117 3
c78.667 1.33301 121.334 5.33301 128.001 12z" />
    <glyph glyph-name="six" unicode="6" horiz-adv-x="393" 
d="M18 567c4 4.66699 9.33984 7.99902 16.0068 9.99902s12.667 1.66699 18 -1c7.33301 -2 12 -5.83301 14 -11.5s2.33301 -14.834 1 -27.501s-3.16602 -27 -5.49902 -43s-4.33301 -39.167 -6 -69.5s-1.83398 -62.166 -0.500977 -95.499c2.66699 -76 16 -137 40 -183
c17.333 -31.333 31.666 -38 42.999 -20c4 6.66699 7.66699 16.667 11 30c5.33301 26.667 19.166 57 41.499 91s46.166 61.333 71.499 82c23.333 18 45.166 25.167 65.499 21.5s36.166 -18.167 47.499 -43.5c12 -25.333 11.5 -58.333 -1.5 -99s-33.667 -77.834 -62 -111.501
s-57.5 -54.167 -87.5 -61.5c-30.667 -7.33301 -63.834 -1.66602 -99.501 17.001s-60.834 43.667 -75.501 75c-14 29.333 -25.333 106.333 -34 231s-7.66699 194.334 3 209.001zM337.007 270.999c-2.66699 8 -6 14.834 -10 20.501s-7.33301 8.5 -10 8.5
c-13.333 0 -32.666 -12.5 -57.999 -37.5s-42.666 -48.833 -51.999 -71.5c-12.667 -30 -18.834 -47.833 -18.501 -53.5s7.5 -8.5 21.5 -8.5c14.667 0 19.334 -7.33301 14.001 -22c-6 -15.333 -4 -22 6 -20c9.33301 1.33301 24.333 10.333 45 27
c21.333 17.333 38.666 42.666 51.999 75.999s16.666 60.333 9.99902 81z" />
    <glyph glyph-name="seven" unicode="7" horiz-adv-x="440" 
d="M24 573c17.333 6 87.832 7.49707 211.499 4.49707s187.834 -7.5 192.501 -13.5c2.66699 -3.33301 3 -10 1 -20s-5.66699 -20 -11 -30c-10.667 -21.333 -24.667 -80.666 -42 -177.999s-25 -160.333 -23 -189c2 -38 1.33301 -62.5 -2 -73.5s-12.333 -16.5 -27 -16.5
c-26.667 0 -36 16.667 -28 50c6.66699 29.333 18 87 34 173s26 144.667 30 176l10 75l-180 -5c-44 -1.33301 -76.5 -2.16602 -97.5 -2.49902s-38.5 0.166992 -52.5 1.5s-22.5 3.33301 -25.5 6s-4.5 7 -4.5 13c0 6.66699 1.5 12.834 4.5 18.501s6.16699 9.16699 9.5 10.5z
" />
    <glyph glyph-name="eight" unicode="8" horiz-adv-x="461" 
d="M82 489c0 8 20 26.168 60 54.501s68 42.5 84 42.5c17.333 0 38 -5.66699 62 -17s36 -21 36 -29c0 -7.33301 14.333 -26 43 -56c61.333 -63.333 54.666 -125.666 -20.001 -186.999c-14.667 -12 -22.167 -19.333 -22.5 -22s6.83398 -6.33398 21.501 -11.001
c44.667 -14 72.667 -27.667 84 -41s18 -40.666 20 -81.999c2 -34.667 1 -59.334 -3 -74.001s-14.667 -32.334 -32 -53.001c-27.333 -32 -59 -55.333 -95 -70s-69.333 -19.667 -100 -15s-56.667 18.5 -78 41.5s-32 52.833 -32 89.5c0 18 2.66699 37 8 57s12 36.667 20 50
c15.333 25.333 21.5 42 18.5 50s-17.167 12 -42.5 12c-20 0 -42.333 11.333 -67 34s-37 43 -37 61c0 15.333 5 35.166 15 59.499s20.833 44.666 32.5 60.999s20.167 21.833 25.5 16.5c9.33301 -9.33301 6 -27.666 -10 -54.999c-16 -28.667 -20.667 -55.334 -14 -80.001
s23.667 -42.667 51 -54c26.667 -11.333 60.667 -11.666 102 -0.999023s77.5 28.167 108.5 52.5s46.5 48.5 46.5 72.5c0 17.333 -9 34.5 -27 51.5s-37.333 26.167 -58 27.5c-12.667 0.666992 -22.334 4.5 -29.001 11.5s-11.167 14 -13.5 21s-5.66602 12.667 -9.99902 17
s-12.833 4 -25.5 -1s-30.667 -15.167 -54 -30.5c-45.333 -31.333 -68 -32.666 -68 -3.99902zM398 191.001c-18.667 22 -51 31.668 -97 29.001s-80.667 -16 -104 -40c-19.333 -20.667 -32 -49.667 -38 -87s-2.33301 -65 11 -83c16.667 -22 41.667 -33.5 75 -34.5
s65 8.5 95 28.5c35.333 24 55 34 59 30c4.66699 -4.66699 8 4.66602 10 27.999c4 46 2 84.667 -6 116c-1.33301 6.66699 -3 11 -5 13z" />
    <glyph glyph-name="nine" unicode="9" horiz-adv-x="368" 
d="M82 591c27.333 27.333 47.1729 43.167 59.5059 47.5s37.833 4.5 76.5 0.5c54 -6 85.333 -13.333 94 -22c5.33301 -4.66699 9.66602 -28 12.999 -70s7.16602 -98 11.499 -168s9.16602 -126.667 14.499 -170c4 -32.667 6.5 -58.667 7.5 -78s0.333008 -34.833 -2 -46.5
s-5.83301 -19.167 -10.5 -22.5s-11.667 -4 -21 -2c-10 2 -16 11.833 -18 29.5s-2 58.167 0 121.5c3.33301 97.333 0 146 -10 146c-4 0 -8.33301 -2.83301 -13 -8.5s-8.33398 -12.167 -11.001 -19.5c-6.66699 -22 -19.334 -38.833 -38.001 -50.5
s-39.334 -17.167 -62.001 -16.5s-45 5.16699 -67 13.5s-41.5 21.833 -58.5 40.5s-27.833 40 -32.5 64c-15.333 80.667 7 151 67 211zM235.007 587.001c-19.333 12.667 -40.6689 15.8359 -64.002 9.50293s-46.666 -21.5 -69.999 -45.5
c-21.333 -20.667 -34.833 -37.834 -40.5 -51.501s-8.5 -34.834 -8.5 -63.501c0 -26 2.5 -45.833 7.5 -59.5s14.833 -27.5 29.5 -41.5c36.667 -34 72.334 -43.833 107.001 -29.5s58 48.833 70 103.5c7.33301 31.333 7.5 66.666 0.5 105.999s-17.5 63.333 -31.5 72z" />
    <glyph glyph-name="colon" unicode=":" horiz-adv-x="187" 
d="M10 37c0 14 2.33203 23.165 6.99902 27.498s14.334 6.5 29.001 6.5c13.333 0 22.5 -2.16699 27.5 -6.5s7.5 -12.833 7.5 -25.5c0 -21.333 -4 -38.666 -12 -51.999c-10 -14.667 -22.333 -15.667 -37 -3s-22 30.334 -22 53.001zM118.999 375.998
c6.66699 6.66699 19.0029 10.002 37.0029 10.002c10.667 0 17.167 -2.33301 19.5 -7s1.5 -13.334 -2.5 -26.001c-12.667 -42.667 -28.334 -58.334 -47.001 -47.001c-8.66699 5.33301 -13.834 16.5 -15.501 33.5s1.16602 29.167 8.49902 36.5z" />
    <glyph glyph-name="semicolon" unicode=";" horiz-adv-x="174" 
d="M12 93c9.33301 26.667 25 25.6699 47 -2.99707c8 -10.667 15.667 -24 23 -40c10.667 -21.333 16.834 -38 18.501 -50s-0.5 -24.333 -6.5 -37c-8.66699 -19.333 -23.334 -30.333 -44.001 -33c-18 -0.666992 -28 6 -30 20c0 6 1.5 11 4.5 15s6.5 6 10.5 6
c6.66699 0 11 4.16699 13 12.5s1 18.166 -3 29.499s-10.333 21.666 -19 30.999c-6 7.33301 -10.5 15.666 -13.5 24.999s-3.16699 17.333 -0.5 24zM114 344.003c4.66699 14.667 14.667 23 30 25c13.333 1.33301 20 -3.66699 20 -15c-0.666992 -7.33301 -1 -20.666 -1 -39.999
c0 -14.667 -6.33301 -23.834 -19 -27.501s-23 0.833008 -31 13.5c-5.33301 9.33301 -5 24 1 44z" />
    <glyph glyph-name="less" unicode="&#x3c;" horiz-adv-x="452" 
d="M338 478c48.667 34.667 79.3359 43.3359 92.0029 26.0029c3.33301 -4 5 -9.66699 5 -17c0 -18 -25.333 -38 -76 -60c-60 -25.333 -113.5 -45.5 -160.5 -60.5s-74.833 -20.167 -83.5 -15.5c-6.66699 2.66699 -7.33398 2 -2.00098 -2
c9.33301 -6.66699 52 -35.334 128 -86.001c20 -14 39.833 -27.167 59.5 -39.5s35.667 -22 48 -29l36.5 -21c12 -7 21 -12.667 27 -17s11.667 -8.66602 17 -12.999s8.66602 -8.66602 9.99902 -12.999s2.16602 -9 2.49902 -14s-0.5 -10.833 -2.5 -17.5
c-4.66699 -16.667 -10.667 -25.334 -18 -26.001s-17.333 6.33301 -30 21c-16 19.333 -67.5 56.666 -154.5 111.999s-140.833 85.333 -161.5 90c-24 4.66699 -42.333 13.667 -55 27s-14 25.333 -4 36c10 9.33301 31 15.666 63 18.999
c33.333 3.33301 77.5 15.666 132.5 36.999s97.167 42.333 126.5 63z" />
    <glyph glyph-name="equal" unicode="=" horiz-adv-x="466" 
d="M371 291c8 8.66699 21.333 10.334 40 5.00098s28 -13.666 28 -24.999c0 -8 -11.667 -14.5 -35 -19.5s-69 -10.5 -137 -16.5c-113.333 -10.667 -178 -12.334 -194 -5.00098c-8.66699 4 -12 12 -10 24c2 8.66699 12.833 14.667 32.5 18s59.5 5.66602 119.5 6.99902
c98.667 2.66699 150.667 6.66699 156 12zM196 409c154 13.333 236 18.668 246 16.001c3.33301 -0.666992 6.33301 -3.33398 9 -8.00098c12 -18.667 -1 -32 -39 -40c-26.667 -5.33301 -107.667 -11.333 -243 -18c-44.667 -2 -83.334 -4 -116.001 -6c-28.667 -2 -43 4 -43 18
c0 8.66699 12.333 15.5 37 20.5s74.334 10.833 149.001 17.5z" />
    <glyph glyph-name="greater" unicode="&#x3e;" horiz-adv-x="544" 
d="M23 503c11.333 7.33301 19.666 10.499 24.999 9.49902s18.666 -7.16699 39.999 -18.5c36 -20 89.833 -45.167 161.5 -75.5s123.5 -50.166 155.5 -59.499c52.667 -15.333 87.334 -27.166 104.001 -35.499s25 -17.5 25 -27.5c0 -14 -6.5 -25.5 -19.5 -34.5
s-30.167 -14.167 -51.5 -15.5c-26.667 -1.33301 -69.167 -13.333 -127.5 -36s-100.166 -43.334 -125.499 -62.001c-25.333 -18 -44 -28.333 -56 -31s-21.333 1.66602 -28 12.999c-5.33301 8.66699 -0.333008 22.5 15 41.5s29.333 28.5 42 28.5c10 0 52.667 15.333 128 46
c62 24.667 93.667 40.334 95 47.001c0.666992 2.66699 -2.33301 5.66699 -9 9c-2 0.666992 -4.33301 1.66699 -7 3c-9.33301 3.33301 -39.333 16.166 -90 38.499l-144.5 61.5c-45.667 18.667 -76.5 29.667 -92.5 33c-23.333 4.66699 -39.5 14.334 -48.5 29.001
s-6.16699 26.667 8.5 36z" />
    <glyph glyph-name="question" unicode="?" horiz-adv-x="314" 
d="M46 59c4 12.667 10.667 20.332 20 22.999s18.166 -0.166016 26.499 -8.49902s13.166 -19.833 14.499 -34.5c2 -16 1.33301 -26.5 -2 -31.5s-10.666 -7.5 -21.999 -7.5c-37.333 0 -49.666 19.667 -36.999 59zM131 593.998c31.333 10 57.6689 13.5 79.002 10.5
s41.333 -12.833 60 -29.5c17.333 -15.333 28 -35.333 32 -60s1.66699 -49 -7 -73s-23 -46.667 -43 -68s-43 -36.666 -69 -45.999l-62 -21l10 -62c4 -27.333 5.16699 -44.333 3.5 -51s-7.83398 -8.66699 -18.501 -6c-12.667 2 -22.667 8.16699 -30 18.5
s-20.333 36.166 -39 77.499c-10 22.667 -15.167 37.834 -15.5 45.501s4.5 16.5 14.5 26.5c14 14 40.333 19.667 79 17c24 -2 42.167 -0.333008 54.5 5s27.5 17.333 45.5 36c23.333 26 36.166 45.667 38.499 59s-4.16699 31 -19.5 53c-14 20 -36 30.167 -66 30.5
s-61.333 -9.16699 -94 -28.5c-42 -26 -66 -33 -72 -21c-1.33301 3.33301 -2 7.66602 -2 12.999c0 24 40.333 48.667 121 74z" />
    <glyph glyph-name="at" unicode="@" horiz-adv-x="570" 
d="M164 525c28 18.667 62.8359 29.335 104.503 32.002s81.5 -2.66602 119.5 -15.999s65.667 -32.333 83 -57c15.333 -22 23 -66.333 23 -133c0 -102 -11.333 -167.667 -34 -197c-17.333 -22.667 -35.333 -12.667 -54 30c-0.666992 1.33301 -1.33398 3 -2.00098 5l-20 47
l-24 -47c-12.667 -24.667 -29.167 -43.834 -49.5 -57.501s-41.166 -20.5 -62.499 -20.5s-41.5 4 -60.5 12s-34.5 22.167 -46.5 42.5s-18 43.833 -18 70.5c0.666992 30 10.5 64.667 29.5 104s40.167 68 63.5 86c24 19.333 60.833 30.166 110.5 32.499
s81.5 -5.16699 95.5 -22.5c11.333 -13.333 19.166 -18.666 23.499 -15.999s3.16602 12.334 -3.50098 29.001c-6 15.333 -26.333 30 -61 44s-68.334 21 -101.001 21c-37.333 0 -72 -12.167 -104 -36.5s-59.667 -59.833 -83 -106.5c-48.667 -94.667 -63 -197.334 -43 -308.001
c6.66699 -36.667 14.667 -63.334 24 -80.001s27.666 -37.667 54.999 -63l64 -59l81 13c65.333 10 114.166 27 146.499 51s60.5 64.333 84.5 121c10.667 24 20.834 36.5 30.501 37.5s17.5 -9.83301 23.5 -32.5c2.66699 -12 1.16699 -24 -4.5 -36s-17.167 -26.667 -34.5 -44
c-12.667 -13.333 -24.834 -24.333 -36.501 -33s-19.167 -12.667 -22.5 -12s-5.33301 0 -6 -2s0.333008 -4.66699 3 -8c4.66699 -8 -1.16602 -17.667 -17.499 -29s-38.5 -22 -66.5 -32s-55 -16.667 -81 -20c-31.333 -4 -56.5 -4.5 -75.5 -1.5s-42.167 10.833 -69.5 23.5
c-18 8.66699 -35.5 19.167 -52.5 31.5s-28.5 22.833 -34.5 31.5c-18.667 29.333 -32.5 68.666 -41.5 117.999s-11.833 101.333 -8.5 156c4.66699 66.667 21.834 132 51.501 196s63.5 109 101.5 135zM362.003 334.001c-1.33301 20.667 -4.33203 35.832 -8.99902 45.499
s-12.334 16.167 -23.001 19.5c-50.667 16.667 -93.667 -1 -129 -53c-21.333 -31.333 -32.833 -62.166 -34.5 -92.499s6 -54.5 23 -72.5s40.5 -25 70.5 -21c26.667 2.66699 51 22.667 73 60s31.667 75.333 29 114zM463.004 328.999c2.66699 42.667 -1.00098 66 -11.001 70
c-4 2 -8.33301 -2 -13 -12c-3.33301 -8.66699 -6.66602 -20.667 -9.99902 -36c-3.33301 -19.333 -5 -36.5 -5 -51.5s1.83301 -26.5 5.5 -34.5s8.5 -11.333 14.5 -10c4 0.666992 7.83301 8.16699 11.5 22.5s6.16699 31.5 7.5 51.5z" />
    <glyph glyph-name="A" unicode="A" horiz-adv-x="434" 
d="M201 683c9.33301 27.333 22.3379 42.6641 39.0049 45.9971c15.333 3.33301 24.666 -4.66699 27.999 -24c0.666992 -3.33301 1 -7.33301 1 -12c0 -28.667 10.167 -78.667 30.5 -150s36.5 -112.666 48.5 -123.999c5.33301 -6 9.16602 -12.5 11.499 -19.5
s2.5 -12.5 0.5 -16.5c-4 -7.33301 6.5 -51.833 31.5 -133.5s35.5 -124.5 31.5 -128.5c-6.66699 -6.66699 -17.334 -6 -32.001 2s-22 17.333 -22 28c0 12.667 -10.667 52.667 -32 120c-5.33301 17.333 -9 29.5 -11 36.5s-5.5 15.5 -10.5 25.5s-8.33301 16.5 -10 19.5
s-6 6.66699 -13 11s-12.167 6.5 -15.5 6.5s-10.5 -0.166992 -21.5 -0.5s-20.167 -1.16602 -27.5 -2.49902l-38 -7l-56 -10l-38 -121c-24.667 -81.333 -45.334 -123.666 -62.001 -126.999s-24.667 4.33398 -24 23.001c0.666992 23.333 16 69.666 46 138.999
c5.33301 12.667 25.666 69.667 60.999 171zM283.005 431.998c0 12 -9.00098 45.999 -27.001 101.999l-26 85l-31 -82l-18 -49c-4 -11.333 -7 -22.333 -9 -33s-2.5 -18.167 -1.5 -22.5s4 -8.16602 9 -11.499s10.833 -5.33301 17.5 -6s16.334 -1 29.001 -1c38 0 57 6 57 18z
" />
    <glyph glyph-name="B" unicode="B" horiz-adv-x="411" 
d="M50 706c15.333 4.66699 50.668 5.3291 106.001 1.99609c46 -2.66699 82.333 -12.667 109 -30s48 -45.333 64 -84c10 -22 12.667 -47.167 8 -75.5s-15 -52.166 -31 -71.499c-7.33301 -8.66699 -10.5 -15.167 -9.5 -19.5s6.5 -9.5 16.5 -15.5
c6.66699 -4 15.834 -13.167 27.501 -27.5s22.5 -30.166 32.5 -47.499c16 -27.333 25 -47.166 27 -59.499s-0.666992 -29.166 -8 -50.499c-10.667 -32 -23.334 -56.667 -38.001 -74c-16 -18.667 -42 -32 -78 -40s-66 -7.33301 -90 2c-26 10 -55.667 9.33301 -89 -2
c-31.333 -10.667 -52.333 -10.334 -63 0.999023c-14 15.333 -21.667 67.333 -23 156c-0.666992 27.333 -1 65 -1 113c0 46.667 0.166992 85.334 0.5 116.001s1.16602 58.5 2.49902 83.5s2.83301 44.5 4.5 58.5s4 25.833 7 35.5s6.5 16.5 10.5 20.5s9 7 15 9z
M260.002 620.995c-13.333 13.333 -26.6709 22.665 -40.0039 27.998s-30 7.66602 -50 6.99902c-18.667 0 -33.5 -0.5 -44.5 -1.5s-21.333 -3.16699 -31 -6.5s-16.667 -7.33301 -21 -12s-8.33301 -11.834 -12 -21.501s-6 -20.167 -7 -31.5s-1.5 -26.666 -1.5 -45.999
c0 -1.33301 -0.333008 -3.66602 -1 -6.99902c0 -14.667 -0.166992 -25 -0.5 -31s0.166992 -13.5 1.5 -22.5l2.5 -17c0.333008 -2.33301 2.83301 -5.66602 7.5 -9.99902s8.33398 -6.66602 11.001 -6.99902s8.83398 -1 18.501 -2s17.834 -1.33301 24.501 -1
s17.667 0.833008 33 1.5c4 0.666992 7 1 9 1c28.667 0.666992 54 7 76 19s37.833 26.667 47.5 44s12.834 36.5 9.50098 57.5s-14 40.5 -32 58.5zM336.997 228.994c0 9.33301 1.33105 19.332 3.99805 29.999s4.5 18.834 5.5 24.501s-1.16699 13.5 -6.5 23.5s-15 22 -29 36
c-18.667 19.333 -35 31.166 -49 35.499s-39.333 6.16602 -76 5.49902c-21.333 0 -38.666 -0.5 -51.999 -1.5s-25.666 -2.16699 -36.999 -3.5s-19.5 -3 -24.5 -5s-9.33301 -4.66699 -13 -8s-5.16699 -7.16602 -4.5 -11.499s1.33398 -9.5 2.00098 -15.5
c6 -21.333 9 -54.666 9 -99.999v-68h73c53.333 0 99.666 5.66699 138.999 17s59 25 59 41z" />
    <glyph glyph-name="C" unicode="C" horiz-adv-x="430" 
d="M223 707c4.66699 4.66699 20.1689 4.16699 46.502 -1.5s48.166 -12.834 65.499 -21.501s27.833 -21.667 31.5 -39s-1.16602 -30.333 -14.499 -39c-4 -2.66699 -10 -2.33398 -18 0.999023s-16 8.33301 -24 15c-10 9.33301 -21.167 15.333 -33.5 18
s-28.833 2.33398 -49.5 -0.999023c-65.333 -8.66699 -111.166 -37.834 -137.499 -87.501s-31.5 -115.834 -15.5 -198.501c11.333 -57.333 26.333 -100.666 45 -129.999s44 -48.666 76 -57.999c55.333 -16 105.666 16.667 150.999 98
c35.333 64.667 59.666 80.334 72.999 47.001c5.33301 -14.667 -4.5 -41.5 -29.5 -80.5s-52.5 -69.833 -82.5 -92.5c-28.667 -22 -56.334 -33.833 -83.001 -35.5s-55 6.5 -85 24.5c-28 17.333 -49.667 37 -65 59s-29.333 54 -42 96
c-16.667 54.667 -23.834 110.5 -21.501 167.5s13.5 101.167 33.5 132.5c22.667 36 44.334 62.667 65.001 80s43.334 28.333 68.001 33c27.333 4.66699 42.666 9 45.999 13z" />
    <glyph glyph-name="D" unicode="D" horiz-adv-x="424" 
d="M21 694c9.33301 10.667 22.9922 16.001 40.9922 16.001s58 -6 120 -18c18 -3.33301 42.667 -15 74 -35s56.333 -40 75 -60c8.66699 -9.33301 18.834 -28.5 30.501 -57.5s21.834 -59.833 30.501 -92.5c12.667 -49.333 19.834 -84.833 21.501 -106.5
s-1.16602 -45.167 -8.49902 -70.5c-21.333 -79.333 -87 -136 -197 -170c-53.333 -16.667 -90.166 -25.834 -110.499 -27.501s-35.166 3.83301 -44.499 16.5c-7.33301 9.33301 -15.166 105.333 -23.499 288s-14.166 276.667 -17.499 282c-2.66699 4 -3 9.5 -1 16.5
s5.33301 13.167 10 18.5zM224.992 605.001c-26.667 14 -60.668 24.334 -102.001 31.001l-61 10l8 -120c6 -83.333 13.667 -166.833 23 -250.5s16 -127.5 20 -131.5c4.66699 -4.66699 32.334 1 83.001 17c40 12.667 75 32.167 105 58.5s48.667 54.166 56 83.499
c6.66699 28 4.33398 63.5 -6.99902 106.5s-28.833 83.167 -52.5 120.5s-47.834 62.333 -72.501 75z" />
    <glyph glyph-name="E" unicode="E" horiz-adv-x="354" 
d="M17 634c-13.333 58 -8.99707 87.668 13.0029 89.001c4 0.666992 8.33301 0 13 -2c15.333 -6.66699 63.333 -13 144 -19c29.333 -2 51.166 -3.83301 65.499 -5.5s26.166 -4 35.499 -7s15.166 -6.16699 17.499 -9.5s3.5 -8.66602 3.5 -15.999c0 -12 -5 -19.333 -15 -22
c-11.333 -3.33301 -48 -3.66602 -110 -0.999023l-124 5l8 -97v-9c2 -19.333 3.33301 -33.166 4 -41.499s2 -18.5 4 -30.5s3.33301 -19.833 4 -23.5s3.16699 -8.33398 7.5 -14.001s7.66602 -9 9.99902 -10s7.33301 -2.33301 15 -4s14.167 -2.5 19.5 -2.5h27h5
c56.667 0 86 -6.33301 88 -19c1.33301 -6 -1.33398 -14 -8.00098 -24c-8.66699 -13.333 -37 -18.666 -85 -15.999l-72 4v-85c0 -56.667 6.66699 -92.334 20 -107.001s42.333 -18 87 -10c48 8 85.333 15.333 112 22c19.333 5.33301 30.833 6.33301 34.5 3
s4.16699 -14.333 1.5 -33c-1.33301 -10 -2.66602 -17 -3.99902 -21s-3.16602 -7.83301 -5.49902 -11.5s-7.83301 -6.16699 -16.5 -7.5s-17.5 -2.33301 -26.5 -3s-23.833 -1.33398 -44.5 -2.00098c-26 -1.33301 -51 -4.5 -75 -9.5s-40.667 -10.5 -50 -16.5
c-19.333 -12.667 -36.5 -19.334 -51.5 -20.001s-26.167 4.66602 -33.5 15.999c-5.33301 8 -8 96.333 -8 265s-3.33301 267 -10 295z" />
    <glyph glyph-name="F" unicode="F" horiz-adv-x="337" 
d="M15 650c-7.33301 32.667 -6.83105 59.3311 1.50195 79.998s23.833 27.667 46.5 21c20.667 -6.66699 70.667 -12.667 150 -18c49.333 -3.33301 81 -7 95 -11s20 -11 18 -21c-2 -9.33301 -10.833 -15.166 -26.5 -17.499s-49.834 -2.16602 -102.501 0.500977
c-48.667 2 -81.667 2 -99 0s-26.333 -6.66699 -27 -14c-2.66699 -27.333 0.666016 -68.666 9.99902 -123.999l7 -49l89 5c36 2 59.833 2 71.5 0s17.5 -7.33301 17.5 -16c0 -6 -2.16699 -11.333 -6.5 -16s-9.5 -7.66699 -15.5 -9l-156 -20l8 -102
c2.66699 -42.667 7 -81.334 13 -116.001s10.667 -58.167 14 -70.5s4.5 -23.5 3.5 -33.5s-5.83301 -19.667 -14.5 -29c-18.667 -18.667 -34.5 -23 -47.5 -13s-17.833 30.667 -14.5 62c4 32.667 1.33301 116 -8 250s-18.333 221 -27 261z" />
    <glyph glyph-name="G" unicode="G" horiz-adv-x="510" 
d="M107 666c28 28.667 49 46.333 63 53s38 10 72 10c86 0 129 -19.667 129 -59c0 -12.667 -2.33301 -20.334 -7 -23.001s-15.334 -1.66699 -32.001 3c-51.333 12.667 -87.666 18.667 -108.999 18s-42.333 -8.66699 -63 -24c-34 -24 -58.333 -58.333 -73 -103
s-22.334 -107 -23.001 -187c0 -24.667 0.333008 -47.5 1 -68.5s1.5 -37.333 2.5 -49s2.16699 -17.5 3.5 -17.5c4.66699 1.33301 21 -11 49 -37c24 -23.333 44.5 -35.666 61.5 -36.999s45.5 7 85.5 25c75.333 34 111 88.333 107 163c-1.33301 34.667 -5 55 -11 61
s-21.333 4.33301 -46 -5c-11.333 -4 -23 -6.33301 -35 -7s-20.333 0.666016 -25 3.99902c-14.667 8.66699 -17.667 20.334 -9 35.001s22.667 22 42 22c22.667 0 63.334 3 122.001 9c38.667 4 63 5.16699 73 3.5s15 -8.16699 15 -19.5
c0 -6.66699 -2.83301 -13.167 -8.5 -19.5s-12.5 -10.5 -20.5 -12.5c-19.333 -4.66699 -29 -19.667 -29 -45c0 -26.667 -13.667 -66 -41 -118s-52.666 -86.333 -75.999 -103c-10 -7.33301 -25.5 -14.833 -46.5 -22.5s-40.5 -13.167 -58.5 -16.5
c-30 -6 -51.667 -7.83301 -65 -5.5s-30.333 10.5 -51 24.5c-30.667 21.333 -53.334 51.333 -68.001 90s-23 89.667 -25 153c-2.66699 70.667 3.5 129.5 18.5 176.5s40.833 89.833 77.5 128.5z" />
    <glyph glyph-name="H" unicode="H" horiz-adv-x="423" 
d="M317 704l35.001 8.99805c5.33301 0.666992 9.83301 -2.5 13.5 -9.5s5.33398 -14.833 5.00098 -23.5s-2.16602 -16.667 -5.49902 -24c-8 -12 -9.5 -47 -4.5 -105s11.833 -88.333 20.5 -91c4.66699 -2 8.16699 -9.16699 10.5 -21.5s2.66602 -24.166 0.999023 -35.499
s-5.16699 -17 -10.5 -17c-3.33301 0 -5.33301 -8.16699 -6 -24.5s0.333008 -34.833 3 -55.5s6.33398 -37 11.001 -49c11.333 -27.333 18.666 -67.666 21.999 -120.999c1.33301 -24.667 0.333008 -40.667 -3 -48s-11.333 -12 -24 -14c-14.667 -2 -24.667 3.33301 -30 16
c-7.33301 18 -16.333 81.667 -27 191c-2 23.333 -3.66699 40.166 -5 50.499s-3 20.166 -5 29.499s-4.66699 15.333 -8 18s-7 4.66699 -11 6s-10 2 -18 2c-40.667 2 -90.334 -0.666992 -149.001 -8c-27.333 -4 -45.166 -8 -53.499 -12s-11.166 -11 -8.49902 -21
c4.66699 -17.333 8.83398 -41.166 12.501 -71.499s8.16699 -52.666 13.5 -66.999s14.666 -23.166 27.999 -26.499c10.667 -2.66699 18.5 -12.334 23.5 -29.001s5.83301 -34.5 2.5 -53.5s-10 -32.833 -20 -41.5c-36 -29.333 -62.333 -3.33301 -79 78
c-10 46.667 -17 111.334 -21 194.001c-3.33301 67.333 -8 142.333 -14 225c-4.66699 56 -6.33398 91.667 -5.00098 107s8 25.333 20 30c16.667 6.66699 29 3.66699 37 -9s9.33301 -30.334 4 -53.001c-6.66699 -24 -10.667 -60 -12 -108
c-0.666992 -34.667 1.16602 -55.667 5.49902 -63s19.166 -14.333 44.499 -21c34 -8.66699 78.333 -9.33398 133 -2.00098l82 11l-9 73c-2.66699 24 -6.66699 53 -12 87c-7.33301 50.667 -9 79.667 -5 87c2.66699 4.66699 8.66699 8.33398 18 11.001z" />
    <glyph glyph-name="I" unicode="I" horiz-adv-x="87" 
d="M20 706c10.667 10 18.334 2.33691 23.001 -22.9961c6 -30.667 11 -108.334 15 -233.001c5.33301 -162 10.666 -259.667 15.999 -293c4.66699 -28.667 3 -50.834 -5 -66.501s-20 -20.5 -36 -14.5c-10 3.33301 -16.333 23.166 -19 59.499s-4 121.166 -4 254.499
c0 204 3.33301 309.333 10 316z" />
    <glyph glyph-name="J" unicode="J" horiz-adv-x="457" 
d="M317 699c76 16 118.338 16.665 127.005 1.99805c4.66699 -7.33301 3 -15 -5 -23s-20.167 -14.167 -36.5 -18.5s-33.5 -5.83301 -51.5 -4.5c-16 1.33301 -28.667 1 -38 -1s-17.333 -7.5 -24 -16.5s-11 -20.5 -13 -34.5s-2.33301 -35.167 -1 -63.5
s4.16602 -59.666 8.49902 -93.999s10.5 -79.166 18.5 -134.499c4.66699 -34.667 0.166992 -70.5 -13.5 -107.5s-32.834 -64.833 -57.501 -83.5l-47 -36l-56 29c-39.333 20 -67.333 41 -84 63s-27 51.333 -31 88c-3.33301 26 -3.83301 43.833 -1.5 53.5s8.5 16.5 18.5 20.5
c16 6 28.167 2.33301 36.5 -11s10.166 -32 5.49902 -56c-4 -20.667 1.33301 -39.334 16 -56.001s36.667 -28.667 66 -36c15.333 -4 26.666 -3.33301 33.999 2s16.666 19.666 27.999 42.999c17.333 36.667 27 59.667 29 69s-0.666992 51.833 -8 127.5
s-14.333 132.167 -21 169.5l-9 57l-85 -8c-33.333 -2.66699 -56.5 -3.16699 -69.5 -1.5s-21.167 6.83398 -24.5 15.501c-6 16 -3 26 9 30c13.333 4.66699 50.333 6.33398 111 5.00098c74.667 -0.666992 131 3 169 11z" />
    <glyph glyph-name="K" unicode="K" horiz-adv-x="434" 
d="M10 706c1.33301 7.33301 7.83105 8.83789 19.498 4.50488s19.834 -48.833 24.501 -133.5c3.33301 -50.667 7 -84.834 11 -102.501s10.333 -27.167 19 -28.5c12.667 -2.66699 44.5 19.5 95.5 66.5s86.833 86.5 107.5 118.5c16.667 26 32 36.333 46 31
c22.667 -8.66699 24.667 -26.334 6 -53.001c-15.333 -22 -48.666 -57.333 -99.999 -106l-115 -107l98 -87c76.667 -68.667 130 -119.334 160 -152.001s44 -55.334 42 -68.001c-4.66699 -23.333 -18.334 -30 -41.001 -20c-18.667 8 -37 25.333 -55 52
c-19.333 28.667 -62.333 72.834 -129 132.501s-106.334 89.5 -119.001 89.5c-5.33301 0 -8.66602 -17.667 -9.99902 -53s-1.66602 -76.166 -0.999023 -122.499s0.666992 -72.5 0 -78.5c0 -6 -4.83301 -10.833 -14.5 -14.5s-19.167 -4.83398 -28.5 -3.50098
s-14.333 4.66602 -15 9.99902c0 16.667 -0.166992 123.667 -0.5 321s-0.5 298.666 -0.5 303.999z" />
    <glyph glyph-name="L" unicode="L" horiz-adv-x="371" 
d="M15.5 675c3.66699 7.33301 12.5 10.999 26.5 10.999c7.33301 0 12.666 -5.66699 15.999 -17s5.33301 -30.666 6 -57.999c1.33301 -88.667 5.83301 -184.334 13.5 -287.001s14.167 -157 19.5 -163c3.33301 -2.66699 18.666 -5 45.999 -7s58.333 -3 93 -3
c71.333 1.33301 111 -1 119 -7c4.66699 -3.33301 6.33398 -10.333 5.00098 -21c-1.33301 -7.33301 -3.16602 -12.833 -5.49902 -16.5s-8.33301 -6.66699 -18 -9s-21.667 -3.83301 -36 -4.5s-36.5 -1 -66.5 -1c-80.667 -0.666992 -129.667 -4.66699 -147 -12
s-35.333 -2.66602 -54 14.001c-12 10.667 -19.167 21 -21.5 31s-1.5 25 2.5 45c6.66699 36 10.667 100.5 12 193.5s-1 164.833 -7 215.5c-6 56.667 -7.16699 88.667 -3.5 96z" />
    <glyph glyph-name="M" unicode="M" horiz-adv-x="585" 
d="M136 671c0 -10 10.667 -29.4941 32 -58.4941s42.833 -56.833 64.5 -83.5s32.5 -42 32.5 -46c0 -14.667 8.66699 -17.667 26 -9c16 8.66699 30.333 23 43 43c19.333 31.333 38.333 57 57 77c39.333 43.333 59 82.333 59 117c0 8 1.83301 15.5 5.5 22.5
s8.16699 11.833 13.5 14.5c8.66699 3.33301 15.667 5.33301 21 6s10.333 -0.333008 15 -3s8.33398 -7 11.001 -13s5 -15.167 7 -27.5s3.5 -26.166 4.5 -41.499s2.16699 -35.333 3.5 -60c6 -154.667 11.5 -265.334 16.5 -332.001s11.167 -110.334 18.5 -131.001
c10.667 -30.667 13 -58 7 -82c-4.66699 -18 -13.5 -29.333 -26.5 -34s-23.5 -0.333984 -31.5 12.999c-4 6 -7.66699 42.167 -11 108.5l-11 226.5c-4 84.667 -8 144 -12 178l-9 78l-67 -90c-18.667 -24.667 -35.5 -49.834 -50.5 -75.501s-23.5 -44.167 -25.5 -55.5
c-8.66699 -40 -25 -51.667 -49 -35c-15.333 10.667 -31.333 32.334 -48 65.001c-17.333 33.333 -40 66.666 -68 99.999c-27.333 32 -46 43.667 -56 35c-13.333 -12 -21 -74.667 -23 -188c-0.666992 -18.667 -1 -39.667 -1 -63
c-2.66699 -153.333 -6.33398 -232.333 -11.001 -237s-14 -4.33398 -28 0.999023c-8 3.33301 -13.5 21.5 -16.5 54.5s-4.83301 99.833 -5.5 200.5c-0.666992 164.667 -4 261.667 -10 291c-3.33301 20 -3.16602 33.167 0.500977 39.5s15.5 13.166 35.5 20.499
c27.333 9.33301 48.666 11.666 63.999 6.99902s23 -15.667 23 -33z" />
    <glyph glyph-name="N" unicode="N" horiz-adv-x="477" 
d="M412 619c4 32.667 8.16699 54.333 12.5 65s10.833 15 19.5 13c5.33301 -1.33301 9.66602 -3 12.999 -5s5.83301 -6 7.5 -12s2.5 -13.167 2.5 -21.5s-0.833008 -20.666 -2.5 -36.999s-4 -34 -7 -53l-12.5 -75.5c-16 -95.333 -27 -186.333 -33 -273
c-3.33301 -37.333 -6.66602 -67.666 -9.99902 -90.999s-7.83301 -41.166 -13.5 -53.499s-11.834 -18.5 -18.501 -18.5s-15.334 6.16699 -26.001 18.5s-22.334 30.166 -35.001 53.499s-28 53.666 -46 90.999c-54.667 114 -107 208.333 -157 283c-19.333 28 -30 39 -32 33
c-0.666992 -10 0 -64.667 2 -164c0.666992 -56.667 2.83398 -96.834 6.50098 -120.501s9.5 -38.5 17.5 -44.5c10 -7.33301 16.167 -23.833 18.5 -49.5s0.333008 -50.167 -6 -73.5s-14.833 -36.333 -25.5 -39c-10.667 -2 -19.167 0.666992 -25.5 8s-11.833 22.5 -16.5 45.5
s-8.5 53 -11.5 90s-5.5 87.167 -7.5 150.5c-6 150 -10.833 239.333 -14.5 268s-0.666992 48.667 9 60s23.834 11.333 42.501 0c6.66699 -4.66699 12.834 -10.167 18.501 -16.5s8.5 -11.5 8.5 -15.5c0 -6 12.5 -30.5 37.5 -73.5l90 -154
c35 -59.667 60.5 -106.167 76.5 -139.5c11.333 -22.667 22 -42 32 -58s16.667 -24 20 -24c4.66699 0 13.667 43 27 129s26.333 187.333 39 304z" />
    <glyph glyph-name="O" unicode="O" horiz-adv-x="418" 
d="M183 697c36.667 9.33301 57.333 14.665 62 15.998c7.33301 1.33301 29.5 -17.5 66.5 -56.5s61.167 -69.167 72.5 -90.5c16 -30 24 -90 24 -180c0.666992 -73.333 -5.83301 -130.166 -19.5 -170.499s-38.167 -77.166 -73.5 -110.499
c-38.667 -35.333 -81.667 -52.5 -129 -51.5s-83.666 20.167 -108.999 57.5c-24.667 36 -42.667 78.5 -54 127.5s-15.333 97.833 -12 146.5s11.666 95 24.999 139s33 81.667 59 113s55.333 51.333 88 60zM254.999 616.999c-8.66699 26 -28.668 32.668 -60.001 20.001
c-34 -13.333 -63 -41.333 -87 -84c-1.33301 -2.66699 -3 -5.66699 -5 -9c-24.667 -48.667 -38 -104.167 -40 -166.5s7.33301 -118 28 -167s48.667 -80.167 84 -93.5c24.667 -10 48.167 -9.33301 70.5 2s46.166 34.666 71.499 69.999c22 30 34.833 53.5 38.5 70.5
s4.16699 58.167 1.5 123.5c-2 46.667 -4.16699 78.667 -6.5 96s-6.16602 30.833 -11.499 40.5s-15.666 21.167 -30.999 34.5c-12.667 10.667 -24.167 22.167 -34.5 34.5s-16.5 21.833 -18.5 28.5z" />
    <glyph glyph-name="P" unicode="P" horiz-adv-x="356" 
d="M12 677c5.33301 13.333 18.6689 20.501 40.002 21.501s62.666 -3.83301 123.999 -14.5c63.333 -11.333 108.833 -29.333 136.5 -54s38.167 -57 31.5 -97c-6 -38 -20.667 -67.333 -44 -88s-61.666 -38 -114.999 -52l-94 -26l8 -101c10 -112.667 11.333 -176 4 -190
c-4.66699 -9.33301 -15.334 -8.33301 -32.001 3c-8 5.33301 -13.833 24.833 -17.5 58.5s-7.16699 94.5 -10.5 182.5c-1.33301 62 -4.33301 120.667 -9 176s-9.33398 90.333 -14.001 105c-11.333 35.333 -14 60.666 -8 75.999zM248.003 606.001
c-9.33301 6 -23.834 12.165 -43.501 18.498s-38.5 10.5 -56.5 12.5c-30 4 -48.667 4.66699 -56 2s-12.666 -11.667 -15.999 -27c-5.33301 -22 -5 -57 1 -105c2 -12 3.16699 -20.667 3.5 -26s2 -11.5 5 -18.5s5 -11.5 6 -13.5s4.5 -4.16699 10.5 -6.5
s10.667 -3.16602 14 -2.49902s10.666 1.83398 21.999 3.50098s21 3.5 29 5.5l39 10c48 12.667 76.333 34.167 85 64.5s-5.66602 57.833 -42.999 82.5z" />
    <glyph glyph-name="Q" unicode="Q" horiz-adv-x="587" 
d="M241 686c2.66699 4 12.334 7.33301 29.001 10s36 4 58 4c33.333 0 56 -2 68 -6s22.667 -13.667 32 -29c6 -9.33301 14.167 -18.5 24.5 -27.5s19.5 -14.5 27.5 -16.5c8.66699 -2.66699 18.834 -12.5 30.501 -29.5s22.834 -37.5 33.501 -61.5
c24 -53.333 35 -113.166 33 -179.499s-16 -116.833 -42 -151.5c-16.667 -22.667 -25.334 -38.167 -26.001 -46.5s5.16602 -24 17.499 -47s18 -44 17 -63s-8.5 -28.5 -22.5 -28.5c-5.33301 0 -12.666 6.83301 -21.999 20.5s-18.666 29.5 -27.999 47.5
s-14.666 27.667 -15.999 29c-0.666992 2 -7.16699 -0.166992 -19.5 -6.5s-27.666 -14.666 -45.999 -24.999s-40.333 -19 -66 -26s-51.834 -11.167 -78.501 -12.5s-55.5 4.66699 -86.5 18s-59.833 34.666 -86.5 63.999c-34.667 37.333 -54.834 97.166 -60.501 179.499
s4.83301 160.166 31.5 233.499c11.333 30.667 34.666 60.834 69.999 90.501s65.666 44.5 90.999 44.5c19.333 0 31.666 5 36.999 15zM255 594c16.667 24.667 23.335 38.3359 20.002 41.0029c-4.66699 4.66699 -27.834 -2.5 -69.501 -21.5s-69.834 -34.833 -84.501 -47.5
c-28 -25.333 -46.333 -74.833 -55 -148.5s-3.66699 -139.167 15 -196.5c14 -43.333 38.667 -76.666 74 -99.999s75.333 -33.166 120 -29.499s86.667 20.5 126 50.5c14.667 11.333 22.334 20.166 23.001 26.499s-4 19.5 -14 39.5c-6 12 -12.833 23 -20.5 33
s-14.667 17.667 -21 23s-12.166 10.5 -17.499 15.5s-9.33301 9.33301 -12 13s-3.83398 8 -3.50098 13s2.5 10.833 6.5 17.5c14 22.667 26.5 31.167 37.5 25.5s26.167 -28.5 45.5 -68.5c10.667 -22 21 -40.833 31 -56.5s16.667 -23.5 20 -23.5s8.66602 6.33301 15.999 19
s14.333 28 21 46c10.667 27.333 16.667 50.166 18 68.499s-1.33398 45.166 -8.00098 80.499c-4.66699 25.333 -9.66699 46.166 -15 62.499s-9.33301 27.166 -12 32.499s-8.66699 13.833 -18 25.5s-15.666 20.167 -18.999 25.5c-12 17.333 -35.5 27.833 -70.5 31.5
s-65.167 -0.833008 -90.5 -13.5c-37.333 -20 -56.333 -24.667 -57 -14c-0.666992 5.33301 4 15.333 14 30z" />
    <glyph glyph-name="R" unicode="R" horiz-adv-x="370" 
d="M13 683c5.33301 8 37.832 12.333 97.499 13s96.834 -2.66602 111.501 -9.99902c18.667 -10 33.334 -30.833 44.001 -62.5s13.667 -63.834 9 -96.501c-4.66699 -34 -19.667 -66 -45 -96s-50.333 -45 -75 -45c-22 0 -33 -3 -33 -9c0 -8 32.5 -48 97.5 -120
s101.833 -109.333 110.5 -112c13.333 -3.33301 22.333 -13.333 27 -30s4.16699 -32.834 -1.5 -48.501s-14.834 -23.5 -27.501 -23.5c-6 0 -12 2.5 -18 7.5s-10.333 11.167 -13 18.5c-6 16 -26.667 46 -62 90s-70.5 83.667 -105.5 119s-54.833 50.666 -59.5 45.999
c-3.33301 -3.33301 -3.16602 -20.333 0.500977 -51s8.16699 -66.5 13.5 -107.5s8 -70.833 8 -89.5c0 -36.667 -7.66699 -56.667 -23 -60c-13.333 -2.66699 -24.333 8.33301 -33 33c-3.33301 8.66699 -6 19 -8 31c-4 26.667 -6.33301 54.834 -7 84.501
s-0.666992 105.834 0 228.501c1.33301 166.667 -1.33398 255.667 -8.00098 267c-4.66699 7.33301 -4.66699 15 0 23zM213.999 626c-12 17.333 -25.668 26.9971 -41.001 28.9971s-38.666 -3 -69.999 -15c-8.66699 -3.33301 -15 -6.16602 -19 -8.49902
s-7.66699 -5.16602 -11 -8.49902s-5.33301 -9.5 -6 -18.5s-1 -18.167 -1 -27.5s0.666992 -24.666 2 -45.999l4 -95l50 2c22.667 1.33301 43 8.33301 61 21s31.333 28 40 46s12.5 38 11.5 60s-7.83301 42.333 -20.5 61z" />
    <glyph glyph-name="S" unicode="S" horiz-adv-x="433" 
d="M154 671c26 15.333 49.8311 23.502 71.498 24.502s49.167 -5.5 82.5 -19.5c26.667 -10.667 52.5 -31 77.5 -61s37.5 -55.333 37.5 -76c0 -19.333 -8.66699 -27.333 -26 -24c-22 3.33301 -41.667 19.333 -59 48c-16 26 -36.5 44 -61.5 54s-48.833 12.167 -71.5 6.5
s-42 -19 -58 -40s-24 -46.5 -24 -76.5c0 -31.333 8.16699 -55.5 24.5 -72.5s50.833 -37.833 103.5 -62.5c28 -12.667 54.167 -26.834 78.5 -42.501s39.5 -28.5 45.5 -38.5c15.333 -23.333 20.333 -55 15 -95s-18.333 -68.333 -39 -85
c-36.667 -29.333 -83.5 -40.666 -140.5 -33.999s-107.833 29.334 -152.5 68.001c-28.667 25.333 -44.5 45.166 -47.5 59.499s5.83301 27.166 26.5 38.499c12 6.66699 20.5 8.66699 25.5 6s10.5 -11.334 16.5 -26.001c10.667 -28 32.167 -50.833 64.5 -68.5
s64.833 -24.5 97.5 -20.5c34.667 4 59.334 12.167 74.001 24.5s22 30.833 22 55.5c0 13.333 -1.16699 23.833 -3.5 31.5s-9.16602 16.167 -20.499 25.5s-25.333 18.5 -42 27.5s-42.334 21.833 -77.001 38.5c-53.333 25.333 -88.166 48.833 -104.499 70.5
s-24.5 55.5 -24.5 101.5c0 32.667 8.16699 63.667 24.5 93s37.833 52.333 64.5 69z" />
    <glyph glyph-name="T" unicode="T" horiz-adv-x="436" 
d="M16 674c2.66699 7.33301 19.165 12.666 49.498 15.999s83.5 5.66602 159.5 6.99902l201 4l-5 -32c-1.33301 -7.33301 -2.66602 -12.833 -3.99902 -16.5s-3.83301 -6.66699 -7.5 -9s-7.5 -3.66602 -11.5 -3.99902s-10 -0.166016 -18 0.500977s-16 1.5 -24 2.5
s-19 2.16699 -33 3.5s-28.333 2.33301 -43 3l-35 1l2 -164c1.33301 -74 6.33301 -196.667 15 -368c2.66699 -42 0.333984 -65.667 -6.99902 -71c-3.33301 -2.66699 -9.33301 -4 -18 -4c-12 0 -19 1.33301 -21 4c-6.66699 8.66699 -10.667 58 -12 148
c0 8 -0.333008 55 -1 141c-2 141.333 -7.33301 227.333 -16 258c-8 26.667 -23 42 -45 46c-11.333 2 -30 1.66699 -56 -1c-38 -4 -61 -4 -69 0s-8.33301 15.667 -1 35z" />
    <glyph glyph-name="U" unicode="U" horiz-adv-x="455" 
d="M22 645c4.66699 8 14.001 11.999 28.001 11.999c8.66699 0 14 -13.833 16 -41.5s2 -89.167 0 -184.5c-1.33301 -48.667 -1.16602 -90.834 0.500977 -126.501s3.5 -64.667 5.5 -87s6.5 -41.166 13.5 -56.499s15.167 -27.166 24.5 -35.499s21.666 -16.5 36.999 -24.5
c18.667 -8.66699 33 -12.667 43 -12s25.667 6.66699 47 18c12.667 7.33301 25.667 16.5 39 27.5s22.666 20.5 27.999 28.5c14 22 31.333 73.667 52 155s33.334 149 38.001 203c4 38 8 63 12 75s10.667 17 20 15c14 -2.66699 20.167 -19.167 18.5 -49.5
s-12.5 -92.833 -32.5 -187.5c-20.667 -100.667 -45.167 -177 -73.5 -229s-63.833 -86.333 -106.5 -103c-88.667 -34 -155 -2.33301 -199 95c-10.667 23.333 -17.334 52 -20.001 86s-3.33398 97.333 -2.00098 190c2.66699 146.667 6.33398 224 11.001 232z" />
    <glyph glyph-name="V" unicode="V" horiz-adv-x="436" 
d="M14 647c14 24 29 24.6699 45 2.00293c8.66699 -12 16 -29.667 22 -53c24 -95.333 55 -196 93 -302c20 -54 33.333 -81 40 -81c3.33301 -0.666992 6.66602 2.66602 9.99902 9.99902c12.667 24.667 33.667 74.334 63 149.001s50.333 131.667 63 171
c12.667 41.333 24 70.666 34 87.999s20 26 30 26c5.33301 0 9 -4.5 11 -13.5s2 -20.333 0 -34s-5.66699 -27.167 -11 -40.5l-38 -98l-51 -122.5c-30 -71.667 -53 -131.834 -69 -180.501c-9.33301 -26.667 -18.166 -49.5 -26.499 -68.5s-13.833 -28.5 -16.5 -28.5
c-9.33301 0 -19.833 9 -31.5 27s-20.167 38.667 -25.5 62c-20 82.667 -43.5 168.667 -70.5 258s-46.167 143.333 -57.5 162c-18 29.333 -22.667 51.666 -14 66.999z" />
    <glyph glyph-name="W" unicode="W" horiz-adv-x="653" 
d="M13 643c11.333 18.667 23.667 20.6641 37 5.99707c12.667 -13.333 19.667 -34.333 21 -63c0.666992 -24 10 -94.667 28 -212l26 -177l34 77c22 50.667 47.667 118 77 202c30 84 54.333 126 73 126c13.333 0 26 -20.667 38 -62c7.33301 -24 20.666 -58.333 39.999 -103
l52 -118c15.333 -34 23 -53.333 23 -58c0 -7.33301 8.66699 -22.333 26 -45l26 -33l18 105c9.33301 49.333 19.166 95.5 29.499 138.5s18.166 86.5 23.499 130.5c2.66699 24.667 5.16699 43.334 7.5 56.001s5.33301 22.334 9 29.001s7.83398 9.66699 12.501 9
s11.167 -3.5 19.5 -8.5s10.5 -23.167 6.5 -54.5s-17 -97.333 -39 -198c-35.333 -160 -53 -255.167 -53 -285.5s-4.66699 -48.5 -14 -54.5c-11.333 -7.33301 -26.166 -7 -44.499 1s-27.5 18 -27.5 30c0 24.667 -23.833 98.334 -71.5 221.001s-76.167 184 -85.5 184
c-10 0 -34.833 -51 -74.5 -153s-60.5 -168.667 -62.5 -200c-2 -36 -7.33301 -60.833 -16 -74.5s-21 -17.5 -37 -11.5c-9.33301 4 -17.333 22.667 -24 56s-14.334 92 -23.001 176c-5.33301 52 -13.166 109.833 -23.499 173.5s-19.166 107.167 -26.499 130.5
c-9.33301 30.667 -11 50.667 -5 60z" />
    <glyph glyph-name="X" unicode="X" horiz-adv-x="501" 
d="M45 691c14 13.333 27 13.999 39 1.99902s21.667 -35.333 29 -70c2 -8 15.667 -40.667 41 -98s38 -89.333 38 -96c0 -8 6.33301 -17 19 -27c7.33301 -5.33301 18.333 -1.33301 33 12s38.667 41 72 83c57.333 73.333 93.833 125.333 109.5 156s30.834 43.334 45.501 38.001
c32 -12 27.333 -43.667 -14 -95l-191 -242c-10.667 -16.667 -13.334 -34.834 -8.00098 -54.501s15.5 -42.667 30.5 -69s30.5 -50.833 46.5 -73.5s29.167 -45.5 39.5 -68.5s13.833 -41.167 10.5 -54.5c-8 -32.667 -19.667 -42.334 -35 -29.001c-16 14 -43.667 62 -83 144
l-62 127l-46 -65l-36.5 -56l-28 -44.5c-6.33301 -10.333 -12.833 -20.166 -19.5 -29.499s-12.667 -15.5 -18 -18.5s-11.333 -3.83301 -18 -2.5c-15.333 2.66699 -24.666 11.834 -27.999 27.501s1 29.834 13 42.501c13.333 13.333 43 50.333 89 111l69 92l-26 79
c-7.33301 21.333 -15.666 42.5 -24.999 63.5s-18.333 39.333 -27 55l-26 46l-22 39c-6 11 -10.833 21.333 -14.5 31s-5.33398 18.167 -5.00098 25.5s3.16602 13.666 8.49902 18.999z" />
    <glyph glyph-name="Y" unicode="Y" horiz-adv-x="376" 
d="M10 644c0 3.33301 2.66992 6.33398 8.00293 9.00098s11.666 4 18.999 4c12 0 25.167 -9.83301 39.5 -29.5s32.5 -47.334 54.5 -83.001s42.333 -64.5 61 -86.5l42 -49l32 106c20.667 70.667 33 112 37 124c1.33301 5.33301 5.33301 9.66602 12 12.999s14 5 22 5
c17.333 0 26.833 -7.66699 28.5 -23s-4.83301 -31.333 -19.5 -48c-14.667 -16 -33.5 -63.333 -56.5 -142s-42.5 -162.334 -58.5 -251.001c-18 -97.333 -34.667 -149.666 -50 -156.999c-4.66699 -2.66699 -10.334 -2 -17.001 2c-7.33301 4.66699 -10.833 19.334 -10.5 44.001
s4.83301 45 13.5 61c9.33301 18 19 51.333 29 100c8.66699 44 6.66699 82.167 -6 114.5s-47.334 87.833 -104.001 166.5c-50.667 70.667 -76 110.667 -76 120z" />
    <glyph glyph-name="Z" unicode="Z" horiz-adv-x="505" 
d="M53 637c6 7.33301 14.665 11.666 25.998 12.999s28 0 50 -4c39.333 -6.66699 110.333 -9.33398 213 -8.00098c85.333 1.33301 133 -0.666992 143 -6c6.66699 -3.33301 10 -11.333 10 -24c0 -8.66699 -2.66699 -17.5 -8 -26.5s-11.666 -15.167 -18.999 -18.5
c-13.333 -6.66699 -73.833 -77.667 -181.5 -213s-165.5 -213 -173.5 -233c-1.33301 -4.66699 -0.666016 -8.16699 2.00098 -10.5s10.667 -4 24 -5s30.833 -1.16699 52.5 -0.5s53.5 2 95.5 4l181 9l-4 -32c-1.33301 -8 -3 -14 -5 -18s-6.16699 -7 -12.5 -9
s-13.5 -2.83301 -21.5 -2.5s-20.167 0.5 -36.5 0.5s-34 0.166992 -53 0.5s-44.333 -0.333984 -76 -2.00098s-64.834 -4.16699 -99.501 -7.5c-43.333 -6 -76 -8.16699 -98 -6.5s-36.167 5.66699 -42.5 12s-9.5 18.833 -9.5 37.5c0 6.66699 9.83301 22.667 29.5 48
s43.5 52.666 71.5 81.999c50.667 52.667 108 118.834 172 198.501s99.667 129.167 107 148.5c2 4.66699 1.83301 8.33398 -0.5 11.001s-8.5 5 -18.5 7s-23.167 3.33301 -39.5 4s-38.833 1.33398 -67.5 2.00098c-89.333 1.33301 -143.833 2.83301 -163.5 4.5
s-34.834 5.83398 -45.501 12.501c-7.33301 4.66699 -11.166 9.16699 -11.499 13.5s2.83398 10.5 9.50098 18.5z" />
    <glyph glyph-name="bracketleft" unicode="[" horiz-adv-x="26" 
d="M10 343c0 197.333 0.666016 292.669 1.99902 286.002c0.666992 -2 1.33398 -20 2.00098 -54c3.33301 -154.667 3.33301 -309.334 0 -464.001l-2 -51c-1.33301 23.333 -2 117.666 -2 282.999z" />
    <glyph glyph-name="backslash" unicode="\" horiz-adv-x="187" 
d="M17 524c-11.333 14.667 -10.668 27.666 1.99902 38.999c10.667 10 21 10.667 31 2l6 -6c2.66699 -5.33301 10.334 -38.5 23.001 -99.5l42 -199.5c15.333 -72 27.666 -121 36.999 -147c15.333 -45.333 20.666 -71.333 15.999 -78c-2.66699 -4 -10.667 -6 -24 -6
c-12.667 0 -21 3 -25 9c-6.66699 10.667 -19 66 -37 166c-1.33301 10.667 -2.33301 16.334 -3 17.001c-19.333 108.667 -33.666 184.167 -42.999 226.5s-17.666 67.833 -24.999 76.5z" />
    <glyph glyph-name="bracketright" unicode="]" horiz-adv-x="30" 
d="M13 100c0 134 0.999023 197.002 2.99902 189.002c0.666992 -2.66699 1.33398 -14.334 2.00098 -35.001c3.33301 -102.667 3.33301 -205.334 0 -308.001l-3 -34c-1.33301 13.333 -2 76 -2 188zM9.99902 507.002c0 21.333 1.66602 31.001 4.99902 29.001
c0.666992 -0.666992 1.33398 -2 2.00098 -4c5.33301 -12.667 5.33301 -27.334 0 -44.001c-2.66699 -9.33301 -4.66699 -8.33301 -6 3c-0.666992 4 -1 9.33301 -1 16zM10.998 686.003c0 54 1.33203 79.001 3.99902 75.001c0.666992 -1.33301 1.33398 -6.33301 2.00098 -15
c4 -40 4 -80.333 0 -121c-2 -21.333 -3.66699 -20.333 -5 3c-0.666992 13.333 -1 32.666 -1 57.999z" />
    <glyph glyph-name="a" unicode="a" horiz-adv-x="468" 
d="M202 597c24.667 8 56.6719 13 96.0049 15s70.666 -0.333008 93.999 -7c13.333 -3.33301 21.666 -10 24.999 -20c4.66699 -13.333 7 -62.333 7 -147c0 -43.333 1.33301 -85 4 -125s5.66699 -73.167 9 -99.5s6.83301 -51.166 10.5 -74.499l8.5 -55
c2 -13.333 2.66699 -25.166 2 -35.499s-3.33398 -17.833 -8.00098 -22.5s-12 -7.66699 -22 -9c-14.667 -2 -23.834 1.5 -27.501 10.5s-6.5 34.167 -8.5 75.5l-4 90l-29 -47c-15.333 -25.333 -36.5 -46.5 -63.5 -63.5s-52.833 -25.5 -77.5 -25.5
c-8 0 -20.5 3.16699 -37.5 9.5s-33.167 13.833 -48.5 22.5c-58 33.333 -95.833 85.666 -113.5 156.999s-9.83398 140.333 23.499 207c19.333 38 41.5 68.167 66.5 90.5s56.167 40.166 93.5 53.499zM367.005 427l-0.00195312 129.999l-46 -1
c-67.333 -0.666992 -123.166 -18 -167.499 -52s-73.5 -81.667 -87.5 -143c-6.66699 -26.667 -7.66699 -52.167 -3 -76.5s12.334 -47.333 23.001 -69s24.5 -40.167 41.5 -55.5s34.833 -27 53.5 -35s38.5 -10.667 59.5 -8s40.167 11 57.5 25
c24 18.667 41.5 50.834 52.5 96.501s16.5 108.5 16.5 188.5z" />
    <glyph glyph-name="b" unicode="b" horiz-adv-x="353" 
d="M21 645c20 13.333 32.999 13.665 38.999 0.998047c6 -13.333 9 -55 9 -125c0 -91.333 2.33301 -139.333 7 -144c2.66699 -2.66699 16.834 3.83301 42.501 19.5l79 49c27 17 42.167 25.5 45.5 25.5c6.66699 0 23.334 -13.667 50.001 -41c26 -26.667 42 -60 48 -100
s0.666992 -75.667 -16 -107c-14 -26 -36.667 -50.667 -68 -74s-57.333 -35.333 -78 -36c-18.667 0 -34.667 -4.66699 -48 -14s-21.333 -21.333 -24 -36c-2.66699 -19.333 -8.83398 -31.666 -18.501 -36.999s-21.334 -3.16602 -35.001 6.50098s-21.334 29.5 -23.001 59.5
s-2.5 84.167 -2.5 162.5s-3.66699 157.5 -11 237.5c-5.33301 54 -7.66602 92 -6.99902 114s4.33398 35 11.001 39zM293.999 295.999c3.33301 16.667 3.5 30.666 0.5 41.999s-10.833 24 -23.5 38c-14 15.333 -25.333 24.333 -34 27s-20.334 1.33398 -35.001 -3.99902
c-42 -17.333 -72.667 -44 -92 -80s-24.333 -75.667 -15 -119c6 -24.667 15.833 -38 29.5 -40s39.167 6.33301 76.5 25c32.667 17.333 54.834 32.833 66.501 46.5s20.5 35.167 26.5 64.5z" />
    <glyph glyph-name="c" unicode="c" horiz-adv-x="435" 
d="M104 575c29.333 27.333 65.1719 41.3291 107.505 41.9961s82.5 -12 120.5 -38c30 -20.667 47 -35.667 51 -45s-2 -20.333 -18 -33c-8.66699 -7.33301 -17.334 -9.66602 -26.001 -6.99902s-21.667 11.334 -39 26.001c-36 30 -73.333 41.5 -112 34.5
s-70.334 -31.5 -95.001 -73.5c-10.667 -16.667 -18 -36.5 -22 -59.5s-6 -55.5 -6 -97.5c0 -40 1 -67.333 3 -82s5.83301 -26.667 11.5 -36s16.5 -21.666 32.5 -36.999c35.333 -31.333 69.166 -45.166 101.499 -41.499s68.5 25.5 108.5 65.5c18.667 18 33.5 31.667 44.5 41
s20.333 15.666 28 18.999s13.667 3.5 18 0.5s8.16602 -8.83301 11.499 -17.5c4.66699 -11.333 -9.33301 -33.5 -42 -66.5s-66.334 -59.5 -101.001 -79.5c-38 -22 -81.167 -23.5 -129.5 -4.5s-86.5 52.5 -114.5 100.5c-10.667 18.667 -18 38.334 -22 59.001
s-5.66699 48.667 -5 84c2.66699 107.333 34 189.333 94 246z" />
    <glyph glyph-name="d" unicode="d" horiz-adv-x="434" 
d="M277 591c5.33301 14 13.4971 20.335 24.4971 19.002s20.5 -10 28.5 -26c4.66699 -8.66699 12 -40 22 -94l34.5 -190.5c13 -73 23.167 -126.5 30.5 -160.5c8 -37.333 9 -63.833 3 -79.5s-19 -19.834 -39 -12.501c-15.333 6 -23 29 -23 69v60l-64 -59
c-41.333 -38 -78.166 -58.167 -110.499 -60.5s-66.5 12.167 -102.5 43.5c-34.667 30 -56.667 66.833 -66 110.5s-5.66602 92.167 11.001 145.5c10 32 20.167 54.667 30.5 68s28.5 27.666 54.5 42.999c34 20 61 28.667 81 26s47.333 -18 82 -46l45 -38l-10 54
c-3.33301 18 -7.66602 34.667 -12.999 50s-9.83301 26 -13.5 32s-6.5 13.667 -8.5 23s-1 17 3 23zM259.997 379.002c-15.333 26 -32.334 41.5 -51.001 46.5s-44.334 1.16699 -77.001 -11.5c-20.667 -8.66699 -37.667 -27.667 -51 -57s-20.166 -60.166 -20.499 -92.499
s5.83398 -62.833 18.501 -91.5c12 -22.667 25.5 -38.167 40.5 -46.5s37.833 -12.5 68.5 -12.5c24 0 52.833 15.833 86.5 47.5s52.834 60.834 57.501 87.501c2.66699 17.333 3.5 32.833 2.5 46.5s-3.83301 24.167 -8.5 31.5s-10.334 9.66602 -17.001 6.99902
c-5.33301 -2 -12.5 1.16699 -21.5 9.5s-18.167 20.166 -27.5 35.499z" />
    <glyph glyph-name="e" unicode="e" horiz-adv-x="431" 
d="M159 641c5.33301 8.66699 19.3271 9.5 41.9941 2.5s46 -19.167 70 -36.5c18 -12 40.833 -43 68.5 -93s41.5 -84.667 41.5 -104c0 -11.333 -2.83301 -18.166 -8.5 -20.499s-19.5 -1.5 -41.5 2.5c-13.333 2.66699 -36.166 3.16699 -68.499 1.5
s-64.166 -4.83398 -95.499 -9.50098l-114 -17l9 -73c6 -48.667 15.333 -84.667 28 -108c18 -35.333 39.333 -61.5 64 -78.5s49.334 -24.333 74.001 -22s48.834 14.333 72.501 36s43.5 51.5 59.5 89.5c7.33301 17.333 15.333 29.333 24 36s16.334 7.66699 23.001 3
s11.334 -14.667 14.001 -30c2 -12.667 -9 -34.667 -33 -66s-51 -60 -81 -86s-52 -39 -66 -39c-26 0 -54.833 8 -86.5 24s-54.167 34 -67.5 54c-20 30.667 -37.833 73.5 -53.5 128.5s-23.5 102.167 -23.5 141.5c0 46.667 11.167 95.5 33.5 146.5s45.833 81.167 70.5 90.5
c24 8.66699 39 17.667 45 27zM247.994 553c-16.667 19.333 -32.998 29.4971 -48.998 30.4971s-37 -6.5 -63 -22.5c-18.667 -11.333 -33.334 -26.166 -44.001 -44.499s-21.334 -47.166 -32.001 -86.499c-4.66699 -15.333 -6 -24.333 -4 -27s8.66699 -1.66699 20 3
c18 6.66699 63.333 15.334 136 26.001l109 17l-22 36c-15.333 24 -32.333 46.667 -51 68z" />
    <glyph glyph-name="f" unicode="f" horiz-adv-x="411" 
d="M177 645c28 26 58.001 39.3359 90.001 40.0029s62.667 -11.333 92 -36c24 -20.667 37.667 -36.5 41 -47.5s-3.33398 -19.5 -20.001 -25.5c-6 -2.66699 -13.667 -2 -23 2s-18 10.333 -26 19c-18 19.333 -38.833 29.333 -62.5 30s-45.5 -7.66602 -65.5 -24.999
s-34 -41 -42 -71c-16.667 -58.667 -19.834 -101 -9.50098 -127s35.5 -39 75.5 -39c22 -0.666992 36.5 -2.83398 43.5 -6.50098s10.5 -11.167 10.5 -22.5s-3.16699 -19 -9.5 -23s-18.833 -6 -37.5 -6c-26.667 0 -41.667 -6.83301 -45 -20.5s6 -32.834 28 -57.501
c12 -14.667 20.333 -35.834 25 -63.501s4.5 -52.667 -0.5 -75s-13.5 -33.5 -25.5 -33.5c-8.66699 0 -20.167 17.667 -34.5 53s-21.5 63 -21.5 83c0 20.667 -5.33301 46 -16 76c-7.33301 20.667 -14.833 33.167 -22.5 37.5s-25.167 5.83301 -52.5 4.5
c-22 -1.33301 -37.333 -0.666016 -46 2.00098s-13 8 -13 16c0 14 17 22.333 51 25l50 5l-2 74c-1.33301 51.333 3.33398 93.666 14.001 126.999s28.667 61.666 54 84.999z" />
    <glyph glyph-name="g" unicode="g" horiz-adv-x="385" 
d="M121 639c20 10 43.667 15.4971 71 16.4971s65.333 -2.16699 114 -9.5l64 -10l4 -236c3.33301 -157.333 2.33301 -247 -3 -269s-25.333 -40.167 -60 -54.5s-68.334 -18.166 -101.001 -11.499c-26 4.66699 -55.833 17.167 -89.5 37.5s-61.5 42 -83.5 65
s-30.667 40.5 -26 52.5c3.33301 9.33301 10.666 15.833 21.999 19.5s21.833 3.83398 31.5 0.500977s14.5 -9.66602 14.5 -18.999c0 -14 19.333 -34.833 58 -62.5s66 -40.167 82 -37.5c7.33301 1.33301 16.833 2.5 28.5 3.5s20.5 2 26.5 3s13 3 21 6
s13.833 7.83301 17.5 14.5s7.5 15.5 11.5 26.5s6.66699 25.5 8 43.5s2 39.667 2 65c-0.666992 73.333 -4.33398 124.333 -11.001 153l-10 43l-20 -36c-15.333 -28.667 -36.166 -52.5 -62.499 -71.5s-51.166 -28.5 -74.499 -28.5c-28 0 -55.167 13.167 -81.5 39.5
s-42.166 56.5 -47.499 90.5c-4.66699 28 2.83301 59 22.5 93s43.5 58.333 71.5 73zM275 576.997c-10.667 14.667 -24.499 24.5 -41.499 29.5s-34 5.16699 -51 0.5s-33.833 -12.167 -50.5 -22.5s-30.167 -23 -40.5 -38s-17.333 -30.667 -21 -47
s-0.833984 -33.166 8.49902 -50.499c22 -41.333 51.333 -60.333 88 -57s69.334 28 98.001 74c16.667 26 25.667 46.667 27 62s-4.33398 31.666 -17.001 48.999z" />
    <glyph glyph-name="h" unicode="h" horiz-adv-x="413" 
d="M12 659c2.66699 3.33301 6.66797 5.83789 12.001 7.50488s10 1.83398 14 0.500977c7.33301 -2.66699 12.5 -23.667 15.5 -63s5.5 -83.833 7.5 -133.5s5 -82.834 9 -99.501s7 -25 9 -25c2.66699 0 9 12.333 19 37c7.33301 18 18.166 32.833 32.499 44.5
s36.5 24.167 66.5 37.5c22 10 42.667 17.5 62 22.5s32 6.5 38 4.5c13.333 -5.33301 29.833 -34 49.5 -86s29.5 -93 29.5 -123c0 -16.667 1.5 -36 4.5 -58s6.16699 -42.167 9.5 -60.5l9.5 -53c3 -17 4 -31.833 3 -44.5s-4.16699 -21.667 -9.5 -27
c-16.667 -16.667 -29.334 -10.334 -38.001 18.999c-8 24.667 -15.333 72 -22 142c-6.66699 64.667 -13.167 112.5 -19.5 143.5s-14.333 52.833 -24 65.5s-23.167 19 -40.5 19c-48 0 -84.5 -22.333 -109.5 -67s-36.167 -107.334 -33.5 -188.001
c2 -85.333 -7.66699 -128 -29 -128c-6 0 -13.667 3.66699 -23 11c-6 5.33301 -10.167 11.666 -12.5 18.999s-3.83301 20.166 -4.5 38.499s-1 39.333 -1 63s-1.16699 60.167 -3.5 109.5s-6.16602 102.666 -11.499 159.999c-12 131.333 -15 202 -9 212z" />
    <glyph glyph-name="i" unicode="i" horiz-adv-x="111" 
d="M12 476c5.33301 8.66699 14.667 11.834 28 9.50098s20 -8.5 20 -18.5c1.33301 -50.667 5 -110.334 11 -179.001s11.667 -114.334 17 -137.001c14 -62.667 6.66699 -94 -22 -94c-6.66699 0 -11.834 1.66699 -15.501 5s-6.83398 11 -9.50098 23s-4.66699 27.5 -6 46.5
s-2.33301 46.5 -3 82.5c-1.33301 32 -3.16602 63.167 -5.49902 93.5s-4.66602 53.833 -6.99902 70.5s-4.5 33.167 -6.5 49.5s-3.16699 26.833 -3.5 31.5s0.5 10.334 2.5 17.001zM32.001 616c8 14.667 13.998 22.833 17.998 24.5s13.667 -0.5 29 -6.5
c14.667 -5.33301 21.834 -14.5 21.501 -27.5s-7.83301 -27.167 -22.5 -42.5c-11.333 -10.667 -19.166 -16 -23.499 -16s-10.5 5.66699 -18.5 17c-12 16.667 -13.333 33.667 -4 51z" />
    <glyph glyph-name="j" unicode="j" horiz-adv-x="312" 
d="M223 491c14.667 26 28.6689 31.6611 42.002 16.9941c9.33301 -10 15.666 -28 18.999 -54c10.667 -87.333 16.5 -147.166 17.5 -179.499s-1.83301 -60.5 -8.5 -84.5c-11.333 -39.333 -22.5 -64.666 -33.5 -75.999s-32.167 -19.333 -63.5 -24c-22 -2.66699 -41 -2 -57 2
s-35.667 13.333 -59 28c-32 20 -53.167 40.333 -63.5 61s-8.5 39.334 5.5 56.001c13.333 16 25.166 22.5 35.499 19.5s13.5 -14.167 9.5 -33.5c-2.66699 -14 -1.16699 -25.5 4.5 -34.5s18.167 -19.167 37.5 -30.5c51.333 -31.333 92 -27.666 122 11.001
c11.333 14.667 16.833 51.334 16.5 110.001s-6.5 104.667 -18.5 138c-12.667 34.667 -14.667 59.334 -6 74.001zM238.002 674.994c14 5.33301 24.166 4.99902 30.499 -1.00098s9.5 -18.667 9.5 -38c0 -13.333 -2.33301 -22.666 -7 -27.999s-12 -8 -22 -8
s-17.333 2.66699 -22 8s-7 14 -7 26c0 9.33301 1.83301 18 5.5 26s7.83398 13 12.501 15z" />
    <glyph glyph-name="k" unicode="k" horiz-adv-x="332" 
d="M14 634c-4 16 -4.83691 26.1719 -2.50391 30.5049s10.166 6.5 23.499 6.5c12.667 0 20.834 -3.83301 24.501 -11.5s5.5 -26.5 5.5 -56.5c0.666992 -37.333 3.66699 -86.5 9 -147.5s9.66602 -93.167 12.999 -96.5c5.33301 -6 23.5 1.66699 54.5 23
s56.5 43.666 76.5 66.999c32.667 36.667 58 53.334 76 50.001c8.66699 -1.33301 13 -8 13 -20c0 -10 -24.5 -36.667 -73.5 -80s-82.5 -68 -100.5 -74c-5.33301 -1.33301 2.83398 -14.333 24.501 -39s47.167 -50.834 76.5 -78.501s52 -45.834 68 -54.501
c5.33301 -3.33301 10 -9.5 14 -18.5s6 -18.5 6 -28.5c0 -14 -4.5 -24 -13.5 -30s-18.833 -6.83301 -29.5 -2.5s-18 13.166 -22 26.499c-5.33301 16.667 -30.166 47 -74.499 91s-72.166 66 -83.499 66c-5.33301 0 -8 -10.5 -8 -31.5s2.16699 -44.167 6.5 -69.5
s9.5 -43 15.5 -53c6.66699 -10.667 4.83398 -23.334 -5.49902 -38.001s-22.833 -22 -37.5 -22c-7.33301 0 -12.5 8 -15.5 24s-4.5 45.667 -4.5 89c0 76 -4.66699 126.667 -14 152c-7.33301 22 -9.33301 36.5 -6 43.5s7.33301 14.667 12 23s5.33398 17.166 2.00098 26.499
c-3.33301 10.667 -8 47.167 -14 109.5s-11.333 103.5 -16 123.5z" />
    <glyph glyph-name="l" unicode="l" horiz-adv-x="130" 
d="M17 599c-8 20 -8.83301 34.6689 -2.5 44.002s16.5 14 30.5 14c11.333 0 18.666 -3.5 21.999 -10.5s5 -21.167 5 -42.5c0 -36 5.33301 -85 16 -147c12 -74.667 21.167 -156.834 27.5 -246.501s6.5 -139.834 0.5 -150.501c-4 -8 -8.16699 -11.833 -12.5 -11.5
s-11.166 5.16602 -20.499 14.499c-8 8.66699 -13.333 21 -16 37s-3 40.667 -1 74c2.66699 45.333 -2.33301 122.333 -15 231s-24 173.334 -34 194.001z" />
    <glyph glyph-name="m" unicode="m" horiz-adv-x="657" 
d="M10.5 575c4.33301 7.33301 13.5 11.002 27.5 11.002c9.33301 0 15.333 -7.16699 18 -21.5s4.5 -33.5 5.5 -57.5s4.33301 -43 10 -57s10.834 -18.667 15.501 -14c3.33301 4 9.66602 16.667 18.999 38c12 28.667 27.667 51.334 47 68.001s38.166 25.667 56.499 27
s35.333 -5 51 -19s26.5 -34.333 32.5 -61c8.66699 -42 17.334 -61.333 26.001 -58c6.66699 2 12.667 15 18 39c5.33301 24.667 18.333 47.167 39 67.5s44 33.833 70 40.5c14 3.33301 27 3 39 -1s26 -13 42 -27c26 -20.667 44.5 -47.834 55.5 -81.501
s19.833 -89.834 26.5 -168.501c2.66699 -29.333 6.5 -55.5 11.5 -78.5s9.5 -35.833 13.5 -38.5c8 -4.66699 12.333 -23.667 13 -57s-2.66602 -61.666 -9.99902 -84.999c-2 -6.66699 -5 -12.167 -9 -16.5s-7.66699 -5.5 -11 -3.5
c-8.66699 5.33301 -18.334 36.666 -29.001 93.999s-18 119 -22 185c-2.66699 35.333 -7 69.166 -13 101.499s-12.667 55.5 -20 69.5c-10.667 22 -20.334 35.833 -29.001 41.5s-23.667 8.5 -45 8.5c-22 0 -37.5 -3.16699 -46.5 -9.5s-19.5 -22.166 -31.5 -47.499
c-16.667 -32.667 -27.834 -80.167 -33.501 -142.5s-2.5 -99.5 9.5 -111.5c4.66699 -4 8.5 -15 11.5 -33s4.5 -37.333 4.5 -58c0 -33.333 -1.66699 -54.333 -5 -63s-11.333 -13 -24 -13c-11.333 0 -18.833 3.16699 -22.5 9.5s-5.5 19.5 -5.5 39.5c0 14 -1.5 26.667 -4.5 38
s-6.5 18.166 -10.5 20.499s-6.83301 6.33301 -8.5 12s-1.5 11.167 0.5 16.5c4 10 0.166992 59.333 -11.5 148s-21.5 143 -29.5 163c-7.33301 18 -22.5 26.167 -45.5 24.5s-40.833 -12.167 -53.5 -31.5c-19.333 -29.333 -32.5 -67.833 -39.5 -115.5
s-6.16699 -92.5 2.5 -134.5c6.66699 -39.333 9.33398 -63.333 8.00098 -72s-4.16602 -20 -8.49902 -34s-6.5 -30 -6.5 -48c0 -16.667 -2 -28 -6 -34s-11.667 -9 -23 -9s-18.666 5 -21.999 15c-4.66699 14.667 -7.33398 71.334 -8.00098 170.001
c-0.666992 124 -8.5 212.167 -23.5 264.5s-20.333 82.166 -16 89.499z" />
    <glyph glyph-name="n" unicode="n" horiz-adv-x="500" 
d="M23 630c19.333 12 32.666 2.99805 39.999 -27.002c0.666992 -4 5.33398 -41 14.001 -111c4 -30 8.33301 -56 13 -78c6 -24.667 10 -37.334 12 -38.001s4.33301 3.33301 7 12c1.33301 2.66699 3 6.66699 5 12c14 44 42.167 84.833 84.5 122.5
s89.166 63.834 140.499 78.501c16 4.66699 28 5.83398 36 3.50098s16 -10.166 24 -23.499c17.333 -25.333 30.333 -64.666 39 -117.999s16.167 -112.833 22.5 -178.5s12.833 -114.167 19.5 -145.5c17.333 -73.333 10.333 -110 -21 -110c-9.33301 0 -16.5 2.16699 -21.5 6.5
s-9.33301 14.166 -13 29.499s-6.16699 35.333 -7.5 60s-2.33301 59.667 -3 105c-1.33301 82.667 -7 155 -17 217s-21.667 97 -35 105c-4 2 -13.667 0.5 -29 -4.5s-32.333 -12.167 -51 -21.5c-28.667 -14 -50 -28.667 -64 -44s-31 -42.666 -51 -81.999
c-22 -42 -35 -72.5 -39 -91.5s-4 -48.167 0 -87.5c9.33301 -92.667 9.33301 -142.334 0 -149.001c-4.66699 -3.33301 -14.334 2.33398 -29.001 17.001c-9.33301 9.33301 -16.166 27.166 -20.499 53.499s-7.16602 56.333 -8.49902 90s-6.33301 80.667 -15 141
s-20.667 121.166 -36 182.499c-6.66699 24.667 -9.66699 41.834 -9 51.501s5 17.167 13 22.5z" />
    <glyph glyph-name="o" unicode="o" horiz-adv-x="399" 
d="M140 594c24 10.667 50.499 14.998 79.499 12.998s51.833 -9.66699 68.5 -23c13.333 -11.333 32 -37.333 56 -78c26.667 -45.333 41.667 -96.166 45 -152.499s-4.66699 -107.333 -24 -153s-47 -77.167 -83 -94.5c-38 -18 -79.833 -24 -125.5 -18s-79.167 22.333 -100.5 49
c-30.667 38 -46 90.833 -46 158.5s15.667 134.5 47 200.5c13.333 28.667 26.333 50.334 39 65.001s27.334 25.667 44.001 33zM323.999 455.998c-7.33301 13.333 -19.167 27.835 -35.5 43.502s-32.5 28.5 -48.5 38.5l-59 35l-43 -36
c-33.333 -28.667 -58 -72.834 -74 -132.501s-19.5 -116.167 -10.5 -169.5s29.167 -86 60.5 -98c37.333 -14 78 -13.167 122 2.5s74.667 40.167 92 73.5c14.667 29.333 21.667 69.666 21 120.999s-9 92 -25 122z" />
    <glyph glyph-name="p" unicode="p" horiz-adv-x="324" 
d="M56 604c19.333 4.66699 52.333 5.00195 99 1.00195c56.667 -5.33301 98.667 -19 126 -41s37.666 -50.333 30.999 -85c-8.66699 -44.667 -31.167 -83.334 -67.5 -116.001s-74.833 -49 -115.5 -49c-19.333 0 -30.666 -2.83301 -33.999 -8.5s-4 -22.834 -2 -51.501
c2 -22.667 5.16699 -43.167 9.5 -61.5s8 -31.333 11 -39s4.33301 -16.667 4 -27s-3.5 -22.166 -9.5 -35.499c-14 -30 -26.333 -35.333 -37 -16c-10 17.333 -15.333 48.666 -16 93.999c-2 66.667 -6.66699 136.5 -14 209.5s-15 122.167 -23 147.5s-9.5 43.333 -4.5 54
s19.167 18.667 42.5 24zM237 535.002c-12.667 6 -29.501 11.168 -50.501 15.501s-40.833 6.5 -59.5 6.5h-67l9 -44c5.33301 -29.333 8 -60 8 -92c0 -58.667 34.333 -73.667 103 -45c28 12 48.333 25 61 39s22.334 33.667 29.001 59c4.66699 16.667 5 28.667 1 36
s-15.333 15.666 -34 24.999z" />
    <glyph glyph-name="q" unicode="q" horiz-adv-x="493" 
d="M75 585c16 12 32.999 19.667 50.999 23s49 4 93 2c48 -2 78.833 -5 92.5 -9s24.834 -14 33.501 -30c14 -25.333 20.333 -45.666 19 -60.999s-11.333 -29 -30 -41c-8.66699 -6 -14.834 -11.167 -18.501 -15.5s-6.66699 -12.833 -9 -25.5s-3.83301 -27.167 -4.5 -43.5
s-0.666992 -42.5 0 -78.5c0 -60 1.5 -105.333 4.5 -136s8.16699 -52.334 15.5 -65.001s18 -19 32 -19c20 0 36.333 9 49 27s19 41.333 19 70c0.666992 31.333 8.33398 50 23.001 56c26.667 10 39.334 1 38.001 -27c-0.666992 -14 -5.33398 -32.667 -14.001 -56
c-32 -84.667 -72.333 -127 -121 -127c-33.333 0 -57.333 19.833 -72 59.5s-22.667 107.167 -24 202.5l-1 70l-37 -37c-23.333 -22.667 -50 -35 -80 -37s-57 7.33301 -81 28c-21.333 17.333 -34.833 43.833 -40.5 79.5s-2.66699 71.5 9 107.5s29.5 63.667 53.5 83z
M225.499 539c-16.333 13.333 -35 20.001 -56 20.001s-40 -5.33301 -57 -16s-31.5 -26 -43.5 -46s-18 -42 -18 -66c0 -26 4.83301 -47.5 14.5 -64.5s22.167 -27.5 37.5 -31.5s31.5 -3.66699 48.5 1s34 15.667 51 33s30.833 39 41.5 65c10 24 13.5 44.167 10.5 60.5
s-12.667 31.166 -29 44.499z" />
    <glyph glyph-name="r" unicode="r" horiz-adv-x="401" 
d="M22 574c22 13.333 37.499 13.168 46.499 -0.499023s12.833 -42.834 11.5 -87.501c-2 -56.667 3 -105.334 15 -146.001c5.33301 -18 10 -21.667 14 -11c4.66699 14 12.667 42 24 84c9.33301 33.333 30.333 67.666 63 102.999s63.334 56.666 92.001 63.999
c16.667 4.66699 38 2.83398 64 -5.49902s39 -17.5 39 -27.5c0 -7.33301 -4.66699 -18.333 -14 -33c-5.33301 -8.66699 -10.833 -13.167 -16.5 -13.5s-14.167 2.83398 -25.5 9.50098c-22 13.333 -39.667 18.666 -53 15.999s-30.666 -15 -51.999 -37
c-35.333 -36.667 -60.5 -79.334 -75.5 -128.001s-21.5 -108 -19.5 -178c2.66699 -106 -6 -155.667 -26 -149c-4 1.33301 -8.66699 5.33301 -14 12c-6.66699 8.66699 -17.334 77.834 -32.001 207.501s-27.667 210.834 -39 243.501c-9.33301 26.667 -14 44.834 -14 54.501
s4 17.167 12 22.5z" />
    <glyph glyph-name="s" unicode="s" horiz-adv-x="389" 
d="M99 589c8 5.33301 26.999 8.66699 56.999 10s61.5 0.166016 94.5 -3.50098s62.667 -11.334 89 -23.001s39.5 -26.167 39.5 -43.5s-8 -26.5 -24 -27.5s-32.667 6.5 -50 22.5c-7.33301 6.66699 -20.166 12.834 -38.499 18.501s-36.833 9.5 -55.5 11.5
c-29.333 2.66699 -50.333 2.16699 -63 -1.5s-27.667 -13.5 -45 -29.5c-22.667 -21.333 -34.834 -41.166 -36.501 -59.499s6.83301 -42.833 25.5 -73.5c10.667 -17.333 23.667 -31 39 -41s38 -19.333 68 -28c42.667 -12 81 -32.5 115 -61.5s51 -55.5 51 -79.5
c0 -8 -2.83301 -19.5 -8.5 -34.5s-12.167 -28.5 -19.5 -40.5c-11.333 -18.667 -23.833 -32 -37.5 -40s-36.167 -15.667 -67.5 -23c-34 -8 -59.333 -11.5 -76 -10.5s-39.667 7.16699 -69 18.5c-37.333 14.667 -61 29 -71 43s-7 29.333 9 46
c9.33301 9.33301 17.333 13.166 24 11.499s19 -10.834 37 -27.501c22 -20.667 50.833 -32.5 86.5 -35.5s67 2.83301 94 17.5s40.5 34.334 40.5 59.001c0 46.667 -44.667 84.334 -134 113.001c-32 10 -59.667 24.667 -83 44s-40.5 40.5 -51.5 63.5s-15.667 47.5 -14 73.5
s10.834 50.333 27.501 73c22 32 37.667 51.333 47 58z" />
    <glyph glyph-name="t" unicode="t" horiz-adv-x="331" 
d="M152 615c16.667 10 29.665 7.66699 38.998 -7s13.333 -39.334 12 -74.001l-2 -65l61 8c28.667 4 45.834 4.83301 51.501 2.5s7.5 -10.833 5.5 -25.5c-1.33301 -12 -5.66602 -20.667 -12.999 -26s-19 -9 -35 -11c-22 -2 -34.5 -5.66699 -37.5 -11s-1.83301 -23 3.5 -53
l27 -156c10 -64 17.667 -102.333 23 -115c2 -5.33301 1.5 -12.5 -1.5 -21.5s-7.5 -17.5 -13.5 -25.5c-9.33301 -12 -16 -18.333 -20 -19s-9 3.66602 -15 12.999c-6 8.66699 -10 26.167 -12 52.5s-4.5 62.166 -7.5 107.499s-7.83301 87 -14.5 125
c-7.33301 40 -13.833 65.833 -19.5 77.5s-15.5 18.167 -29.5 19.5c-12 2 -25.833 0.666992 -41.5 -4s-28.667 -9.66699 -39 -15s-21.333 -9.16602 -33 -11.499s-20.167 -0.166016 -25.5 6.50098c-12.667 12.667 -5 26.334 23 41.001c19.333 10 43 17.333 71 22
c31.333 5.33301 49.333 14.5 54 27.5s0 39.5 -14 79.5c-6.66699 18 -9.66699 31 -9 39s4.66699 14.333 12 19z" />
    <glyph glyph-name="u" unicode="u" horiz-adv-x="446" 
d="M11.5 573c2.33301 4 6.66602 7.00098 12.999 9.00098s12.833 2.33301 19.5 1c15.333 -2.66699 26.333 -28 33 -76c7.33301 -50.667 21 -108.5 41 -173.5s39 -111.833 57 -140.5c16 -26.667 36.333 -45.334 61 -56.001s46.667 -10 66 2c23.333 14 42.333 43.5 57 88.5
s24.334 102.5 29.001 172.5c3.33301 53.333 7 89.333 11 108s10 28 18 28c9.33301 0 15 -6.5 17 -19.5s2.33301 -39.833 1 -80.5c-2 -61.333 -11.167 -120.166 -27.5 -176.499s-36.5 -101.833 -60.5 -136.5s-48.667 -52 -74 -52c-26 0 -49.667 7.5 -71 22.5
s-38.833 34 -52.5 57s-26.667 50.833 -39 83.5s-22.333 64 -30 94s-16.834 62.667 -27.501 98s-20.667 63.666 -30 84.999c-5.33301 13.333 -9.16602 26 -11.499 38s-2.33301 20 0 24z" />
    <glyph glyph-name="v" unicode="v" horiz-adv-x="475" 
d="M10 507c0 6.66699 2.33008 11.668 6.99707 15.001s10.334 4.33301 17.001 3c13.333 -2 39.333 -40 78 -114s58.667 -123.333 60 -148c0.666992 -6 1.66699 -11 3 -15s2.83301 -7 4.5 -9s3.5 -2.33301 5.5 -1c2.66699 0 4.5 0.333008 5.5 1s2.66699 -0.5 5 -3.5
s4.33301 -6 6 -9s4.16699 -7.83301 7.5 -14.5l10 -19.5l13.5 -25l17.5 -30.5l34 -56l32 79c18.667 44 35.834 97.667 51.501 161s28.667 111.333 39 144s21.833 49 34.5 49c14.667 0 22.667 -3 24 -9c0.666992 -7.33301 -9.66602 -42.333 -30.999 -105
c-16 -46.667 -30.667 -92 -44 -136c-29.333 -94 -52.166 -160.5 -68.499 -199.5s-30.166 -59.5 -41.499 -61.5c-6 -0.666992 -16.333 11.166 -31 35.499s-31.334 55.5 -50.001 93.5l-56 117c-18.667 40 -37.334 78 -56.001 114s-33 61.333 -43 76
c-22.667 30 -34 52.667 -34 68z" />
    <glyph glyph-name="w" unicode="w" horiz-adv-x="608" 
d="M27 533c16 6.66699 29.6719 7.50195 41.0049 2.50195s18 -14.5 20 -28.5c11.333 -80.667 25.166 -156.834 41.499 -228.501s28.166 -107.5 35.499 -107.5c2.66699 0 9.66699 13.667 21 41s23.666 60 36.999 98c24 72.667 41.833 120 53.5 142s24.5 33 38.5 33
c16 -0.666992 64.333 -92.667 145 -276c20.667 -47.333 35.334 -70.666 44.001 -69.999c2 0 3.66699 1.33301 5 4c8 12.667 15.5 44.5 22.5 95.5s10.833 102.5 11.5 154.5c0.666992 38 2.66699 61.833 6 71.5s11.333 14.5 24 14.5c8.66699 0 15.167 -1.83301 19.5 -5.5
s5.83301 -8.5 4.5 -14.5c0 -0.666992 -2.83301 -21.334 -8.5 -62.001l-18.5 -128.5c-6.66699 -45 -15.334 -90.5 -26.001 -136.5s-20.334 -76.333 -29.001 -91c-6 -9.33301 -13.667 -12.333 -23 -9c-9.33301 2.66699 -20.5 22.667 -33.5 60s-16.833 60.333 -11.5 69
c2.66699 4.66699 3.33398 7.33398 2.00098 8.00098s-4 -0.333008 -8 -3c-4.66699 -2.66699 -10 0.166016 -16 8.49902s-11.333 20.5 -16 36.5c-10.667 33.333 -27.834 70.833 -51.501 112.5s-39.5 62.5 -47.5 62.5c-11.333 0 -30 -34.667 -56 -104
s-43.333 -131.333 -52 -186c-6.66699 -37.333 -17 -55 -31 -53c-16.667 2.66699 -31 31.334 -43 86.001c-26 115.333 -46 198.166 -60 248.499s-26 81.166 -36 92.499c-28.667 31.333 -30.334 52.333 -5.00098 63z" />
    <glyph glyph-name="x" unicode="x" horiz-adv-x="381" 
d="M13 563c9.33301 23.333 22.998 25.665 40.998 6.99805c14.667 -15.333 38.334 -50.666 71.001 -105.999l71 -121l31 82c21.333 54.667 34.666 90 39.999 106c4 12.667 10.167 20.834 18.5 24.501s16 2.16699 23 -4.5s10.5 -16.667 10.5 -30
c0 -10 -1.16699 -18.333 -3.5 -25s-5.16602 -10 -8.49902 -10c-7.33301 0 -18.833 -17 -34.5 -51s-26.167 -65.333 -31.5 -94c-4 -22 -2.5 -40 4.5 -54s27.5 -40 61.5 -78c29.333 -32.667 48.166 -56.334 56.499 -71.001s9.5 -26.334 3.5 -35.001
c-11.333 -18.667 -22.666 -27.667 -33.999 -27s-20.666 10.667 -27.999 30c-8.66699 22.667 -23.667 48.834 -45 78.501s-36 44.5 -44 44.5c-6.66699 0 -17.167 -16.333 -31.5 -49s-30.166 -75 -47.499 -127c-6 -18.667 -12.833 -34.334 -20.5 -47.001s-13.5 -18 -17.5 -16
c-12.667 4 -19.667 17 -21 39s4 40 16 54s28.667 45.833 50 95.5s32 81.5 32 95.5c0 12 -8.5 32.833 -25.5 62.5s-35.333 56.334 -55 80.001s-32.834 34.5 -39.501 32.5c-7.33301 -3.33301 -15.5 2.33398 -24.5 17.001s-15.167 31 -18.5 49s-3.33301 34 0 48z" />
    <glyph glyph-name="y" unicode="y" horiz-adv-x="367" 
d="M308 576c0.666992 2.66699 3.50293 4.66797 8.50293 6.00098s11.167 1.33301 18.5 0c5.33301 -0.666992 9.5 -2.16699 12.5 -4.5s5.33301 -6.83301 7 -13.5s2.66699 -14.5 3 -23.5s-0.333984 -22.5 -2.00098 -40.5s-4 -37.667 -7 -59l-11.5 -84
c-12.667 -90.667 -19.334 -167.667 -20.001 -231c-1.33301 -86 -13.333 -127.333 -36 -124c-6 0.666992 -12.667 4.66699 -20 12c-8.66699 9.33301 -13 20.833 -13 34.5s4.33301 40.5 13 80.5c13.333 61.333 20 102 20 122c0 14.667 -20.167 40 -60.5 76
s-95.5 78.667 -165.5 128c-39.333 27.333 -53.333 45.666 -42 54.999c4 2.66699 10.333 4 19 4c24.667 0 83.667 -39 177 -117c43.333 -36 70.666 -53.333 81.999 -52c12 2 18 25 18 69c0.666992 10 0.666992 23 0 39c-2 74 -2.33301 115 -1 123z" />
    <glyph glyph-name="z" unicode="z" horiz-adv-x="474" 
d="M20.5 578c7 7.33301 51.166 7.33398 132.499 0.000976562c166 -14.667 261.333 -25.667 286 -33c21.333 -6.66699 28.666 -17.334 21.999 -32.001c-3.33301 -6 -12 -18 -26 -36c-27.333 -34 -71.666 -99.833 -132.999 -197.5s-92 -150.834 -92 -159.501
c0 -12 15.833 -21 47.5 -27s65.834 -6.33301 102.501 -1c27.333 4 45.5 4.83301 54.5 2.5s16.833 -9.5 23.5 -21.5c6 -11.333 8.33301 -19.833 7 -25.5s-7.33301 -11.5 -18 -17.5c-17.333 -9.33301 -32.666 -9.66602 -45.999 -0.999023c-6 4 -22.667 7.33301 -50 10
s-57 4 -89 4c-64.667 0 -101.334 2.66699 -110.001 8c-5.33301 4 -8 12.333 -8 25c0 8.66699 3.16699 19.667 9.5 33s13.833 24.666 22.5 33.999c22 22.667 42.333 49 61 79l103 157c20.667 30.667 37.5 57.834 50.5 81.501s18.5 36.5 16.5 38.5
c-7.33301 7.33301 -53.333 15.833 -138 25.5s-142.334 12.834 -173.001 9.50098c-25.333 -2.66699 -42.666 -3 -51.999 -1s-14 6.66699 -14 14c0 13.333 3.5 23.666 10.5 30.999z" />
    <glyph glyph-name="braceleft" unicode="{" 
 />
    <glyph glyph-name="bar" unicode="|" 
 />
    <glyph glyph-name="braceright" unicode="}" 
 />
    <glyph glyph-name="asciitilde" unicode="~" horiz-adv-x="505" 
d="M10 199c0 8 22.502 24.1689 67.502 48.502s73.833 36.833 86.5 37.5c11.333 0.666992 40 -13.333 86 -42c41.333 -25.333 71.333 -38.666 90 -39.999s46.667 7.33398 84 26.001c25.333 13.333 41.833 20.333 49.5 21s13.167 -4 16.5 -14
c0.666992 -0.666992 1 -1.66699 1 -3c4.66699 -10.667 4.66699 -18.334 0 -23.001s-23.334 -15.334 -56.001 -32.001c-3.33301 -2 -6 -3.33301 -8 -4c-40.667 -20.667 -72.667 -30.334 -96 -29.001s-54 14.666 -92 39.999c-38.667 26 -66.834 39.833 -84.501 41.5
s-39.167 -7.5 -64.5 -27.5c-11.333 -9.33301 -23.333 -15.666 -36 -18.999s-23.167 -3.33301 -31.5 0s-12.5 9.66602 -12.5 18.999z" />
    <glyph glyph-name="cent" unicode="&#xa2;" 
 />
    <glyph glyph-name="sterling" unicode="&#xa3;" horiz-adv-x="433" 
d="M199 543c27.333 17.333 54.1641 26.502 80.4971 27.502s57.166 -5.83301 92.499 -20.5c34 -14 51 -30.333 51 -49c0 -22.667 -6.16699 -34.834 -18.5 -36.501s-30.5 7.16602 -54.5 26.499c-12 10.667 -25.167 19.667 -39.5 27s-25.5 11 -33.5 11c-22 0 -46 -15 -72 -45
s-39 -57.667 -39 -83v-42l100 8c43.333 4 70.833 5.16699 82.5 3.5s17.5 -7.83398 17.5 -18.501c0 -8.66699 -4 -14.667 -12 -18s-22.333 -5 -43 -5c-36.667 0 -70.667 -3.33301 -102 -10l-46 -9l10 -73c6.66699 -48.667 10.334 -78.667 11.001 -90
c0.666992 -14.667 12.667 -25.167 36 -31.5s48.833 -6.66602 76.5 -0.999023s47.167 16.167 58.5 31.5l25 33v-40c0 -16.667 -3.16699 -29 -9.5 -37s-19.5 -16 -39.5 -24c-32.667 -14 -65.667 -21 -99 -21c-19.333 0 -34.666 -3 -45.999 -9s-23 -17.333 -35 -34
c-15.333 -21.333 -29.5 -32 -42.5 -32s-35.833 10.667 -68.5 32c-16 10.667 -25.5 25.167 -28.5 43.5s-0.5 35.333 7.5 51s20.333 28 37 37s34.334 10.5 53.001 4.5c16.667 -5.33301 26 0.666992 28 18c2 15.333 -0.666992 45.666 -8 90.999
c-4 25.333 -8.5 39.833 -13.5 43.5s-18.167 2.5 -39.5 -3.5c-29.333 -8.66699 -49.333 -8 -60 2c-10.667 11.333 -5.66699 23.666 15 36.999c20 12.667 42.667 19 68 19c16 0 26.333 1.5 31 4.5s5 9.16699 1 18.5c-8.66699 22.667 -5.66699 51.834 9 87.501
s34.334 60.834 59.001 75.501zM129.998 87.002c-5.33301 8.66699 -17.668 12.998 -37.001 12.998c-14 0 -22.667 -6.33301 -26 -19s1 -23 13 -31c9.33301 -5.33301 21.333 -2.66602 36 8.00098s19.334 20.334 14.001 29.001z" />
    <glyph glyph-name="section" unicode="&#xa7;" 
 />
    <glyph glyph-name="guillemotleft" unicode="&#xab;" horiz-adv-x="437" 
d="M181 182c0 8.66699 12.001 25 36.001 49l71.5 73c23.667 24.667 35.5 42 35.5 52c0 15.333 3.5 27 10.5 35s14.667 10.667 23 8s14.5 -10 18.5 -22c3.33301 -8.66699 -4 -26 -22 -52s-37 -51.667 -57 -77s-30 -41.333 -30 -48c0 -4 8.16699 -11.333 24.5 -22
s36.166 -21.334 59.499 -32.001c37.333 -17.333 60 -29.833 68 -37.5s9.33301 -18.5 4 -32.5c-7.33301 -19.333 -15.5 -29.666 -24.5 -30.999s-20.167 6 -33.5 22c-8 10 -27.667 22.5 -59 37.5s-60 29.5 -86 43.5s-39 25.333 -39 34zM167.001 370
c22 24 42.667 37.5039 62 40.5039s31 -5.83301 35 -26.5c2 -9.33301 -12.167 -31 -42.5 -65l-93 -100.5c-31.667 -33 -47.5 -52.5 -47.5 -58.5c0 -7.33301 21.667 -26.333 65 -57s70.333 -46 81 -46c5.33301 0 8.83301 -2.83301 10.5 -8.5s1.5 -12.834 -0.5 -21.501
s-5.66699 -17.334 -11 -26.001c-4.66699 -7.33301 -11.667 -9.5 -21 -6.5s-25.333 12.833 -48 29.5c-98 70.667 -147 117 -147 139c0 6 6.16699 15.333 18.5 28s27.166 25 44.499 37c22.667 16 38.334 29.167 47.001 39.5s11.667 20.166 9 29.499
c-4 17.333 8.66699 41.666 38 72.999z" />
    <glyph glyph-name="guillemotright" unicode="&#xbb;" horiz-adv-x="423" 
d="M210 171c-6 0 -34.334 -16.6631 -85.001 -49.9961s-81.667 -50 -93 -50c-24 0 -29 9.66699 -15 29c12.667 17.333 36.667 36.666 72 57.999c21.333 13.333 39.833 25.666 55.5 36.999s23.5 18.333 23.5 21c0 4.66699 -11.167 18.167 -33.5 40.5
s-43.833 45.666 -64.5 69.999s-29.334 41.5 -26.001 51.5c2.66699 6 6.5 11.167 11.5 15.5s10.167 6.5 15.5 6.5c10.667 0 27.834 -14.667 51.501 -44s35.5 -51 35.5 -65c0 -4.66699 0.833008 -8.33398 2.5 -11.001s3.83398 -3.33398 6.50098 -2.00098
c6 3.33301 20 -3.33398 42 -20.001c12.667 -9.33301 20.667 -18.166 24 -26.499s3.33301 -18.166 0 -29.499c-2.66699 -8.66699 -6.16699 -16 -10.5 -22s-8.5 -9 -12.5 -9zM190.999 447.004c10.667 10.667 22.332 13.168 34.999 7.50098s23 -17.5 31 -35.5
c9.33301 -21.333 32.5 -51.333 69.5 -90s60.833 -58 71.5 -58c16 0 20 -12 12 -36c-9.33301 -26 -26.333 -48.667 -51 -68c-28 -22.667 -60.333 -60 -97 -112c-18 -25.333 -30.333 -38.333 -37 -39c-7.33301 0 -13.666 10 -18.999 30c-3.33301 12 -2.83301 22.5 1.5 31.5
s13.5 18.833 27.5 29.5c28 20.667 52.333 42.5 73 65.5s31 39.167 31 48.5c0 16.667 -41.667 70.667 -125 162c-16.667 18.667 -26.667 32.167 -30 40.5s-1 16.166 7 23.499z" />
    <glyph glyph-name="questiondown" unicode="&#xbf;" horiz-adv-x="29" 
d="M11 186c0 168.667 0.999023 249.333 2.99902 242c0.666992 -2.66699 1.33398 -18 2.00098 -46c3.33301 -130.667 3.33301 -261.667 0 -393l-2 -44c-2 16.667 -3 97 -3 241zM9.99902 692.999c0 52 1.33203 76.332 3.99902 72.999
c0.666992 -1.33301 1.33398 -5.33301 2.00098 -12c4 -37.333 3.33301 -77.666 -2 -120.999c-1.33301 -12.667 -2.33301 -11.667 -3 3c-0.666992 11.333 -1 30.333 -1 57z" />
    <glyph glyph-name="Agrave" unicode="&#xc0;" 
 />
    <glyph glyph-name="Aacute" unicode="&#xc1;" horiz-adv-x="28" 
d="M10 -86c0 54 1.33203 78.999 3.99902 74.999c0.666992 -1.33301 1.33398 -6 2.00098 -14c3.33301 -40.667 3.33301 -81 0 -121c-2 -21.333 -3.66699 -20.666 -5 2.00098c-0.666992 14 -1 33.333 -1 58zM10.999 420.999c0 162 1.00098 240.668 3.00098 236.001
c3.33301 -10.667 4.66602 -117.334 3.99902 -320.001c0 -46 -0.666992 -83.667 -2 -113l-2 -41c-2 16 -3 95.333 -3 238z" />
    <glyph glyph-name="Acircumflex" unicode="&#xc2;" 
 />
    <glyph glyph-name="Adieresis" unicode="&#xc4;" 
 />
    <glyph glyph-name="Ccedilla" unicode="&#xc7;" 
 />
    <glyph glyph-name="Egrave" unicode="&#xc8;" 
 />
    <glyph glyph-name="Eacute" unicode="&#xc9;" horiz-adv-x="47" 
d="M14 -107c0 46.667 1.33203 68 3.99902 64c0.666992 -1.33301 1.33398 -5 2.00098 -11c4 -32.667 3.66699 -67.667 -1 -105c-2 -12.667 -3.33301 -11.667 -4 3c-0.666992 10 -1 26.333 -1 49zM19.999 26c-4 -10.667 -6.66699 -10.334 -8 0.999023
c-2 15.333 -1 24.333 3 27c1.33301 0.666992 2.33301 0.333984 3 -0.999023c6 -6 6.66699 -15 2 -27zM12.999 626c0.666992 10 2.50098 16.5 5.50098 19.5s6.83301 2.16699 11.5 -2.5c9.33301 -9.33301 8.66602 -19.666 -2.00098 -30.999
c-3.33301 -3.33301 -6 -5.33301 -8 -6s-3.5 -0.5 -4.5 0.5s-1.66699 3.16699 -2 6.5s-0.5 7.66602 -0.5 12.999zM15 734c3.33301 8 6.99707 27.667 10.9971 59c0.666992 6.66699 2.33398 6 5.00098 -2c0.666992 -2 1.33398 -4.66699 2.00098 -8
c4.66699 -16 1.33398 -32.667 -9.99902 -50c-8 -12.667 -12.333 -19 -13 -19s1 6.66699 5 20z" />
    <glyph glyph-name="Ecircumflex" unicode="&#xca;" 
 />
    <glyph glyph-name="Edieresis" unicode="&#xcb;" 
 />
    <glyph glyph-name="Icircumflex" unicode="&#xce;" 
 />
    <glyph glyph-name="Idieresis" unicode="&#xcf;" 
 />
    <glyph glyph-name="Ntilde" unicode="&#xd1;" 
 />
    <glyph glyph-name="Oacute" unicode="&#xd3;" horiz-adv-x="31" 
d="M14 114c0 139.333 0.999023 205.668 2.99902 199.001c0.666992 -2.66699 1.33398 -15.334 2.00098 -38.001c3.33301 -107.333 3.33301 -214.333 0 -321l-2 -37c-2 13.333 -3 79 -3 197zM18.999 454.002c-4 -10 -7 -9.33398 -9 1.99902c-1.33301 15.333 0 24 4 26
c1.33301 0.666992 2.33301 0.333984 3 -0.999023c6 -5.33301 6.66699 -14.333 2 -27zM18.999 683.001c-4 -10.667 -7 -10.334 -9 0.999023c-1.33301 15.333 0 24.333 4 27c1.33301 0.666992 2.33301 0.333984 3 -0.999023c6 -6 6.66699 -15 2 -27z" />
    <glyph glyph-name="Ocircumflex" unicode="&#xd4;" horiz-adv-x="31" 
d="M19 -189c-4 -10 -7 -9.33301 -9 2c-1.33301 15.333 0 24 4 26c1.33301 0.666992 2.33301 0.666992 3 0c6 -6 6.66699 -15.333 2 -28zM13 -43c0 28.667 1 42.001 3 40.001c1.33301 -0.666992 2.33301 -3.33398 3 -8.00098c3.33301 -20 3 -41.667 -1 -65
c-2 -10 -3.33301 -9 -4 3c-0.666992 7.33301 -1 17.333 -1 30zM13 93.001c0 32.667 1.33203 48 3.99902 46c0.666992 -0.666992 1.33398 -3 2.00098 -7c3.33301 -21.333 3 -46.333 -1 -75c-2 -10.667 -3.33301 -9.66699 -4 3c-0.666992 7.33301 -1 18.333 -1 33z" />
    <glyph glyph-name="Odieresis" unicode="&#xd6;" 
 />
    <glyph glyph-name="Ugrave" unicode="&#xd9;" horiz-adv-x="42" 
d="M13 -114c8.66699 14 13.999 15.667 15.999 5c1.33301 -6 2 -16 2 -30c0 -16 -1.33301 -24.333 -4 -25c-1.33301 -0.666992 -4.66602 3.33301 -9.99902 12c-8.66699 15.333 -10 28 -4 38zM21.999 -14c0 14 1.33301 21.332 4 21.999c4 0.666992 6 -6.33301 6 -21
c0.666992 -7.33301 -0.333008 -13.666 -3 -18.999c-3.33301 -8.66699 -5.33301 -6.66699 -6 6c-0.666992 3.33301 -1 7.33301 -1 12zM24.999 413.999c0 168.667 0.999023 249.333 2.99902 242c0.666992 -2 1.33398 -17 2.00098 -45
c3.33301 -131.333 3.33301 -262.333 0 -393l-3 -44c-1.33301 16 -2 96 -2 240z" />
    <glyph glyph-name="Uacute" unicode="&#xda;" 
 />
    <glyph glyph-name="Ucircumflex" unicode="&#xdb;" 
 />
    <glyph glyph-name="Udieresis" unicode="&#xdc;" 
 />
    <glyph glyph-name="germandbls" unicode="&#xdf;" 
 />
    <glyph glyph-name="agrave" unicode="&#xe0;" 
 />
    <glyph glyph-name="aacute" unicode="&#xe1;" 
 />
    <glyph glyph-name="acircumflex" unicode="&#xe2;" 
 />
    <glyph glyph-name="adieresis" unicode="&#xe4;" 
 />
    <glyph glyph-name="ccedilla" unicode="&#xe7;" 
 />
    <glyph glyph-name="egrave" unicode="&#xe8;" 
 />
    <glyph glyph-name="eacute" unicode="&#xe9;" 
 />
    <glyph glyph-name="ecircumflex" unicode="&#xea;" 
 />
    <glyph glyph-name="edieresis" unicode="&#xeb;" 
 />
    <glyph glyph-name="icircumflex" unicode="&#xee;" 
 />
    <glyph glyph-name="idieresis" unicode="&#xef;" 
 />
    <glyph glyph-name="oacute" unicode="&#xf3;" horiz-adv-x="44" 
d="M10 -171c0 14 1.33203 21.333 3.99902 22c4 0 6 -7.33301 6 -22c0 -6.66699 -1 -12.667 -3 -18c-3.33301 -8.66699 -5.66602 -6.66699 -6.99902 6v12zM9.99902 -57c0 22 1.33301 32 4 30c0.666992 0 1.33398 -1.66699 2.00098 -5c4 -16 4 -32.667 0 -50
c-2.66699 -9.33301 -4.33398 -8 -5.00098 4c-0.666992 5.33301 -1 12.333 -1 21zM10.999 93c0 32.667 1.33105 48 3.99805 46c0.666992 -0.666992 1.33398 -3 2.00098 -7c4 -21.333 3.66699 -46.333 -1 -75c-1.33301 -10.667 -2.66602 -9.66699 -3.99902 3
c-0.666992 7.33301 -1 18.333 -1 33zM10.9971 269c1.33301 35.333 5.33203 52 11.999 50c3.33301 -3.33301 4.83301 -11 4.5 -23s-2.16602 -25 -5.49902 -39l-12 -50zM14.9961 371c6 10 10.166 14.668 12.499 14.001s3.5 -7 3.5 -19c0 -6 -1.16699 -10.333 -3.5 -13
s-5.16602 -3.33398 -8.49902 -2.00098c-8 5.33301 -9.33301 12 -4 20zM30.9951 469.001c-4 -10.667 -6.66699 -10.333 -8 1c-2 15.333 -0.666992 24.333 4 27c0.666992 0 1.66699 -0.333008 3 -1c6 -6 6.33301 -15 1 -27zM30.9951 654.002
c-4 -10 -6.66699 -9.33398 -8 1.99902c-2 15.333 -0.666992 24 4 26c0.666992 0.666992 1.66699 0.333984 3 -0.999023c6 -5.33301 6.33301 -14.333 1 -27zM23.9951 736.001c0 20.667 1.66602 29.999 4.99902 27.999c0.666992 0 1.33398 -1 2.00098 -3
c5.33301 -13.333 5.33301 -28.333 0 -45c-2.66699 -8.66699 -4.66699 -7.66699 -6 3c-0.666992 4.66699 -1 10.334 -1 17.001z" />
    <glyph glyph-name="ocircumflex" unicode="&#xf4;" 
 />
    <glyph glyph-name="odieresis" unicode="&#xf6;" 
 />
    <glyph glyph-name="ugrave" unicode="&#xf9;" horiz-adv-x="31" 
d="M14 164c0 162 0.999023 239.331 2.99902 231.998c0.666992 -2.66699 1.33398 -16.667 2.00098 -42c4 -130 3.66699 -261.667 -1 -395c-1.33301 -29.333 -2.33301 -28.666 -3 2.00098c-0.666992 34.667 -1 102.334 -1 203.001zM11.999 585.998c0 22 1.33203 32 3.99902 30
c0.666992 0 1.33398 -1.66699 2.00098 -5c4 -16 3.66699 -33 -1 -51c-2 -8.66699 -3.66699 -7 -5 5v21zM18.998 682.998c-4 -10.667 -7 -10.334 -9 0.999023c-1.33301 15.333 0 24.333 4 27c1.33301 0.666992 2.33301 0.333984 3 -0.999023c6 -6 6.66699 -15 2 -27z" />
    <glyph glyph-name="uacute" unicode="&#xfa;" 
 />
    <glyph glyph-name="ucircumflex" unicode="&#xfb;" 
 />
    <glyph glyph-name="udieresis" unicode="&#xfc;" 
 />
    <glyph glyph-name="eogonek" unicode="&#x119;" 
 />
    <glyph glyph-name="quotedblleft" unicode="&#x201c;" horiz-adv-x="306" 
d="M79 597c21.333 9.33301 35.666 12 42.999 8c6.66699 -4 5.33398 -14.667 -3.99902 -32s-21.666 -32.333 -36.999 -45s-20 -35 -14 -67c4.66699 -25.333 1.66699 -40.833 -9 -46.5s-24.334 1.5 -41.001 21.5c-12 14.667 -10.167 42.667 5.5 84s34.5 67 56.5 77zM177 447
c-11.333 14 -11.167 35.666 0.5 64.999s27.5 55.833 47.5 79.5s35.333 35.834 46 36.501c21.333 0.666992 29 -9 23 -29c-3.33301 -13.333 -12 -28.333 -26 -45c-10 -12 -19.5 -26.333 -28.5 -43s-14.833 -30.667 -17.5 -42c-4 -22.667 -9.5 -35.5 -16.5 -38.5
s-16.5 2.5 -28.5 16.5z" />
    <glyph glyph-name="quotedblbase" unicode="&#x201e;" horiz-adv-x="314" 
d="M201 101c6 10 17.9961 14.165 35.9961 12.498s31.667 -8.16699 41 -19.5c8 -9.33301 14.333 -23.833 19 -43.5s6.83398 -39.667 6.50098 -60s-5.66602 -38.166 -15.999 -53.499s-25.166 -23 -44.499 -23c-21.333 0 -32.666 3.83301 -33.999 11.5s7.5 19.667 26.5 36
s28 31.333 27 45s-12.833 30.167 -35.5 49.5c-10 8.66699 -17.5 17.334 -22.5 26.001s-6.16699 15 -3.5 19zM57.9961 114.998c2 3.33301 7.49902 6.50195 16.499 9.50195s18.5 4.5 28.5 4.5c18 0 28.167 -3 30.5 -9s1.16602 -23.667 -3.50098 -53
c-5.33301 -36 -16.666 -66.833 -33.999 -92.5s-36.333 -40.167 -57 -43.5c-19.333 -2.66699 -29 -1.33398 -29 3.99902c0 6 11 20 33 42c18 18 29.333 39.833 34 65.5s0.333984 42.5 -12.999 50.5c-9.33301 5.33301 -11.333 12.666 -6 21.999z" />
    <glyph glyph-name="bullet" unicode="&#x2022;" 
 />
    <glyph glyph-name="Euro" unicode="&#x20ac;" horiz-adv-x="510" 
d="M279 555c46.667 24 97.3281 31.999 151.995 23.999c41.333 -6.66699 64 -20.334 68 -41.001c1.33301 -7.33301 -0.666992 -15.333 -6 -24s-10.666 -13.167 -15.999 -13.5s-13.666 2.83398 -24.999 9.50098c-35.333 22 -79.333 25.167 -132 9.5s-92 -43.5 -118 -83.5
l-23 -36h61c39.333 0 69.833 -3 91.5 -9s32.5 -14.333 32.5 -25s-16.667 -15.5 -50 -14.5s-66 2.83301 -98 5.5s-54.333 -2.66602 -67 -15.999c-8 -12 -12.667 -21.5 -14 -28.5s1.83398 -12.667 9.50098 -17s19.334 -7 35.001 -8s38.834 -1.5 69.501 -1.5
c78.667 0 120.334 -6 125.001 -18c1.33301 -5.33301 -8 -11 -28 -17c-21.333 -5.33301 -55.666 -8.33301 -102.999 -9c-31.333 0 -55.166 -0.666992 -71.499 -2s-29.833 -4.83301 -40.5 -10.5s-17.334 -12.5 -20.001 -20.5s-4 -20 -4 -36
c0 -14.667 2.33301 -30.334 7 -47.001s10 -29 16 -37c12.667 -18.667 33 -32.5 61 -41.5s55.333 -11.5 82 -7.5s45 14 55 30c8 12.667 16 17.334 24 14.001s12 -12.666 12 -27.999c0 -21.333 -16 -41 -48 -59s-62.667 -24.667 -92 -20c-25.333 4 -51.833 15.667 -79.5 35
s-48.167 40.666 -61.5 63.999c-6.66699 12.667 -11.5 32 -14.5 58s-5.33301 48.333 -7 67s-5.5 28 -11.5 28c-12 0 -16.333 6.66699 -13 20c3.33301 15.333 12 25 26 29c8 2.66699 15.167 7.5 21.5 14.5s10.5 14.5 12.5 22.5c3.33301 12 2.66602 19.5 -2.00098 22.5
s-16.334 3.5 -35.001 1.5c-16 -1.33301 -27.667 -0.333008 -35 3s-12 9.66602 -14 18.999c-2 10 0.5 16.667 7.5 20s23.167 5 48.5 5c29.333 0 49 3.16699 59 9.5s25.333 25.833 46 58.5c28 44.667 63.667 78.334 107 101.001z" />
    <glyph glyph-name=".null" horiz-adv-x="0" 
 />
    <glyph glyph-name="nonmarkingreturn" horiz-adv-x="333" 
 />
  </font>
</defs>
</svg>
