<?xml version="1.0" standalone="no"?>
<!DOCTYPE svg PUBLIC "-//W3C//DTD SVG 1.1//EN" "http://www.w3.org/Graphics/SVG/1.1/DTD/svg11.dtd" >
<svg>
<metadata>
Created by FontForge 20090914 at Tue Apr  9 12:21:56 2013
 By www-data
Typeface &#194;&#169; Zach Dunton. 2013. All Rights Reserved
</metadata>
<defs>
<font id="DuntonWriting" horiz-adv-x="1010" >
  <font-face 
    font-family="DuntonWriting"
    font-weight="400"
    font-stretch="normal"
    units-per-em="2048"
    panose-1="2 0 5 0 0 0 0 0 0 0"
    ascent="1638"
    descent="-410"
    x-height="584"
    cap-height="1434"
    bbox="-415.999 -584.001 2047 1740"
    underline-thickness="150"
    underline-position="-142"
    unicode-range="U+0020-U+F002"
  />
<missing-glyph horiz-adv-x="1024" 
d="M100 0v1434h824v-1434h-824zM150 50h724v1334h-724v-1334zM325 1148c20.667 18.667 40.002 32.998 58.002 42.998c35.333 20 72.666 30 111.999 30c61.333 0 110.666 -15.833 147.999 -47.5s56 -74.167 56 -127.5c0 -32.667 -7.66699 -65.5 -23 -98.5
s-44.333 -76.167 -87 -129.5c-42 -53.333 -75 -97.333 -99 -132s-36 -67.667 -36 -99c0 -25.333 8 -69.666 24 -132.999h-32c-23.333 64.667 -35 114 -35 148c0 50.667 27.167 123.334 81.5 218.001s81.5 167 81.5 217c0 38 -11 68 -33 90s-52.333 33 -91 33
c-25.333 0 -48.333 -5.66699 -69 -17c-17.333 -10 -36 -23.333 -56 -40v45zM389.002 333.998l57 57.999c7.33301 6.66699 14 10 20 10c6.66699 0 14 -3.66699 22 -11l56 -60c6 -7.33301 9 -14 9 -20c0 -7.33301 -3.33301 -14.666 -10 -21.999l-56 -62
c-9.33301 -9.33301 -16.333 -14 -21 -14c-7.33301 0 -14 3.33301 -20 10l-61 71c-4.66699 6 -7 12 -7 18c0 6.66699 3.66699 14 11 22z" />
    <glyph glyph-name=".notdef" horiz-adv-x="1024" 
d="M100 0v1434h824v-1434h-824zM150 50h724v1334h-724v-1334zM325 1148c20.667 18.667 40.002 32.998 58.002 42.998c35.333 20 72.666 30 111.999 30c61.333 0 110.666 -15.833 147.999 -47.5s56 -74.167 56 -127.5c0 -32.667 -7.66699 -65.5 -23 -98.5
s-44.333 -76.167 -87 -129.5c-42 -53.333 -75 -97.333 -99 -132s-36 -67.667 -36 -99c0 -25.333 8 -69.666 24 -132.999h-32c-23.333 64.667 -35 114 -35 148c0 50.667 27.167 123.334 81.5 218.001s81.5 167 81.5 217c0 38 -11 68 -33 90s-52.333 33 -91 33
c-25.333 0 -48.333 -5.66699 -69 -17c-17.333 -10 -36 -23.333 -56 -40v45zM389.002 333.998l57 57.999c7.33301 6.66699 14 10 20 10c6.66699 0 14 -3.66699 22 -11l56 -60c6 -7.33301 9 -14 9 -20c0 -7.33301 -3.33301 -14.666 -10 -21.999l-56 -62
c-9.33301 -9.33301 -16.333 -14 -21 -14c-7.33301 0 -14 3.33301 -20 10l-61 71c-4.66699 6 -7 12 -7 18c0 6.66699 3.66699 14 11 22z" />
    <glyph glyph-name="space" unicode=" " horiz-adv-x="508" 
 />
    <glyph glyph-name="space" unicode="&#xa0;" horiz-adv-x="508" 
 />
    <glyph glyph-name="exclam" unicode="!" horiz-adv-x="302" 
d="M208 1434c45.333 0 74.333 -26.332 87 -78.999c-30.667 -302 -66.667 -541.667 -108 -719c-20.667 -150 -42.667 -225 -66 -225h-9c-32 0 -55.333 22.333 -70 67l4 8v9c0 27.333 4 57.666 12 90.999c0 2.66699 -1.33301 4 -4 4c11.333 85.333 28 175.333 50 270l41 287
c0 3.33301 -1.33301 7.66602 -4 12.999l4 25v8c0 10 -1.33301 22.333 -4 37c2.66699 4.66699 4 13 4 25h-4c2.66699 2.66699 5.66699 20.667 9 54c-11.333 16.667 -17 29.334 -17 38.001c14 58 39 87 75 87zM96 179.001c20 0 41.999 -19.333 65.999 -58
c0.666992 -16.667 3.33398 -25 8.00098 -25c0 -38 -18 -70 -54 -96l-20 4c-3.33301 0 -7.66602 -1.33301 -12.999 -4c-55.333 27.333 -83 66 -83 116c13.333 42 43.666 63 90.999 63h5z" />
    <glyph glyph-name="quotedbl" unicode="&#x22;" horiz-adv-x="672" 
d="M49 1651c28 -6 54.6689 -31.333 80.002 -76c5.33301 0 10.666 -30.667 15.999 -92c-2.66699 -4.66699 -4 -10 -4 -16v-12c0 -2.66699 1.33301 -4 4 -4l-4 -8v-20c24 -62.667 36 -97.334 36 -104.001c0 -82.667 -18.667 -124 -56 -124
c-28.667 0 -59.334 25.333 -92.001 76c-7.33301 16.667 -14 46 -20 88c5.33301 58 8 119.333 8 184l-12 52c0 20.667 14.667 39.334 44 56.001zM233.002 1643c28 0 53.334 -19.999 76.001 -59.999c8.66699 0 15.334 -37.333 20.001 -112
c0 -6.66699 -1.33301 -17.334 -4 -32.001c0 -2.66699 1.33301 -6.66699 4 -12c-6.66699 -152 -25.334 -228 -56.001 -228v-4c-46.667 0 -73.334 32 -80.001 96c2.66699 79.333 4 146 4 200c0 22.667 -8 56 -24 100v4c14.667 32 34.667 48 60 48z" />
    <glyph glyph-name="numbersign" unicode="#" horiz-adv-x="1629" 
d="M1269 1430c61.333 -41.333 92 -83.334 92 -126.001v-52c0 -34 -19 -104.333 -57 -211l-57 -143c-4 0 -6 -2 -6 -6v-6c1.33301 -7.33301 5 -11 11 -11l195 6l28 -6c20 4 39.333 6 58 6h34c38 -5.33301 57 -28.333 57 -69c0 -64 -80 -102 -240 -114
c-39.333 -10 -121.333 -19.667 -246 -29c-33.333 -48 -60 -107 -80 -177l57 -17c14 7.33301 29.333 11 46 11h11c30.667 0 46 -13.333 46 -40c0 -6 3.66699 -13.667 11 -23c0 -54 -76 -101.667 -228 -143l-6 -11v-40c7.33301 -8 13 -33 17 -75
c-9.33301 -45.333 -32 -68 -68 -68c-65.333 34 -98 85.333 -98 154l-17 12h-17c-88 0 -132 -17.333 -132 -52c0 -11.333 -3.66699 -41.666 -11 -90.999l6 -12c-17.333 -52 -38.333 -84.333 -63 -97c-36 4.66699 -70.333 35 -103 91v69c0 4 -2 6 -6 6c8 20 12 41 12 63
c-21.333 10 -101.666 23.333 -240.999 40c-91.333 70 -137 121.333 -137 154v46c0 4.66699 15.333 18 46 40c176 -38 275 -57 297 -57v5l12 -5h46c10 0 17.333 28.667 22 86c6.66699 10 16.334 42.333 29.001 97c0 8.66699 -28.667 14.334 -86 17.001v-6l-11 6h-40
c-4 0 -6 -2 -6 -6l-11 6c-104 -4 -167 -6 -189 -6c-137.333 0 -206 25 -206 75c-14.667 0 -28 28.333 -40 85c0 22 19 45 57 69l217 -17c25.333 3.33301 50.333 5 75 5h91c21.333 0 48 -1.66699 80 -5l12 5c20.667 -3.33301 37.667 -5 51 -5c53.333 0 80 34.333 80 103
c11.333 38 21 97 29 177c8.66699 98.667 37.334 152 86.001 160c41.333 0 75.666 -34.333 102.999 -103c-18 -136 -39 -239 -63 -309c3.33301 -15.333 14.666 -23 33.999 -23h29l34 6l11 -6l35 6c26.667 -4 41.667 -6 45 -6c29.333 5.33301 48.666 24.666 57.999 57.999
c56.667 132 94.667 255.667 114 371v6c0 4 -2 6 -6 6c4 7.33301 6 13 6 17l-6 51c22 38.667 54.333 58 97 58zM778 651.999c-12.667 0 -28 -51.667 -46 -155v-40c44.667 4 77 6 97 6h23c20 20.667 48.667 83.667 86 189l-12 6c-64 -4 -113.333 -6 -148 -6z" />
    <glyph glyph-name="dollar" unicode="$" horiz-adv-x="1125" 
d="M912 1439l5.00293 -0.000976562c16.667 0 32.667 -26.667 48 -80c0 -2 -3 -22.667 -9 -62l5 -22h4c91.333 0 137 -13.333 137 -40c11.333 0 19 -20.667 23 -62c0 -17.333 -22.333 -36.333 -67 -57l-53 4h-44c-41.333 0 -62 -17.667 -62 -53
c-10.667 -12.667 -34.334 -73 -71.001 -181c-17.333 -31.333 -41 -84.666 -71 -159.999c74 -74 111 -140.333 111 -199v-13c0 -127.333 -107.667 -229.333 -323 -306c-18 -43.333 -37.333 -68.333 -58 -75h-4c-17.333 0 -32.333 19 -45 57h-17
c-44.667 0 -67 -11.667 -67 -35c-16.667 -103.333 -37.334 -155 -62.001 -155c-28 0 -50 34 -66 102c2.66699 53.333 4 87.333 4 102c-82 14.667 -152.667 54.334 -212 119.001c-12 27.333 -18 43.666 -18 48.999c2.66699 6 4 10.333 4 13h23c5.33301 0 8 4.33301 8 13
c125.333 -26 202.333 -39 231 -39c6 9.33301 20.667 65.333 44 168c29.333 72 44 132.333 44 181c-76.667 36.667 -115 85.667 -115 147c0 12.667 -1.33301 21.334 -4 26.001c0 97.333 56 175.666 168 234.999c82.667 34.667 124 65.667 124 93c0 2 7.33301 19.667 22 53v4
c0 6.66699 -1.33301 12.667 -4 18c8.66699 22 16 54.333 22 97c0 14.667 23.667 28 71 40c50 -8.66699 75 -26.334 75 -53.001v-26c8.66699 0 13 -4.66699 13 -14c0 -12 -7.33301 -40 -22 -84c2.66699 -5.33301 4 -9.66602 4 -12.999c77.333 0 116 26.667 116 80
c19.333 85.333 48.666 128 87.999 128zM549.003 818.999c39.333 -20.667 70.333 -31 93 -31c54 112 92.333 211 115 297h-4c-92 -14 -138 -36.333 -138 -67c-4.66699 0 -23.667 -54.333 -57 -163c-6 -21.333 -9 -33.333 -9 -36zM390.003 907.999v-5.00098
c0 -17.333 7.33301 -26 22 -26c14.667 23.333 22 41 22 53v9h-9c-23.333 -17.333 -35 -27.666 -35 -30.999zM496.003 659.998c-8.66699 -6 -33.667 -84.333 -75 -235c2.66699 -6 4 -10.333 4 -13c-8 0 -14 -15 -18 -45v-4l22 -4c34.667 0 70.334 60.333 107.001 181
c20.667 28.667 31 59.667 31 93c-40.667 18 -64.334 27 -71.001 27zM682.003 561.998c-18 -33.333 -35.668 -74.667 -53.001 -124c2.66699 0 4 -1.33301 4 -4c16.667 3.33301 43.334 25.333 80.001 66v27c0 23.333 -10.333 35 -31 35z" />
    <glyph glyph-name="percent" unicode="%" horiz-adv-x="1084" 
d="M990 1434c45.333 0 78.667 -35.333 100 -106c0 -38.667 -86.333 -158.667 -259 -360c-12.667 -22 -51.667 -74.667 -117 -158c-219.333 -318 -415 -579.333 -587 -784c-33.333 -17.333 -51 -26 -53 -26c-49.333 24 -74 57.667 -74 101v10
c10.667 33.333 102.334 155 275.001 365c127.333 170 208.666 284.667 243.999 344c4.66699 2 99.667 132.667 285 392c61.333 78 95 138 101 180c28.667 28 57 42 85 42zM265.001 1312c64.667 0 108.667 -42.333 132 -127c-25.333 -77.333 -57 -116 -95 -116
c-46.667 8.66699 -78.667 21 -96 37c-6.66699 22.667 -13.667 65 -21 127c26 52.667 52.667 79 80 79zM905.001 646c66.667 -27.333 100 -66.333 100 -117c-14 -70.667 -47.333 -106 -100 -106c0 -3.33301 -9 -5 -27 -5c-42 0 -75.333 58.333 -100 175
c0 35.333 42.333 53 127 53z" />
    <glyph glyph-name="ampersand" unicode="&#x26;" horiz-adv-x="1807" 
d="M852 1146c31.333 -8.66699 54 -23.3262 68 -43.9932c8.66699 -26.667 16.667 -44 24 -52l-4 -8v-12c8 -10 12 -19.333 12 -28v-52c0 -24.667 1.33301 -47.334 4 -68.001c0 -2.66699 -6.66699 -68 -20 -196c0 -14.667 42.667 -25.334 128 -32.001c0 -6 20 -10 60 -12h4
l24 4l292 -48v4l308 -40c4.66699 2.66699 10 4 16 4l32 -12l-4 -20l12 -28c-9.33301 -45.333 -40 -68 -92 -68c-4.66699 -2.66699 -11.334 -4 -20.001 -4c-26.667 2.66699 -46.667 4 -60 4v-4c-272.667 37.333 -502 66.666 -688 87.999h-20c-8 0 -14.667 -25.333 -20 -76
c0 -2 1.33301 -10 4 -24l-8 -44l16 -136c-5.33301 -0.666992 -8 -3.33398 -8 -8.00098l4 -24c-13.333 -40 -32 -60 -56 -60h-12c-40 0 -60 10.667 -60 32c-16 128.667 -41.333 222 -76 280c-16 28.667 -24 50 -24 64c-4.66699 0 -16.667 9.33301 -36 28l-236 28v-4
c-50.667 13.333 -144 32 -280 56c-88 38 -132 90 -132 156c0 17.333 -1.33301 30.666 -4 39.999c10 38 32.667 67.333 68 88c60.667 13.333 118 21.333 172 24c128 -17.333 192 -33.333 192 -48c62 -11.333 136.667 -55.333 224 -132c36 -50.667 70.667 -76 104 -76
c2.66699 0 4 1.33301 4 4l20 -4h32c6.66699 0 12 32 16 96c0 2.66699 -1.33301 6.66699 -4 12c2.66699 7.33301 5.33398 48.666 8.00098 123.999c0 16 -10.667 78.667 -32 188c0 9.33301 16 22.666 48 39.999zM244 778.008v-4.00098c0 -8.66699 33.333 -16.667 100 -24l4 8
c-27.333 10.667 -62 17.334 -104 20.001zM360 750.007v-8h24c0 5.33301 -2.66699 8 -8 8h-16z" />
    <glyph glyph-name="quotesingle" unicode="'" horiz-adv-x="183" 
d="M11 1634l23.998 0.000976562c30.667 -2.66699 69.334 -53.334 116.001 -152.001c18.667 -42.667 28 -89.334 28 -140.001c-2.66699 -27.333 -4 -43.333 -4 -48c2.66699 -10 4 -20.667 4 -32c-15.333 -26.667 -30 -40 -44 -40h-16c-45.333 20.667 -68 80.667 -68 180
c0 46.667 -16 109.334 -48 188.001v36c0.666992 5.33301 3.33398 8 8.00098 8z" />
    <glyph glyph-name="parenleft" unicode="(" horiz-adv-x="627" 
d="M563 1604c29.333 -17.333 48.332 -45.667 56.999 -85v-6c0 -24.667 -49.333 -108 -148 -250c-98 -156 -170 -313.667 -216 -473c-45.333 -173.333 -68 -319.333 -68 -438c0 -134 56.667 -223 170 -267h86c15.333 0 32.333 -26.667 51 -80l-6 -23
c8 -13.333 12 -28.333 12 -45l-80 -40c-94 12.667 -154.667 31.667 -182 57c-140.667 125.333 -211 224 -211 296c-8 0 -17.333 39.667 -28 119c0 382.667 131 762 393 1138c40.667 64.667 97.334 97 170.001 97z" />
    <glyph glyph-name="parenright" unicode=")" horiz-adv-x="576" 
d="M111 1661c44 -42.667 107.002 -129.668 189.002 -261.001c118 -205.333 186 -353.666 204 -444.999c46 -132 67.667 -294.667 65 -488c-8 -102 -13.333 -158.333 -16 -169l-11 -38c-2 -7.33301 -2 -14 0 -20c-4.66699 -4.66699 -8 -10.667 -10 -18l-7 -24
c-0.666992 -2.66699 0.666016 -4.66699 3.99902 -6c-41.333 -97.333 -87 -170 -137 -218c-44 -49.333 -96.333 -84.333 -157 -105c-65.333 34.667 -94.333 65 -87 91c-18 33.333 -25 57.333 -21 72l4 14c11.333 41.333 54 60.333 128 57c67.333 60 114.333 137.333 141 232
l-5 2c0.666992 2.66699 2.66699 3.66699 6 3c40 144.667 34.333 321.667 -17 531c-13.333 51.333 -42 127.333 -86 228c-4.66699 1.33301 -32.334 55 -83.001 161c-59.333 94.667 -124.333 185.667 -195 273c-9.33301 17.333 -16 43 -20 77c14 50.667 48 68.667 102 54z" />
    <glyph glyph-name="asterisk" unicode="*" horiz-adv-x="375" 
d="M184 1668c23.333 0 36.668 -22.6631 40.001 -67.9961c-2.66699 -7.33301 -4 -16 -4 -26h2c-2.66699 -6 -4 -17.333 -4 -34l4 -2c2.66699 1.33301 23.334 33.333 62.001 96c8 10 18 17.667 30 23c26.667 -8.66699 40 -28.334 40 -59.001
c0 -11.333 -36 -66.666 -108 -165.999c0 -4 29 -7.66699 87 -11c17.333 0 27 -5.66699 29 -17c4.66699 -4.66699 7 -9.33398 7 -14.001c-6 -13.333 -14.667 -23.333 -26 -30c0 -5.33301 -15.333 -9 -46 -11c-13.333 -2.66699 -21.333 -4 -24 -4v-2l17 -45v-8
c0 -24 -4.33301 -36 -13 -36h-2c-31.333 26 -57.333 54.333 -78 85h-4c-14.667 -74.667 -26 -129.334 -34 -164.001c0 -1.33301 -1 -2 -3 -2c-29.333 0 -44 22 -44 66c0 14 -5.66699 21 -17 21h-2c-6.66699 -6 -18.667 -12.333 -36 -19c-26 11.333 -39 24.666 -39 39.999
l3 5c-2 2.66699 -3 4.66699 -3 6c37.333 19.333 58.666 37 63.999 53v2h-2c-34.667 0 -56.667 10 -66 30c-14 12.667 -21 24.667 -21 36v2c0 9.33301 6.33301 16.333 19 21c48.667 -4 84 -6 106 -6c8.66699 0 13 2.66699 13 8c0 12 -13.333 36.333 -40 73
c-31.333 40 -47 63.333 -47 70v8c0 15.333 8.33301 23 25 23c20.667 0 45 -21 73 -63h4v15c0 3.33301 1.33301 7.33301 4 12c0 1.33301 -0.666992 5.66602 -2 12.999c6 48 13.667 72 23 72c1.33301 4.66699 5.66602 7 12.999 7z" />
    <glyph glyph-name="plus" unicode="+" horiz-adv-x="796" 
d="M316 1166l15.999 0.00195312c56 -10.667 84 -65.334 84 -164.001c2.66699 -22.667 4 -61.334 4 -116.001v-12c0 -5.33301 4 -8 12 -8s18.667 2.66699 32 8l8 -4c46.667 5.33301 74.667 8 84 8l28 -4c23.333 5.33301 51.333 9.33301 84 12l56 -4
c5.33301 2.66699 9.33301 4 12 4c20.667 0 39.334 -10.667 56.001 -32c-8 -56 -20 -84 -36 -84c0 -11.333 -78.667 -24.666 -236 -39.999l-108 -24c-4 0 -10.667 -57.333 -20 -172h4c-14.667 -64.667 -30.667 -99.334 -48 -104.001c-58.667 0 -88 18.667 -88 56
c-4 0 -10.667 8 -20 24v24c0 2 6.66699 47.333 20 136l-12 8c-74.667 -6 -118.667 -11.333 -132 -16c-46 10 -79.333 31.333 -100 64c-10.667 18.667 -16 32 -16 40c0 32 38.667 48 116 48c109.333 10 164 28.667 164 56c0 24 1.33301 44 4 60c0 2.66699 -1.33301 4 -4 4
l4 40v32c0 19.333 -6.66699 55.333 -20 108c0 34.667 17.333 52 52 52z" />
    <glyph glyph-name="comma" unicode="," horiz-adv-x="265" 
d="M160 269c49.333 0 84 -48 104 -144c-21.333 -121.333 -56 -224 -104 -308c-24.667 -66.667 -46 -100 -64 -100c-43.333 0 -75.333 32 -96 96c0 16 30.667 90.667 92 224c13.333 46 20 75.333 20 88c0 2.66699 -1.33301 6.66699 -4 12c2.66699 4.66699 4 10 4 16
c-5.33301 24 -8 41.333 -8 52c11.333 42.667 30 64 56 64z" />
    <glyph glyph-name="hyphen" unicode="-" horiz-adv-x="599" 
d="M478 556c6.66699 -4 13.999 -6 21.999 -6c4 0 7.66699 1 11 3c32.667 0 53 -12 61 -36v-3c-8 -26 -13.667 -39.667 -17 -41c-9.33301 -14.667 -61 -22 -155 -22l-5 -3c-3.33301 2 -7.33301 3 -12 3c-10 0 -33 -2 -69 -6l-16 3c-37.333 -3.33301 -104 -7 -200 -11
c-0.666992 0 -12.667 1 -36 3v-3c-20.667 0 -42.667 20.333 -66 61v8c4 28 16 42 36 42l33 -3h80c2 0 3 1 3 3c2 0 3 -1 3 -3c16.667 2 52.667 3.66699 108 5l14 -5c14.667 3.33301 32 5 52 5h3c11.333 0 25.333 -0.666992 42 -2c14.667 3.33301 30.334 5 47.001 5h49
c4.66699 0 8.66699 1 12 3z" />
    <glyph glyph-name="hyphen" unicode="&#xad;" horiz-adv-x="599" 
d="M478 556c6.66699 -4 13.999 -6 21.999 -6c4 0 7.66699 1 11 3c32.667 0 53 -12 61 -36v-3c-8 -26 -13.667 -39.667 -17 -41c-9.33301 -14.667 -61 -22 -155 -22l-5 -3c-3.33301 2 -7.33301 3 -12 3c-10 0 -33 -2 -69 -6l-16 3c-37.333 -3.33301 -104 -7 -200 -11
c-0.666992 0 -12.667 1 -36 3v-3c-20.667 0 -42.667 20.333 -66 61v8c4 28 16 42 36 42l33 -3h80c2 0 3 1 3 3c2 0 3 -1 3 -3c16.667 2 52.667 3.66699 108 5l14 -5c14.667 3.33301 32 5 52 5h3c11.333 0 25.333 -0.666992 42 -2c14.667 3.33301 30.334 5 47.001 5h49
c4.66699 0 8.66699 1 12 3z" />
    <glyph glyph-name="period" unicode="." horiz-adv-x="220" 
d="M68 188l7.99902 -3.99805l8 4c32.667 0 63.334 -17.333 92.001 -52c0 -13.333 5.33301 -20 16 -20v-16l16 -44v-12c-30.667 -28 -58.667 -42.667 -84 -44c-2 0 -12.667 1.33301 -32 4c-5.33301 -2.66699 -9.33301 -4 -12 -4c0 3.33301 -14.667 12.666 -44 27.999
c-24 43.333 -36 80.666 -36 111.999c18 32 40.667 48 68 48z" />
    <glyph glyph-name="slash" unicode="/" horiz-adv-x="938" 
d="M800 1439l16 -0.000976562c64 -10.667 96 -39.667 96 -87c10.667 -34.667 16 -58.334 16 -71.001l-24 -65c-40 -35.333 -88 -106.333 -144 -213l-296 -496c-3.33301 0 -43.333 -61.667 -120 -185c-86 -120.667 -135.333 -209.667 -148 -267
c-23.333 -23.333 -54 -41.666 -92 -54.999c-61.333 24 -92 55 -92 93c-8 3.33301 -12 14 -12 32v6c-0 31.333 21.333 62 64 92c48.667 74 79.334 119.667 92.001 137c31.333 52.667 88.666 139.667 171.999 261c282.667 462.667 424 706.334 424 731.001
c0 28.667 16 57.667 48 87z" />
    <glyph glyph-name="zero" unicode="0" horiz-adv-x="1014" 
d="M476 1434c98.667 -30.667 156 -60.668 172 -90.001l88 -71h8c10 0 40.667 19.333 92 58c9.33301 8.66699 41.333 17 96 25c48 -25.333 72 -68.333 72 -129c0 -18 -8 -41.667 -24 -71v-6l8 -20c-61.333 -37.333 -98.666 -65.333 -111.999 -84
c50.667 -182.667 76 -342 76 -478c0 -84 -21.333 -178.667 -64 -284c-5.33301 0 -21.333 -21.333 -48 -64c-59.333 -82 -135.333 -138 -228 -168c-28.667 -20 -83.334 -37.333 -164.001 -52l-8 6h-28c-11.333 0 -26 -2 -44 -6c-106 38.667 -179.333 81.667 -220 129
c-96 129.333 -144 256.333 -144 381c-2.66699 0 -4 6.66699 -4 20v45c0 46.667 12 126.334 36 239.001c16 20 37.333 78 64 174c86.667 212.667 192 355 316 427c40 4 60 10.333 60 19zM140 490.999c0 -107.333 42.666 -182.666 127.999 -225.999
c4.66699 -4.66699 10 -7 16 -7l60 220l44 155l124 297c-5.33301 20 -10.666 30.667 -15.999 32c-5.33301 -4 -9.33301 -6 -12 -6c-40 53.333 -60 94.333 -60 123c-8 21.333 -13.333 32 -16 32c-114.667 -100.667 -200 -270.667 -256 -510
c-2.66699 -50.667 -6.66699 -87.334 -12 -110.001zM527.999 994.999l-0.00195312 -7c0.666992 -8.66699 3.33398 -13 8.00098 -13c2.66699 0 25.334 39 68.001 117v6c0 8.66699 -2.66699 13 -8 13h-4c-28 0 -48 -36.667 -60 -110c-2.66699 0 -4 -2 -4 -6zM439.997 257.999
l0.000976562 -13c119.333 0 232.666 71.333 339.999 214c24 69.333 36 153.333 36 252c-10.667 78.667 -25.334 156 -44.001 232h-4c-30.667 0 -104 -120.667 -220 -362c0 -10 -18.667 -59.333 -56 -148c-27.333 -70 -44.666 -128.333 -51.999 -175z" />
    <glyph glyph-name="one" unicode="1" horiz-adv-x="984" 
d="M308 41c-3.33301 -1.33301 -6.99902 -2.66602 -10.999 -3.99902l-36 -9c-32.667 -8.66699 -74.334 -17.334 -125.001 -26.001c-62.667 0 -105.334 29 -128.001 87l-8 18c0 43.333 12 65 36 65c205.333 16 308 46.333 308 91c40 142.667 93.333 285 160 427
c56.667 134 130 280.667 220 440c0 4 9.33301 25.667 28 65v9c-54.667 -21.333 -130.667 -70.666 -228 -147.999c-26 -23.333 -44.667 -35 -56 -35c-40 0 -73.333 23 -100 69v14c0 23.333 46.667 67 140 131c24.667 12 82 49.667 172 113
c120 53.333 186.667 80.666 200 81.999h4c64 -20 96 -53.333 96 -100h4c-21.333 -80 -54.666 -157 -99.999 -231c-134.667 -217.333 -246.667 -451 -336 -701c-21.333 -50 -32 -84.667 -32 -104h12c40.667 10.667 103.334 33.667 188.001 69c42.667 15.333 66.667 23 72 23
h16c13.333 0 29.333 -11.667 48 -35v-14c-18.667 -52 -81.334 -102.667 -188.001 -152c-51.333 -27.333 -105 -52.333 -161 -75l-194 -69h-1z" />
    <glyph glyph-name="two" unicode="2" horiz-adv-x="915" 
d="M76 1434c32 -6 52.998 -8.99805 62.998 -8.99805h13c204.667 0 390 -34.333 556 -103c96 -46 157.333 -107.333 184 -184c12 -32.667 18 -56.334 18 -71.001c-9.33301 -77.333 -29 -138.666 -59 -183.999c-19.333 -56 -120.666 -169.667 -303.999 -341
c-230 -210 -345 -325 -345 -345h4c6 -2.66699 10.667 -4 14 -4c30.667 0 169.334 20.667 416.001 62h14c26.667 -4.66699 40 -19.334 40 -44.001c-10.667 -62.667 -28.667 -94 -54 -94c0 -25.333 -83.667 -54 -251 -86c-23.333 -12 -78.333 -22.333 -165 -31
c-2.66699 0 -11.667 1.33301 -27 4l-45 -4c-84 24.667 -126 54.667 -126 90c-12 0 -19.333 34.333 -22 103c0 65.333 110.667 192.333 332 381c283.333 252 425 428 425 528c0 47.333 -110.333 93.666 -331 138.999c-106.667 9.33301 -168 14 -184 14l-18 -5
c-6 3.33301 -10.333 5 -13 5c-16 -3.33301 -25 -5 -27 -5c-16 3.33301 -29.667 5 -41 5v-5c-33.333 0 -69 22.333 -107 67l-14 45c0 48 15 72 45 72h9z" />
    <glyph glyph-name="three" unicode="3" horiz-adv-x="910" 
d="M139 1434c50.667 -16.667 150 -35.002 298 -55.002v5c152.667 -24.667 253.667 -58.334 303 -101.001c36.667 -34.667 60.667 -77 72 -127c0 -93.333 -75.667 -187 -227 -281c0 -3.33301 -15.667 -19 -47 -47v-21c23.333 -34.667 102 -108.667 236 -222
c86.667 -89.333 130 -180.666 130 -273.999c0 -48.667 -40.667 -107.334 -122 -176.001c-72.667 -34.667 -168 -63 -286 -85c-87.333 -17.333 -217.666 -32.666 -390.999 -45.999c0 -2.66699 -1.33301 -4 -4 -4c-64.667 12 -97 44.333 -97 97
c-2.66699 14.667 -4 28.667 -4 42c0 40 9.66699 69.333 29 88c27.333 44.667 55.666 67 84.999 67c10 11.333 22.333 17 37 17l30 -33c0 -30 1.33301 -51.333 4 -64c-8.66699 -2.66699 -13 -11 -13 -25v-8h38c362 54 543 118.333 543 193
c0 30.667 -85.667 116.334 -257 257.001c-72.667 77.333 -109 144.666 -109 201.999c0 90.667 42 159.334 126 206.001c90 61.333 135 104.666 135 129.999c0 10.667 -85.667 27.667 -257 51c-2.66699 0 -7 -1.66699 -13 -5c-173.333 16.667 -260 39.334 -260 68.001
c-20 28 -30 51.667 -30 71c0 44.667 15.667 71.334 47 80.001h4z" />
    <glyph glyph-name="four" unicode="4" horiz-adv-x="723" 
d="M251 1429c30.667 0 57.0029 -26.334 79.0029 -79.001c0 -8 1.33301 -14 4 -18c0 -48 -39.667 -108 -119 -180c-62 -91.333 -93 -154.666 -93 -189.999c14 -21.333 60.667 -32 140 -32h4c13.333 0 21.666 1 24.999 3c12.667 -2 23.334 -3 32.001 -3h36
c90.667 8 136 16.333 136 25h18c43.333 126 65 211 65 255l-4 18c6 0 13.333 28.667 22 86c9.33301 14 20 21 32 21c29.333 0 59.333 -28.667 90 -86c-4.66699 -7.33301 -7 -13.333 -7 -18c0 -1.33301 1 -8.33301 3 -21c-10 -52 -21.667 -103.667 -35 -155
c-9.33301 -36.667 -30 -101 -62 -193c-85.333 -188.667 -146.333 -350.334 -183 -485.001c-12 -54 -20.333 -135.333 -25 -244l15 -79c0 -16 -14.333 -34 -43 -54h-4c-16 0 -34 18 -54 54c-16.667 3.33301 -25 64.333 -25 183c17.333 165.333 31.666 248 42.999 248
c0 24.667 31 115.334 93 272.001v15c0 4.66699 -2.33301 7 -7 7l-57 -7c-4.66699 2 -8.33398 3 -11.001 3c-6.66699 -3.33301 -29.334 -6.66602 -68.001 -9.99902l-7 3c-28.667 -2 -49 -3 -61 -3c-107.333 0 -179.333 47.667 -216 143c-2.66699 24.667 -5 39 -7 43l4 22v3
c0 2.66699 -1.33301 4 -4 4c16 92.667 43.667 167 83 223c90 113.333 135.333 182.666 136 207.999c3.33301 2.66699 14 8.66699 32 18z" />
    <glyph glyph-name="five" unicode="5" horiz-adv-x="1014" 
d="M700 1434c58.667 -13.333 87.999 -36.002 87.999 -68.002c4.66699 -4.66699 12.667 -25.667 24 -63c-10.667 -39.333 -34.667 -59 -72 -59c-14.667 0 -33.334 1.66699 -56.001 5c-164.667 -27.333 -304.667 -74.333 -420 -141c-37.333 -10.667 -56 -21 -56 -31
c18.667 -69.333 28 -116.333 28 -141v-58c0 -7.33301 1.33301 -13.666 4 -18.999c-2.66699 -4.66699 -5.33398 -22.667 -8.00098 -54c62.667 3.33301 109.334 5 140.001 5h24c2.66699 0 4 1.33301 4 4c5.33301 -2.66699 9.33301 -4 12 -4
c103.333 0 228.666 -37.667 375.999 -113c70.667 -44.667 126.667 -91.667 168 -141c34.667 -69.333 52 -125 52 -167c0 -84 -58.667 -174.333 -176 -271c-131.333 -69.333 -246 -104 -344 -104c-2.66699 0 -4 -1.66699 -4 -5c-5.33301 3.33301 -9.33301 5 -12 5
c-13.333 0 -20 -3 -20 -9c-2.66699 0 -4 1.33301 -4 4l-80 -9c-10 3.33301 -22 5 -36 5h-4c-2.66699 0 -4 -1.66699 -4 -5c-7.33301 5.33301 -46 10 -116 14v4l-48 -4h-68c-50 0 -79.333 43.667 -88 131v13c26 24.667 58 37 96 37h4c12.667 0 26 -1.66699 40 -5
c2.66699 0 6.66699 1.66699 12 5c69.333 -3.33301 128 -8 176 -14c1.33301 0 6.66602 1.33301 15.999 4l20 -4c169.333 0 312 51.333 428 154c40 46 60 77.667 60 95v4c0 68 -108 130 -324 186c-37.333 6 -61.333 9 -72 9c-18.667 0 -28 -3 -28 -9l-8 4h-36
c-69.333 0 -134.666 -34.667 -195.999 -104c-8.66699 -6 -16.667 -9 -24 -9h-20c-50.667 22 -76 53.667 -76 95c-3.33301 0 -8.66602 25.667 -15.999 77c10.667 58.667 21.334 131 32.001 217l-4 41c2.66699 26.667 4 43.334 4 50.001l-56 54c-21.333 58 -32 92.667 -32 104
c0 45.333 32 68 96 68c68.667 44 151.334 81.667 248.001 113c55.333 30 174 64.667 356 104z" />
    <glyph glyph-name="six" unicode="6" horiz-adv-x="947" 
d="M683 1434l34.002 0.00390625c58 -6 117.333 -38 178 -96c0 -9.33301 9.66699 -27 29 -53c-9.33301 -51.333 -23.666 -77 -42.999 -77c-62 25.333 -105.333 38 -130 38h-15c-97.333 0 -198.333 -64 -303 -192c-84 -121.333 -146.667 -233.666 -188 -336.999
c-45.333 -96.667 -69.333 -178.334 -72 -245.001v-53c6 0 19 22.333 39 67c37.333 59.333 85.333 99.333 144 120c1.33301 11.333 44.666 30.666 129.999 57.999l10 -5h14c32 13.333 72 20 120 20c147.333 0 248.666 -64.333 303.999 -193c6 -26 9 -42 9 -48v-24
c0 -128.667 -67.333 -231.334 -202 -308.001c0 -17.333 -80.333 -49.333 -241 -96c-2.66699 -3.33301 -15.334 -5 -38.001 -5h-63c-2.66699 0 -4 -1.66699 -4 -5c-80 15.333 -162 45.666 -246 90.999c0 9.33301 -27.333 41.666 -82 96.999c-21.333 39.333 -39 89 -53 149
c-9.33301 41.333 -14 73.333 -14 96v63c0 78 54.667 240 164 486c59.333 117.333 128.333 213.333 207 288c102.667 102.667 190.667 154 264 154c0 6 16 9.33301 48 10zM342.002 303.004c3.33301 -33.333 13.001 -65.333 29.001 -96h33l29 5c6 -3.33301 11 -5 15 -5
c75.333 0 166.666 40 273.999 120c38.667 54.667 58 90 58 106c-2 38.667 -48.667 58 -140 58c-62 0 -137.333 -25.667 -226 -77c-37.333 -37.333 -61.333 -74.333 -72 -111z" />
    <glyph glyph-name="seven" unicode="7" horiz-adv-x="974" 
d="M84 1429c67.333 -14 111.334 -28.335 132.001 -43.002h16c8 0 15 2 21 6c33.333 -10 140.666 -26 321.999 -48c142.667 -29.333 237.334 -69.666 284.001 -120.999c74 -62.667 111 -124 111 -184v-32c0 -148 -146 -373 -438 -675c-119.333 -107.333 -179 -188 -179 -242
c-10 0 -46.667 -23 -110 -69l-48 -21c-77.333 20 -116 76.333 -116 169v10c0 23.333 73.667 99 221 227c309.333 322 464 538 464 648c0 24.667 -86 54.667 -258 90c-12 -3.33301 -19 -5 -21 -5c-280.667 12.667 -424.667 39 -432 79c-18.667 0 -32.667 33.333 -42 100
c-2.66699 0 -6.33398 5.33301 -11.001 16c0 34.667 28 66.334 84 95.001z" />
    <glyph glyph-name="eight" unicode="8" horiz-adv-x="723" 
d="M413 1434c77.333 -16.667 128 -38.999 152 -66.999c16.667 -30.667 25 -49 25 -55c-16.667 -28 -32 -42 -46 -42c-52.667 0 -87.667 14 -105 42h-17c-53.333 0 -136.333 -43.667 -249 -131c-11.333 -16 -17 -28.667 -17 -38c0 -32 26.667 -67 80 -105
c124 -82 190 -123 198 -123c52 32 105.667 57.333 161 76c0 4.66699 14 10.334 42 17.001c38 -16 66 -37 84 -63v-13c0 -26.667 -43.667 -59 -131 -97c-31.333 -15.333 -51 -29.333 -59 -42v-17c31.333 -52.667 47 -109 47 -169v-59c0 -83.333 -55 -202.666 -165 -357.999
c-120 -121.333 -207 -182 -261 -182c0 -5.33301 -14 -8 -42 -8c-29.333 4 -59 23.667 -89 59c-9.33301 22.667 -16.333 34 -21 34c-0 92.667 32.333 217.667 97 375c42.667 112 73.667 171 93 177c0 28 32.333 74.333 97 139c22.667 22 34 39 34 51
c-41.333 35.333 -113.333 84.666 -216 147.999c-61.333 73.333 -92 136.666 -92 189.999c0 55.333 25.333 94.666 76 117.999c122.667 92.667 228 139 316 139c0 2.66699 2.66699 4 8 4zM148 160.001h16c31.333 13.333 89 68.333 173 165c64.667 96 97 166.333 97 211
c3.33301 0 7.66602 15.333 12.999 46c-3.33301 72 -11.666 110 -24.999 114h-9c-90 -88 -147.667 -168 -173 -240c-33.333 -75.333 -64 -174 -92 -296z" />
    <glyph glyph-name="nine" unicode="9" horiz-adv-x="668" 
d="M484 1439c70 0 127.333 -31.666 172 -94.999l5 -27v-9c-20.667 -21.333 -39 -32 -55 -32c-32.667 12 -59.667 18 -81 18h-18c-88 0 -195 -83 -321 -249c-21.333 -25.333 -32 -57 -32 -95c12.667 -12 24.667 -18 36 -18h32c24 0 67.667 18 131 54c8 0 32 15.333 72 46
l23 4h5c72 -19.333 108 -51 108 -95l5 -9c-114.667 -290 -193.334 -534.333 -236.001 -733c-12 -123.333 -22.333 -185 -31 -185c0 -4.66699 -15.333 -9.33398 -46 -14.001c-36 0 -61.667 37.667 -77 113c0 110 53 333.333 159 670c-3.33301 6 -5 10.333 -5 13h-9l-86 -22
c-93.333 0 -165.666 45.333 -216.999 136c0 12 -6 34.333 -18 67l5 28v9c0 2.66699 -1.66699 4 -5 4c28 71.333 90 159 186 263c114.667 105.333 214 158 298 158z" />
    <glyph glyph-name="colon" unicode=":" horiz-adv-x="557" 
d="M145 167l82.001 84c10 9.33301 19.667 14 29 14c8.66699 0 19 -5.33301 31 -16l80 -86c8 -10.667 12 -20.334 12 -29.001c0 -10 -4.66699 -20.333 -14 -31l-80 -88c-13.333 -13.333 -23 -20 -29 -20c-10.667 0 -20.334 4.66699 -29.001 14l-88 101
c-6.66699 8.66699 -10 17.334 -10 26.001c0 10 5.33301 20.333 16 31zM145.001 860l82.001 84c10 9.33301 19.667 14 29 14c8.66699 0 19 -5.33301 31 -16l80 -86c8 -10.667 12 -20.334 12 -29.001c0 -10 -4.66699 -20.333 -14 -31l-80 -88c-13.333 -13.333 -23 -20 -29 -20
c-10.667 0 -20.334 4.66699 -29.001 14l-88 101c-6.66699 8.66699 -10 17.334 -10 26.001c0 10 5.33301 20.333 16 31z" />
    <glyph glyph-name="semicolon" unicode=";" horiz-adv-x="265" 
d="M162 517c45.333 -16 68 -36 68 -60c11.333 0 18 -22.667 20 -68c-19.333 -45.333 -36.666 -68 -51.999 -68c-53.333 10.667 -80 30.667 -80 60c-6.66699 0 -13.334 12 -20.001 36l4 20v40c11.333 26.667 31.333 40 60 40zM158 181c43.333 0 72.667 -21.335 88 -64.002
c10.667 -30.667 16 -48 16 -52c0 -49.333 -50.667 -130.666 -152 -243.999c-17.333 -5.33301 -29.333 -8 -36 -8c-32 8.66699 -48 28.667 -48 60c0 12.667 -2.66699 22 -8 28c0 14.667 28 73.334 84 176.001c8 69.333 26.667 104 56 104z" />
    <glyph glyph-name="semicolon" unicode="&#x37e;" horiz-adv-x="265" 
d="M162 517c45.333 -16 68 -36 68 -60c11.333 0 18 -22.667 20 -68c-19.333 -45.333 -36.666 -68 -51.999 -68c-53.333 10.667 -80 30.667 -80 60c-6.66699 0 -13.334 12 -20.001 36l4 20v40c11.333 26.667 31.333 40 60 40zM158 181c43.333 0 72.667 -21.335 88 -64.002
c10.667 -30.667 16 -48 16 -52c0 -49.333 -50.667 -130.666 -152 -243.999c-17.333 -5.33301 -29.333 -8 -36 -8c-32 8.66699 -48 28.667 -48 60c0 12.667 -2.66699 22 -8 28c0 14.667 28 73.334 84 176.001c8 69.333 26.667 104 56 104z" />
    <glyph glyph-name="less" unicode="&#x3c;" horiz-adv-x="705" 
d="M446 798c36 0 58.6689 -10.666 68.002 -31.999c5.33301 -1.33301 14.666 -21.333 27.999 -60c-6.66699 -30 -18.667 -51.333 -36 -64c-22.667 -8 -101.334 -72 -236.001 -192v-8c22.667 -2.66699 40 -4 52 -4c2.66699 0 4 1.33301 4 4l20 -4h220c57.333 0 92 -24 104 -72
c5.33301 0 12 -12 20 -36c-7.33301 -20 -20.666 -37.333 -39.999 -52c-51.333 2.66699 -84.666 4 -99.999 4c-130.667 -2 -196 -6 -196 -12c-4.66699 2.66699 -11.334 4 -20.001 4c-6.66699 0 -17.334 -1.33301 -32.001 -4l-40 8l-20 -4
c-133.333 4.66699 -200 16.667 -200 36c-13.333 5.33301 -28 21.333 -44 48c0 58.667 17.333 98.667 52 120c8 0 34.667 25.333 80 76c65.333 47.333 157.333 128.666 276 243.999h40z" />
    <glyph glyph-name="equal" unicode="=" horiz-adv-x="732" 
d="M544 718c112 0 168.001 -29.333 168.001 -88v-20c0 -22 -14.667 -36.667 -44 -44c-10.667 0 -21.334 1.33301 -32.001 4l-20 -4l-24 4c-134 -13.333 -203.333 -20 -208 -20c-4.66699 2.66699 -11.334 4 -20.001 4c-8.66699 -5.33301 -16.667 -8 -24 -8h-8
c-9.33301 0 -21.333 1.33301 -36 4c-13.333 -8 -22.666 -12 -27.999 -12c-48 0 -93.333 6.66699 -136 20c-28.667 0 -52.667 32 -72 96c0 34.667 20 52 60 52l68 -12c51.333 0 170 8 356 24zM76.001 478c50 -18.667 113.999 -28 191.999 -28c10.667 2.66699 20 4 28 4
c18 -2.66699 32.667 -4 44 -4l8 4c2.66699 0 4 -1.33301 4 -4l48 4h48c6 0 11.333 1.33301 16 4l8 -4c78.667 2.66699 130.667 4 156 4c40 0 69.333 -9.33301 88 -28c5.33301 2.66699 9.33301 4 12 4v-12c-21.333 -17.333 -32 -29.333 -32 -36
c-26 -15.333 -62 -31.333 -108 -48c0 -8 -34.667 -12 -104 -12h-20c-59.333 -10.667 -132.666 -16 -219.999 -16h-132c-58.667 18.667 -88 36 -88 52c-16 21.333 -24 41.333 -24 60c8 37.333 33.333 56 76 56z" />
    <glyph glyph-name="greater" unicode="&#x3e;" horiz-adv-x="1014" 
d="M284 792c118.667 -115.333 210.67 -196.667 276.003 -244c46 -50.667 72.667 -76 80 -76c34.667 -21.333 52 -61.333 52 -120c-16 -26.667 -30.667 -42.667 -44 -48c0 -19.333 -66.667 -31.333 -200 -36l-20 4l-40 -8c-14.667 2.66699 -25.334 4 -32.001 4
c-8.66699 0 -15.334 -1.33301 -20.001 -4c0 6 -65.333 10 -196 12c-15.333 0 -48.666 -1.33301 -99.999 -4c-18.667 14.667 -32 32 -40 52c8 24 14.667 36 20 36c12 48 46.667 72 104 72h220l20 4c0 -2.66699 1.33301 -4 4 -4c12 0 29.333 1.33301 52 4v8
c-134.667 120 -213.334 184 -236.001 192c-17.333 12.667 -29.333 34 -36 64c13.333 38.667 22.666 58.667 27.999 60c9.33301 21.333 32 32 68 32h40z" />
    <glyph glyph-name="question" unicode="?" horiz-adv-x="833" 
d="M57 1434c34 -7.33301 156.335 -14 367.002 -20c165.333 -36.667 248 -66.667 248 -90c43.333 -14.667 82.666 -56.667 117.999 -126l25 -94l-4 -8v-25c0 -88 -51.667 -195 -155 -321c0 -4.66699 -47.667 -72.667 -143 -204c-13.333 -19.333 -25.333 -69.666 -36 -150.999
c-26 -8 -39.667 -12 -41 -12c-30 7.33301 -53 22.333 -69 45c-22 37.333 -33 68.333 -33 93c0 51.333 85.667 184.666 257 399.999c0 4 15 29.667 45 77c26.667 54.667 40 99.667 40 135v16c-63.333 65.333 -128.333 98 -195 98c0 5.33301 -51.667 12 -155 20
c-43.333 -2.66699 -73.333 -6.66699 -90 -12c-6.66699 0 -17.334 1.33301 -32.001 4c-53.333 -4 -82 -6.66699 -86 -8c-46 8 -74.333 18.667 -85 32c-22 34 -33 58.667 -33 74v20c0 18.667 19 37.667 57 57zM249.002 208h48.001c29.333 0 55.333 -24.667 78 -74
c-2.66699 -4.66699 -4 -8.66699 -4 -12c6 -2 14 -21 24 -57c0 -43.333 -31.333 -65 -94 -65h-4c-47.333 24 -74.333 51 -81 81c-8 16.667 -13.333 38.667 -16 66c3.33301 12.667 19.666 33 48.999 61z" />
    <glyph glyph-name="at" unicode="@" horiz-adv-x="1354" 
d="M858 1254c197.333 0 319.332 -81.999 365.999 -245.999c7.33301 -20 14.333 -67 21 -141v-21c0 -14.667 -1.66699 -34 -5 -58l5 -10c0 -87.333 -29.667 -187 -89 -299c-76 -114.667 -180.667 -187.667 -314 -219c-126 -56 -201 -84 -225 -84h-36
c-69.333 0 -128.666 54 -177.999 162v63c0 164 71.333 287.667 214 371c32.667 24.667 78 37 136 37c35.333 0 63.333 -33 84 -99c0 -44.667 -40 -81.334 -120 -110.001v-21c45.333 -28 89 -64.667 131 -110h5c84 31.333 152 83.666 204 156.999
c31.333 88.667 47 181 47 277c-24.667 80.667 -54.334 129.667 -89.001 147c-19.333 10 -50.666 18.667 -93.999 26c-3.33301 0 -5 -1.66699 -5 -5l-37 5c-210.667 0 -420 -139.667 -628 -419c-56 -102 -87.333 -180.333 -94 -235v-84c0 -106.667 75 -204.334 225 -293.001
c104 -28 184.333 -42 241 -42h47c102.667 0 209 14 319 42h31c8.66699 14 78.667 38.333 210 73c18.667 3.33301 32.667 5 42 5l10 -5c6 3.33301 13 5 21 5c22 -11.333 37.667 -21.666 47 -30.999c-61.333 -86.667 -138 -142.334 -230 -167.001
c-169.333 -70 -335 -105 -497 -105c-118.667 0 -241 33 -367 99c-123.333 94.667 -198.333 187.334 -225 278.001c-20.667 81.333 -31 137 -31 167c-0 137.333 59.333 291 178 461c155.333 176 249.333 265 282 267c97.333 70 172.333 113.333 225 130
c37.333 10.667 95 21.334 173 32.001z" />
    <glyph glyph-name="A" unicode="A" horiz-adv-x="732" 
d="M507 1439h29.999c20.667 -4 31 -13 31 -27v-3c0 -3.33301 -13.333 -68.666 -40 -195.999c-14 -68 -21 -154.667 -21 -260c0 -168.667 26 -323 78 -463c26.667 -92 54.334 -171.667 83.001 -239c21.333 -43.333 41 -75 59 -95c4 0 6 -7.66699 6 -23
c0 -17.333 -13.333 -28 -40 -32c-23.333 8 -41 22.333 -53 43c-11.333 34.667 -81.666 125.334 -210.999 272.001c-60.667 56 -120 85.667 -178 89c-8 4 -22.667 6 -44 6h-17c-4 0 -10.333 -21 -19 -63c-24 -67.333 -47.333 -154 -70 -260l-2 -15l2 -4
c-4 0 -8.66699 -43 -14 -129h2c-5.33301 -26.667 -17.333 -40 -36 -40c-32.667 9.33301 -49 25.666 -49 48.999c-0.666992 0 -2 2 -4 6c7.33301 12.667 11 28 11 46l-3 5c4.66699 36.667 24 138 58 304c2.66699 9.33301 9 43.666 19 102.999c-4.66699 3.33301 -9 5 -13 5
c-10 -1.33301 -15.667 -2 -17 -2c-34 12 -51 26 -51 42v4c0 18.667 17.667 29.334 53 32.001h17l21 -2c28 140.667 47 260.334 57 359.001c4 45.333 6 70 6 74v4c0 5.33301 -2.66699 13.666 -8 24.999c0 15.333 10 24.666 30 27.999c29.333 -6 44 -20.667 44 -44
c2 -18.667 3.33301 -28 4 -28l-2 -11v-2c0 -10 -8.33301 -78.333 -25 -205h6c2.66699 0 5.66699 9.33301 9 28c18 28 27 49 27 63l123 294c49.333 110 83.666 182.667 102.999 218c17.333 29.333 30 44 38 44zM443.999 1183c-50.667 -110 -106.333 -246 -167 -408
c-30 -73.333 -52 -135 -66 -185v-7c0 -3.33301 17 -6.66602 51 -9.99902c64.667 -15.333 116.667 -39.333 156 -72c27.333 -20.667 65.333 -58 114 -112h7v2l-64 228c0 6 -6.33301 35.667 -19 89c-10.667 89.333 -16 140 -16 152c1.33301 2.66699 2 4.66699 2 6
c-3.33301 18 -5 33 -5 45v6c0 4 -0.666992 6 -2 6l2 13c0 14 -0.666992 31 -2 51c1.33301 7.33301 2 13.666 2 18.999l-2 4l5 36c0 2.66699 -1 4 -3 4c0 14.667 3.66699 59 11 133h-4z" />
    <glyph glyph-name="B" unicode="B" horiz-adv-x="1299" 
d="M854 1434l4.99902 -2.00293c12 1.33301 22.333 2 31 2s17.334 -0.666992 26.001 -2c9.33301 1.33301 19 2 29 2c50 -7.33301 83.667 -17.666 101 -30.999c30 -12.667 45 -34.334 45 -65.001l-3 -18c2 -3.33301 3 -7 3 -11c-6 -28.667 -26 -59.667 -60 -93
c-73.333 -66 -145.333 -116.333 -216 -151c-14 -8 -21 -16 -21 -24c97.333 -20.667 179.666 -54.334 246.999 -101.001c175.333 -127.333 263 -260.333 263 -399l-3 -18l3 -5c0 -46.667 -20 -97 -60 -151c-70 -56 -123.667 -88 -161 -96
c-22 -15.333 -131.333 -49.333 -328 -102c-126 -40 -202.333 -65 -229 -75c-10 -18.667 -23 -30 -39 -34c-4.66699 0 -12.667 2.66699 -24 8c-119.333 -45.333 -181.666 -68 -186.999 -68h-3c-38 10.667 -57 26.334 -57 47.001c-2.66699 5.33301 -4.33398 8 -5.00098 8l8 13
l-3 13c8 10 28 25.667 60 47l42 36v-8h7v8h-5v3c10.667 0 26.334 5 47.001 15l13 3c3.33301 -2 6.66602 -3 9.99902 -3c3.33301 2 6 3 8 3l3 -11l-3 -18h5c10 0 17 4.33301 21 13v8c0 37.333 15.667 125.666 47 264.999c40 206.667 60 401.334 60 584.001l-3 13
c2 11.333 3 22.333 3 33v24c0 5.33301 -1 8 -3 8l3 13v54c0 20.667 -3.33301 44.334 -10 71.001c8.66699 18.667 20.667 28 36 28c16 0 31.667 -11.333 47 -34c5.33301 -11.333 8 -19 8 -23v-11c0 -9.33301 -1 -15.333 -3 -18l5 -75c-1.33301 -2.66699 -2 -8 -2 -16
c0 -2 0.666992 -4.66699 2 -8c-1.33301 -3.33301 -2 -5.66602 -2 -6.99902c1.33301 -3.33301 2 -6 2 -8h5c52.667 18.667 100.667 43.667 144 75c34.667 17.333 78 42.666 130 75.999c57.333 50 92 86.333 104 109c0 11.333 -25.333 18.333 -76 21
c-175.333 0 -394 -57.333 -656 -172c-71.333 -35.333 -123.333 -70 -156 -104c-24.667 -15.333 -37.667 -23 -39 -23c-35.333 0 -58.666 17.333 -69.999 52c0 46 119 115.333 357 208c14.667 2.66699 31 8.66699 49 18l5 -3c24.667 8.66699 48.334 18.334 71.001 29.001
c66.667 20.667 166.334 43.334 299.001 68.001c3.33301 -2 6 -3 8 -3c3.33301 2 5.66602 3 6.99902 3l6 -3c15.333 6.66699 32.666 11 51.999 13zM608.999 978.997v-21c0 -7.33301 -1 -17 -3 -29l3 -5c-2 -9.33301 -3 -17 -3 -23v-11c0 -1.33301 1 -2 3 -2
c-2.66699 0 -5.33398 -39.333 -8.00098 -118l3 -5c-2 -3.33301 -4.66699 -18 -8 -44l3 -5l-3 -16c0 -4 1 -7.33301 3 -10c-6.66699 -30.667 -13 -77.667 -19 -141c-17.333 -77.333 -26 -119.666 -26 -126.999c0 -11.333 -3.33301 -22 -10 -32
c0.666992 -8.66699 2.33398 -13 5.00098 -13c-10 -27.333 -20.333 -77.666 -31 -150.999v-26l13 -2c40.667 15.333 72.667 25.666 96 30.999c182.667 48.667 312 87.667 388 117c76.667 31.333 126 61 148 89c38.667 31.333 58 73 58 125c0 49.333 -18.333 100.333 -55 153
c-126.667 160 -271.667 240 -435 240h-10c-57.333 8 -92 18.333 -104 31h-3c-3.33301 -0.666992 -5 -2.33398 -5 -5.00098z" />
    <glyph glyph-name="C" unicode="C" horiz-adv-x="1130" 
d="M905 1434h6.00293c31.333 -8.66699 48.666 -16.667 51.999 -24c0 -9.33301 4.33301 -22.333 13 -39c-12.667 -29.333 -31.667 -44 -57 -44c-12 -8 -48.667 -20.667 -110 -38c0 -7.33301 -11 -12.666 -33 -15.999l-77 -50c-3.33301 0 -36 -22 -98 -66
c-36.667 -20 -79.667 -54.667 -129 -104c-35.333 -26.667 -63 -50.334 -83 -71.001c-4.66699 0 -16.334 -12 -35.001 -36c-24 -16.667 -44.333 -39.334 -61 -68.001c-12.667 -6 -36.334 -33.667 -71.001 -83c-9.33301 -11.333 -26.666 -46 -51.999 -104
c-27.333 -66 -41 -110.667 -41 -134c-2 0 -3 -1 -3 -3s1 -3 3 -3l-6 -71l3 -16c0 -4.66699 -1 -8.33398 -3 -11.001c2 -12.667 3 -23 3 -31v-19c27.333 -146 63 -231 107 -255c26 -24 82.667 -36 170 -36h14c80.667 0 163.667 19.333 249 58
c33.333 10 85.666 36.667 156.999 80c48.667 26.667 93.334 57.667 134.001 93c33.333 22.667 50 41.667 50 57v25c-6 6.66699 -9 13 -9 19c11.333 2 20.666 6.66699 27.999 14h3l5 -3c0 4.66699 3.66699 7.66699 11 9c22 0 47.667 -18.333 77 -55l8 -33
c0 -23.333 -24.667 -59 -74 -107c-3.33301 0 -20.666 -14.667 -51.999 -44c-33.333 -24 -52.666 -36 -57.999 -36c-42 -28.667 -74.667 -49.667 -98 -63c-12 -13.333 -34 -25 -66 -35c-77.333 -36.667 -122.333 -55 -135 -55c0 -6.66699 -51 -17.667 -153 -33
c-10 -2 -21 -3 -33 -3h-72c-48.667 0 -102.334 11 -161.001 33l-41 25c-74 56 -120.667 113.333 -140 172c-21.333 62 -37 129.667 -47 203c0 2 1 3 3 3l-3 28v46c0 13.333 1.66699 33.333 5 60h-2c10.667 42 18 64 22 66c6.66699 42 15.667 68.667 27 80v11c0 2 -1 3 -3 3
c30 64.667 51 99.334 63 104.001c9.33301 18.667 14 30.334 14 35.001c2.66699 0.666992 28.334 32.667 77.001 96c52.667 56.667 82.667 85 90 85c4.66699 0 7.66699 5.66699 9 17c34.667 27.333 61 53 79 77c6 0 29 16.333 69 49c37.333 30 97.666 71.333 180.999 124
c3.33301 0 29.666 15.333 78.999 46l88 44c20 10.667 55.667 19.667 107 27z" />
    <glyph glyph-name="D" unicode="D" horiz-adv-x="1518" 
d="M520 1434c1.33301 0 7.99316 -0.662109 19.9932 -1.99512l29 2c0 -2.66699 2.66699 -5 8 -7h5l7 5h15c6 0 13.333 0.666992 22 2c3.33301 -1.33301 6 -2 8 -2c2.66699 1.33301 5 2 7 2c0 -2.66699 2.33301 -5 7 -7h3c6 4.66699 17.333 7 34 7h15l15 -2
c2.66699 1.33301 6 2 10 2c18 0 30.333 -2.33301 37 -7h22c6 0 10.333 -1 13 -3l10 3c72 -3.33301 108 -7.66602 108 -12.999h20c6.66699 -3.33301 10 -5.66602 10 -6.99902c4.66699 1.33301 7 3 7 5c15.333 -4.66699 23 -8 23 -10l17 2h3c6 -4.66699 10.667 -7 14 -7
c2 0 4.66699 0.666992 8 2c27.333 0 99 -18.667 215 -56c43.333 -16 91 -39.333 143 -70c0 -2.66699 10.667 -10.667 32 -24c55.333 -52 86.666 -89.333 93.999 -112c36.667 -50 55 -101 55 -153c2 0 3.66699 -3.33301 5 -10c-2 -6.66699 -3 -12.334 -3 -17.001l3 -15
c-16 -80 -30 -127 -42 -141c-22 -52 -38.667 -80.667 -50 -86c-4.66699 -25.333 -54 -83.333 -148 -174l-30 -27c-57.333 -44 -97.666 -77 -120.999 -99c-11.333 0 -42.666 -18.667 -93.999 -56c0 -4 -22.333 -19 -67 -45c-4 0 -18 -7.33301 -42 -22
c-16 -10 -24 -16 -24 -18s-14 -8.33301 -42 -19c0 -4.66699 -16.667 -13 -50 -25c-10 -4.66699 -20.667 -12 -32 -22c-24 -8 -43 -18.667 -57 -32c-87.333 -32 -137.666 -53.667 -150.999 -65c-131.333 -46 -203 -69 -215 -69c-66 -21.333 -118 -32 -156 -32
c-23.333 -4 -39 -7.33301 -47 -10c-5.33301 3.33301 -10 5 -14 5h-23l-17 -5c-8.66699 4.66699 -31 8.66699 -67 12c-53.333 18 -88.666 42 -105.999 72c-8 17.333 -12 30.666 -12 39.999c1.33301 37.333 7.66602 56 18.999 56c0 13.333 17.333 32.333 52 57
c22 10 33.667 15 35 15c0 -3.33301 5.66699 -10 17 -20c0 -13.333 -8 -37 -24 -71c4.66699 -21.333 7.66699 -32 9 -32c41.333 -12 72.666 -18 93.999 -18c0.666992 3.33301 2.33398 5 5.00098 5h3l7 -5h13c33.333 6.66699 60.333 10 81 10c0 4.66699 22.333 9.66699 67 15
c20.667 13.333 43 21.666 67 24.999c9.33301 4.66699 14 8 14 10l13 -3h5c16.667 10.667 51.334 24 104.001 40c21.333 0 34.333 6.33301 39 19c10 5.33301 16.667 8 20 8h7c0 3.33301 10 9 30 17c37.333 16.667 68.666 32.334 93.999 47.001
c38.667 12.667 77.334 32.667 116.001 60c4 3.33301 15.667 9 35 17c9.33301 10 32.333 23 69 39c7.33301 10 31.333 25.667 72 47c0 6 24.667 22.667 74 50c6.66699 0 21.334 11.333 44.001 34l52 40c34 23.333 59.667 47.333 77 72c12.667 3.33301 28.334 18 47.001 44
l52 55l39 59c38 66.667 57 114.334 57 143.001c2 0 3 2.66699 3 8v2c0 6 -1 13.333 -3 22c2 3.33301 3 7.66602 3 12.999c-8 36 -23 69 -45 99c-37.333 44 -75 75.333 -113 94c-21.333 6.66699 -62 22.334 -122 47.001c-45.333 12.667 -92.333 25 -141 37
c-92.667 14.667 -147.667 22 -165 22c0 1.33301 -1.66699 2 -5 2c-8.66699 -1.33301 -16 -2 -22 -2c-7.33301 4.66699 -28 7 -62 7h-13c-2 0 -4.33301 -3.33301 -7 -10c0 -6.66699 4 -15.667 12 -27v-5c0 -15.333 1 -31 3 -47c-2 -14.667 -4.66699 -24.334 -8 -29.001
c3.33301 -5.33301 5 -10.333 5 -15v-12c-4 -8 -10.333 -61.667 -19 -161l-47 -287c0 -12 -4.33301 -27.667 -13 -47c0 -2 1 -4.33301 3 -7c-5.33301 -23.333 -11.333 -65.333 -18 -126l3 -5l-5 -50c21.333 -5.33301 32 -15.333 32 -30c2 -23.333 4.66699 -39 8 -47l-5 -9
l2 -15c-4.66699 0 -8.66699 -19 -12 -57c-15.333 -16.667 -23 -27.334 -23 -32.001c-46 0 -75.667 32 -89 96c-8 17.333 -12 39.666 -12 66.999l3 10l-3 15c2 22 3 41 3 57v27l7 24v25c14.667 128.667 26.334 204.667 35.001 228c-2 2.66699 -3 5 -3 7
c8 21.333 14.667 61 20 119c3.33301 0 7.33301 26.333 12 79v25c4 0 9 35.333 15 106c0 6 -0.666992 13.333 -2 22c1.33301 8.66699 2 17 2 25c0 1.33301 -0.666992 3.66602 -2 6.99902c1.33301 3.33301 2 6.66602 2 9.99902l-15 52c3.33301 5.33301 5 10.333 5 15
c0 3.33301 -1.66699 5 -5 5h-74c-10.667 0 -43.667 -1.66699 -99 -5v2c0 -4.66699 -50.333 -10.334 -151 -17.001c0 -2 -3.33301 -3.66699 -10 -5l-14 3l-13 -8h-5c-29.333 0 -59.666 -8.33301 -90.999 -25c-6.66699 3.33301 -12.334 5 -17.001 5
c-8.66699 -6 -25.334 -10.667 -50.001 -14c-28.667 -10 -56.667 -21 -84 -33c-18 0 -52.667 -19.667 -104 -59c0 -4 -9.66699 -9 -29 -15h-15c-21.333 4.66699 -32 10.667 -32 18c-20 24.667 -30 46 -30 64c-6.66699 0 -10 4 -10 12c14.667 34.667 23 52 25 52
c42.667 10.667 85.334 28 128.001 52c28.667 13.333 51 20 67 20c30 11.333 114 29.333 252 54c26.667 0 40 2.66699 40 8l29 -5c6 3.33301 11 5 15 5h3c1.33301 0 2 -1 2 -3c5.33301 2 8 3.66699 8 5l14 -7h3c8.66699 5.33301 29.334 10.333 62.001 15h20l9 -8h5
c1.33301 6.66699 4 10 8 10z" />
    <glyph glyph-name="E" unicode="E" horiz-adv-x="1217" 
d="M1792 1435l31.998 -2.99707l18 3l16 -8c2 0 9.33301 2.66699 22 8c38 -2 65.333 -3 82 -3c2 0 4.66699 1 8 3l11 -5l16 2c28 -4 42 -16.333 42 -37c5.33301 -8.66699 8 -15.667 8 -21c-17.333 -35.333 -36 -53 -56 -53c-9.33301 0 -17.333 -1 -24 -3v5h-2
c-4.66699 -5.33301 -22.667 -8.66602 -54 -9.99902c-2.66699 1.33301 -6 2 -10 2c-6 -3.33301 -11.333 -5 -16 -5h-19c-7.33301 0 -14.333 -1 -21 -3l-11 3c-23.333 -2 -43.666 -3 -60.999 -3c-8.66699 0 -13 -1.66699 -13 -5l-11 5
c-5.33301 -3.33301 -10.666 -5 -15.999 -5c-2.66699 0 -7 1.66699 -13 5c0 -2.66699 -43.333 -7 -130 -13l-5 3c0 -3.33301 -33 -7 -99 -11c0 -8 -42.333 -15 -127 -21c-66.667 -9.33301 -112 -19 -136 -29c0 -2 -0.666992 -3 -2 -3l-14 3c-3.33301 -2 -6 -3 -8 -3
c0 3.33301 -1.66699 5 -5 5h-5c-188.667 -36.667 -287 -55 -295 -55c-6 -2.66699 -28.333 -8 -67 -16l-10 5c-13.333 -7.33301 -21.333 -11 -24 -11l-14 3c-6 -9.33301 -24.333 -16.333 -55 -21c-8.66699 0 -32.667 -5.33301 -72 -16c-1.33301 0 -8.33301 0.666992 -21 2
c-2.66699 -2.66699 -24 -8.66699 -64 -18c0 -5.33301 -2.66699 -8 -8 -8l-16 2c0 -2.66699 -14.333 -7 -43 -13v-5c39.333 -7.33301 59 -27 59 -59c2.66699 0 5.33398 -1.66699 8.00098 -5c-10.667 -38 -16 -60 -16 -66l-51 -72c-4 0 -16.333 -18.667 -37 -56
c-3.33301 -9.33301 -7.66602 -17.333 -12.999 -24v-10h5l208 34l42 8c3.33301 -2 7 -3 11 -3l18 6h40c2.66699 0 18.667 4.33301 48 13h16c12 0 38.667 6.33301 80 19c22.667 0 34 1.66699 34 5c3.33301 -2 6 -3 8 -3c2.66699 0 15 1 37 3c6 0 13.333 -15 22 -45
c-5.33301 -12.667 -13.333 -23.334 -24 -32.001c-39.333 -26.667 -62.333 -40 -69 -40c-32 -8 -52.667 -16 -62 -24c-57.333 -10.667 -127 -25.667 -209 -45c-8 0 -34 -4.33301 -78 -13l-5 2c-80.667 -17.333 -148 -34 -202 -50c-19.333 0 -39.666 -33.667 -60.999 -101
c-10 -12 -24 -36 -42 -72c-2.66699 0 -14.334 -23 -35.001 -69c-48 -82 -72 -152 -72 -210c0 -19.333 21.333 -29 64 -29l5 2l16 -2c18.667 0 66.667 12.333 144 37c74.667 35.333 143.667 64.666 207 87.999c21.333 6.66699 36.333 13.667 45 21h16
c0 8.66699 13.333 15.667 40 21l56 37c69.333 45.333 104 75.666 104 90.999c2.66699 0 7.66699 7 15 21h3c21.333 -8.66699 35.666 -22.667 42.999 -42c2.66699 -4.66699 6 -19 10 -43l-5 -8c0 -1.33301 1 -8.33301 3 -21c-10.667 -34 -23.334 -54.333 -38.001 -61
c0 -3.33301 -8.66699 -11.333 -26 -24c-21.333 -20.667 -78 -54.334 -170 -101.001c-22 -9.33301 -42.333 -15.666 -61 -18.999c-12 -10.667 -39.667 -24 -83 -40c-115.333 -51.333 -184.333 -80.333 -207 -87c-12 0 -38.667 -6.33301 -80 -19h-26
c-60 9.33301 -101 24.333 -123 45c-42 49.333 -63 84 -63 104c-5.33301 1.33301 -8 6.66602 -8 15.999v50c0 29.333 10.667 76.333 32 141l103 207l-5 3c-1.33301 -4 -14.666 -11 -39.999 -21c-25.333 -23.333 -44.666 -35 -57.999 -35c-34 12 -51 25.333 -51 40
c-14 18.667 -21 41.667 -21 69v5c12 26.667 26 40 42 40c12 14.667 42.333 28 91 40c0 7.33301 33.667 16.333 101 27c38.667 14 58 32.667 58 56c4 0 13 16.667 27 50c10.667 18 19.334 37.667 26.001 59c12.667 11.333 19 22.666 19 33.999c0 3.33301 -1.66699 5 -5 5h-3
c-2 0 -9 -1.66699 -21 -5h-11c0 6 -2.66699 12.333 -8 19c0 28 24 51.667 72 71c8.66699 8 28 19.667 58 35c0 4 9 10.333 27 19v10h-5c-77.333 -17.333 -117.333 -26 -120 -26l-130 -40c-104.667 -32 -200.334 -65.667 -287.001 -101c-30 14.667 -45 23.334 -45 26.001
c-10 19.333 -19 39.666 -27 60.999c0 44.667 14.333 67 43 67c36 19.333 66 29 90 29l5 5c6 -3.33301 10.333 -5 13 -5c0 4 53.333 21 160 51c47.333 12 72 18 74 18c50 7.33301 75 15.333 75 24l5 -3h5c35.333 6.66699 53 11.334 53 14.001
c10.667 9.33301 45.334 17.333 104.001 24c7.33301 3.33301 11 6 11 8l13 -3c21.333 8.66699 36.333 15.667 45 21c7.33301 -3.33301 13.666 -5 18.999 -5c0 6 14 11.333 42 16c34 10.667 78.333 20.334 133 29.001c0 2 2.66699 3 8 3c2 0 4.66699 -1 8 -3
c8 0 18.667 3.66699 32 11c3.33301 -2 6 -3 8 -3c4.66699 8.66699 11.667 13 21 13l19 -5l8 5c22.667 0 43 2.66699 61 8c3.33301 -1.33301 7 -2 11 -2c0 6.66699 8 12 24 16c5.33301 -4 10.333 -6 15 -6h11c7.33301 0 19 5.33301 35 16l18 -2h21
c6 3.33301 21.333 9.33301 46 18c5.33301 -3.33301 10.666 -5 15.999 -5h2l16 3l6 -3c2.66699 0 16.667 6.33301 42 19c6.66699 1.33301 14.667 2 24 2h16c12.667 3.33301 19.667 5 21 5h3l8 -5c6.66699 3.33301 21.667 7.66602 45 12.999h3l18 -5c0 4.66699 14.333 9 43 13
c2.66699 -1.33301 6 -2 10 -2c4 2.66699 15.667 5.33398 35 8.00098l13 -3c21.333 1.33301 41 5 59 11h18c4.66699 0 10 -2 16 -6c6 3.33301 31.667 8 77 14h27c21.333 6.66699 32.666 10 33.999 10c4 0 13 -1.66699 27 -5c6 3.33301 11.333 5 16 5
c12.667 -3.33301 19.667 -5 21 -5l16 5c0 -2.66699 3.66699 -5.33398 11 -8.00098c0 6 17.667 9.66699 53 11z" />
    <glyph glyph-name="F" unicode="F" horiz-adv-x="1199" 
d="M1035 1430c4 0 11.001 -2.99902 21.001 -8.99902c6 2 9 4 9 6l21 -3h9c2 0 10 2 24 6c35.333 -8 53.333 -14 54 -18l-3 -6l6 -3h3c0 7.33301 5.66699 14.333 17 21l36 -3h12l30 3c0 -6 8 -10 24 -12c2 0 5 1 9 3c28 -2.66699 46 -5.66699 54 -9c14 4 25 6 33 6
c7.33301 0 16.333 -1 27 -3c10.667 2 21.667 3 33 3c30 0 53 -14 69 -42c8.66699 0 16.667 -14 24 -42v-6c-13.333 -65.333 -26.333 -98 -39 -98c0 -3.33301 -3 -6.33301 -9 -9h-12c-26 15.333 -42 27.333 -48 36c-5.33301 0 -13.333 0.666992 -24 2
c-2 0 -5 -0.666992 -9 -2c-14 1.33301 -25 2 -33 2h-36c-17.333 6 -57.333 9 -120 9h-15c-1.33301 0 -9 2 -23 6l-12 -6c-6.66699 4 -12.667 6 -18 6h-3c-5.33301 -4 -9.33301 -6 -12 -6c-2 0 -8 1 -18 3c-4 -2 -7 -3 -9 -3c-6.66699 4 -12.667 6 -18 6l-12 -6l-12 6
c0 -3.33301 -24 -6.33301 -72 -9l-27 3c-6.66699 0 -22.667 -3 -48 -9h-27c-1.33301 0 -9.33301 2 -24 6c-6 -4 -11 -6 -15 -6c-6 4 -11 6 -15 6c-5.33301 -5.33301 -42 -8 -110 -8c0 -4.66699 -30 -9.66699 -90 -15h-30c-4.66699 0 -8.66699 -1 -12 -3c-4 2 -7 3 -9 3
c-4.66699 0 -12.667 -1 -24 -3c-10 2 -20 3 -30 3c0 -8 -45.667 -13 -137 -15c0 -5.33301 -35 -10.333 -105 -15l-69 -12h-27l-36 -9c-3.33301 2 -7.33301 3 -12 3l-9 -12v-9c25.333 -63.333 40.333 -106.333 45 -129h3c34 42 55 64 63 66
c2.66699 2.66699 11.667 7.66699 27 15c3.33301 -2 7.33301 -3 12 -3v3c20 -4.66699 34 -13.667 42 -27c0 -5.33301 8 -22.333 24 -51v-3c-4 -14 -6 -22 -6 -24l6 -21v-3c-18 -52.667 -27 -98.334 -27 -137.001l-6 -12c2 -4 3 -8 3 -12c-4 -0.666992 -6 -2.66699 -6 -6v-30
c-4 -14.667 -6 -22.667 -6 -24v-6c0.666992 -6 9.66699 -12 27 -18c6.66699 4 11.667 6 15 6c6.66699 -4 12.667 -6 18 -6c11.333 0 28.333 3 51 9l18 -3h3c38.667 8 84.334 15 137.001 21c0 3.33301 5 5.33301 15 6h21c5.33301 5.33301 29.333 11.333 72 18
c11.333 9.33301 49.333 19.333 114 30l9 -6l21 12h2l51 -33c8 0 12 -2 12 -6v-12l-9 -12l3 -18c-2.66699 0 -6.66699 -12 -12 -36c-14.667 -16.667 -53.334 -32.667 -116.001 -48c-16 -8 -29 -12 -39 -12h-6c0 -11.333 -18 -20.333 -54 -27v3
c-9.33301 -5.33301 -32.333 -11.333 -69 -18c-4 -4.66699 -36 -14.667 -96 -30c-32.667 -11.333 -65.334 -19.333 -98.001 -24c0 -2.66699 -16 -6.66699 -48 -12h-42l-6 -3l3 -29v-48c0 -14.667 3 -31.667 9 -51v-48c0 -17.333 1 -35.333 3 -54
c-2 -7.33301 -3 -15.333 -3 -24l6 -3l-6 -36c2 -26.667 3 -49.667 3 -69v-17c4 -14.667 6 -22.667 6 -24c-4 -6.66699 -6 -12.667 -6 -18l9 -21c0 -46 -13 -76 -39 -90c-2 -4 -3 -7 -3 -9l-15 3c0 -4 -2 -6 -6 -6h-3c-22.667 12 -43.667 33 -63 63
c0 7.33301 -4 17.333 -12 30c0 1.33301 1 7.33301 3 18c-1.33301 12 -3.33301 18 -6 18l3 6c0 7.33301 -2 29 -6 65c0 2.66699 1 5.66699 3 9c-2 22 -3 41 -3 57v6c0 18.667 1 44.667 3 78l-3 6l3 18v15c0 11.333 -1 18.333 -3 21l6 78c-2 15.333 -3 32 -3 50
c2 14.667 3 22.667 3 24c-2 10 -4 15 -6 15l3 18c-8 42 -17 81 -27 117v51c-8 19.333 -15 50.333 -21 93c-6 0 -11 9 -15 27v23c-4.66699 8.66699 -11.334 30.667 -20.001 66c-4.66699 3.33301 -18.667 41.333 -42 114c-14 44.667 -35 75.667 -63 93
c-20 0 -39 31.667 -57 95v12c0 38.667 14 67.667 42 87h9c26 -4.66699 43 -9.66699 51 -15c4.66699 4 8.66699 6 12 6c6 -4 12 -6 18 -6h3c4 0 8 1 12 3l6 -3l15 3c0 -4 2 -6 6 -6h32c7.33301 0 16.333 1 27 3c4 -2 8 -3 12 -3c2 6 8 9 18 9h27l9 -6h6
c4.66699 4 8.66699 6 12 6c6.66699 -4 12.667 -6 18 -6l9 6h9v6l30 -3c56.667 12 89.667 18 99 18c3.33301 -2 7.33301 -3 12 -3l18 3c3.33301 -2 7.33301 -3 12 -3c8.66699 6 29.334 12 62.001 18h51l18 3c3.33301 -2 8.33301 -3 15 -3c6 2 9 4 9 6l21 -3h6l21 6l12 -6
c20.667 5.33301 71.667 11.333 153 18c0 -4 2.66699 -6 8 -6c6.66699 4 11.667 6 15 6l18 -3c16 2 32 3 48 3c10 -6 18 -9 24 -9l12 3c3.33301 0 9.33301 -6 18 -18c0.666992 4 2.66699 6 6 6l-3 6v6c2 0 5 1 9 3l12 -3c19.333 10 31.333 15 36 15zM212.001 966.001l-3 -6
v-9c0.666992 -4 2.66699 -6 6 -6h3v15c0 4 -2 6 -6 6z" />
    <glyph glyph-name="G" unicode="G" horiz-adv-x="1299" 
d="M745 1432l12.999 -0.00585938c12 -3.33301 19 -5 21 -5h21c7.33301 -11.333 23.666 -22 48.999 -32c12 -13.333 23.333 -42 34 -86c0 -21.333 -9.66699 -36 -29 -44c0 -15.333 -13 -26.666 -39 -33.999c-5.33301 3.33301 -10.333 5 -15 5h-3
c-74 -13.333 -118.333 -27.333 -133 -42c-51.333 -28 -83.666 -49 -96.999 -63c-11.333 0 -61 -39 -149 -117c-9.33301 -17.333 -19.666 -28.666 -30.999 -33.999c-7.33301 -12 -28.333 -36.333 -63 -73c-9.33301 -10.667 -16.333 -22 -21 -34c-8 0 -15 -12.333 -21 -37
c-2 0 -9.66699 -8.66699 -23 -26c-5.33301 0 -9.66602 -10.333 -12.999 -31c-6 0 -13 -14 -21 -42c-8 0 -15 -17.333 -21 -52c-6 0 -15.667 -19.333 -29 -58c-3.33301 0 -6 -9.66699 -8 -29c-8.66699 -22.667 -15.667 -50.334 -21 -83.001
c-5.33301 -6.66699 -8 -13.667 -8 -21v-32c-3.33301 -12 -5 -18.667 -5 -20v-24l-2 -31c3.33301 0 5.66602 -8 6.99902 -24c-3.33301 -0.666992 -5 -2.33398 -5 -5.00098v-3c4 -33.333 11 -57.666 21 -72.999c44 -45.333 86 -68 126 -68c0 -1.33301 2.33301 -2 7 -2h8l16 2
c43.333 -8.66699 66 -13 68 -13l55 11h23c10.667 4.66699 45.667 13.334 105 26.001v2c5.33301 -3.33301 10.333 -5 15 -5h19c0 7.33301 11.333 15.333 34 24c21.333 5.33301 42 13 62 23c18 0 51.333 14 100 42c25.333 8.66699 49.666 22.667 72.999 42
c5.33301 0 18.333 9.66699 39 29c14 0 21 3.33301 21 10h5l11 -8c3.33301 0 5 2.66699 5 8h5c16 -29.333 24 -46 24 -50c0 -24.667 -5.33301 -48 -16 -70c0 -13.333 -14.667 -36 -44 -68l-92 -52c-4 0 -32 -11.333 -84 -34c-112.667 -50.667 -182.334 -76 -209.001 -76
c0 -4.66699 -36.333 -12.667 -109 -24l-6 3c-10 -6.66699 -33.333 -12 -70 -16c-62 6.66699 -99.333 15.334 -112 26.001c-8.66699 0 -42 16.667 -100 50c0 6 -16.333 22.667 -49 50c-19.333 22.667 -29 42.667 -29 60c-14 8.66699 -28 36.334 -42 83.001
c-8.66699 0 -13 44.667 -13 134c3.33301 50 5 83 5 99l24 118c9.33301 20 18.666 49.333 27.999 88c4 5.33301 7.66699 8 11 8v11l34 86c6.66699 8.66699 14.334 23.334 23.001 44.001l58 92c3.33301 0 21.666 25.333 54.999 76c32.667 29.333 54.334 55.333 65.001 78
c47.333 40 96 87 146 141c14.667 12 25.334 18 32.001 18c12 18 39.667 40.667 83 68c28 26 50 41.667 66 47c4.66699 4.66699 32.334 15.334 83.001 32.001c9.33301 0 20 1.66699 32 5zM434.999 681.994c1.33301 0 6.33105 -0.99707 14.998 -2.99707l6 3l36 -8h136
c7.33301 0 17 -0.666992 29 -2l5 2c6 -3.33301 11.333 -5 16 -5h10l18 5c0 -2.66699 2.66699 -5.33398 8 -8.00098h29l13 8c6 -5.33301 33 -8 81 -8l18 3c3.33301 -2 6 -3 8 -3l26 3c32.667 -1.33301 52.667 -4 60 -8c4 0 7.66699 1 11 3c12 -2 21.667 -3 29 -3h21
c62.667 -12 107.667 -23.333 135 -34c10 0 34.667 -10.333 74 -31l47 -52c2 -14.667 9 -28 21 -40c0 -12 3.33301 -29.333 10 -52v-73c-6 -38.667 -16.333 -74.334 -31 -107.001c0 -10.667 -6.33301 -22 -19 -34c0 -10.667 -6 -23.667 -18 -39c0 -13.333 -13 -37 -39 -71
c0 -8 -7 -21 -21 -39c-14.667 -14 -28.667 -46.333 -42 -97c-19.333 -26.667 -39.333 -44 -60 -52c-24 4 -38 12 -42 24c-9.33301 0 -19.666 20 -30.999 60c-5.33301 1.33301 -8 6.33301 -8 15v11c2 12.667 5.66699 19.667 11 21c0 1.33301 -1 3.66602 -3 6.99902
c0 22 8.66699 43 26 63c0 4 5.33301 12.667 16 26c0 6 14 30.333 42 73c50 80 75 134 75 162c2.66699 0 6.33398 3.66699 11.001 11c0 34 -33.333 54 -100 60c0 3.33301 -4.33301 5 -13 5l-7 -5h-6c-0.666992 0 -5 3.33301 -13 10h-23c-8.66699 0 -17.334 1 -26.001 3
c-6.66699 -2 -14.667 -3 -24 -3h-5c-4.66699 0 -10 2 -16 6c-6 -3.33301 -14.667 -6 -26 -8l-13 2c-16 -3.33301 -27.333 -5 -34 -5h-84l-18 -5c-5.33301 3.33301 -10.666 5 -15.999 5l-10 -5c-6 3.33301 -11.333 5 -16 5l-10 -5c-5.33301 0 -8 1 -8 3l-31 -3h-76l-8 -5h-3
l-7 5c-6 -3.33301 -11.333 -5 -16 -5h-24c-16 0 -30.667 -1 -44 -3c-30 0 -48.333 7 -55 21l-31 34c0 4 -3.66699 12.667 -11 26c0 6.66699 -0.666992 14.667 -2 24l2 5c-1.33301 5.33301 -3 8 -5 8c4.66699 24.667 10 38.667 16 42v23c0 10.667 11.333 22 34 34z" />
    <glyph glyph-name="H" unicode="H" horiz-adv-x="1203" 
d="M381 1434c35.333 -21.333 53.0029 -40.6641 53.0029 -57.9971c4.66699 0 9.33398 -16.667 14.001 -50l-5 -12c2 -3.33301 3 -7 3 -11l-3 -6c2 -4 3 -7 3 -9c-12 -8.66699 -18 -24.334 -18 -47.001c-16.667 -42.667 -27.334 -78.667 -32.001 -108
c-4.66699 0 -9.66699 -20.333 -15 -61c0 -32.667 -4.66699 -56 -14 -70c2 -6 4 -9 6 -9l-6 -12c0 -4 1 -6 3 -6c-4 -26.667 -6 -58.667 -6 -96c-8 -13.333 -12 -23 -12 -29v-6c4 -14 6 -21.667 6 -23l-9 -15v-35c-6 -23.333 -9 -39 -9 -47c2 -3.33301 3 -6 3 -8h21
c18.667 5.33301 44 9 76 11c0.666992 -4 2.66699 -6 6 -6h2l21 6l6 -3c17.333 12 42.666 20 75.999 24v3l6 -3l78 17h3c14 -4 22 -6 24 -6l26 18c4.66699 0 9.66699 21.333 15 64c9.33301 10 14 27.667 14 53h-3c9.33301 24 21 81.333 35 172c2 51.333 3 89.333 3 114
c0 2 -1 5 -3 9c2 3.33301 3 7 3 11v21c-11.333 23.333 -20 38 -26 44l3 17c-10 6 -15 13 -15 21c0 10 7 25.333 21 46c10 39.333 29.333 59 58 59c0 2 1 3 3 3h6c20 0 42.333 -11.667 67 -35c11.333 -14 20 -26.667 26 -38l-3 -6v-12c10 -0.666992 15 -3.66699 15 -9
c0 -2 -1 -4.66699 -3 -8c1.33301 -20 4.33301 -30 9 -30l-3 -20v-12c0 -8.66699 5 -19.334 15 -32.001c-3.33301 0 -6.33301 -3 -9 -9c0 -6 1 -10.667 3 -14c-2 -20 -3 -35.667 -3 -47v-23c-4 -14 -6 -22 -6 -24v-3l3 -17l-18 -85l3 -6c-7.33301 -34 -17 -91.333 -29 -172
c3.33301 0 8.33301 -2 15 -6c3.33301 2 6 3 8 3l6 -3l6 3l12 -3c19.333 5.33301 31 10.333 35 15c8.66699 -6 14.334 -9 17.001 -9c29.333 8 44 13 44 15c2 0 3 -1 3 -3c83.333 7.33301 131 14 143 20h12l20 -3c0.666992 4 2.66699 6 6 6c29.333 -2 50.666 -3 63.999 -3
c14 6 23 9 27 9h14c12 0 28.667 -14.667 50 -44c2.66699 0 6.66699 -4 12 -12c-2 -3.33301 -3 -7 -3 -11c4 -0.666992 6 -2.66699 6 -6l-44 -47c-22 -21.333 -42.667 -32 -62 -32c-22 0 -81.333 -9.66699 -178 -29c0 -4 -4.66699 -6 -14 -6h-3
c-24.667 0 -92 -11.667 -202 -35c-32.667 0 -49 -16.667 -49 -50c-5.33301 0 -10.333 -24.333 -15 -73c-5.33301 -3.33301 -15 -62.666 -29 -177.999c-4.66699 0 -8.66699 -15.667 -12 -47l6 -11c-4 -6.66699 -6 -12.667 -6 -18c0 -4 1 -8 3 -12c-2 -10 -3 -18.667 -3 -26
v-32c6 -27.333 13.667 -58.333 23 -93c0 -15.333 -9.66699 -36 -29 -62c0 -12 -10.667 -20.667 -32 -26c-6.66699 0 -21.334 10.667 -44.001 32c-5.33301 0 -15 15.667 -29 47c-4.66699 0 -12.334 20.333 -23.001 61c0 32.667 -2 59 -6 79l3 18v5c0 2 -2 10 -6 24l6 38
c-4 6 -6 11.667 -6 17v9c6 19.333 9 38.666 9 57.999v21l26 161v14c-2 0 -5 1 -9 3c-93.333 -13.333 -140 -25 -140 -35c-15.333 0 -31 -3 -47 -9h-14c-29.333 0 -72.333 -9.66699 -129 -29c-11.333 -6 -20 -22.667 -26 -50c-8 -41.333 -19.667 -87 -35 -137
c0 -14 -4 -25.667 -12 -35c-1.33301 -34.667 -4.33301 -58 -9 -70c15.333 -16.667 24.333 -35.334 27 -56.001c2.66699 -19.333 5.33398 -29 8.00098 -29c0 -27.333 -3.66699 -45.666 -11 -54.999l6 -12c-26 -40.667 -45.667 -61 -59 -61h-26
c-17.333 0 -36.666 18.333 -57.999 55c-12.667 0 -25.334 30.333 -38.001 91v49c11.333 107.333 22 173.666 32 198.999c0 2 -1 5 -3 9c11.333 18 17 37.333 17 58h-8c-32.667 -7.33301 -77.667 -13 -135 -17c-3.33301 2 -7 3 -11 3c-6.66699 -4 -12.667 -6 -18 -6h-18
c-48.667 23.333 -73 46.666 -73 69.999c-4.66699 8 -11.334 26.333 -20.001 55h9c2 26.667 3 46.334 3 59.001v6c8.66699 0 18.334 9.66699 29.001 29c5.33301 4 14 7.66699 26 11c28 0 53.333 -5.66699 76 -17c2 0 3 1 3 3l20 -3h53c19.333 6 38.666 9 57.999 9h18
c31.333 0 47 24.333 47 73c0 30 2.66699 50.333 8 61c-1.33301 6 -3 9 -5 9l11 47v17c8 58 14 88.333 18 91v46c6 4.66699 11.667 31 17 79l21 105c14 40 24.667 80 32 120c4 0 11.667 15.667 23 47c12 42.667 30.667 64 56 64c10 2 15.667 3 17 3z" />
    <glyph glyph-name="I" unicode="I" horiz-adv-x="723" 
d="M988 1434c1.33301 -10 3.66504 -14.9941 6.99805 -14.9941h3c8.66699 0 16 2.66699 22 8h3v-3c0 -4.66699 -14.333 -10.334 -43 -17.001c0 -8.66699 -2.33301 -13.667 -7 -15c0 2.66699 -3.33301 6 -10 10h-8c0 -9.33301 -3.33301 -16 -10 -20c3.33301 0 5 -1 5 -3l5 3h3
c3.33301 0 5 -2.66699 5 -8c0 -4.66699 -5 -9.66699 -15 -15l2 -5v-13h-10l-2 13h-26c0 -5.33301 -3.33301 -11.333 -10 -18l-5 3h-5c0 -4 -0.666992 -7.33301 -2 -10h7c0 -9.33301 -8.33301 -17 -25 -23c-0.666992 3.33301 -4.66699 6.66602 -12 9.99902
c-32.667 -16.667 -51.334 -25 -56.001 -25v5l8 10v5h-3c-1.33301 0 -3.66602 -0.666992 -6.99902 -2l-15 2h-3v-7c6.66699 -1.33301 10 -4 10 -8c-16.667 -14.667 -35.667 -22 -57 -22c-8 -6.66699 -24 -10 -48 -10l-8 5h-2c0 -14 -14.333 -21 -43 -21
c-26.667 -10 -50 -15.667 -70 -17c0 -2.66699 -7.66699 -6 -23 -10l-5 -18v-15c0 -6.66699 -0.666992 -15.667 -2 -27c1.33301 -3.33301 2 -6 2 -8c-2.66699 -7.33301 -6.66699 -28.333 -12 -63l5 -17l-8 -15c2 -9.33301 3 -16.333 3 -21
c-3.33301 -5.33301 -5 -10.333 -5 -15v-30c0 -22.667 -4.33301 -44.334 -13 -65.001c3.33301 -5.33301 5 -10.333 5 -15c-2.66699 -3.33301 -5 -16 -7 -38l2 -12c-4.66699 -19.333 -8 -43 -10 -71c2 -3.33301 3 -5.66602 3 -6.99902c-4 -3.33301 -6.66699 -21 -8 -53
c-2.66699 -2 -7.66699 -23.667 -15 -65c0 -6 0.666992 -10.333 2 -13c0 -6.66699 -7.33301 -42.667 -22 -108v-28c-9.33301 -44.667 -16 -70.334 -20 -77.001v-10c0 -4 0.666992 -7.33301 2 -10l-12 -53l5 -10c-7.33301 -8 -12.333 -30 -15 -66h2
c-8 -16.667 -12 -35 -12 -55c1.33301 -3.33301 2 -5.66602 2 -6.99902c-1.33301 0 -2 -1 -2 -3l5 -2l5 7l12 -2h35c10.667 0 18.334 4 23.001 12l30 -10h3v18h7l3 -10c39.333 6 64.333 14.333 75 25h3c3.33301 -0.666992 5 -2.33398 5 -5.00098
c-9.33301 -2 -14.666 -3 -15.999 -3v-7c18.667 1.33301 28 3.66602 28 6.99902l-2 5c8 0 12 1 12 3c5.33301 -3.33301 9.66602 -5 12.999 -5l12 2c0 -2 2.66699 -4.33301 8 -7c21.333 10 34.666 15 39.999 15h5c5.33301 0 8 -3.33301 8 -10h7l18 2
c4 -11.333 9 -19.666 15 -24.999v-12c-1.33301 -4 -15.666 -11.667 -42.999 -23c-6.66699 -12 -10 -19.667 -10 -23c2 0 5.33301 -5.66699 10 -17v-3c0 -4 -13.333 -8 -40 -12c0 -6.66699 -2.66699 -10 -8 -10c0 2 -2.33301 4.33301 -7 7h-10c-6.66699 -10 -11 -15 -13 -15
h-27c-6 -4 -41.333 -11.333 -106 -22c0 -2 -0.666992 -3 -2 -3l-3 5c3.33301 0 5 1.66699 5 5v8h-15c0 -15.333 -15 -23 -45 -23c-8.66699 -4 -13 -6.66699 -13 -8l-10 5c-66 -16.667 -128.667 -28.334 -188 -35.001c-18 -6 -56.667 -14.333 -116 -25
c-10 -6.66699 -32.667 -12.334 -68 -17.001c0 -4.66699 -25 -10.667 -75 -18h-10c-16.667 1.33301 -25 6.33301 -25 15h-23l-15 23c-20.667 22.667 -32.334 37.667 -35.001 45c3.33301 5.33301 5 10.333 5 15v18c6.66699 0 19.334 8.33301 38.001 25
c118.667 26.667 189.667 40 213 40c6.66699 4.66699 33.667 10.334 81 17.001c0 5.33301 28.333 11.333 85 18c5.33301 -3.33301 9.66602 -5 12.999 -5l5 8v7c-7.33301 4.66699 -11.666 13 -12.999 25c-8.66699 0 -13 15 -13 45c0 52.667 4.33301 83.667 13 93l-5 10
c5.33301 13.333 10.333 30.333 15 51c0 1.33301 -0.666992 2 -2 2l5 10l-3 5l15 78c0 8.66699 -1.66699 13 -5 13c8.66699 4 13 24.667 13 62c2 1.33301 5.33301 9 10 23c0 2 -1 3 -3 3c0 14.667 6 55.667 18 123c0 1.33301 -1 2 -3 2c12 69.333 18 107 18 113v3
c-2 3.33301 -3 5.66602 -3 6.99902l15 78v10c0 9.33301 1 21 3 35l-3 5c2 9.33301 3 17 3 23v28c0 1.33301 1.66699 8 5 20v25l5 17c-3.33301 6 -6 15.333 -8 28c2 2.66699 3 6 3 10l-8 5h-10c-7.33301 0 -17.333 -4 -30 -12c-5.33301 3.33301 -9.33301 5 -12 5l-25 -10
l-15 2c-18.667 -6.66699 -48 -14.334 -88 -23.001l-5 3c-16.667 -6 -48.667 -12 -96 -18h-17c-22 4 -33 11.667 -33 23c-8 0.666992 -18 14 -30 40c-6.66699 0 -12.667 10 -18 30v3c0 1.33301 1.66699 8 5 20l-2 10c12 20 25.333 30 40 30c2.66699 -1.33301 6 -2 10 -2
c4.66699 1.33301 7 3 7 5l10 -5c6 3.33301 11.333 5 16 5h25c68.667 6.66699 103 11.667 103 15l10 -5l57 12c0 3.33301 17 6 51 8c40 13.333 65 20 75 20c0 2.66699 11.667 6 35 10c0 5.33301 23.667 11 71 17l15 -2c33.333 12 51.666 18 54.999 18
c1.33301 -3.33301 2 -7.66602 2 -12.999h3c17.333 15.333 35 24.666 53 27.999h22l8 -5h2c11.333 6.66699 21.333 10 30 10c0.666992 -3.33301 2.66699 -5 6 -5l12 2c6.66699 -1.33301 13.334 -2 20.001 -2c0 1.33301 1 2 3 2c0 -2 2.33301 -4.33301 7 -7h3
c8 13.333 15.333 20 22 20c6 7.33301 15.333 14 28 20c10 -5.33301 18.333 -8 25 -8c0.666992 8.66699 3.33398 13 8.00098 13h17v-10h3c11.333 3.33301 18 5 20 5h48c8 0 12 1.66699 12 5l5 -3zM979.999 1389.01c6.66699 -1.33301 12.667 -2.00098 18 -2.00098v-5
c0 -5.33301 -7.66699 -8.66602 -23 -9.99902l-2 5zM934.999 1374v-7c2.66699 0 6 -2 10 -6h3v8c0 3.33301 -1.66699 5 -5 5h-8zM839.999 1326l-0.00195312 -7h7c2.66699 0 5.33398 2.33301 8.00098 7c-3.33301 2 -6 3 -8 3c-3.33301 -2 -5.66602 -3 -6.99902 -3z" />
    <glyph glyph-name="J" unicode="J" horiz-adv-x="805" 
d="M1422 1439l31.9951 0.00292969c20.667 -16 31 -30 31 -42c1.33301 -6 2 -11.667 2 -17l-7 -13c1.33301 -4.66699 3 -7 5 -7c-16 -23.333 -32.333 -35 -49 -35l-49 -24c-86.667 -14 -131.667 -21 -135 -21c0 -2.66699 -21.667 -6.33398 -65 -11.001
c0 -4.66699 -46.667 -14 -140 -28c-8.66699 0 -51.334 -7.66699 -128.001 -23c-30 -4 -51 -9.66699 -63 -17l-5 3c-20 -5.33301 -31.333 -9.33301 -34 -12h-3c-16 0 -48.667 -7 -98 -21c-50.667 -9.33301 -84 -19.333 -100 -30c-18.667 -6 -28 -10.667 -28 -14
c0 -4.66699 2.33301 -15.667 7 -33v-2c0 -7.33301 -0.666992 -15 -2 -23c2 -14 3.66699 -22.667 5 -26l-3 -14v-2c3.33301 -11.333 5 -17.666 5 -18.999v-5c0 -4 -1.66699 -8.66699 -5 -14c3.33301 -4.66699 5 -9.33398 5 -14.001v-130
c-3.33301 -11.333 -5 -17.666 -5 -18.999v-4c0 -4.66699 1.66699 -9.33398 5 -14.001c-3.33301 -5.33301 -5 -10 -5 -14v-30c0.666992 -8 2.33398 -12 5.00098 -12l-9 -12c2.66699 -4.66699 4 -9.33398 4 -14.001v-35c-2.66699 -10.667 -4 -16.667 -4 -18v-3
c0 -4.66699 0.666992 -8.33398 2 -11.001c-1.33301 -6 -2 -11.333 -2 -16c2.66699 -5.33301 4 -10 4 -14c-2.66699 -11.333 -4 -17.666 -4 -18.999v-9l4 -7l-4 -17c0 -20.667 -1.66699 -50 -5 -88h2c-4.66699 -8 -7 -20.333 -7 -37h3l-3 -5v-19
c0 -2.66699 -5.33301 -20.334 -16 -53.001c3.33301 -5.33301 5 -10 5 -14v-14c-9.33301 -16 -18.666 -44.667 -27.999 -86c-6 0 -17 -21.667 -33 -65c-7.33301 -22 -16.666 -38.333 -27.999 -49c0 -12 -23.333 -42.333 -70 -91c-30 -27.333 -57 -42 -81 -44
c-2.66699 -4.66699 -15 -8.66699 -37 -12l-5 2h-23c-25.333 11.333 -41 17 -47 17c-22.667 11.333 -49 35.333 -79 72c-12.667 10 -31.334 36.333 -56.001 79c0 0.666992 -5.33301 9.33398 -16 26.001c-16 27.333 -27.667 59 -35 95l-5 5l5 9c-3.33301 5.33301 -5 10 -5 14
v26c0 2 4 5.66699 12 11l9 -7h5l2 10c25.333 -5.33301 38 -14 38 -26c8 -10 14.667 -22.333 20 -37c3.33301 0 10.333 -11 21 -33c0 -2 12.667 -16 38 -42c0 -4.66699 6 -10.667 18 -18c0 -6.66699 10.333 -14.667 31 -24c4.66699 -9.33301 24.667 -17 60 -23
c20.667 0 48 14.667 82 44c9.33301 18 19.333 32.667 30 44c24.667 47.333 41.667 86.333 51 117l14 81c0 8.66699 2.33301 19.667 7 33v16c0 7.33301 0.666992 15 2 23c-1.33301 6 -2 14 -2 24c3.33301 4.66699 5 9.33398 5 14.001v9c0 5.33301 -1 9.33301 -3 12l3 14v28
c0 4 -1.66699 8.66699 -5 14c2.66699 7.33301 5.66699 22.666 9 45.999v14c0 12.667 1 27.334 3 44.001c0 2 -1 3 -3 3l3 23v84c0 6 0.666992 14.333 2 25c-1.33301 2 -2 8.33301 -2 19v5c0 4 1.33301 8.66699 4 14c0 2.66699 -0.666992 4 -2 4l2 17v4
c0 6.66699 -1.33301 16.667 -4 30l4 10c0 1.33301 -0.666992 3.66602 -2 6.99902c1.33301 8.66699 2 14.667 2 18l-4 17c2.66699 4.66699 4 9.33398 4 14.001c-2 8 -5 27.333 -9 58c-0.666992 0 -4.66699 3 -12 9h-14c-26 -4.66699 -39 -8.33398 -39 -11.001l-9 4
c-40.667 -12 -73.334 -19.667 -98.001 -23h-17c-5.33301 -4.66699 -10.666 -7 -15.999 -7h-2c-6.66699 0 -15.334 0.666992 -26.001 2c-5.33301 -2.66699 -11.333 -4 -18 -4h-5c-16 0 -28.333 0.666992 -37 2l-17 -2c-30 1.33301 -56.333 2 -79 2h-7
c-4 0 -8.66699 1.66699 -14 5l-4 -3c-62.667 7.33301 -94 15.333 -94 24h-18c-5.33301 0 -12.333 4.33301 -21 13c-14 0 -25 20.333 -33 61c2 3.33301 3 5.66602 3 6.99902c-3.33301 10.667 -5 20 -5 28v9l26 31c15.333 1.33301 23 2.66602 23 3.99902c16 0 36 -7 60 -21h5
c1.33301 0 2 1 2 3l5 -3h16c8.66699 -3.33301 31.334 -5.66602 68.001 -6.99902v3l5 -3h16c10.667 -2.66699 16.667 -4 18 -4h5c4 0 8.66699 1.33301 14 4c5.33301 -2.66699 10 -4 14 -4h5c10.667 2.66699 25.334 5 44.001 7c2.66699 -2 5 -3 7 -3
c34.667 4.66699 59.334 9.33398 74.001 14.001h21c3.33301 4.66699 19 8 47 10c0 1.33301 11 4.33301 33 9h4c4 0 8.66699 -1.66699 14 -5c14.667 3.33301 32.667 19 54 47c5.33301 4.66699 12.333 8.33398 21 11.001c17.333 -2 28 -4.33301 32 -7c2.66699 2 6 3 10 3
c0 -3.33301 1.33301 -5 4 -5c3.33301 0 6.33301 0.666992 9 2c14.667 -4.66699 23.334 -7 26.001 -7h2c30.667 4.66699 60.334 11.667 89.001 21c8 0 35 6.33301 81 19c14.667 0 36.667 6.33301 66 19c12 0 28 3.66699 48 11c5.33301 -2.66699 9.33301 -4 12 -4
c28 7.33301 53.667 12 77 14c0 1.33301 4.66699 3.66602 14 6.99902l9 -3c4 2.66699 23.333 6 58 10c2.66699 3.33301 13.667 7.66602 33 12.999c0 -2.66699 2.33301 -4 7 -4c25.333 7.33301 63.333 15 114 23c3.33301 0 5 0.666992 5 2l4 -2h19c8 0 15 2.33301 21 7h23
c2 0 3 0.666992 3 2l4 -2h12c78.667 15.333 126 23 142 23c0 2 2.33301 3 7 3z" />
    <glyph glyph-name="K" unicode="K" horiz-adv-x="956" 
d="M1055 1436c5.33301 -2.66699 10.001 -3.99512 14.001 -3.99512l10 2c0 -3.33301 7 -7.33301 21 -12c20 -22 30 -46 30 -72c-1.33301 -8 -2 -15.667 -2 -23h2c0 -18.667 -11.667 -31.334 -35 -38.001c-3.33301 0 -11 -6.33301 -23 -19l-5 -2l-14 2l-45 -23
c0 -4 -10 -8.66699 -30 -14c-22 -15.333 -47 -29.333 -75 -42c-22 -17.333 -46 -32.333 -72 -45l-89 -79c-1.33301 0 -16.333 -13.333 -45 -40c-22 -25.333 -37.667 -40 -47 -44c0 -7.33301 -7 -16 -21 -26c0 -4 -22.667 -26.667 -68 -68l-67 -72
c-17.333 -18.667 -29 -34.334 -35 -47.001c-22.667 -19.333 -46.334 -50 -71.001 -92c-12.667 -16.667 -25.667 -47.667 -39 -93c-2 -10.667 -3 -21 -3 -31c0 -14 18 -42.667 54 -86c16.667 -22 30.667 -43 42 -63c23.333 -38.667 46 -64.334 68 -77.001
c0 -6.66699 23.333 -28.667 70 -66c8.66699 0 33.667 -13.333 75 -40c81.333 -42.667 127.333 -69 138 -79c8 0 23.667 -12.667 47 -38c15.333 -4 23 -24.333 23 -61c-6.66699 -24.667 -19 -37 -37 -37c-14 -2 -21 -4.33301 -21 -7c-22.667 12.667 -46 22.667 -70 30
c-4 6.66699 -19 14.667 -45 24c-18 11.333 -35 17.666 -51 18.999c0 6 -15.667 15.333 -47 28c-50.667 28.667 -89 55 -115 79c-33.333 13.333 -53.666 29 -60.999 47c-7.33301 2.66699 -19 13.667 -35 33c-2.66699 0 -13.334 13 -32.001 39c-6 0 -14.667 11 -26 33
c-2 8 -15.333 25.333 -40 52l-19 14c0 10.667 -9.33301 22.334 -28 35.001c-4.66699 -4.66699 -7.66699 -13.334 -9 -26.001c-8 -4 -15 -14 -21 -30c-2.66699 0 -9 -12.667 -19 -38c-7.33301 -5.33301 -19 -36.333 -35 -93c-3.33301 -5.33301 -5 -9.33301 -5 -12
c2 -4.66699 3.66699 -7 5 -7c0 -31.333 -19.333 -54.666 -58 -69.999h-14c-6.66699 0 -15.334 -1 -26.001 -3c-20.667 6.66699 -31 16 -31 28c-7.33301 8.66699 -12 19 -14 31c-6 0 -9 8.66699 -9 26v7l5 16c-3.33301 5.33301 -5 10 -5 14c4 23.333 9.33301 35 16 35
c2.66699 8.66699 6.66699 31.334 12 68.001c1.33301 0 3 2.33301 5 7c0 2 -1 4.33301 -3 7c2 8.66699 3 15 3 19l-5 9c4.66699 6.66699 7 24.667 7 54v51c0 1.33301 1.66699 7.66602 5 18.999v59c0 4 1.33301 8.66699 4 14c2 68.667 3 122.334 3 161.001
c0 1.33301 1.33301 7.66602 4 18.999v26c0 1.33301 -1.33301 7.33301 -4 18l2 21c-1.33301 3.33301 -2 5.66602 -2 6.99902c2 9.33301 5 26.666 9 51.999c0 1.33301 -1.66699 7.33301 -5 18v3c0 4 1.66699 8.66699 5 14l-2 9l4 10l-2 16c1.33301 11.333 2 17.666 2 18.999
l-2 9c4.66699 28.667 8.66699 48.334 12 59.001c-3.33301 4.66699 -5 9.33398 -5 14.001v7l12 70c0 6 -1.66699 9 -5 9l7 12c-1.33301 14 -3.66602 23.333 -6.99902 28l7 5c0 9.33301 -3 35.666 -9 78.999c0 17.333 3 30 9 38v14c2.66699 0 14.334 9.33301 35.001 28
c2.66699 0 6 1.33301 10 4h7l9 -7h5c1.33301 0 2 1 2 3c12 -3.33301 28.333 -16.666 49 -39.999c6.66699 -14.667 10 -23.334 10 -26.001c-2.66699 0 -6 -4 -10 -12v-21c2.66699 -2 5 -12 7 -30c-1.33301 -8.66699 -2 -15.667 -2 -21v-23
c0 -4.66699 -1.66699 -9.33398 -5 -14.001l5 -19c-2.66699 -5.33301 -8.33398 -37.333 -17.001 -96v-2c0 -5.33301 1 -9.33301 3 -12c-2 -16.667 -4.33301 -30.667 -7 -42v-47c4.66699 0 7 -1.66699 7 -5v-4l-10 -3v-23c0 -4.66699 -1.33301 -9.33398 -4 -14.001l2 -10
l-2 -11c0 -2 0.666992 -4.33301 2 -7l-5 -38l3 -11c-2 -28 -3 -51.667 -3 -71v-18c0 -2 1 -3 3 -3l-3 -4v-87c0 -4 -1.33301 -8.66699 -4 -14c2.66699 -5.33301 4 -10 4 -14c-2.66699 -5.33301 -4 -10 -4 -14l4 -16c-2.66699 -5.33301 -4 -10 -4 -14h7l14 28
c22.667 32.667 42 65.334 58 98.001c3.33301 12.667 12.666 29 27.999 49c0 4.66699 6.33301 15.667 19 33c0 6.66699 29.667 48 89 124c16.667 28.667 33.667 52 51 70c26.667 22.667 54 49.334 82 80.001c3.33301 0 9.66602 7 18.999 21c18 11.333 42.333 31.333 73 60
l42 33c12.667 6 23.334 16.333 32.001 31c13.333 6.66699 33 22 59 46c33.333 31.333 62.333 52.666 87 63.999c12 12.667 47.667 30.334 107 53.001c4 0 11 4 21 12c10.667 0 29.334 7 56.001 21c6 0 16.333 4 31 12c10.667 0 16 1.33301 16 4z" />
    <glyph glyph-name="L" unicode="L" horiz-adv-x="883" 
d="M319 1435c18.667 0 37.6689 -12.668 57.002 -38.001l20 -48c-4 -66 -8.33301 -99 -13 -99c1.33301 -4.66699 2.66602 -7 3.99902 -7c-4 -8 -10.667 -38.667 -20 -92c-6.66699 -24.667 -12.334 -58.334 -17.001 -101.001l-18 -88c0 -11.333 -7.33301 -59 -22 -143
c0 -20 -6.66699 -46.667 -20 -80c2 -7.33301 3 -11.666 3 -12.999c-4.66699 -8.66699 -12 -37.334 -22 -86.001c-4 0 -10 -20.333 -18 -61c-4 -3.33301 -14.333 -40.666 -31 -111.999c-4 -5.33301 -18.667 -54 -44 -146c-20.667 -63.333 -31 -96.333 -31 -99
c0 -1.33301 1 -2 3 -2l-7 -11c2.66699 -1.33301 5 -2 7 -2c34 24.667 91.667 58.334 173 101.001c0 1.33301 29.333 15.333 88 42c32 18 74.667 35.667 128 53c12.667 10 56.667 22.333 132 37c49.333 16 100.666 24 153.999 24c16.667 0 33 -9.33301 49 -28h2v-5l2 -15
c-16.667 -22 -30.667 -33 -42 -33h-22c0 -6 -27.667 -13.333 -83 -22c-115.333 -30.667 -210 -64.334 -284 -101.001c-32.667 -21.333 -60.667 -37 -84 -47l-68 -41c-3.33301 0 -15 -9 -35 -27c-40.667 -24 -68.667 -43.667 -84 -59c-8.66699 0 -33 -22 -73 -66
c0 -4 -9.33301 -10.667 -28 -20c-4.66699 3.33301 -16.334 7 -35.001 11l-31 33c-1.33301 0 -4.33301 5 -9 15c0 39.333 6.66699 65 20 77c2.66699 4.66699 9.33398 32.667 20.001 84c2 2 10 28.333 24 79c2 0 7 17 15 51l49 154c10 39.333 23.667 86.333 41 141
c0 5.33301 6 24.333 18 57c0 8 7.33301 42.333 22 103c0 3.33301 5 28.333 15 75l5 7v2l17 125c3.33301 10 14.333 74.667 33 194c6 26.667 12 66.334 18 119.001l-13 73c6.66699 23.333 18.334 35 35.001 35z" />
    <glyph glyph-name="M" unicode="M" horiz-adv-x="1080" 
d="M985 1439l2.00098 0.00195312c2.66699 0 4 -2 4 -6l21 2c30.667 -19.333 46 -36.666 46 -51.999c11.333 -12 17 -29.333 17 -52l-3 -11c2 -18 3 -32.333 3 -43l-3 -30l3 -4c-2 -22 -4.33301 -38 -7 -48v-20c-6.66699 -24.667 -11.334 -54 -14.001 -88
c-5.33301 -11.333 -9.66602 -25.333 -12.999 -42l2 -8c-8 -26 -13.333 -46.667 -16 -62c-1.33301 0 -2 -0.666992 -2 -2c2.66699 -4.66699 4 -8.33398 4 -11.001c-16.667 -52 -28.667 -100 -36 -144c-4 0 -7.33301 -18 -10 -54c-15.333 -46 -25.666 -90.333 -30.999 -133
c-7.33301 -19.333 -14.333 -49.333 -21 -90c-2.66699 0 -5.33398 -13 -8.00098 -39c-4.66699 0 -10.334 -27 -17.001 -81c-4 -3.33301 -6 -7 -6 -11c0 -8.66699 -1.66699 -24.667 -5 -48h3c-4.66699 -9.33301 -7 -17 -7 -23v-20l-4 -15c2.66699 -4.66699 4 -8 4 -10
c-2.66699 -4.66699 -4 -8.33398 -4 -11.001c2.66699 -4.66699 4 -8.66699 4 -12v-59c4 -12.667 7.66699 -30.667 11 -54c18 -56 29.667 -86.333 35 -91c5.33301 -20.667 8 -32.667 8 -36c-2.66699 -18 -11.667 -27 -27 -27c0 -2.66699 -1.33301 -4 -4 -4
c-20 0 -41.333 12.333 -64 37c-28.667 42.667 -45.334 81.667 -50.001 117c-7.33301 20.667 -12.333 46.334 -15 77.001l-6 29v59l4 6v2l-4 15c2.66699 6 9.66699 54.333 21 145c2 4 9.66699 38.667 23 104c13.333 63.333 23.666 105.666 30.999 126.999
c-1.33301 2.66699 -2 5.66699 -2 9c2.66699 0 4 1.33301 4 4v15c6.66699 30.667 13.667 55.667 21 75l-2 4l8 31h-2c4.66699 17.333 10.334 32 17.001 44c0 1.33301 -1 3.33301 -3 6c6 32 12.333 57.667 19 77c0 5.33301 9.66699 54 29 146v14
c5.33301 20 10.333 45.667 15 77v59h-2c-26 -26 -56.667 -90.667 -92 -194c-10.667 -20.667 -19 -42.334 -25 -65.001c-6 0 -10.667 -16.667 -14 -50c-16.667 -52.667 -27.334 -79 -32.001 -79v-18c-3.33301 -14.667 -6 -33 -8 -55c-2.66699 -1.33301 -4.66699 -2 -6 -2h-6
c-7.33301 -32 -15.666 -54 -24.999 -66c-1.33301 -24 -5.66602 -38 -12.999 -42c2.66699 -4.66699 4 -8 4 -10c-4 -7.33301 -6 -12.333 -6 -15l-10 2v-2l4 -15l-21 -41c0 -18 -21.667 -65.333 -65 -142c0 -8.66699 -4 -17 -12 -25
c-10.667 -21.333 -17.667 -36.666 -21 -45.999l-31 -56c-10 -7.33301 -17.667 -16.333 -23 -27c-8 -12.667 -15 -19 -21 -19c-8 0 -12.667 -0.666992 -14 -2c-19.333 0 -40.333 15.333 -63 46c-4.66699 0 -12.334 7.66699 -23.001 23l2 4v2c-5.33301 14.667 -8 23.667 -8 27
c0 6.66699 0.666992 27.667 2 63c19.333 68 29 113 29 135c3.33301 0 7 16 11 48h-3c3.33301 2.66699 5.66602 16 6.99902 40h-2c6 19.333 13.667 63.666 23 132.999v23l4 14c1.33301 38 2 61 2 69c2.66699 4.66699 4 9 4 13c0 0.666992 -1.33301 6 -4 16
c2.66699 8.66699 5.33398 26 8.00098 52l-2 11c1.33301 2.66699 2 4.66699 2 6c-1.33301 4 -2.66602 6 -3.99902 6l4 9c-4 14.667 -6.66699 22 -8 22c-8 0 -16.333 -10.333 -25 -31l-17 -35c-2.66699 -10.667 -6.66699 -19.667 -12 -27c-6 -28 -14.333 -62 -25 -102
c-7.33301 -24 -11 -40.667 -11 -50c0 -7.33301 -2.66699 -20.666 -8 -39.999c0 -6 -6.33301 -37.333 -19 -94v-18c-10.667 -62 -19.667 -105.667 -27 -131v-28c-22 -107.333 -49 -197.333 -81 -270l-33 -69c-6.66699 -6.66699 -13.667 -22.667 -21 -48
c-10 -23.333 -22.667 -45.666 -38 -66.999c-17.333 -24.667 -30.333 -37 -39 -37h-29c-42 28.667 -65.667 52.334 -71 71.001c-4.66699 5.33301 -8.33398 18.333 -11.001 39c-1.33301 0 -2.66602 2.33301 -3.99902 7c2.66699 4 4 8 4 12v11c0 49.333 22.333 130.333 67 243
c0 10 5 22 15 36c0.666992 11.333 12.334 46 35.001 104c0 14 5 30.667 15 50l27 75c0 8.66699 9.66699 37 29 85c0 10 4.66699 24.667 14 44c0 10 5.66699 23.667 17 41c0 14.667 11.667 48 35 100l19 38v4c0 2.66699 -1.33301 4 -4 4c0 -2.66699 -13.333 -11.667 -40 -27
c-11.333 -15.333 -29.333 -27 -54 -35c-1.33301 -3.33301 -11.666 -9 -30.999 -17c-9.33301 -15.333 -21 -23 -35 -23l-30 -14c-14.667 -0.666992 -22 -2.33398 -22 -5.00098l-5 2h-4c-2.66699 0 -5.33398 -0.666992 -8.00098 -2c-9.33301 0.666992 -26 12.667 -50 36
c-4 0 -9 7 -15 21c-5.33301 0 -8 2 -8 6v6l6 8v5c0 2 -2 4 -6 6c5.33301 26 12.333 39 21 39c50.667 12.667 77 19 79 19c0 4.66699 14.667 11 44 19c8.66699 8.66699 22.334 17 41.001 25c18 14.667 39.667 29.334 65 44.001c9.33301 7.33301 14 12.666 14 15.999
c8 0 28.333 14 61 42c38.667 26.667 72.667 54.334 102 83.001c0 5.33301 5.66699 12.333 17 21c0 18 16.667 32 50 42h22c21.333 -4.66699 32 -11 32 -19h10c6 -8.66699 9.66699 -13 11 -13c18 -12.667 27 -30.667 27 -54c4 0 6 -3.33301 6 -10
c-2.66699 -10 -4 -15.667 -4 -17c0 -3.33301 2.66699 -8 8 -14l-2 -9c5.33301 -3.33301 11.666 -37.333 18.999 -102h4v-4l-6 -8v-54c0 -7.33301 1.33301 -11 4 -11c-4.66699 -6.66699 -7 -12 -7 -16v-55l3 -12c-2 -2.66699 -3 -5.33398 -3 -8.00098
c0 -8 3.66699 -15.667 11 -23c-0.666992 -6 -6.33398 -9 -17.001 -9v-20c-2.66699 -10 -4 -15.667 -4 -17v-23c-4 -13.333 -6 -23.666 -6 -30.999v-15c-2.66699 -10 -4 -15.333 -4 -16v-15c0 -6 -0.666992 -13.667 -2 -23c1.33301 -2.66699 2 -5.33398 2 -8.00098
c-7.33301 -10.667 -12.333 -34.334 -15 -71.001c1.33301 -2.66699 2 -4.66699 2 -6h2c6 4 16.333 21.333 31 52c-1.33301 2 -2 4.66699 -2 8c18.667 26 34 60.667 46 104c7.33301 4 11 7 11 9c-1.33301 2.66699 -2 4.66699 -2 6c6 20.667 12 31 18 31
c0 34.667 5.66699 52 17 52c0 18 3.33301 30.667 10 38c0 3.33301 2.33301 8 7 14l-2 8c8.66699 27.333 17 49 25 65c7.33301 40 16.333 60 27 60v5l-7 8c23.333 59.333 40 99.666 50 120.999l-2 10c11.333 22 20.333 44.333 27 67c19.333 40 38.333 70.333 57 91
c8.66699 16 23.667 30 45 42c2.66699 8.66699 16.667 17 42 25z" />
    <glyph glyph-name="N" unicode="N" horiz-adv-x="833" 
d="M696 1434c37.333 -16.667 56.002 -39.6689 56.002 -69.002l4 -16v-20c0 -1.33301 0.666992 -2 2 -2c0 -2 -0.666992 -3 -2 -3c1.33301 -17.333 2 -30 2 -38v-33c0 -4 1.66699 -8.66699 5 -14l-5 -9c8 -29.333 14 -77.666 18 -144.999
c1.33301 0 3.66602 -4.33301 6.99902 -13v-9l-4 -16c2.66699 0 7.66699 -15 15 -45c-2.66699 -4.66699 -4 -8.33398 -4 -11.001c5.33301 -22 9 -34.667 11 -38l-5 -9c3.33301 -4.66699 5 -9 5 -13v-23c0 -5.33301 0.666992 -12 2 -20c-1.33301 -2 -2 -6.33301 -2 -13
c2.66699 -10.667 5 -16 7 -16l-3 -4v-3c4.66699 -13.333 7 -20.666 7 -21.999c0 -6.66699 3 -47 9 -121v-18l5 -20c-2 -12.667 -3 -20 -3 -22h3c-3.33301 -5.33301 -5 -10 -5 -14v-6c0 -4 1.66699 -8.66699 5 -14c-2.66699 -4 -5 -13 -7 -27c1.33301 -8 2 -14 2 -18
c-6 -55.333 -9 -87.333 -9 -96c-2.66699 0 -8.66699 -24.667 -18 -74l-24 -53c-24.667 -58 -46.334 -91 -65.001 -99c-12.667 -18 -35 -32 -67 -42c-10 -1.33301 -20 -2 -30 -2h-26c-23.333 2 -57.666 19 -102.999 51c-42 40 -65.333 64.667 -70 74
c-17.333 32.667 -29 58.667 -35 78c-7.33301 8.66699 -14.333 38.667 -21 90c-0.666992 0 -2 2 -4 6c0 2 0.666992 4.33301 2 7c-1.33301 15.333 -2 27.333 -2 36v9c0 1.33301 -1.33301 7.33301 -4 18v109c0 4 1.33301 8.66699 4 14l-2 13l9 45v2c0 3.33301 -1 5 -3 5l3 15
v16l-3 11c3.33301 0 5 1.66699 5 5c1.33301 46.667 2 81.667 2 105l-7 4c-4 -18 -9 -27 -15 -27v-15l-14 -38v-5c0 -1.33301 1 -2 3 -2c-2.66699 -6.66699 -5.66699 -12.667 -9 -18v-16l-18 -82c0 -12.667 -3 -22.334 -9 -29.001l2 -16
c-18 -59.333 -30 -117.666 -36 -174.999c-3.33301 0 -6.33301 -15.667 -9 -47c-2.66699 0 -7 -16.333 -13 -49c-19.333 -83.333 -39.666 -154 -60.999 -212c-6 -9.33301 -10.333 -24.333 -13 -45c-16.667 -22 -25 -52 -25 -90c-12 -29.333 -25.333 -44 -40 -44
c-12 -2 -20 -4.33301 -24 -7c-16 4.66699 -34 17.334 -54 38.001c-4.66699 0.666992 -10.667 17.667 -18 51c2.66699 10.667 4 19.667 4 27v32c0 33.333 2.33301 57 7 71v9c0 15.333 2.33301 30.333 7 45v27c13.333 63.333 23.666 102 30.999 116
c-1.33301 2.66699 -2 5.66699 -2 9c7.33301 22.667 25.333 94.334 54 215.001c3.33301 2 8.33301 17.667 15 47c0 10 6.66699 29.333 20 58c0 4.66699 9 36.667 27 96v7c-6 0 -11 1.33301 -15 4c-5.33301 -2.66699 -10 -4 -14 -4h-15c-34.667 14 -53.334 26 -56.001 36
c-12 0 -19.667 14 -23 42l-6 7c0 30 14 46.333 42 49h2c12.667 -4.66699 25.334 -7.66699 38.001 -9c25.333 0 68.666 28.333 129.999 85c4.66699 3.33301 14.334 17.666 29.001 42.999c4 0 9.33301 13.333 16 40c2.66699 0 14.667 18.667 36 56l26 7h16
c30 -9.33301 45 -20.666 45 -33.999c6 -10 15.667 -19 29 -27c0 -2.66699 0.666992 -4 2 -4l-2 -5v-15l18 -21l-2 -11c6 -11.333 11 -30 15 -56c0 -16 1 -36.667 3 -62l-3 -16c0 -1.33301 1 -2 3 -2l-3 -23v-44l-4 -16c1.33301 -4.66699 2.66602 -7 3.99902 -7
c-2.66699 -4 -4.66699 -14.333 -6 -31l2 -16c-7.33301 -63.333 -11 -101.333 -11 -114h2l-2 -4v-36c0 -15.333 -2.33301 -30.333 -7 -45c2.66699 -4.66699 4 -9 4 -13v-2c0 -14 1 -26.667 3 -38c-2 -8.66699 -3 -17 -3 -25h3l-3 -5c0 -36 11.333 -83.667 34 -143
c17.333 -24.667 28.333 -38.667 33 -42c24.667 -18 39.667 -27 45 -27l9 -2c25.333 0 51.333 20 78 60c0 3.33301 7.66699 20.666 23 51.999c7.33301 7.33301 18.333 46.666 33 117.999v11c0 36.667 2.33301 57 7 61c-2.66699 4.66699 -4 9 -4 13v9
c0 1.33301 1.33301 7.33301 4 18v7c0 1.33301 -1.33301 7.33301 -4 18v42c0 21.333 -1.66699 40 -5 56l2 4c-2.66699 5.33301 -4 10 -4 14l-2 71c-3.33301 0 -5 1.66699 -5 5l2 16l-11 56v15c-6 56 -10.333 89 -13 99v2c0 28.667 -3 51 -9 67l2 9
c-4.66699 31.333 -9 50 -13 56c2.66699 11.333 4 18 4 20c-4 0 -7.66699 35.667 -11 107v3c-8.66699 24 -13 39.667 -13 47c1.33301 10.667 2 16.334 2 17.001l-2 5c0 25.333 19.333 38 58 38z" />
    <glyph glyph-name="O" unicode="O" horiz-adv-x="1373" 
d="M714 1433c0 -2 2.66699 -4.3291 8 -6.99609h23c2 0 9 1.66699 21 5h26c41.333 -12 68.333 -18 81 -18c12.667 1.33301 20.667 3 24 5c9.33301 -2 17 -3 23 -3h8c7.33301 0 14.333 1 21 3c36 0 69 -11.333 99 -34c12.667 -18 20.334 -34.667 23.001 -50v-13
c-3.33301 -12 -5 -19 -5 -21c79.333 -82.667 135 -157.334 167 -224.001c42 -76.667 75.667 -158.334 101 -245.001c8.66699 -23.333 17.334 -67.666 26.001 -132.999v-73c0 -1.33301 1 -2 3 -2l-3 -5v-19c-4.66699 -43.333 -14 -84 -28 -122
c0 -7.33301 -9.66699 -23 -29 -47c-7.33301 -32.667 -45.666 -82.334 -114.999 -149.001c-60.667 -51.333 -118.667 -93.666 -174 -126.999c-2 -7.33301 -19.333 -18.666 -52 -33.999c-6.66699 -10 -33 -25.667 -79 -47c-2 -10.667 -32.333 -25.334 -91 -44.001
c-30 -14 -63.667 -21 -101 -21l-19 -5h-49c-6.66699 0 -14.667 -1 -24 -3c-4 2 -18.667 4.66699 -44 8c-3.33301 -2 -6 -3 -8 -3c-92.667 22.667 -161.334 48 -206.001 76c-79.333 54 -138.333 129.667 -177 227c-10 44 -21.333 77 -34 99c4 0 6 1.66699 6 5
c-4 6 -8.66699 20.667 -14 44v42c0 5.33301 -0.666992 9.66602 -2 12.999l2 15v89c0 4.66699 2 10 6 16c-4 5.33301 -6 10.333 -6 15c5.33301 0 10.666 24.333 15.999 73c16.667 39.333 29 78.666 37 117.999c18 47.333 29 72.333 33 75c12 31.333 27.667 61.666 47 90.999
c0 6.66699 5.33301 15.334 16 26.001c0 8 6 15 18 21c0 6 2.66699 12.333 8 19v5h-3c-12.667 -7.33301 -40.334 -35.333 -83.001 -84c0 -3.33301 -9.66699 -15.333 -29 -36c-48.667 -76.667 -73 -132.334 -73 -167.001c-6.66699 -3.33301 -10 -8.66602 -10 -15.999h-5v26h-8
c-7.33301 -15.333 -14.333 -23 -21 -23c-15.333 3.33301 -23 8.66602 -23 15.999h-13c-4 0 -7.66699 7 -11 21l3 5c-6.66699 17.333 -12.667 26 -18 26h-3v8c-0 41.333 24.333 98.666 73 171.999c0 4 16.333 25.667 49 65l45 49c10 10 16 19.667 18 29
c20 0 32.333 9.66699 37 29c0 7.33301 12 16 36 26c0 4.66699 15.667 20.334 47 47.001l13 -3c27.333 18.667 71.666 44.667 132.999 78c0 12 10.333 18 31 18c13.333 6 22 13 26 21l44 24c6 0 31.333 6 76 18c6 -3.33301 11.333 -5 16 -5h5c24.667 10 46.334 15 65.001 15z
M863 1264l-26.001 -0.00195312c-6.66699 0 -21.667 -6 -45 -18c-21.333 -0.666992 -39.333 -7 -54 -19l-11 6c-14 -14.667 -21 -22.667 -21 -24c-40 0 -105 -41.667 -195 -125c-64.667 -68.667 -97 -107 -97 -115c-18 -20.667 -33.667 -44 -47 -70
c-2.66699 0 -9.33398 -17.333 -20.001 -52c-14 -18 -21 -31 -21 -39v-8c-4.66699 0 -10 -14 -16 -42c-13.333 -28 -22 -60 -26 -96c-5.33301 -6 -12.333 -39 -21 -99v-70c3.33301 -12.667 5 -19.667 5 -21v-11c0 -44 5.33301 -73.333 16 -88
c14 -63.333 31.333 -100.666 52 -111.999c0 -20.667 34.667 -52 104 -94c28 -10.667 68 -21 120 -31h81c75.333 13.333 117 24.333 125 33c4 0 28.333 10.667 73 32c36.667 14 102 58.333 196 133c40 32 60 49.333 60 52c0 5.33301 8.66699 12.333 26 21
c50 59.333 75 101 75 125c6.66699 0 16.334 32 29.001 96l2 13c-3.33301 6 -5 11.333 -5 16v26l5 18c-3.33301 6 -5 11.333 -5 16v15c-9.33301 89.333 -25.666 154.666 -48.999 195.999l-45 91c-11.333 24 -39 66.667 -83 128c-0.666992 8.66699 -13.667 23.334 -39 44.001
c0 12.667 -21.667 28.334 -65 47.001h-26c-3.33301 0 -11.333 -2.66699 -24 -8v34c-2.66699 0 -7 1.66699 -13 5c-5.33301 -3.33301 -10.333 -5 -15 -5z" />
    <glyph glyph-name="P" unicode="P" horiz-adv-x="1120" 
d="M922 1431l5.00195 -0.00195312l11 -8c5.33301 0 8 1 8 3l11 -3c22.667 2 35.334 3 38.001 3c16.667 -4 25.667 -6 27 -6c4.66699 0 11 2.66699 19 8c2 0 4.66699 -0.666992 8 -2c14 1.33301 23 3 27 5c19.333 -9.33301 33 -14 41 -14c0.666992 0 4.33398 1 11.001 3
c6 -3.33301 17 -6 33 -8l13 8c0.666992 -3.33301 2.66699 -5 6 -5c5.33301 3.33301 9.66602 5 12.999 5c4 -4.66699 6 -9 6 -13h8c47.333 0 89.666 -7.33301 126.999 -22c57.333 -18.667 104.666 -48.667 141.999 -90c41.333 -50 62 -90.667 62 -122c0 -2 1 -4.66699 3 -8
c-5.33301 -41.333 -16.333 -79.333 -33 -114c0 -18.667 -38 -68.667 -114 -150c-5.33301 0 -25.333 -14.333 -60 -43c-62.667 -46 -110.667 -75 -144 -87c-26 -17.333 -77.333 -44.333 -154 -81l-82 -36c-100 -41.333 -193.333 -75.666 -280 -102.999
c-14.667 -8 -35.334 -15.333 -62.001 -22l-3 -5l-13 3c-8.66699 -4 -13.334 -7.66699 -14.001 -11v-25l-5 -19c-2 -50 -3 -82.333 -3 -97c-4 0 -7.66699 -34.667 -11 -104l-5 -19v-21c0 -8 -1 -18 -3 -30c0 -2 1 -3 3 -3l-3 -14v-81c0 -2 1 -3 3 -3c-2 -3.33301 -3 -6 -3 -8
l3 -33c0 -23.333 -16.333 -44 -49 -62c-28 13.333 -46.333 23.333 -55 30c0 2 -10 21 -30 57l3 33c0 16.667 -1 32 -3 46c2 17.333 3 36.333 3 57l-3 43c4 7.33301 6 12.666 6 15.999l-3 17c3.33301 8.66699 7 26.667 11 54c0 4.66699 -1 12 -3 22l3 19c0 2 -1 4.66699 -3 8
c2.66699 31.333 5.66699 51.333 9 60c-4 0 -6 1.66699 -6 5v16h-3c-52 -6.66699 -94.333 -10 -127 -10h-3c-12.667 -4 -30 -7 -52 -9c-2.66699 2 -8 3 -16 3v-3c-39.333 6.66699 -66.333 18.667 -81 36c0 4 -6.33301 14.667 -19 32c-9.33301 11.333 -14 31.333 -14 60
c9.33301 30.667 21 46 35 46c4.66699 0 11 2.66699 19 8h6l35 -10c7.33301 -18.667 22 -28 44 -28c16.667 0 62.667 6.33301 138 19v3l5 -3h6c5.33301 0 13.333 4.66699 24 14v84c0 2 -0.666992 3 -2 3l2 5v3l-8 27v19c-2 47.333 -5.66699 71 -11 71l6 11
c-4 11.333 -13 56.333 -27 135c-5.33301 0 -10 22.667 -14 68c-2 0 -3 1 -3 3c8.66699 23.333 15 35 19 35c8.66699 7.33301 16 11 22 11c6.66699 -3.33301 14 -5 22 -5v3c38 -15.333 57 -32.666 57 -51.999c20 -19.333 30 -42 30 -68c6 0 12.333 -37 19 -111
c2.66699 0 6.33398 -17.333 11.001 -52c4 0 7.33301 -34.333 10 -103c4 0 6 -4.66699 6 -14l-6 -8v-8c0 -3.33301 3 -5 9 -5l-3 -14v-5l13 -3c8.66699 4.66699 22.334 10 41.001 16c0 2 12.667 5.66699 38 11c0.666992 2.66699 19.667 9 57 19c0 6 31 17.667 93 35
c23.333 14.667 82 40 176 76c4 0 16.667 6.33301 38 19c6 0 19.667 7.33301 41 22c12 9.33301 37.333 20.333 76 33c33.333 31.333 60.333 48.333 81 51c4.66699 7.33301 25.667 23.666 63 48.999c0 2 17 19.333 51 52c0 4 8.33301 14.667 25 32c20 26.667 30 47.667 30 63
c7.33301 0 11 10.667 11 32c0 26.667 -35.333 51.334 -106 74.001c-12 0 -47.333 8 -106 24c-4 0 -7.66699 -1 -11 -3c-38 4 -92.333 6 -163 6h-3l-19 5c-5.33301 -1.33301 -8 -3 -8 -5c-6 3.33301 -11.333 5 -16 5h-8c-26.667 -3.33301 -41.334 -5 -44.001 -5h-38
c-22.667 0 -46 -2 -70 -6c-10 2 -20 3 -30 3c0 -3.33301 -2 -5 -6 -5l-11 2l-10 -2l-14 2c-9.33301 -5.33301 -18.333 -8 -27 -8h-46l-17 -8c-6.66699 2 -13 3 -19 3l-13 -8h-19c-17.333 0 -31 -3.66699 -41 -11l-8 5c-21.333 -8.66699 -47.666 -14 -78.999 -16
c-2.66699 -4 -31.667 -9.33301 -87 -16c-4 -4 -24.667 -9.66699 -62 -17l-169 -48c-18 -7.33301 -55 -19.333 -111 -36c-6 -4 -29.667 -12 -71 -24c-26 -14 -54 -25 -84 -33c-18 -14 -57.667 -35.667 -119 -65c-32 -25.333 -57.333 -38 -76 -38
c-54.667 11.333 -82 37.666 -82 78.999c-3.33301 0 -6 6.33301 -8 19v27c3.33301 27.333 14.333 41 33 41c10.667 0 36.667 9 78 27l49 24l125 41c6 4.66699 30.667 12.667 74 24c0 -3.33301 1.66699 -5 5 -5l27 16c8.66699 0 26 6.33301 52 19h16c0 7.33301 10 11 30 11
c22 12.667 66.333 26.334 133 41.001c19.333 6 34.666 12.333 45.999 19c10 -2 17.333 -3 22 -3c0 2.66699 4.33301 7.33398 13 14.001h22l63 13c9.33301 -1.33301 17.333 -2 24 -2c5.33301 0 18 4.33301 38 13h30c26.667 4 44.667 9.66699 54 17
c8.66699 0 21.334 2.66699 38.001 8c2 -4 3 -6.66699 3 -8h11l16 13h8v-5h3c4.66699 3.33301 12.667 7 24 11l6 -3h11c1.33301 0 8.66602 1.66699 21.999 5c0.666992 -5.33301 7 -8 19 -8c0 7.33301 1.66699 11 5 11h43c5.33301 0 11 1.66699 17 5l13 -2
c0 4 24.667 7.66699 74 11l5 -3l35 5c3.33301 -1.33301 7 -2 11 -2c6 3.33301 11.667 5 17 5z" />
    <glyph glyph-name="Q" unicode="Q" horiz-adv-x="1331" 
d="M730 1434l12.002 0.000976562c36 0 57 -4 63 -12h9c53.333 0 102.333 -18.333 147 -55c28 -19.333 54.333 -50 79 -92c7.33301 0 17 -18.333 29 -55c20.667 -23.333 45.334 -87.333 74.001 -192c8 -28.667 13.667 -64 17 -106h3l-3 -4c2 -12 3 -18.667 3 -20
c-3.33301 -5.33301 -5 -10 -5 -14v-22c0 -7.33301 -1.66699 -20 -5 -38l2 -5c-10.667 -57.333 -24 -106 -40 -146l-36 -75c-8 -8 -13.667 -17.667 -17 -29c18.667 -51.333 33.667 -106.333 45 -165v-22c3.33301 -4 6.66602 -17.667 9.99902 -41v-50
c7.33301 -58 12 -87.667 14 -89c-2.66699 -5.33301 -4 -9.33301 -4 -12c12.667 -44.667 23 -67 31 -67h17c28 3.33301 48.667 8.66602 62 15.999c10.667 8 20.334 16 29.001 24v-4c-2 -3.33301 -3 -6 -3 -8h3c25.333 7.33301 39.666 13 42.999 17c12 0 18.333 -11 19 -33
c-2 0 -5 -9 -9 -27c-7.33301 -15.333 -24.333 -32 -51 -50c0 -12.667 -25.667 -28.667 -77 -48c-6 0 -9 -1 -9 -3l-5 3h-10l-12 -10h-16c-21.333 0 -46.333 20.667 -75 62c-26.667 35.333 -41 69 -43 101c-4.66699 0 -9.66699 43.333 -15 130c2 2.66699 3 6.66699 3 12
c-10 77.333 -17.333 124.666 -22 141.999c-5.33301 22 -9.33301 33 -12 33c-48 -41.333 -80 -66.666 -96 -75.999c-8 -9.33301 -54.333 -38.333 -139 -87c-6 0 -46 -20.667 -120 -62c-26 -11.333 -47 -18.666 -63 -21.999c-30.667 -17.333 -53.667 -26 -69 -26
c0 -2.66699 -20 -7.66699 -60 -15c-6.66699 -6 -37.334 -10 -92.001 -12h-38c-2 0 -3 -0.666992 -3 -2c-52 4.66699 -91 13.334 -117 26.001c-59.333 20.667 -106 58.334 -140 113.001c-22.667 38 -35.334 71.667 -38.001 101v55l29 113c6 0 13 19.333 21 58
c8 0 20 20.667 36 62c4 5.33301 9 17.333 15 36c12 32.667 28.667 64 50 94c4 10.667 16 29 36 55c0 5.33301 13.667 30.333 41 75v2c-1.33301 2.66699 -2 6 -2 10v4c12.667 0 19 6.66699 19 20l-5 -3h-5c0 9.33301 9 27.666 27 54.999l-5 3
c-18.667 -22.667 -38.667 -52.334 -60 -89.001c-14.667 4.66699 -22 11 -22 19h-4c-6.66699 -3.33301 -10 -8 -10 -14h-2l-5 2c4.66699 8 7 20 7 36l-2 5h9v12h-7c3.33301 6 5 14.667 5 26c4 0 16 17 36 51c16 24.667 32 43 48 55c0 13.333 34.333 47.666 103 102.999
c22.667 20.667 47.667 36.667 75 48c0 4.66699 19 17 57 37c28 19.333 67.333 38.333 118 57c44.667 18 80.667 27 108 27v-3c6 3.33301 12.333 5 19 5zM110.002 464.001c0 -3.33301 1 -5.00098 3 -5.00098l-3 -29v-19c0 -22.667 7.33301 -41.334 22 -56.001
c40 -38 71.333 -57 94 -57l36 -10l12 3l5 -3c2.66699 2 5 3 7 3c5.33301 -3.33301 10 -5 14 -5h19c4.66699 0 9.66699 1.66699 15 5l9 -3c15.333 4.66699 46.666 9.66699 93.999 15l125 48l113 55c61.333 38.667 103 66 125 82l67 48c34.667 33.333 53 50 55 50l3 12v3
c-20.667 26.667 -48.667 45.667 -84 57l-48 24h-24c-87.333 0 -152.333 -27 -195 -81c-4 -3.33301 -7.33301 -5 -10 -5c-4.66699 3.33301 -10 5 -16 5l-17 -3c-36.667 12 -55 27.333 -55 46c-3.33301 0 -5 4 -5 12v2c22.667 49.333 67.334 86.333 134.001 111
c38 12.667 73.333 19 106 19c106.667 0 197 -34.333 271 -103h8c16.667 16 34 64.667 52 146c2 24.667 4.66699 42.334 8 53.001v77c-13.333 60.667 -20 92.667 -20 96c-33.333 93.333 -60.333 150 -81 170c-8.66699 18 -16.667 27 -24 27
c-19.333 -3.33301 -43.333 -8.33301 -72 -15c-30.667 6 -46 11 -46 15l-2 17l21 24v4h-12c-7.33301 0 -15.333 1 -24 3c-40 0 -89.667 -16 -149 -48c-82.667 -55.333 -165 -138 -247 -248c-45.333 -67.333 -77.333 -118.333 -96 -153c-44.667 -64 -67 -104 -67 -120
c-9.33301 -6 -18.333 -22 -27 -48c-18 -24.667 -43.667 -77.667 -77 -159c-4 -11.333 -8 -29.666 -12 -54.999c-1.33301 0 -3 -2.33301 -5 -7zM259.002 1030l-2 -4v-5h7v5c0 2.66699 -1.66699 4 -5 4z" />
    <glyph glyph-name="R" unicode="R" horiz-adv-x="1093" 
d="M815 1432l19.9961 -0.00390625c74 0 124.667 -20.667 152 -62c20.667 -32.667 32.334 -61.334 35.001 -86.001c0 -26.667 -6.66699 -57.667 -20 -93c0 -6 -11.333 -25.667 -34 -59c-18 -29.333 -46 -61.333 -84 -96c-28.667 -30.667 -49.334 -48.667 -62.001 -54
c-12 -14.667 -35.667 -35.334 -71 -62.001c-23.333 -23.333 -84 -70 -182 -140l-116 -84l-113 -101v-19c0 -6 28 -13.333 84 -22c146.667 -24.667 230.334 -43 251.001 -55c70 -26.667 135.667 -61.667 197 -105c72 -62.667 114.667 -108.667 128 -138
c6 0 17.333 -17.333 34 -52c18 -24.667 28.667 -46.667 32 -66c11.333 -20.667 20.333 -49.334 27 -86.001c-3.33301 -21.333 -11.666 -37 -24.999 -47l-17 -5c-15.333 6 -31 20.667 -47 44c-9.33301 6 -25.666 36.333 -48.999 91c-6 1.33301 -12.333 12 -19 32
c-18.667 28.667 -37 51.667 -55 69c-38.667 42.667 -63 64 -73 64c-1.33301 4 -23.666 18 -66.999 42c-52 29.333 -91.333 44 -118 44c0 4 -14.667 7.33301 -44 10c0 4.66699 -30.333 10.334 -91 17.001c0 2 -2.66699 3 -8 3c-1.33301 0 -2 -1 -2 -3
c-61.333 6.66699 -113.666 15.667 -156.999 27c-7.33301 0 -11.666 -13 -12.999 -39c-2.66699 0 -4.33398 -4 -5.00098 -12c0 -2 1 -4.66699 3 -8c-4 -25.333 -8.33301 -40.666 -13 -45.999l3 -15c-6.66699 -21.333 -11.667 -54.333 -15 -99h3l-3 -4v-18
c-3.33301 -11.333 -5 -17.666 -5 -18.999v-35c0 -4 5 -22 15 -54v-29c-13.333 -24.667 -26.333 -37 -39 -37h-8c-28.667 9.33301 -49 22.333 -61 39c-9.33301 0 -16 23 -20 69c-2.66699 0 -4.33398 4 -5.00098 12v76l22 146c13.333 54 23.333 104 30 150
c-13.333 18 -20 38.333 -20 61l3 5v5c0 32.667 13 63.667 39 93l22 138c-1.33301 5.33301 -3 8 -5 8c6.66699 12 10 38 10 78c0 5.33301 -0.666992 11.333 -2 18c1.33301 8.66699 2 16.667 2 24v10c0 6.66699 -0.666992 13.334 -2 20.001c1.33301 6 2 12.333 2 19v3l-2 15
l2 5c0 2 -0.666992 10 -2 24c1.33301 20.667 2 31.334 2 32.001c-1.33301 14.667 -3.66602 24.667 -6.99902 30l2 14c0 2.66699 -2.33301 5.33398 -7 8.00098h-5c-12 0 -52.333 -19.667 -121 -59c-8 0 -25 -10 -51 -30c-10 0 -29 -11.333 -57 -34l-34 -10h-20
c-46 19.333 -69 53 -69 101c0 10 19.667 24 59 42c5.33301 0 66 27 182 81c104 49.333 190 86.333 258 111c28.667 8.66699 56 18.334 82 29.001c60 22.667 145 44.667 255 66l10 -2c9.33301 6.66699 35.666 10 78.999 10zM347.996 1181v-20c0 -2 5.66699 -18.333 17 -49
c-3.33301 -12 -5 -18.667 -5 -20v-7c6.66699 -14.667 10.667 -22 12 -22c-3.33301 -5.33301 -5 -10.333 -5 -15c3.33301 -8.66699 6 -23.334 8 -44.001c-2 -3.33301 -3 -6.66602 -3 -9.99902l3 -17c-2 -6.66699 -3 -12.667 -3 -18c0 -2.66699 1 -4 3 -4l-3 -18v-46
c-3.33301 -12 -5 -18.667 -5 -20c0 -2 1 -4.33301 3 -7c-3.33301 -19.333 -5 -42.333 -5 -69h2c8.66699 0 60.334 37.667 155.001 113c4 0 19.667 11.333 47 34c30.667 21.333 84.667 64 162 128c3.33301 0 10 7.33301 20 22c0 2 16.333 17 49 45
c59.333 66.667 91.333 113.334 96 140.001v20c0 4 -9 8 -27 12h-24c-2 0 -8.66699 1.66699 -20 5c-12 -3.33301 -45.667 -8.33301 -101 -15c-8 -6 -40 -13.333 -96 -22c-74 -24.667 -124.667 -40.334 -152 -47.001c-17.333 -8 -37.333 -14.667 -60 -20
c-4.66699 -3.33301 -27.334 -13 -68.001 -29z" />
    <glyph glyph-name="S" unicode="S" horiz-adv-x="1308" 
d="M1013 1432c39.333 -0.666992 76.3311 -8.99902 110.998 -24.999c7.33301 0 25.333 -20.667 54 -62c1.33301 0 5 -16 11 -48c0 -2.66699 -12.667 -12.667 -38 -30c-2 -5.33301 -7.33301 -8 -16 -8h-22c-2 0 -11.667 2 -29 6h-9c-1.33301 0 -2 -1 -2 -3
c-17.333 7.33301 -40 11 -68 11c-2 0 -4.66699 -1 -8 -3l-16 3h-8c-7.33301 0 -14.666 -1 -21.999 -3c-6.66699 2 -13.667 3 -21 3l-19 -6l-5 3c-10 -3.33301 -41.667 -8 -95 -14c-89.333 -19.333 -137 -29 -143 -29c-19.333 -8.66699 -48 -17.667 -86 -27
c-18 -9.33301 -64.667 -27.333 -140 -54c-80 -39.333 -124 -69 -132 -89v-38c14 -14.667 21 -22.667 21 -24c3.33301 0 21.333 -10 54 -30c32 -19.333 66.333 -32.666 103 -39.999c14 -10 36.333 -17.333 67 -22c0 -5.33301 45 -23.333 135 -54l100 -37
c34.667 -12.667 64.334 -25.334 89.001 -38.001c6 0 31 -11.667 75 -35c16.667 -6.66699 54.334 -27.334 113.001 -62.001c6.66699 0 14 -6.33301 22 -19c38 -16 86.667 -54.667 146 -116c0 -5.33301 15 -29.666 45 -72.999c20 -31.333 30 -70.666 30 -117.999
c0 -40 -18 -87.667 -54 -143c-3.33301 0 -8.66602 -7.33301 -15.999 -22c-14.667 -18 -53.334 -46 -116.001 -84c-37.333 -22.667 -101 -44 -191 -64c-41.333 -10.667 -93.666 -19 -156.999 -25c0 -1.33301 -1 -2 -3 -2h-29l-16 -3c-4 2 -6.66699 3 -8 3
c-14.667 -1.33301 -22 -3.33301 -22 -6l-19 3h-46l-11 -8h-29c-20.667 5.33301 -39.667 8 -57 8c-11.333 0 -29.333 -1 -54 -3c-69.333 4 -121.333 6 -156 6l-11 5c-2 0 -4.66699 -1 -8 -3c-66.667 0 -142 20.667 -226 62l-52 44c-14 11.333 -28.333 30 -43 56
c-6 0 -11.333 20.667 -16 62c6 36 16.667 54 32 54l49 35h5v-2c-3.33301 -6 -5 -10.667 -5 -14h3c3.33301 0 11.333 4.66699 24 14c0 -16.667 9 -25 27 -25l3 -13c-4 -12.667 -6 -20 -6 -22v-8c2 -5.33301 7.33301 -8 16 -8h8l3 -13l-8 -27c0 -8.66699 19 -19.667 57 -33
l129 -27h11c4.66699 0 10 2 16 6l32 -11c5.33301 2 8 3.66699 8 5l6 -2h13c2 0 3 0.666992 3 2c2 0 3 -0.666992 3 -2c33.333 1.33301 57.333 2 72 2h11c11.333 0 25 -0.666992 41 -2c22.667 1.33301 38.667 4 48 8c53.333 1.33301 88.333 2 105 2c4 3.33301 40 8 108 14
c52 10.667 86.333 16 103 16h5c15.333 9.33301 43.333 19.333 84 30l56 27c70 42.667 111.333 87.334 124 134.001c0 42 -28.667 83.333 -86 124c-22 25.333 -43.667 40 -65 44c-43.333 34.667 -85.333 58.667 -126 72c-24.667 15.333 -53.667 27 -87 35
c-14.667 12 -47 24 -97 36c-10.667 10.667 -53.667 25 -129 43c-60.667 23.333 -97.667 39.333 -111 48c-15.333 0 -50.333 13.667 -105 41c-15.333 0 -32.333 9.66699 -51 29c-17.333 0 -44.333 20.667 -81 62c-46.667 34 -70 63.667 -70 89c-4 0 -7.66699 13.667 -11 41
h-3l6 11c-4 5.33301 -6 10.666 -6 15.999v5c0 4 4.66699 19.333 14 46c22.667 41.333 50.667 69 84 83c20 20 46 36.333 78 49c0 5.33301 19.667 14.333 59 27c3.33301 5.33301 19.666 11.666 48.999 18.999c2.66699 4.66699 27.667 14.667 75 30
c45.333 21.333 145 48 299 80h25c27.333 7.33301 92.666 15.666 195.999 24.999z" />
    <glyph glyph-name="T" unicode="T" horiz-adv-x="1061" 
d="M1571 1434c8.66699 -3.33301 14.668 -4.99805 18.001 -4.99805c2 0 11.333 1.66699 28 5c82.667 -4 124 -16 124 -36c3.33301 -0.666992 17 -25.667 41 -75c0 -16.667 1 -25 3 -25l-3 -6v-28c-10 -46 -23.667 -69 -41 -69c-20.667 0 -38 10 -52 30
c-7.33301 10.667 -24.333 17.667 -51 21c-5.33301 -2 -8 -3.66699 -8 -5c-5.33301 3.33301 -9.66602 5 -12.999 5c-5.33301 -3.33301 -10.333 -5 -15 -5h-62c-2 0 -3 -1 -3 -3l-5 3h-2c-2 0 -9 -1.66699 -21 -5l-5 2c-10 -3.33301 -32.333 -7.66602 -67 -12.999l-5 -5l-10 5
l-6 -7l-12 2h-13c-6 -6.66699 -11.333 -10 -16 -10c0 3.33301 -1.66699 5 -5 5h-8c-130 -20.667 -203.667 -37 -221 -49c0 3.33301 -1.66699 5 -5 5c-38 -12 -72.333 -19.667 -103 -23c-5.33301 -4 -27.666 -9 -66.999 -15c0 -6.66699 -13.667 -12 -41 -16
c-23.333 -10 -67.333 -22.667 -132 -38c-32 -14 -52.333 -21 -61 -21c-5.33301 0 -16.666 -6 -33.999 -18c-33.333 0 -53 -4.33301 -59 -13h-16c0 -4 -3.33301 -10 -10 -18c0 -4 1.66699 -16 5 -36c-1.33301 -2.66699 -2 -6 -2 -10c3.33301 -6 5 -11.333 5 -16
c-5.33301 -16 -8 -30.333 -8 -43v-16c0 -1.33301 1 -2 3 -2l-3 -6c0 -38 -2.66699 -66 -8 -84l3 -13c-3.33301 -0.666992 -5 -2.33398 -5 -5.00098v-42c-18.667 -98 -28 -149.333 -28 -154c-4 -0.666992 -6 -2.33398 -6 -5.00098c0 -24.667 -12.667 -94.334 -38 -209.001
c0 -2 0.666992 -4.66699 2 -8c-10 -29.333 -21 -90 -33 -182v-16c0 -10 3.33301 -20.333 10 -31l-2 -18v-64c-13.333 -24.667 -26.333 -38.334 -39 -41.001c0 -5.33301 -4.33301 -8 -13 -8h-2c-24.667 0 -46.334 29.333 -65.001 88c-1.33301 1.33301 -2 8 -2 20v70
c0 1.33301 -2 8 -6 20c3.33301 4 7 26.333 11 67h-3c0 10 19.667 114.667 59 314c4 32.667 11 66.334 21 101.001v13l15 136v8l6 7l-3 13c3.33301 0 5 1.66699 5 5c-1.33301 3.33301 -2 6 -2 8c3.33301 0 5 2.66699 5 8c0 14 -2.66699 30.333 -8 49v20l3 18
c-10.667 9.33301 -16 15.333 -16 18h-10c-3.33301 0 -5 -2.33301 -5 -7l-13 2h-3c-13.333 -7.33301 -20 -11.666 -20 -12.999c-6.66699 4 -13.667 6 -21 6c-12 -7.33301 -33.333 -14.333 -64 -21c-5.33301 -2.66699 -8 -4.33398 -8 -5.00098l-5 2l-168 -33
c-3.33301 0 -5 1 -5 3c-16.667 -2 -29.334 -3 -38.001 -3h-36c-48 0 -84 11 -108 33c-18 10 -33.667 29 -47 57c-15.333 31.333 -23 51 -23 59c0 1.33301 1 6.66602 3 15.999l-3 23c7.33301 46 21 69 41 69h5c8 0 19.333 -6.66699 34 -20c22 -19.333 36.667 -29 44 -29
c8.66699 2 13.667 3 15 3c0 -4.66699 12 -9 36 -13c9.33301 2 18 3 26 3c12 -3.33301 18.667 -5 20 -5h65c10 0 22.667 2.33301 38 7l13 -2c39.333 11.333 82.333 21.666 129 30.999c42 13.333 70.333 20 85 20c9.33301 6 26.333 12 51 18c3.33301 -1.33301 7 -2 11 -2
c9.33301 0 18.666 5 27.999 15l13 -2c6 0 12 4 18 12l5 -2c15.333 0 35 5 59 15h31c8 7.33301 12.333 11 13 11l16 -3h2c0 10 9.33301 15 28 15c0 2 2 3 6 3c5.33301 -3.33301 10.333 -5 15 -5c4 6.66699 19.333 15.334 46 26.001c0 1.33301 10.333 6.33301 31 15
c6 -3.33301 11.333 -5 16 -5h5c20.667 6.66699 37.667 14.334 51 23.001h39c2 0 3 1 3 3l5 -3h10c7.33301 9.33301 19.333 18 36 26l10 -5c7.33301 2.66699 23.666 6 48.999 10v3c6 -4 10.333 -6 13 -6c1.33301 5.33301 4.66602 9 9.99902 11c3.33301 -2 7 -3 11 -3
c0 4.66699 14.333 9 43 13l8 -5h5c4.66699 0 12.667 4.33301 24 13c10.667 0 34.667 5 72 15c6.66699 -1.33301 13.334 -2 20.001 -2c0 2.66699 19 8.66699 57 18h23c29.333 0 55 5 77 15c12 0 26.667 3.33301 44 10c12 -3.33301 19 -5 21 -5c4 6 23.667 11.333 59 16
c0 4 12 7.33301 36 10z" />
    <glyph glyph-name="U" unicode="U" horiz-adv-x="1157" 
d="M975 1437c20 -4 48.3281 -20.6582 84.9951 -49.9912l29 -69c3.33301 -39.333 6.66602 -64 9.99902 -74c-3.33301 -5.33301 -5 -10.666 -5 -15.999v-2c0.666992 -8.66699 2.33398 -13 5.00098 -13l-5 -11c4.66699 -13.333 8 -20.333 10 -21l-2 -13
c4.66699 -14.667 9 -32.334 13 -53.001c-3.33301 -6 -5 -11.333 -5 -16c6.66699 -14 10 -23.667 10 -29v-31c8.66699 -9.33301 13 -16.666 13 -21.999c-4 0 -6.33301 -3.33301 -7 -10c3.33301 -6 5 -11.333 5 -16v-5c0 -36.667 2.66699 -63 8 -79v-3c-4 -12 -6 -19 -6 -21
v-3c4 -12 6 -19 6 -21v-71c3.33301 -12 5 -19 5 -21v-113c-3.33301 -12.667 -5 -19.667 -5 -21v-6l5 -18c-7.33301 -12.667 -12.666 -41.667 -15.999 -87c-6 0 -17.333 -24.667 -34 -74c3.33301 -0.666992 5 -2.33398 5 -5.00098v-5c-9.33301 0 -17.333 -9 -24 -27
c-13.333 -25.333 -31.666 -51.666 -54.999 -78.999l-21 -34c-13.333 0 -27.333 -14 -42 -42c-10 0 -19.667 -6.33301 -29 -19l-29 -23c-2.66699 0 -9.66699 -8 -21 -24c-6 0 -23.667 -12.333 -53 -37c-3.33301 0 -19 -9.66699 -47 -29c-3.33301 0 -20 -10.667 -50 -32
c-44 -30 -75.667 -45 -95 -45c0 -8.66699 -20.333 -16.334 -61 -23.001c-10.667 -12.667 -27.334 -19 -50.001 -19c0 -1.33301 -1 -2 -3 -2c-4 0 -7.33301 0.666992 -10 2c-6 -3.33301 -11.333 -5 -16 -5h-53c-50.667 6.66699 -76 11 -76 13s-12.333 5.66699 -37 11l-32 21
c-34 17.333 -63.667 42.666 -89 75.999c-18 9.33301 -27 20 -27 32c-12 4 -26 24.333 -42 61c-12 9.33301 -25 37.333 -39 84c-10 18 -16.333 38 -19 60c-6 6 -11.333 19.333 -16 40c-3.33301 0 -7.66602 13.333 -12.999 40c-2 0 -3 1.66699 -3 5l3 10
c-3.33301 7.33301 -7.66602 26.666 -12.999 57.999v24c-7.33301 9.33301 -11 17.333 -11 24v45l-5 18l5 11c-6.66699 14 -10 23.667 -10 29v52c-3.33301 13.333 -6 28.333 -8 45c5.33301 16.667 8 25.667 8 27c-3.33301 5.33301 -5 10.333 -5 15v53c0 6 -1 10.333 -3 13
l3 16v32c0 6.66699 -1 10 -3 10l3 19v102c0 2 1.66699 9.33301 5 22v13l-5 8c3.33301 28 5 43.667 5 47c-3.33301 6 -5 11.333 -5 16l2 16c-1.33301 24.667 -4 43 -8 55v29c0 2 -1.66699 9 -5 21v40c14 46 26.333 70.667 37 74c10.667 8.66699 19.334 13 26.001 13h11
c26 -5.33301 39 -13.333 39 -24c3.33301 0 11.333 -7 24 -21c21.333 -22.667 38 -53.334 50 -92.001c0 -12 1.66699 -23.667 5 -35v-23c-3.33301 -12.667 -5 -19.667 -5 -21v-51c-3.33301 -12 -5 -19 -5 -21v-13c5.33301 -21.333 8 -36.333 8 -45
c-2.66699 0 -5.33398 -2.66699 -8.00098 -8v-34c-3.33301 -12 -5 -19 -5 -21c3.33301 -6 5 -11.333 5 -16v-5c-3.33301 -12.667 -5 -19.667 -5 -21v-8c0 -6 0.666992 -14 2 -24l-8 -18c4 -6 6 -11.333 6 -16v-39c-4 -12.667 -6 -20 -6 -22v-50c4 -12 6 -19 6 -21v-95
c14.667 -107.333 25 -168.666 31 -183.999c6 -8.66699 11.333 -34.334 16 -77.001c2 0 10 -13 24 -39c14.667 -46 44.334 -83.667 89.001 -113l3 -11h8c24 -6 41.667 -13 53 -21h31l19 -5l13 2l5 -2c7.33301 3.33301 23.333 6.66602 48 9.99902l15 -2c0 6 20.333 12 61 18
c0 6.66699 23.667 20.667 71 42c0 2.66699 11.667 9.66699 35 21c0 3.33301 8.66699 7.66602 26 12.999c40.667 46 69.667 69 87 69c6.66699 13.333 18 25.666 34 36.999c0 8 8.66699 16.667 26 26c13.333 23.333 30.333 48 51 74c0 5.33301 4.33301 12.333 13 21
c0 6 8.66699 42 26 108c0 13.333 1.66699 25.666 5 36.999v34c0 5.33301 2 10.666 6 15.999l-3 5c2 10 3 18 3 24l-3 16c2 6.66699 3 13.667 3 21c0 2 -2 9 -6 21v61c-3.33301 12.667 -6 28.334 -8 47.001l3 5c-3.33301 6 -5 11.333 -5 16
c0 3.33301 1.66699 7.66602 5 12.999c-3.33301 4 -6.66602 27 -9.99902 69c-2 0 -4 2.66699 -6 8l3 16c-5.33301 5.33301 -9 24.666 -11 57.999c-1.33301 0 -4 4.33301 -8 13l3 18l-10 27v18c-6 0 -11.333 16 -16 48c0 1.33301 -2 8.33301 -6 21v26
c-6.66699 9.33301 -10 17.333 -10 24v13c0 4 3.33301 12.667 10 26c0 2 -0.666992 4.66699 -2 8c8 33.333 17.667 50 29 50c0 23.333 15.667 35 47 35z" />
    <glyph glyph-name="V" unicode="V" horiz-adv-x="1217" 
d="M1110 1439l12 -0.00390625c7.33301 -10 15.666 -15 24.999 -15c32 -22 48 -38.667 48 -50c0 -8.66699 4 -20.334 12 -35.001l-2 -15c0 -2 2.33301 -4.33301 7 -7c0 -6.66699 -6.66699 -20 -20 -40c-4 -21.333 -13 -36.333 -27 -45c0 -12 -13.333 -22.667 -40 -32h-5
c-3.33301 1.33301 -6 2 -8 2c-42.667 -37.333 -66 -68 -70 -92c-5.33301 0 -21.666 -29.333 -48.999 -88c0 -4 -8.33301 -19.667 -25 -47c0 -20 -9.33301 -41.667 -28 -65c-4.66699 -20.667 -10.334 -34.667 -17.001 -42c-6.66699 -27.333 -13.334 -45 -20.001 -53
c0 -14 -10 -45.333 -30 -94c-2.66699 -26 -12.667 -55.333 -30 -88l2 -5c-18 -50 -27 -79 -27 -87c-10 -31.333 -21.667 -63 -35 -95c0 -5.33301 -2.33301 -12.666 -7 -21.999c1.33301 -3.33301 2 -6 2 -8c-10.667 -28 -17.334 -42 -20.001 -42l-75 -227l-10 -32
c-3.33301 -0.666992 -5 -2.33398 -5 -5.00098v-3c0 -4.66699 1.66699 -9.66699 5 -15c-10 -4 -15 -7.33301 -15 -10c2 -4.66699 3.66699 -7 5 -7c-13.333 -31.333 -32.333 -50.666 -57 -57.999c-17.333 -11.333 -34.666 -17 -51.999 -17
c-31.333 25.333 -47.333 40.333 -48 45c-4 0 -19 19 -45 57c-20 22 -39.667 49.667 -59 83c-11.333 9.33301 -19 23.333 -23 42c-14 22.667 -35.667 63.334 -65 122.001c-4 0 -14 18.333 -30 55c-14.667 34 -22 52.333 -22 55c-17.333 21.333 -34 60.333 -50 117
c-6 0.666992 -11.667 11.334 -17 32.001c-12.667 27.333 -25.334 60 -38.001 98c-17.333 26.667 -27.333 54 -30 82c-11.333 14.667 -24.666 43 -39.999 85c-8.66699 12.667 -17.667 34.334 -27 65.001c-22 11.333 -38.667 33.666 -50 66.999l2 5v5
c-8 9.33301 -12 17.666 -12 24.999v2c10 40 19 60 27 60c0 18 16.667 30.667 50 38h3c8.66699 0 37.667 -19.333 87 -58c0 -10.667 11 -31.334 33 -62.001c0 -11.333 13 -44.666 39 -99.999c0 -1.33301 7.66699 -20.333 23 -57c0 -9.33301 5 -20.333 15 -33
c8 -14.667 12 -27 12 -37c8 -5.33301 17.333 -28.666 28 -69.999l35 -82c3.33301 -8.66699 5 -13.667 5 -15c-2 -3.33301 -3 -6 -3 -8c12 -14 18 -26.333 18 -37c3.33301 0 7.33301 -7.33301 12 -22c18 -32 27 -50.333 27 -55c16.667 -48.667 36.667 -87.667 60 -117
c0 -4 6 -16.667 18 -38c12 -16 18.667 -27.667 20 -35c5.33301 0 12.666 -10.667 21.999 -32h8c12 34.667 29.333 70.334 52 107.001c0 11.333 9 38 27 80c18.667 48.667 36.334 104.334 53.001 167.001c12 14 27.667 59.667 47 137
c6.66699 12.667 13.334 33.334 20.001 62.001c2.66699 0 7.66699 13.333 15 40c0 5.33301 9.33301 28.666 28 69.999c3.33301 14.667 9 30.667 17 48c0 8 12.333 31 37 69c0 6.66699 15 40 45 100c10.667 16 25.667 41.667 45 77l23 33c5.33301 0 14.333 13.333 27 40
c24.667 31.333 47 55.333 67 72c20.667 36.667 43.334 55 68.001 55z" />
    <glyph glyph-name="W" unicode="W" horiz-adv-x="1308" 
d="M1207 1439c3.33301 -4 5.00098 -7.33691 5.00098 -10.0039h10c40 -10 60 -26.667 60 -50v-29c4 -12 6 -19 6 -21v-10l-24 -65l3 -13c-7.33301 0 -26.666 -63 -57.999 -189c-8.66699 -14 -15.667 -47.667 -21 -101c-10 -36.667 -20.333 -93.334 -31 -170.001
c-20.667 -115.333 -31 -194.666 -31 -237.999c-8.66699 -16.667 -14 -41 -16 -73c-3.33301 -7.33301 -13 -59.666 -29 -156.999c-8.66699 -24.667 -15.667 -51.667 -21 -81c-7.33301 0 -17.666 -24.333 -30.999 -73c-16 -16 -25.667 -32.333 -29 -49
c-22 -31.333 -34 -47 -36 -47c-33.333 -26 -72.666 -45.333 -117.999 -58c0 -1.33301 -2.66699 -3 -8 -5l-18 3c-2 0 -3 -1 -3 -3c-32 0 -65 11.333 -99 34c-2 6 -17.667 16.333 -47 31c0 4 -19 22.333 -57 55c-5.33301 8.66699 -23 29.667 -53 63
c0 6.66699 -9.33301 22.334 -28 47.001c0 11.333 -13 38.333 -39 81c-8 45.333 -16 68 -24 68c0 8 -11.333 52.333 -34 133c-12 80 -22.333 137.333 -31 172v26h-8v-41l-13 -68v-26c-7.33301 -34 -11 -55 -11 -63h3c-7.33301 -30 -16 -57 -26 -81v-29
c-6.66699 -18 -13.667 -45.667 -21 -83l-63 -40c-43.333 10.667 -65 26.334 -65 47.001c-13.333 13.333 -23.666 39.666 -30.999 78.999c-7.33301 0 -15.333 22.667 -24 68c-5.33301 0 -17.333 43.333 -36 130c-2.66699 0 -6.33398 18.333 -11.001 55
c-3.33301 0.666992 -6 6.66699 -8 18v27l-18 70v21c-8.66699 110 -14.667 174.333 -18 193c-17.333 97.333 -26 151.333 -26 162c-11.333 12 -18.333 21.667 -21 29l2 10c-6.66699 14 -10 22 -10 24c3.33301 5.33301 5 10.333 5 15v8l-5 8v18l34 68
c7.33301 12.667 19.666 19 36.999 19c26.667 0 44 -9.66699 52 -29c18 -21.333 31 -51 39 -89c2 0 3.66699 -3.33301 5 -10l-5 -11c2 -9.33301 3 -17 3 -23l-3 -11c2 -3.33301 3 -6 3 -8l-3 -5c3.33301 -5.33301 7.66602 -27 12.999 -65c0 -6 1 -31.333 3 -76
c3.33301 -5.33301 5 -10.666 5 -15.999v-28c0 -8.66699 1.66699 -13 5 -13c0 -4 -1 -6 -3 -6l3 -31v-18c3.33301 -12.667 5 -19.667 5 -21v-10c0 -17.333 9.66699 -82 29 -194c1.33301 0 4.66602 -7.66699 9.99902 -23v-24c4 -4 6 -7.33301 6 -10c-2 -3.33301 -3 -6 -3 -8
c4 0 6.66699 -4.33301 8 -13h10v8c16 61.333 26.667 126.666 32 195.999c4 8.66699 8.33301 31.334 13 68.001c4.66699 14 8 35.667 10 65c12 30.667 19 54 21 70c6.66699 0 11 14 13 42c4 0 10 8.66699 18 26c19.333 17.333 37 26 53 26c38 -13.333 57 -27 57 -41
c9.33301 -4.66699 17.333 -23 24 -55c8 -18.667 14.667 -46.667 20 -84c0 -44 3.66699 -78.667 11 -104c0 -37.333 3.33301 -68.666 10 -93.999c0 -2 -0.666992 -3 -2 -3c14 -120.667 27 -197.334 39 -230.001c0 -16.667 21 -71.334 63 -164.001
c24.667 -45.333 47.334 -77.666 68.001 -96.999c5.33301 -16 21.666 -31.667 48.999 -47c12.667 -14 36.334 -24.333 71.001 -31c22.667 4.66699 40 13.334 52 26.001c32 42 50.333 79.333 55 112c6.66699 9.33301 17 49.333 31 120c4 1.33301 9.33301 19.666 16 54.999v29
c5.33301 16.667 8.66602 40 9.99902 70c10 28 18 77.667 24 149c2.66699 9.33301 6 26 10 50v18c19.333 101.333 29.666 165 30.999 191l16 60v26c17.333 44.667 32.333 98.667 45 162c0 4 -1 7.33301 -3 10l3 16c0 1.33301 -2 8.33301 -6 21v10c0 6 2.66699 12.333 8 19v31
l21 42c6 18.667 29.667 40.334 71 65.001z" />
    <glyph glyph-name="X" unicode="X" horiz-adv-x="1090" 
d="M993 1430l9.99902 -0.00292969c14 0 36 -16 66 -48c0 -9.33301 4 -19.666 12 -30.999c-9.33301 -42 -21 -63 -35 -63c0 -7.33301 -25.333 -42 -76 -104c0 -7.33301 -22 -35.333 -66 -84c-16 -22.667 -30.333 -40.334 -43 -53.001c-16 -26.667 -32 -47 -48 -61
c0 -3.33301 -31.333 -47 -94 -131c0 -3.33301 -24.333 -38 -73 -104c-9.33301 -16 -16.333 -26.333 -21 -31v-15c37.333 -60.667 71.333 -109.667 102 -147c40 -47.333 67.667 -71 83 -71h8c9.33301 0 26.333 13.667 51 41c33.333 -16.667 50 -32.667 50 -48l-2 -5
c4.66699 -18.667 8 -28 10 -28c0 -26 -21 -51.333 -63 -76c-2 0 -3 0.666992 -3 2l-25 -2c-34.667 9.33301 -61 20.333 -79 33c-6 0 -20.333 11 -43 33c-14 8 -43.667 39 -89 93c-28.667 39.333 -43 60.666 -43 63.999c-14 22 -22.333 33 -25 33
c-9.33301 -9.33301 -31.333 -39 -66 -89c-148.667 -189.333 -223 -284.666 -223 -285.999c-9.33301 -9.33301 -26 -32.333 -50 -69c-43.333 -51.333 -80.666 -100.333 -111.999 -147c-21.333 -20 -88.666 -104.333 -201.999 -253c0 -3.33301 -8.66699 -17.666 -26 -42.999
c0 -4 -6.66699 -15 -20 -33c-28 -60 -50.667 -90.333 -68 -91c-50.667 9.33301 -76 30.333 -76 63c-2.66699 0 -5.33398 6 -8.00098 18c16.667 30 39.334 63.667 68.001 101h3v-5h2c8.66699 10 16.334 16 23.001 18l-5 10c8 8.66699 14 13 18 13v5c0 4 -1 7.33301 -3 10
c4 10 7.66699 15 11 15h2v-5h5c1.33301 8 9.66602 18.333 24.999 31l-2 17c5.33301 3.33301 9.66602 5 12.999 5l12 -2l3 5l-3 5c5.33301 10.667 11.333 20 18 28l-5 7v3c0.666992 4 10.667 12.333 30 25c0 4 5.33301 8.33301 16 13l7 10v8c5.33301 5.33301 13 11 23 17v16
c5.33301 0 8.66602 5 9.99902 15c8.66699 0 19.667 14.333 33 43c13.333 12.667 20 22.667 20 30c12 0 18 5 18 15c10.667 15.333 21.667 23 33 23v15c3.33301 0 10 12 20 36c16.667 11.333 25 18 25 20l-2 10c0 4 8.33301 11.667 25 23c0 18 7.66699 29 23 33
c0 10 12.667 29.333 38 58c4.66699 11.333 9.66699 18.333 15 21c0.666992 -3.33301 2.33398 -5 5.00098 -5c8.66699 6.66699 13 15.667 13 27c6 0 12 6 18 18l30 43l31 23v5c0 2 -1 3 -3 3c14 16 25 32.667 33 50c14.667 14.667 24 27.334 28 38.001
c10 5.33301 18.333 17.333 25 36c10 5.33301 16.667 12 20 20c9.33301 0 23 20.333 41 61c6.66699 0 13.334 12.667 20.001 38v5c-6.66699 18 -21 45.667 -43 83c0 6.66699 -6.66699 21 -20 43c-4.66699 14 -15 32.667 -31 56
c-54.667 114.667 -93.334 187.334 -116.001 218.001c-5.33301 0 -13 17.667 -23 53v8c0 12 12 25.333 36 40h27c39.333 -24.667 62.333 -50.667 69 -78c38.667 -72 82.667 -159 132 -261c4 -4 15.667 -26.667 35 -68l5 -3h3c3.33301 0.666992 19.333 21 48 61
c52 80.667 132 190.334 240 329.001l69 99c21.333 26 36.333 55.667 45 89c4.66699 3.33301 15 6.66602 31 9.99902zM-66.001 10.9971l4.99902 -0.000976562c-1.33301 -3.33301 -2 -5.66602 -2 -6.99902h-8v2c0.666992 3.33301 2.33398 5 5.00098 5z" />
    <glyph glyph-name="Y" unicode="Y" horiz-adv-x="631" 
d="M546 1284l46.0039 -18.001c6 -8.66699 16 -21.667 30 -39l-2 -4c1.33301 -10 2 -18 2 -24v-2c-12 -20.667 -28 -57 -48 -109c-3.33301 -3.33301 -17.666 -38 -42.999 -104c-8.66699 -16 -30.334 -66.667 -65.001 -152c-20 -33.333 -35.333 -68 -46 -104
c-6 -4 -16 -26.667 -30 -68c-52.667 -100.667 -80.334 -157.667 -83.001 -171c-52 -95.333 -89 -167.666 -111 -216.999c-6 -3.33301 -24 -34.666 -54 -93.999c-16 -14.667 -29 -34.667 -39 -60c-36 -50.667 -59 -85 -69 -103c-4 -0.666992 -17.333 -20 -40 -58
c-17.333 -18 -31.666 -38.333 -42.999 -61c-13.333 -10 -27 -28.667 -41 -56c-3.33301 0 -19.333 -21 -48 -63c-13.333 -14.667 -34.333 -45.334 -63 -92.001c-8 -8 -16.667 -21.667 -26 -41l-37 -48l-28 -17c-28.667 0 -46.667 7.33301 -54 22v28
c-4.66699 0 -7 1.33301 -7 4c4.66699 8.66699 9.66699 13 15 13c0 1.33301 -0.666992 2 -2 2c1.33301 3.33301 2 5.66602 2 6.99902s-0.666992 5.66602 -2 12.999c12 18 23 28 33 30c-3.33301 4.66699 -5 8.33398 -5 11.001c18.667 26 28 43.333 28 52
c16 14.667 28.333 29.334 37 44.001c8 0 13.333 8.66699 16 26c3.33301 0 9 4.33301 17 13l-2 11c3.33301 0 9.66602 9.33301 18.999 28c7.33301 13.333 19.666 25 36.999 35c13.333 17.333 20 28 20 32c7.33301 33.333 19.666 50 36.999 50
c0 5.33301 4.33301 9.66602 13 12.999c12.667 18.667 19 33.334 19 44.001c44 62 73.667 106.667 89 134c24.667 48.667 48.667 88.667 72 120c0 7.33301 3.66699 12.333 11 15l-2 4c14.667 37.333 34 75.666 58 114.999l35 70c4 0 8.33301 8.66699 13 26
c4.66699 2 12 18 22 48c4.66699 4 14 25.667 28 65c22 37.333 39.333 74.333 52 111c15.333 25.333 31.333 61.333 48 108c3.33301 0 9.66602 14.667 18.999 44c0 2.66699 14 36.667 42 102c11.333 25.333 22 55 32 89c19.333 38.667 33.333 78.334 42 119.001l-5 9
c10.667 30 26 45 46 45zM193.004 1438c10.667 0 31.667 -10.666 63 -31.999c-2 -2.66699 -3 -5 -3 -7c13.333 0 20 -6.33301 20 -19c16.667 -29.333 32.667 -77.333 48 -144c12.667 -22.667 25 -67.334 37 -134.001c2 0 6.33301 -19.667 13 -59c1.33301 0 4 -10.667 8 -32
c2 0 5.66699 -11.667 11 -35c22 -26.667 36.667 -47.667 44 -63c6.66699 -6 10 -12.667 10 -20c-1.33301 -10 -11.333 -20.667 -30 -32l-11 2h-21c-4.66699 0 -15 5 -31 15c-6 0 -19 12.333 -39 37c-10.667 12 -18.667 25.667 -24 41c-16 26.667 -24 52 -24 76
c-8.66699 29.333 -21 80 -37 152l-43 133c0 1.33301 -8.66699 20 -26 56c-7.33301 18 -11 27.333 -11 28c0 24.667 13 37 39 37h7z" />
    <glyph glyph-name="Z" unicode="Z" horiz-adv-x="1124" 
d="M917 1438l74.998 -0.00488281c31.333 -7.33301 52.666 -19 63.999 -35c14 -14.667 21 -31.334 21 -50.001v-16c0 -38 -37.667 -90 -113 -156c-13.333 -16.667 -33 -32.667 -59 -48l-76 -66c-3.33301 0 -12.666 -8.66699 -27.999 -26
c-14.667 -4.66699 -22 -12.667 -22 -24v-2h3c68 8.66699 109 18 123 28l12 -2c4.66699 3.33301 9.33398 5 14.001 5h19v-10h14c8 -12.667 18.333 -19 31 -19v-2c0 -3.33301 -1.66699 -5 -5 -5c0 -1.33301 0.666992 -3.66602 2 -6.99902c0 -12 -6.33301 -24.667 -19 -38
c0 -7.33301 -12.333 -13.666 -37 -18.999c-4.66699 -4 -29.334 -11.667 -74.001 -23c0 -5.33301 -16.667 -11 -50 -17c-10 -10 -37.333 -19.333 -82 -28c-8.66699 -8 -24.667 -14.333 -48 -19c-7.33301 -7.33301 -31 -17 -71 -29c-34 -14 -61.333 -26.333 -82 -37
c-3.33301 1.33301 -6 2 -8 2c0 -9.33301 -7 -15 -21 -17l-109 -101l-66 -62c-4.66699 0 -29 -22 -73 -66c-62 -59.333 -110.333 -108.333 -145 -147c-6.66699 -1.33301 -32.667 -29 -78 -83c-62.667 -68 -94 -106.667 -94 -116h2c70 28 114.333 48.667 133 62l101 47
c4.66699 0 23 10.333 55 31c12 0 21.333 3.33301 28 10c11.333 6.66699 31 14.334 59 23.001c2 7.33301 45.333 24.666 130 51.999c147.333 52 251.666 86.667 312.999 104c43.333 16 86.666 28.667 129.999 38c0 4 9.33301 8.66699 28 14c18.667 10 29.667 15 33 15
c3.33301 -2 5.66602 -3 6.99902 -3c18 10 45.667 18 83 24c0 10 23 18.667 69 26c10 8.66699 39 18 87 28c38.667 12 61.667 22.333 69 31l9 -2l45 21l15 -2c7.33301 10.667 14.333 16 21 16c0.666992 -3.33301 2.33398 -5 5.00098 -5c20 6.66699 42 15.334 66 26.001
c10.667 0 28 7.33301 52 22l9 -3c5.33301 3.33301 9.33301 5 12 5c3.33301 -1.33301 5.66602 -2 6.99902 -2c0 4 5 7 15 9c2.66699 -1.33301 5.66699 -2 9 -2c0 9.33301 20.333 17 61 23c2 2.66699 14.667 7.66699 38 15c2.66699 -2 6 -3 10 -3v-9h-3l-11 2l-15 -2v-5
c2 0 9.33301 -2.33301 22 -7c0 3.33301 1.33301 5 4 5c6.66699 -2 12.334 -3 17.001 -3c0 -33.333 -20.667 -60 -62 -80c-12.667 -8.66699 -37 -20.667 -73 -36c-19.333 -12 -55.666 -26.667 -108.999 -44c-46 -23.333 -83.667 -38.333 -113 -45
c-15.333 -8 -51.666 -21.667 -108.999 -41c0 -2 -2.33301 -4.33301 -7 -7l-12 3c0 -4.66699 -12.667 -10.334 -38 -17.001c0 -2 -19 -9 -57 -21c0 -4.66699 -28.333 -14.334 -85 -29.001c-3.33301 0 -7.33301 -3.66699 -12 -11c-37.333 -10 -80.666 -23.667 -129.999 -41
c-6 0 -10.667 -3 -14 -9l-12 2c-36.667 -10.667 -69 -21.667 -97 -33c-71.333 -26.667 -111.333 -40 -120 -40c-5.33301 0 -19 -6.33301 -41 -19c-4.66699 0 -23.334 -6.33301 -56.001 -19c-107.333 -33.333 -256.666 -102.666 -447.999 -207.999
c-50.667 -24 -77.334 -37.333 -80.001 -40c-40 -22.667 -70 -37 -90 -43c-16.667 -12 -46.667 -20.667 -90 -26h-21c-15.333 0 -32.666 17.333 -51.999 52c-8 18.667 -12 30.667 -12 36v9c4 24.667 23 56.334 57 95.001c22.667 34.667 44.667 63 66 85
c0 8.66699 18 30 54 64h3c2.66699 -2 5.66699 -3 9 -3v7l-4 8c2 0 11.333 10 28 30l35 31c0 14 9.66699 26.667 29 38l5 -2h2c4 0 9.33301 9.33301 16 28c4.66699 0 15 11 31 33h3l4 -2c10 20.667 21 34 33 40l31 33c0 2.66699 11 12 33 28c4.66699 10 12.667 18 24 24
c0 7.33301 6.33301 15.333 19 24c18.667 16 28 25.333 28 28c-5.33301 3.33301 -11.666 5 -18.999 5h-21c-12 0.666992 -31.667 19.667 -59 57c-6.66699 18.667 -10 32.667 -10 42v10c6.66699 18.667 19.334 28 38.001 28c12.667 -6 21.334 -9 26.001 -9h7
c30.667 4.66699 49.667 9.33398 57 14.001c5.33301 -3.33301 9.33301 -5 12 -5c80 28.667 133 45.334 159 50.001c34.667 14 60.667 33 78 57c2.66699 0 24 18 64 54c6.66699 0 30 23 70 69c19.333 8.66699 46.333 32.334 81 71.001c3.33301 0 25.333 17.333 66 52l62 54
c24.667 20 42 36.667 52 50v4h-17c-56 -10.667 -90 -16 -102 -16c-100 -24 -162 -36 -186 -36h-12c-5.33301 -4.66699 -15 -7.66699 -29 -9c-10.667 1.33301 -20 2 -28 2l-10 -2c-2.66699 1.33301 -5.66699 2 -9 2c-8 -2.66699 -12 -5 -12 -7
c-10.667 4.66699 -19.334 7 -26.001 7c-1.33301 0 -2 -0.666992 -2 -2c-22.667 3.33301 -59 12 -109 26c-12.667 13.333 -21.334 24.333 -26.001 33c-24 24 -36 50.667 -36 80c-1.33301 0 -2 5 -2 15c8 15.333 13.667 23 17 23c20 4.66699 30 8 30 10
c48.667 -28.667 83.334 -43 104.001 -43c102 0 171.667 6.33301 209 19h9c16 0 24 1.66699 24 5l5 -3h2c2.66699 0 9 2.66699 19 8c34.667 0 52 3 52 9l5 -2c2 0 23 4.66699 63 14l5 -2c41.333 6 74.666 12 99.999 18z" />
    <glyph glyph-name="bracketleft" unicode="[" horiz-adv-x="572" 
d="M468 1626c69.333 -12 103.999 -45.668 103.999 -101.001c-8 -98.667 -33.333 -148 -76 -148c-86 -18 -150 -44.667 -192 -80c-26.667 -46.667 -40 -85 -40 -115c0 -34 -2.66699 -65.333 -8 -94c0 -4 1.33301 -6 4 -6l-40 -390v-34c-13.333 -48 -20 -108.333 -20 -181
l4 -27c-5.33301 -20.667 -8 -43 -8 -67h4l-16 -155l4 -67c-2.66699 -23.333 -4 -36.666 -4 -39.999c6.66699 -28.667 13.334 -44.334 20.001 -47.001h16c8 0 12 2 12 6l16 -6c66.667 4 105.334 10.667 116.001 20c4.66699 -4.66699 10 -7 16 -7
c34.667 13.333 53.334 20 56.001 20h8c56 0 84 -53.667 84 -161c0 -36 -18.667 -67.333 -56 -94c-45.333 0 -68 -4.66699 -68 -14l-8 7h-16l-104 -27l-8 7c-102 -31.333 -158 -47 -168 -47c-61.333 42.667 -92 110 -92 202c-5.33301 0 -8 17.667 -8 53
c24 76.667 41.333 148.334 52 215.001v21h-4c10.667 176 34.667 438 72 786c-2.66699 13.333 -5.33398 20 -8.00098 20c8 21.333 12 61.666 12 120.999v81c0 10 -1.33301 18.667 -4 26c2.66699 8 4 17 4 27c0 4.66699 -1.33301 11.334 -4 20.001
c17.333 112 50.666 168 99.999 168c102 67.333 178 101 228 101h16c2.66699 0 4 2.33301 4 7z" />
    <glyph glyph-name="backslash" unicode="\" horiz-adv-x="878" 
d="M68 1439c45.333 -16 67.999 -33.0029 67.999 -51.0029c122.667 -143.333 200 -237.666 232 -282.999l80 -136l88 -170c88 -214 160 -365 216 -453c16.667 -30 51.334 -75.333 104.001 -136c13.333 -38 20 -66.333 20 -85v-57c0 -39.333 -20 -62 -60 -68
c-42.667 14 -70.667 38.667 -84 74c-31.333 47.333 -78 136 -140 266c-6 0 -31.333 54.667 -76 164c-76 177.333 -136 300 -180 368c-85.333 140.667 -152 227.667 -200 261c-0.666992 4.66699 -30 33 -88 85c0 8.66699 -13.333 31.334 -40 68.001c0 20 -2.66699 37 -8 51
c0 46.667 16 77 48 91c0 6.66699 6.66699 10.334 20 11.001z" />
    <glyph glyph-name="bracketright" unicode="]" horiz-adv-x="758" 
d="M296 1681l19.9971 0.000976562c184 -18 276 -41 276 -69c24 -48.667 36 -96.334 36 -143.001c-13.333 -36.667 -36 -135 -68 -295c-6 0 -14 -36.667 -24 -110c-18.667 -51.333 -40 -245.333 -64 -582c0 -107.333 -1.33301 -167 -4 -179l8 -144l-4 -13
c2.66699 -118.667 9.33398 -210 20.001 -274c-9.33301 -73.333 -30.666 -110 -63.999 -110l-20 -7c-26 0 -55.333 25 -88 75c-10 9.33301 -67.333 18.666 -172 27.999c-10 -4.66699 -22 -7 -36 -7h-16c-38.667 0 -66.667 54.667 -84 164c-2.66699 0 -4 2.33301 -4 7v7
c19.333 46 36.666 69 51.999 69h52c11.333 0 26 -2.33301 44 -7l8 7l104 -14c37.333 0 56 11.333 56 34c5.33301 32.667 8 58 8 76l-4 41c16 410.667 44 735 84 973c10.667 36.667 21.334 89.334 32.001 158.001v41l-20 7h-28c-15.333 0 -36.666 2.33301 -63.999 7
c-5.33301 -4.66699 -9.33301 -7 -12 -7c-4.66699 4.66699 -11.334 7 -20.001 7c-14 -8.66699 -72.667 -27 -176 -55c-55.333 0 -92.666 48 -111.999 144c-5.33301 64 -9.33301 96 -12 96c18 40.667 39.333 61 64 61l40 -7z" />
    <glyph glyph-name="asciicircum" unicode="^" horiz-adv-x="316" 
d="M162 1591l10.0039 1.99902l4 4c27.333 -3.33301 44.333 -12.666 51 -27.999v-4c4.66699 -10.667 10 -26.334 16 -47.001l2 1v-4l25 -60c4.66699 -10 8.66699 -20.667 12 -32l19 -35c16 -37.333 14 -72.666 -6 -105.999c-10.667 -8.66699 -17.334 -13.667 -20.001 -15
l-2 -1c-12 -5.33301 -26 3.33398 -42 26.001c-4.66699 10.667 -0.333984 26.334 12.999 47.001c3.33301 5.33301 1 16.666 -7 33.999l-11 26c-0.666992 1.33301 -1.33398 1.66602 -2.00098 0.999023v4l-11 27c-0.666992 0.666992 -1.66699 1 -3 1v4l-24 57
c-21.333 -22 -41.333 -65.667 -60 -131c-18.667 -38.667 -34 -77 -46 -115c-12 -13.333 -19.667 -20.666 -23 -21.999c-20.667 -3.33301 -34.334 3 -41.001 19c-1.33301 -0.666992 -3.33301 0.666016 -6 3.99902c-12.667 29.333 -8.66699 48.333 12 57
c1.33301 5.33301 11.333 27 30 65c32 76.667 62 137 90 181c10 18 16.667 31.333 20 40z" />
    <glyph glyph-name="underscore" unicode="_" horiz-adv-x="974" 
d="M31 67h22.9971c66.667 -26.667 144 -40 232 -40c0 -2 17.333 -4 52 -6l5 3c3.33301 -2 7.33301 -3 12 -3h8c2 0 3 1 3 3l6 -3h40c2 0 3 1 3 3l6 -3c2.66699 0 37 -1 103 -3l20 3c6.66699 -4 14.334 -6 23.001 -6h31c8 0 18.667 -0.666992 32 -2l5 2l18 -2
c2 0 3 0.666992 3 2c4.66699 -1.33301 16 -3 34 -5l20 3l34 -3c2 0 3 1 3 3l20 -3h66c13.333 13.333 22 20 26 20c61.333 -6.66699 92 -19 92 -37l17 -23c0 -38 -9.66699 -62 -29 -72l-100 6c-2 0 -3 -1 -3 -3l-175 11c-2 0 -3 -1 -3 -3l-11 3
c-145.333 4 -245.666 6 -300.999 6c-23.333 2 -35.666 3 -36.999 3c-2 0 -3 -1 -3 -3c-97.333 6 -184.333 15.667 -261 29c-18.667 6 -36.667 25 -54 57v6l3 20l-3 5c10 21.333 23.333 32 40 32z" />
    <glyph glyph-name="grave" unicode="`" horiz-adv-x="1024" 
d="M57 1720c88 -15.333 139.667 -32.3311 155 -50.998c40 -41.333 60 -92 60 -152c0 -88.667 -18 -133 -54 -133h-14c-16.667 0 -28 15 -34 45v14c0 20 2.66699 40 8 60l-2 5l2 12c0 65.333 -30 105.666 -90 120.999c-48.667 7.33301 -73 17.666 -73 30.999l-6 17
c12.667 20.667 28.667 31 48 31z" />
    <glyph glyph-name="a" unicode="a" horiz-adv-x="922" 
d="M578 869l9.00098 -0.00292969c24 0 60.333 -9.66699 109 -29c2.66699 0 12.667 7 30 21h13c36.667 0 73 -36.667 109 -110c0 -7.33301 4.33301 -24 13 -50l-4 -22c4.66699 -12 8.66699 -30 12 -54l-4 -22v-37c0 -37.333 -19.667 -93.666 -59 -168.999v-26
c0 -45.333 28 -86 84 -122c11.333 -27.333 21.333 -45.666 30 -54.999c0 -20 -19.667 -38.333 -59 -55c-52 0 -101.333 38 -148 114h-8c-11.333 0 -45.333 -28 -102 -84c-4 0 -36.333 -24 -97 -72c-108.667 -62.667 -188.667 -95 -240 -97h-51
c-68.667 10 -119.334 31 -152.001 63c-42 62.667 -63 113.334 -63 152.001l13 26v50c1.33301 17.333 5.33301 26 12 26l-4 21l51 114c8.66699 24.667 31 57 67 97c34.667 65.333 89.667 132.666 165 201.999c51.333 44.667 110.333 78.334 177 101.001
c12.667 0 45 5.66699 97 17zM131.001 193.997c14.667 -25.333 42.667 -38 84 -38h13c50 0 117.333 24 202 72c32 0 105.333 63.333 220 190v114c0 2.66699 5.66699 47.667 17 135v42c0 6.66699 -10 11 -30 13c-59.333 0 -131 -22.667 -215 -68
c-104 -91.333 -170 -166 -198 -224c-52.667 -78 -83.667 -156.667 -93 -236z" />
    <glyph glyph-name="b" unicode="b" horiz-adv-x="856" 
d="M240 1306c22.667 0 47.998 -34.3311 75.998 -102.998l4 -25c0 -10 -34.667 -164.333 -104 -463v-26h8c104.667 85.333 196.667 132.666 276 141.999l16 -5c14 3.33301 22 5 24 5c66 0 134 -40 204 -120c63.333 -94.667 98 -180.334 104 -257.001v-34
c0 -36.667 -21.333 -96.667 -64 -180c-67.333 -83.333 -132.666 -136.333 -195.999 -159c-95.333 -54 -184.666 -81 -267.999 -81c-61.333 8.66699 -112 25.667 -152 51l-52 56h-40c-26.667 0 -45.334 30 -56.001 90c-10.667 29.333 -16 50.666 -16 63.999v39
c0 2.66699 -1.33301 4 -4 4l4 9c0 84 30.667 252.333 92 505c42.667 172 69.334 287.667 80.001 347c5.33301 0 8 7 8 21v43c0 36.667 18.667 62.334 56 77.001zM167.998 292.002c8 -8 22.666 -17.333 43.999 -28l32 -52h20v-4c-8 -10 -12 -22 -12 -36
c17.333 -8 36 -12 56 -12h64c44.667 0 112.667 26.667 204 80c88 61.333 132 130.666 132 207.999c0 57.333 -21.333 101.333 -64 132c0 18.667 -37.333 33.334 -112 44.001c-53.333 0 -122.666 -32 -207.999 -96c-98 -106 -150 -184.667 -156 -236z" />
    <glyph glyph-name="c" unicode="c" horiz-adv-x="755" 
d="M609 881c27.333 0 54.667 -20.668 82 -62.001c12.667 -18 19 -32.333 19 -43c0 -28 -53 -47.333 -159 -58c-118 -40 -217.667 -107.333 -299 -202c-74.667 -89.333 -112 -183.666 -112 -282.999v-20c0 -29.333 40 -51.333 120 -66h54c2.66699 0 4 1.33301 4 4l8 -4h12
c8 6.66699 23.333 13.334 46 20.001c2 0 10 -1.33301 24 -4c85.333 24 156.333 53.667 213 89c7.33301 0 15 2.66699 23 8l24 -4c0 7.33301 12.667 12.666 38 15.999c14 0 22 -26 24 -78c-50 -56.667 -109.667 -96.667 -179 -120c-104 -49.333 -202.333 -74 -295 -74h-27
c-78.667 20.667 -134.334 48 -167.001 82c-41.333 66 -62 125.333 -62 178v16c0 99.333 44 209 132 329c76.667 77.333 167.334 147.333 272.001 210c85.333 41.333 142 62 170 62h31c2.66699 0 4 1.33301 4 4zM632.001 247.999c2.66699 -5.33301 4 -9.33301 4 -12
c4 0 8 4 12 12v4h-8z" />
    <glyph glyph-name="d" unicode="d" horiz-adv-x="874" 
d="M768 1548c61.333 -16.667 91.9971 -41.999 91.9971 -75.999c4 0 8 -12 12 -36c0 -52.667 -38.667 -295.334 -116 -728.001c-50.667 -316 -76 -496 -76 -540v-8c0 -26 2.66699 -75.333 8 -148c-20.667 -8 -34 -12 -40 -12c-52.667 0 -83.334 52 -92.001 156
c-5.33301 40 -10.666 60 -15.999 60c-115.333 -66.667 -208.666 -100 -279.999 -100c-66 10 -116.667 24.667 -152 44c-44.667 28 -78 84 -100 168c-5.33301 26 -8 51.333 -8 76c5.33301 8.66699 8 16.667 8 24c0 6 -1.33301 11.333 -4 16c26.667 120 49.334 180 68.001 180
l-4 8v8c42.667 72 89.334 140 140.001 204c99.333 96 182 154.667 248 176c70 24 111.333 36 124 36c6.66699 0 36 -8 88 -24c15.333 66.667 34 196 56 388c0 2.66699 -1.33301 4 -4 4l4 16c0 26 -4 44.667 -12 56c0 16.667 18.667 34 56 52zM139.997 360.001
l-0.000976562 -11.999c0 -45.333 37.333 -68 112 -68h20c78 0 175.333 41.333 292 124c10 0 28.667 105.333 56 316c10.667 50 16 78 16 84h-4c6.66699 11.333 13.334 48.666 20.001 111.999v24h-8c-32 -26.667 -65.333 -40 -100 -40c-70.667 -24 -146.667 -76 -228 -156
c-117.333 -128 -176 -256 -176 -384z" />
    <glyph glyph-name="e" unicode="e" horiz-adv-x="924" 
d="M652 913c84.667 0 141.336 -66.665 170.003 -199.998c0 -29.333 1.33301 -47 4 -53c-2.66699 -19.333 -4 -35.666 -4 -48.999v-43c0 -2 1.33301 -3 4 -3l-7 -23c2 -15.333 3 -27.333 3 -36l-3 -33c2.66699 0 9.66699 -11 21 -33c0 -41.333 -20.333 -62 -61 -62
c0 -4.66699 -9.66699 -8 -29 -10c-26.667 8.66699 -47.334 13 -62.001 13c-130.667 -10.667 -262.334 -28.334 -395.001 -53.001c-41.333 -2 -69 -5 -83 -9l-22 3c-38.667 -8.66699 -58 -35 -58 -79c0 -42.667 17 -71 51 -85c46.667 -24 142 -36 286 -36
c5.33301 3.33301 24.666 6.33301 57.999 9c9.33301 -2 19 -3 29 -3c17.333 0 40.333 4.33301 69 13c2.66699 0 6.33398 -1 11.001 -3c104.667 13.333 178.334 25.333 221.001 36c40.667 0 61 -12 61 -36l4 -23c0 -20.667 -49.667 -42.667 -149 -66
c-34 -8.66699 -67.667 -15 -101 -19c0 -2.66699 -1.33301 -4 -4 -4l-21 4c-54.667 -13.333 -140.334 -23.333 -257.001 -30h-37c-102.667 9.33301 -172.667 23.666 -210 42.999c-66.667 32 -106.334 69 -119.001 111c-14.667 30.667 -22 58 -22 82v20
c7.33301 58 20.666 104 39.999 138l7 7l-4 6c22 46 45 84.333 69 115c4.66699 0.666992 18 17 40 49c16 0 25.667 4.66699 29 14c-4.66699 0 -7 2 -7 6c0 13.333 31.333 43 94 89l18 -3l4 6l-4 17c25.333 18 52 34.333 80 49c40.667 27.333 61 42.666 61 45.999
c17.333 20 40.333 36.333 69 49c6 13.333 30.333 25.333 73 36c16.667 14 44.334 25 83.001 33zM250.002 463.002l0.000976562 -2.99902c79.333 2.66699 120.333 7 123 13l7 -3c42.667 8.66699 68 13 76 13l8 -4c12 6 50.667 13.667 116 23l7 -3c56 0 86 5.66699 90 17v26
c10 59.333 15 121.666 15 186.999v20c0 10 -6 18.667 -18 26c-82.667 -15.333 -208.334 -97.333 -377.001 -246c-31.333 -34.667 -47 -56.667 -47 -66z" />
    <glyph glyph-name="f" unicode="f" horiz-adv-x="613" 
d="M457 1352c15.333 -2.66699 26.999 -3.99707 34.999 -3.99707c2 0 4.66699 1.33301 8 4l16 -4h13c4 0 7.66699 1.33301 11 4l6 -4l10 4c93.333 -12 150.666 -31.333 171.999 -58c22 -17.333 33 -43 33 -77c14 -14.667 21 -36.334 21 -65.001h-5
c-5.33301 0 -20.666 7.66699 -45.999 23h-3l3 -19l-5 -4c-59.333 36 -125.666 54 -198.999 54c-140 -6 -226 -65 -258 -177c-5.33301 -18.667 -10 -44.334 -14 -77.001c34 -51.333 51 -124 51 -218v-31l3 -19h3c12.667 4.66699 19.667 7 21 7h27
c61.333 20.667 96.333 31 105 31h11c1.33301 0 2 1.33301 2 4l6 -4h29c10.667 0 16 -7.66699 16 -23l-5 -12v-19l8 -15c-2 -4.66699 -3 -9.66699 -3 -15l6 -4c0 -16.667 -16.333 -28.334 -49 -35.001c-120 -47.333 -180 -78 -180 -92l-13 -257h3c0 -2.66699 -1 -4 -3 -4
c0 -85.333 5.33301 -141.666 16 -168.999c-11.333 -51.333 -32.666 -77 -63.999 -77c-28.667 0 -48.667 43.667 -60 131c-17.333 73.333 -30.666 180.666 -39.999 321.999h-3c-3.33301 -2.66699 -6 -4 -8 -4l-5 4c-4.66699 -4.66699 -26.334 -9.66699 -65.001 -15h-16
c-32 51.333 -48 83.333 -48 96v15c0 26 10.667 46.667 32 62c21.333 -2.66699 36.666 -4 45.999 -4c48 8 72 15.667 72 23c-1.33301 65.333 -4.66602 116.333 -9.99902 153c2 16 4.66699 24 8 24c-5.33301 14 -8 24 -8 30c6.66699 61.333 10 98.666 10 111.999
c-1.33301 4.66699 -2 8.33398 -2 11.001c24 156 43.667 234 59 234c16 20.667 25.667 37.334 29 50.001c51.333 54 91.666 81 120.999 81c0 4.66699 4.66699 8.66699 14 12l16 -4h5c0 7.33301 21.667 13.666 65 18.999z" />
    <glyph glyph-name="g" unicode="g" horiz-adv-x="752" 
d="M640 1020c42 -14 63.0029 -35.001 63.0029 -63.001c6 0 12.667 -35 20 -105c-9.33301 -96.667 -18 -172.667 -26 -228c-28.667 -155.333 -62 -290.333 -100 -405l-97 -240c-22.667 -66 -74.667 -144 -156 -234c-47.333 -44 -98 -78.333 -152 -103
c-22 -14.667 -67.667 -30.667 -137 -48c-35.333 -11.333 -68.333 -18 -99 -20c-32.667 0 -67 11.333 -103 34v6c0 2 1 3 3 3l-3 5c0 21.333 17 32 51 32c80 13.333 148.667 34.333 206 63c66 32.667 116.333 68.667 151 108c62.667 67.333 102.667 122.333 120 165
c58.667 112.667 112.667 247.667 162 405c0 8.66699 10.667 51.667 32 129c16.667 85.333 25 130 25 134c0 2 -1 3 -3 3c13.333 82 20 137 20 165c0 2 -0.666992 5 -2 9l2 17v11c0 11.333 -5.66699 17 -17 17c-46 0 -121 -44.667 -225 -134
c-68.667 -79.333 -104.667 -150.666 -108 -213.999v-17c0 -32 17 -48 51 -48h14c28 0 69 20.667 123 62c1.33301 0 9.66602 4 24.999 12c4 -2 7 -3 9 -3l11 6c9.33301 -3.33301 16 -7.33301 20 -12l-2 -14v-14c1.33301 -4.66699 7.66602 -12.334 18.999 -23.001
c-12 -27.333 -38.333 -54 -79 -80c-40 -32 -80 -48 -120 -48h-20c-56.667 10.667 -97.667 29.667 -123 57c-18.667 25.333 -31 63.333 -37 114v34c7.33301 68.667 33 135.334 77 200.001c38 54.667 87.333 103 148 145c72 64.667 138.667 97 200 97
c11.333 -0.666992 17 -2.66699 17 -6c21.333 17.333 34.666 26 39.999 26z" />
    <glyph glyph-name="h" unicode="h" horiz-adv-x="558" 
d="M180 1424c33.333 0 65.333 -41.335 96 -124.002l-4 -8c0 -82 -18.667 -220.667 -56 -416v-12h24c90.667 -11.333 136 -20.666 136 -27.999c44.667 -15.333 80.667 -46 108 -92c42.667 -62 64 -152.667 64 -272c0 -2.66699 1.33301 -4 4 -4l-24 -160
c-13.333 -44.667 -22.666 -88.667 -27.999 -132h-4l4 -8l-16 -84c2.66699 -14 4 -27.333 4 -40v-4c0 -1.33301 -2.66699 -5.33301 -8 -12l12 -20v-4l-48 -4h-40c-37.333 54.667 -56 102.667 -56 144l60 348c0 94.667 -13.333 154.667 -40 180c-26 16 -58 24 -96 24
c-72 -6 -108 -23.333 -108 -52c-18.667 -121.333 -28 -206.666 -28 -255.999c0 -66 8 -123.333 24 -172c-15.333 -23.333 -43.333 -39.333 -84 -48c-28.667 11.333 -47.334 35.333 -56.001 72c-13.333 52 -20 92 -20 120c0 99.333 12 218 36 356l-16 40
c0 26.667 17.333 58.667 52 96c29.333 170.667 48 308 56 412c-2.66699 10.667 -4 20 -4 28c0 2 1.33301 10 4 24l-8 48c10.667 40 30.667 60 60 60z" />
    <glyph glyph-name="i" unicode="i" horiz-adv-x="279" 
d="M232 1116c69.333 -26 104 -82 104 -168c-28.667 -37.333 -63.334 -56 -104.001 -56h-16c-13.333 16 -32 25.333 -56 28c-10.667 7.33301 -18.667 31.333 -24 72c-5.33301 0 -8 2.66699 -8 8v12c0 2.66699 1.33301 4 4 4l-4 8v4c18.667 58.667 53.334 88 104.001 88z
M136 708h4.00098c29.333 0 54.666 -30.667 75.999 -92c6.66699 0 12 -18.667 16 -56c-26 -166 -55.333 -306 -88 -420c-2.66699 -20.667 -4 -42 -4 -64c0 -6.66699 4 -16 12 -28v-24c-12 -16 -42.667 -24 -92 -24c-16 0 -36 40 -60 120v16c0 16.667 22.667 132.667 68 348
c12 146.667 28 220 48 220z" />
    <glyph glyph-name="j" unicode="j" horiz-adv-x="402" 
d="M214 1149c44 -20.667 65.999 -46.333 65.999 -77c9.33301 -8 14 -15 14 -21c0 -7.33301 1 -27 3 -59c-11.333 -28 -22.666 -42 -33.999 -42c-19.333 -9.33301 -31 -14 -35 -14c-15.333 0 -36.333 31.333 -63 94c0 8 -1.33301 14 -4 18c2.66699 4 4 8.66699 4 14l-7 24v7
c6.66699 32.667 16 49 28 49c6.66699 0 16 2.33301 28 7zM223.999 852.001l21 0.00292969c26.667 -7.33301 45.334 -24.666 56.001 -51.999c34.667 -42.667 52 -95 52 -157c6.66699 -14.667 13.667 -68.334 21 -161.001l-3 -12c2 -24.667 3 -42.334 3 -53.001
c0 -7.33301 -1 -16.666 -3 -27.999c2 -12.667 3 -28 3 -46l-3 -28c0 -2 1 -3 3 -3l-3 -15v-40c-4.66699 -29.333 -13 -115 -25 -257c-4 -6 -14.333 -49 -31 -129l-70 -201c-38 -70 -80 -105 -126 -105c-142.667 32.667 -281 98.667 -415 198c-2 15.333 -27.667 42 -77 80
c0 13.333 -1 23.666 -3 30.999h14c1.33301 -2.66699 14 -9 38 -19v-6h18c20.667 -4.66699 37 -12 49 -22c27.333 -11.333 41 -20.333 41 -27l7 3c150.667 -70 247.334 -105 290.001 -105c39.333 0 69.666 41 90.999 123c5.33301 0 22.666 54.667 51.999 164
c14 84 25.667 183.667 35 299l-4 7c2.66699 3.33301 4 7.33301 4 12v3c0 2 -1.33301 3 -4 3l4 6v34c0 2 -1.33301 3 -4 3c2 8.66699 4.33301 13 7 13l-3 15v56c0 35.333 -2.33301 63 -7 83l3 15c-16 123.333 -32 194.666 -48 213.999c0 17.333 -4.66699 32.666 -14 45.999v6
c0 26.667 10.333 44 31 52z" />
    <glyph glyph-name="k" unicode="k" horiz-adv-x="929" 
d="M853 1247c23.333 0 48.666 -21.334 75.999 -64.001v-8c-8.66699 -42.667 -22.667 -64 -42 -64c-117.333 -111.333 -180.666 -181 -189.999 -209c-8.66699 -2.66699 -36.334 -38 -83.001 -106c-23.333 -22.667 -58.666 -79.667 -105.999 -171
c-49.333 -72 -83.333 -137.667 -102 -197c-25.333 -51.333 -38 -99.333 -38 -144c2 -14.667 5.66699 -22 11 -22c148 68 264.333 102 349 102c78 -15.333 117 -42 117 -80c0 -22 -20 -38.333 -60 -49c-16.667 5.33301 -28.334 8 -35.001 8h-37
c-134 -25.333 -201 -47 -201 -65c-78 -40.667 -126 -61 -144 -61c-36 0 -76.667 21.667 -122 65c-9.33301 -6 -46 -60.333 -110 -163c-14 -12.667 -26.333 -19 -37 -19c-66 20 -99 53 -99 99l34 170c0 12 40.333 182.667 121 512c23.333 110.667 38.666 218 45.999 322
c-10 15.333 -15 28 -15 38c0 42 16.333 69.667 49 83h19c32.667 0 60.334 -29 83.001 -87l-7 -26c0 -6 1.33301 -11.333 4 -16c-28 -191.333 -78.667 -432.666 -152 -723.999l8 -3c32.667 52 62.667 108.667 90 170c9.33301 6 51.333 73 126 201
c87.333 129.333 172 239.333 254 330c50 68 101.667 123.667 155 167c16.667 2 29.334 5.66699 38.001 11z" />
    <glyph glyph-name="l" unicode="l" horiz-adv-x="352" 
d="M140 1360l16.001 -4.00195c5.33301 2.66699 9.33301 4 12 4c37.333 -10.667 56 -29.334 56 -56.001c7.33301 0 14 -17.333 20 -52c-48 -231.333 -82.667 -452.666 -104 -663.999c-2.66699 -18 -6.66699 -63.333 -12 -136v-132c22 -114.667 46 -172 72 -172
c31.333 -34.667 72.666 -52 123.999 -52c16 -22 24 -39.333 24 -52v-4c-10.667 -18.667 -30.667 -32 -60 -40c-54.667 0 -120 34.667 -196 104c-48 66.667 -72 117.334 -72 152.001c-13.333 46.667 -20 88 -20 124v84c-0 76.667 5.33301 138 16 184
c0 2.66699 -1.33301 4 -4 4c21.333 186.667 49.333 381.334 84 584.001v48l-4 24c8 34.667 24 52 48 52z" />
    <glyph glyph-name="m" unicode="m" horiz-adv-x="723" 
d="M619 898c46 -22 69 -38.0049 69 -48.0049c0 -14 1 -21 3 -21l-3 -6v-12c-9.33301 -83.333 -17.333 -130.666 -24 -141.999c0 -15.333 -7 -79.666 -21 -192.999c-4 -30 -6 -55.333 -6 -76v-84c0 -17.333 9 -60.666 27 -129.999c0 -36 -13 -56 -39 -60
c-8.66699 0 -20 -1 -34 -3c-39.333 66.667 -62.333 128 -69 184v51h-3c-3.33301 -0.666992 -14.333 -19.667 -33 -57c-36.667 -66.667 -70 -100 -100 -100c-62 20 -93 56.333 -93 109h-6c-18.667 -31.333 -38 -72.666 -58 -123.999c-5.33301 0 -13.333 -16 -24 -48
c-2 0 -16 -25.333 -42 -76c-38 -44 -63 -66 -75 -66c-58.667 24 -88 49 -88 75c40 200.667 74.333 362.667 103 486c-28 0 -58.333 20.333 -91 61l-6 27c6.66699 26 19.667 39 39 39c4 -2 7 -3 9 -3c34 0 77.333 30 130 90c6.66699 4.66699 12.667 7 18 7h18
c44.667 -7.33301 67 -22.666 67 -45.999l12 -9h3c5.33301 4 15.333 36.333 30 97c19.333 44 36.333 66 51 66c8 2 15 3 21 3c28 -10.667 51.333 -23.667 70 -39v-3c0 -12.667 1 -25.667 3 -39c-20 -108 -37.333 -226.667 -52 -356c8.66699 4.66699 21 21.667 37 51
c0 4.66699 -1 8.66699 -3 12c20 36 46 110.333 78 223c21.333 90 36.333 139.333 45 148c20 8 32.333 12 37 12zM178 547.995v-9h3c10.667 11.333 23.667 42.666 39 93.999c7.33301 12 19.333 58 36 138c-24 0.666992 -48 -63.666 -72 -192.999
c-3.33301 0 -5.33301 -10 -6 -30z" />
    <glyph glyph-name="n" unicode="n" horiz-adv-x="668" 
d="M344 828c82.667 -22 124 -46 124 -72c88.667 -129.333 150 -305.333 184 -528c2.66699 -49.333 4 -90.666 4 -123.999v-16c0 -48 -17.333 -77.333 -52 -88c-48 0 -72 40 -72 120c0 204 -49.333 393.333 -148 568l-8 4c-34.667 0 -74.667 -62.667 -120 -188
c-80 -252 -120 -381.333 -120 -388l-44 -16c-61.333 23.333 -92 56.666 -92 99.999c18 18 38 76.667 60 176c13.333 50.667 22.666 100 27.999 148l-4 16c8 28.667 12 46 12 52c-10.667 26 -16 43.333 -16 52v4c13.333 58.667 26.666 88 39.999 88
c8.66699 0 15.334 1.33301 20.001 4c22.667 -10.667 37.334 -16 44.001 -16h12c4 0 25.333 22.667 64 68c29.333 24 57.333 36 84 36z" />
    <glyph glyph-name="o" unicode="o" horiz-adv-x="819" 
d="M380 760c75.333 0 156.668 -22.667 244.001 -68c115.333 -90 179.333 -174 192 -252v-24c-15.333 -82.667 -83.333 -174.667 -204 -276c-128 -93.333 -240 -140 -336 -140h-12c-86.667 0 -161.334 44 -224.001 132c-26.667 56 -40 92 -40 108v60
c0 40 14.667 105.333 44 196c24.667 49.333 66 104 124 164c0 66.667 60 100 180 100h32zM472.002 628c-19.333 -37.333 -44.6709 -55.998 -76.0039 -55.998c-17.333 0 -34.666 10.667 -51.999 32c-18 0 -43.333 -16 -76 -48c-57.333 -47.333 -94.666 -106 -111.999 -176
c-13.333 -34.667 -20 -61.334 -20 -80.001v-72c6.66699 -64 33.334 -96 80.001 -96h56c60.667 6 118 27.333 172 64c42.667 12 109.334 66.667 200.001 164c24 34.667 36 62.667 36 84c0 63.333 -45.333 120.666 -136 171.999c-45.333 8 -69.333 12 -72 12z" />
    <glyph glyph-name="p" unicode="p" 
d="M-17 817c306.667 -20 459.997 -37.333 459.997 -52c40 0 125.333 -26.667 256 -80c80 -54.667 120 -108 120 -160c0 -59.333 -26.667 -114 -80 -164c-65.333 -60 -133.333 -106.667 -204 -140c-120 -56 -208 -84 -264 -84c-13.333 -4.66699 -20 -20.667 -20 -48
c0 -2.66699 1.33301 -4 4 -4c-8 -15.333 -29.333 -143.333 -64 -384c2.66699 -42.667 5.33398 -70.667 8.00098 -84c-7.33301 -37.333 -26 -56 -56 -56c-58.667 22 -88 63.333 -88 124v36c10.667 97.333 33.334 224 68.001 380c10.667 90 18.667 191.333 24 304l-8 96
c2.66699 5.33301 4 9.33301 4 12c0 8 -6.66699 44 -20 108v4c0 21.333 16 32 48 32c41.333 -16.667 69.333 -40.667 84 -72c13.333 -30 20 -62 20 -96v-128c0 -17.333 -1.33301 -44 -4 -80l20 -4c106 32 191.333 73.333 256 124c22 0 58 34.667 108 104
c13.333 24 20 42.667 20 56c-25.333 26 -106.666 54 -243.999 84l-232 32c-6 0 -11.333 -1.33301 -16 -4c-70 2.66699 -128.667 4 -176 4h-52c-53.333 15.333 -80 38 -80 68c-3.33301 0 -6 8 -8 24c0 27.333 38.667 43.333 116 48z" />
    <glyph glyph-name="q" unicode="q" horiz-adv-x="674" 
d="M400 751c29.333 0 66.0039 -10.332 110.004 -30.999c32.667 -21.333 49 -43.333 49 -66c-8 -34.667 -25.333 -52 -52 -52h-3c-54 23.333 -84 35 -90 35h-7l-118 -76c-72.667 -84 -117.667 -152 -135 -204c-4.66699 0 -11.334 -21 -20.001 -63v-48l24 -3h10
c36.667 0 79.334 20.667 128.001 62c53.333 35.333 85.666 67.666 96.999 96.999c33.333 27.333 57.666 65.333 72.999 114l27 21h17c60 -22.667 90 -50.334 90 -83.001c-11.333 -32 -30.666 -113 -57.999 -243l-135 -487v-21h3c300 32 473 48 519 48v-10h3l11 7l10 -7
c7.33301 4.66699 13 7 17 7c0 -4 15 -9.66699 45 -17l4 -7c0 -50.667 -44 -76 -132 -76c-70 -7.33301 -150.667 -19 -242 -35l-259 -34l-3 -35v-62c0 -5.33301 1 -10 3 -14c0 -34.667 -15 -52 -45 -52h-7c-39.333 17.333 -59 44 -59 80c-4 0 -7.33301 17 -10 51l3 21v14
c-27.333 6.66699 -49 10 -65 10h-38c-26.667 15.333 -45.334 37.333 -56.001 66c0 2.66699 1.33301 6 4 10c-2.66699 9.33301 -4 17.666 -4 24.999c0 18 21 28.333 63 31c39.333 -16 71.333 -24 96 -24h4c12.667 10 27.667 66.333 45 169
c22.667 70.667 46.667 158.334 72 263.001c8.66699 14.667 15.667 42.334 21 83.001v7h-7c-20.667 -19.333 -49.334 -40 -86.001 -62c0 -15.333 -41.667 -30.333 -125 -45c-71.333 0 -127.666 36.667 -168.999 110c-2.66699 17.333 -7.33398 36 -14.001 56
c7.33301 106 68.333 222.333 183 349c89.333 76 158.666 116.333 207.999 121z" />
    <glyph glyph-name="r" unicode="r" horiz-adv-x="448" 
d="M332 748c66.667 -26 100.001 -52.668 100.001 -80.001c2.66699 -18.667 4 -29.334 4 -32.001c0 -42.667 -14.667 -64 -44 -64h-4c-3.33301 0 -16.666 1.33301 -39.999 4c-58.667 -78 -88 -159.333 -88 -244c-24 -105.333 -36 -189.333 -36 -252
c2.66699 -5.33301 4 -9.33301 4 -12c0 -45.333 -21.333 -68 -64 -68h-4c-25.333 0 -56 32 -92 96v56c-26.667 188.667 -49.334 316.667 -68.001 384c0 12.667 17.333 23.334 52 32.001c36 -8 68 -28 96 -60c15.333 44.667 32.666 80.667 51.999 108
c0 32.667 34.667 75.334 104 128.001z" />
    <glyph glyph-name="s" unicode="s" horiz-adv-x="737" 
d="M608 776l23.9971 -0.00195312c36.667 0 67.334 -18.667 92.001 -56c10.667 -18.667 16 -32 16 -40c0 -19.333 -16 -35.333 -48 -48l-60 12c-66 -9.33301 -158 -52 -276 -128l-12 -16v-12c221.333 -152.667 332 -264.667 332 -336c-12 -80 -52 -120 -120 -120
c-46.667 -21.333 -113.334 -32 -200.001 -32l-68 8l-20 -4c-61.333 8 -129.333 30.667 -204 68c-42.667 47.333 -64 75.333 -64 84c6.66699 24 20 41.333 40 52c16.667 0 43.334 -13.333 80.001 -40c32 -18.667 82.667 -28 152 -28h28c94.667 0 165.334 17.333 212.001 52
c0 20.667 -58.667 70 -176 148c-98 68 -155.333 129.333 -172 184h4l-8 20c0 32.667 30.667 59.334 92 80.001c19.333 8.66699 47.333 27.334 84 56.001c6.66699 0 53.334 21.333 140.001 64c62 21.333 106 32 132 32z" />
    <glyph glyph-name="t" unicode="t" horiz-adv-x="796" 
d="M498 1280c64 -13.333 95.998 -46.6641 95.998 -99.9971c0 -30.667 -40 -142.667 -120 -336v-12h12c8.66699 0 64.667 21.333 168 64c7.33301 0 51.333 20 132 60c12.667 8 35.334 13.333 68.001 16c0 -5.33301 10.667 -21.333 32 -48
c0 -50.667 -108 -125.334 -324 -224.001c-112 -32.667 -168 -58 -168 -76c-82.667 -264.667 -124 -414 -124 -448v-4c0.666992 -5.33301 3.33398 -8 8.00098 -8h8c66 34 143.333 99.333 232 196c32 40 56 60 72 60c0 -18 5.33301 -35.333 16 -52l-8 -16l4 -20
c-22 -54 -55.333 -106 -100 -156c-99.333 -112 -175.333 -168 -228 -168c0 -5.33301 -9.33301 -8 -28 -8h-4c-37.333 17.333 -70.666 46.666 -99.999 87.999l-16 72c0 66.667 33.333 196 100 388l12 56h-16c-39.333 -5.33301 -99.333 -9.33301 -180 -12
c-68.667 0 -115.334 25.333 -140.001 76c-8 13.333 -12 24 -12 32v36c10 21.333 30 32 60 32c21.333 -10.667 68 -16 140 -16l28 4c4.66699 -2.66699 10 -4 16 -4c117.333 19.333 176 32.666 176 39.999c66.667 178 100 268.667 100 272c21.333 63.333 32 103.333 32 120
c0 11.333 -1.33301 26 -4 44c0 28.667 20 46 60 52z" />
    <glyph glyph-name="u" unicode="u" horiz-adv-x="599" 
d="M372 700c44 -6.66699 84.001 -30.6699 120.001 -72.0029c61.333 -77.333 92 -149.333 92 -216v-12c0 -60 -18.667 -112 -56 -156c-72.667 -119.333 -138 -188.666 -196 -207.999c-38.667 -24 -76 -36 -112 -36c-80 0 -145.333 57.333 -196 172
c-16 64 -24 130.667 -24 200c0 46 5.33301 104.667 16 176c-2.66699 8 -5.33398 12 -8.00098 12c6 61.333 20.667 92 44 92c14 2.66699 30 4 48 4c45.333 -43.333 68 -80.666 68 -111.999c-16 -34.667 -28 -102.667 -36 -204v-52c5.33301 -85.333 21.333 -128 48 -128h8
c92.667 0 176.667 76 252 228l8 28v12c0 72.667 -26.667 115.334 -80 128.001c0 2.66699 -13.333 22.667 -40 60l-4 28c14.667 37.333 30.667 56 48 56z" />
    <glyph glyph-name="v" unicode="v" horiz-adv-x="627" 
d="M524 832l8 0.00195312c24 0 53.333 -29.333 88 -88c2.66699 -4 4 -12 4 -24l-60 -76c-40 -84.667 -60 -180.667 -60 -288c-13.333 -103.333 -33.333 -210 -60 -320c-26 -24 -55.333 -36 -88 -36h-12c-47.333 18.667 -90 66.667 -128 144
c-48 101.333 -98.667 225.333 -152 372c-42.667 71.333 -64 115.333 -64 132v12c2.66699 37.333 8 56 16 56h16c51.333 0 98 -52 140 -156c10 -4 34 -57.333 72 -160c30.667 -92.667 56 -151.334 76 -176.001h8c28 101.333 52 228 72 380c17.333 89.333 48 156 92 200
c0 15.333 10.667 24.666 32 27.999z" />
    <glyph glyph-name="w" unicode="w" horiz-adv-x="746" 
d="M657 844c35.333 -10.667 52.999 -23.999 52.999 -39.999c16.667 -28.667 25 -55.667 25 -81v-28l-3 -38h3c0 -5.33301 -8.33301 -23 -25 -53c-6 -118 -19.333 -218.667 -40 -302c-15.333 -54.667 -45.666 -124.334 -90.999 -209.001c-29.333 -62 -74 -93 -134 -93
s-103.333 75.667 -130 227c0 20.667 -4.33301 34.334 -13 41.001c-7.33301 -62.667 -29 -94 -65 -94c-47.333 0 -86 48 -116 144c-28.667 62.667 -59.667 159 -93 289c-18.667 26 -28 53 -28 81c8.66699 25.333 19 38 31 38c54.667 0 94 -67.667 118 -203
c21.333 -68 40.333 -116.667 57 -146c4.66699 0 10.667 39.333 18 118c0 55.333 10.333 93.666 31 114.999h25c42 -25.333 74.333 -75 97 -149c16.667 -60.667 28 -115.667 34 -165l-3 -6c11.333 -102 20.666 -153 27.999 -153h22c19.333 4 49.333 54 90 150
c22.667 50.667 40.334 131.334 53.001 242.001c2 15.333 3 23.666 3 24.999l-3 13l16 159l-3 6c0 2 1 5 3 9c-2 18 -3 32.667 -3 44v3c0 37.333 14.333 56 43 56z" />
    <glyph glyph-name="x" unicode="x" horiz-adv-x="883" 
d="M808 627c38 0 63.335 -31.999 76.002 -95.999v-20c0 -26.667 -24 -46.667 -72 -60c-76.667 -46.667 -170 -116 -280 -208v-12c44 -29.333 90.667 -44 140 -44l8 4l24 -4c6 0 27.333 6.66699 64 20h20c29.333 -6.66699 44 -32 44 -76v-28c-26 -40 -63.333 -60 -112 -60
h-72c-35.333 0 -94 20 -176 60c0 3.33301 -16 15.333 -48 36h-12c-74.667 -66.667 -198.667 -166.667 -372 -300c-54.667 -50.667 -117.334 -84 -188.001 -100c-22.667 0 -37.334 17.333 -44.001 52c8 13.333 12 22.666 12 27.999c-5.33301 0 -8 2.66699 -8 8
c146 111.333 255.333 202 328 272c104 80 156 130.667 156 152c-23.333 36 -43.333 62.667 -60 80c-4.66699 20.667 -26 54 -64 100c0 4.66699 -8 28.667 -24 72c8 42.667 25.333 64 52 64c31.333 -12 66 -48 104 -108c54.667 -82.667 88 -124 100 -124
c36 22.667 109.333 82.667 220 180c34 28 82 61.333 144 100c18.667 8 32 12 40 12z" />
    <glyph glyph-name="y" unicode="y" horiz-adv-x="631" 
d="M540 584c46 -14.667 69.001 -36.665 69.001 -65.998c6 0 12 -9.66699 18 -29c-28 -84.667 -85.667 -202.334 -173 -353.001c-23.333 -51.333 -56 -106 -98 -164c-36.667 -72 -102 -156.5 -196 -253.5s-154 -146.833 -180 -149.5s-48.667 11.333 -68 42
s-5.83301 60.167 40.5 88.5s81.166 60.833 104.499 97.5c73.333 70 150.333 170 231 300l72 138v10h-4c-61.333 -24 -104.666 -36 -129.999 -36c-72.667 0 -117 45 -133 135l-7 105c14 81.333 36.667 122 68 122c4.66699 2 9.66699 3 15 3c21.333 0 43 -23 65 -69v-3
c-14.667 -44 -23.334 -93.333 -26.001 -148l11 -7c38 0 91 26.333 159 79c20.667 11.333 37.334 25.666 50.001 42.999c34.667 22 63.667 56 87 102c13.333 8.66699 21.666 13 24.999 13z" />
    <glyph glyph-name="z" unicode="z" horiz-adv-x="604" 
d="M76 696c11.333 -5.33301 34.002 -9.33105 68.002 -11.998c1.33301 0 6.66602 1.33301 15.999 4c14 -2.66699 22 -4 24 -4c51.333 8 108.666 12 171.999 12h32c106.667 -16 160 -53.333 160 -112c12 0 20 -22.667 24 -68c-16 -60.667 -61.333 -127.334 -136 -200.001
l-20 -28v-8h4c11.333 0 34 5.33301 68 16c5.33301 -2.66699 9.33301 -4 12 -4c18 2.66699 32.667 4 44 4c21.333 -18 32 -31.333 32 -40c0 -6 8 -27.333 24 -64c0 -28 -70.667 -57.333 -212 -88l-132 -52c-42 -22.667 -102 -40 -180 -52c-48 15.333 -72 40.666 -72 75.999
c-2.66699 0 -4 4 -4 12v24c0 29.333 32 62.666 96 99.999l120 108c93.333 88 154.666 157.333 183.999 208v4c0 5.33301 -2.66699 8 -8 8h-4c-36 0 -125.333 -9.33301 -268 -28h-8c-49.333 0 -78.666 38.667 -87.999 116c8 29.333 21.333 49.333 40 60
c8 2.66699 12 5.33398 12 8.00098z" />
    <glyph glyph-name="braceleft" unicode="{" horiz-adv-x="659" 
d="M408 1626c61.333 0 92.002 -28.333 92.002 -85c2.66699 -6 4 -12.667 4 -20v-30c0 -43.333 -36 -65 -108 -65c-79.333 -25.333 -154 -77.333 -224 -156c0 -14.667 20 -33 60 -55c56 -42 113.333 -93.667 172 -155c34.667 -59.333 52 -96 52 -110
c0 -10 2.66699 -21.667 8 -35l-4 -25l4 -45c0 -28 -24 -68 -72 -120c26 -60 43.333 -95.333 52 -106v-40c0 -10.667 1.33301 -19 4 -25c-10.667 -108 -32 -191.333 -64 -250c-50.667 -127.333 -76 -226 -76 -296c13.333 -33.333 33.333 -50 60 -50h32
c6 0 11.333 1.66699 16 5c5.33301 -3.33301 9.33301 -5 12 -5c13.333 0 74.666 21.667 183.999 65c26.667 -12 40 -28.667 40 -50c0 -29.333 -13.333 -64.333 -40 -105c-76.667 -56.667 -151.334 -85 -224.001 -85c-67.333 0 -127.333 41.667 -180 125
c-14 30.667 -26 80.667 -36 150v5c0 67.333 40 217.666 120 450.999v15c0 40 -10.667 60 -32 60c-67.333 0 -116.666 35 -147.999 105c0 4 -1.33301 9.33301 -4 16c5.33301 83.333 29.333 125 72 125c39.333 0 76.666 26.667 111.999 80v5c0 40 -10.667 60 -32 60
c0 16.667 -33.333 43.334 -100 80.001c-106.667 75.333 -160 162.333 -160 261c0 34.667 54.667 98 164 190c120.667 76.667 202 115 244 115z" />
    <glyph glyph-name="bar" unicode="|" horiz-adv-x="279" 
d="M65 1434c72 0 121.333 -28.998 148 -86.998c16.667 -20.667 29.334 -89.667 38.001 -207l-6 -22l6 -38l-6 -77l6 -27l-11 -125l5 -39c-3.33301 -50.667 -5 -99.667 -5 -147v-11c0 -20.667 1.66699 -33.334 5 -38.001c-3.33301 -19.333 -5 -35.666 -5 -48.999v-114
c0 -21.333 1.66699 -50.666 5 -87.999c-3.33301 -6 -5 -13 -5 -21l5 -50l-5 -27c7.33301 -74 16.333 -132 27 -174v-22c-10.667 -44 -34.334 -66 -71.001 -66l-11 -5c-56 0 -90.333 20 -103 60c-22 13.333 -33 22.333 -33 27v6c0 3.33301 2 5 6 5
c-14.667 22 -22 40.333 -22 55c7.33301 13.333 11 27.666 11 42.999v38c0 4 -2 6 -6 6l6 11v82c0 12 -2 21 -6 27l6 33v130c0 4 -2 6 -6 6l6 11v5c0 19.333 -2 35.666 -6 48.999c4 19.333 6 37.666 6 54.999v16c0 4 -2 6 -6 6c4 6.66699 6 12 6 16
c0 46.667 1.66699 117.667 5 213c0 2.66699 -1.66699 17 -5 43c3.33301 18 5 41.667 5 71l-5 11c3.33301 6.66699 5 14 5 22c0 12 -1.66699 21 -5 27l5 33v22c0 12 -1.66699 21 -5 27l5 33c0 21.333 -16.333 70.333 -49 147l5 11l-5 27c19.333 40 41 60 65 60z" />
    <glyph glyph-name="braceright" unicode="}" horiz-adv-x="1014" 
d="M60 1599l295.998 -66.001c85.333 -39.333 128 -80.666 128 -123.999c2.66699 0 6.66699 -10 12 -30c0 -91.333 -46.667 -188.666 -140 -291.999l-88 -110c0 -20.667 18.667 -31 56 -31c26.667 -2.66699 60 -4 100 -4h8c9.33301 8.66699 25.333 14.667 48 18
c56 -20.667 84 -41.334 84 -62.001c18.667 -16.667 28 -33 28 -49c-15.333 -30 -24.666 -52 -27.999 -66c-19.333 -26 -47.333 -39 -84 -39l-80 -36l-8 -13c0 -13.333 44 -34 132 -62c87.333 -38 142 -82 164 -132l8 -35c0 -54 -29.333 -117.333 -88 -190
c-15.333 -30.667 -63.333 -98.334 -144 -203.001c-43.333 -66.667 -75.333 -124 -96 -172c-18.667 -4 -28 -8.33301 -28 -13c-34 0 -62 25 -84 75c18.667 60.667 61.334 140 128.001 238c54.667 76 100 142.333 136 199c16 32.667 24 51.667 24 57
c0 16.667 -40 34.334 -120 53.001c-98 38.667 -154 69.334 -168 92.001c-42.667 25.333 -64 65 -64 119c0 24 8 44.667 24 62v9c-10 14 -30 30.333 -60 49c-37.333 34 -56 78 -56 132c0 37.333 57.333 122.666 172 255.999l76 127v9c0 6 -36 18 -108 36
c-122.667 12.667 -184 28.667 -184 48c-23.333 0 -42 28 -56 84c4 44 24 66 60 66z" />
    <glyph glyph-name="asciitilde" unicode="~" horiz-adv-x="723" 
d="M271 828h10c47.333 -8.66699 71 -32 71 -70c2 -3.33301 3 -10 3 -20c0 -14 -1 -31 -3 -51c0 -82.667 15.333 -124 46 -124l14 -3c56.667 0 127 28 211 84c42 20 66.333 30 73 30h4c3.33301 0 6.66602 -3.33301 9.99902 -10v-30c0 -32 -37 -74.333 -111 -127
c-70 -36 -126.667 -54 -170 -54c-61.333 0 -112.666 29 -153.999 87c-18 30.667 -27 82 -27 154c-2.66699 0 -4 2.33301 -4 7h-10c-8.66699 0 -57.667 -43.667 -147 -131c-15.333 -6.66699 -26.333 -10 -33 -10c-36 10 -54 25.667 -54 47c-0 22.667 23.333 52.667 70 90
c49.333 54.667 102 94 158 118z" />
    <glyph glyph-name="exclamdown" unicode="&#xa1;" horiz-adv-x="302" 
d="M190 1455l5.00098 -3h16c38 0 66.667 -26.333 86 -79v-15c0 -43.333 -53.333 -86.333 -160 -129c-2 0 -4.66699 0.666992 -8 2c-20.667 -1.33301 -33.334 -2 -38.001 -2c-25.333 0 -49 21 -71 63l-20 74c0 14 13.667 26.667 41 38c48 27.333 90.333 43.333 127 48h20
c1.33301 0 2 1 2 3zM170.001 1348v-5h5c13.333 9.33301 20 15.333 20 18v5h-2c-15.333 0 -23 -6 -23 -18zM129.001 1102c14.667 -0.666992 31 -13.3379 49 -38.0049c6.66699 -10.667 10 -21 10 -31l-3 -25h3l-3 -5v-16c0 -9.33301 -0.666992 -22.666 -2 -39.999l2 -5
c-1.33301 -3.33301 -2 -6.66602 -2 -9.99902c0 -2 0.666992 -4.66699 2 -8l-2 -13c0 -5.33301 0.666992 -9.33301 2 -12c0 -110.667 -17.667 -287.667 -53 -531c-8.66699 -51.333 -13 -124 -13 -218c0 -39.333 10.333 -59 31 -59c13.333 -20.667 20 -34 20 -40v-5
c0 -15.333 -13.667 -30.666 -41 -45.999c-23.333 6 -40 18 -50 36c-27.333 44.667 -41 116.334 -41 215.001c10 127.333 22.667 239 38 335l-2 5c18.667 104.667 28 212.334 28 323.001v20c0 24 -3.66699 69 -11 135c12 22 24.667 33 38 33z" />
    <glyph glyph-name="cent" unicode="&#xa2;" horiz-adv-x="604" 
d="M288 1019c46 0 76.3359 -23.334 91.0029 -70.001c4.66699 -52 9.66699 -78 15 -78c4 0 18.667 1.66699 44 5c15.333 -4.66699 26.666 -7 33.999 -7v2c52 -21.333 78 -46.333 78 -75c0 -41.333 -17.333 -62 -52 -62c-26 8.66699 -39 19 -39 31v21
c0 2 -2.66699 4.33301 -8 7h-2c-38 -14.667 -57 -30 -57 -46l2 -26v-109c0 -2 1 -3 3 -3l-3 -5v-5c0 -52 -2.66699 -101.333 -8 -148l3 -5c-3.33301 -18 -6 -38.667 -8 -62c2 -9.33301 3 -14.666 3 -15.999c-2 -11.333 -3 -22.666 -3 -33.999l5 -2h18
c58 22.667 91 37.334 99 44.001l34 31h2c24.667 -3.33301 37 -11 37 -23c6.66699 -10.667 10 -20.334 10 -29.001v-28c-34.667 -40.667 -102 -75.334 -202 -104.001c-10.667 0 -16 -36.333 -16 -109c2 -2.66699 3 -6 3 -10l-3 -13c1.33301 -22.667 3 -34 5 -34
c-9.33301 -38 -20.333 -57 -33 -57c-24.667 -0 -40.334 17.333 -47.001 52c-5.33301 20 -8.66602 57 -9.99902 111c1.33301 3.33301 2 7 2 11c-2.66699 20.667 -7 31 -13 31c-6.66699 0 -22 -1 -46 -3c-36.667 0 -80 11.333 -130 34c-64 43.333 -96 88.333 -96 135v10
c2 32 19.333 75.333 52 130c33.333 58.667 61.666 100 84.999 124c28 41.333 72.333 91.666 133 150.999c17.333 6.66699 26 21.334 26 44.001v15c-6.66699 42.667 -11 65.334 -13 68.001l2 5v10c-8.66699 9.33301 -16.334 27.666 -23.001 54.999c0 1.33301 0.666992 2 2 2
l-2 13v5c2 6.66699 10.667 12 26 16zM93.0029 344.999c20.667 -26 43.332 -38.999 67.999 -38.999c0 -5.33301 13 -8 39 -8c56.667 0 85 4.33301 85 13l16 249l-3 13c2 18 3 32 3 42c0 1.33301 -1 3.66602 -3 6.99902l3 16v21l-3 13h-8
c-75.333 -80 -130.666 -153.667 -165.999 -221c-20.667 -40 -31 -75.333 -31 -106z" />
    <glyph glyph-name="sterling" unicode="&#xa3;" horiz-adv-x="1039" 
d="M600 1432l13.9932 -0.00195312c38 0 65.667 -26.333 83 -79v-14c-8 -14 -18 -21 -30 -21h-7c-8 6 -18.667 11.333 -32 16c-80 -2.66699 -167.333 -35 -262 -97c-65.333 -45.333 -138 -110.333 -218 -195c-54 -68.667 -81 -118.667 -81 -150c0 -2 0.666992 -4.33301 2 -7
c-1.33301 -8.66699 -2 -15 -2 -19c0 -41.333 22.333 -92 67 -152c32 -38.667 73 -76.667 123 -114c4 0 28 -20 72 -60h2c74.667 14 188.334 28.667 341.001 44v2l4 -2h14c22.667 7.33301 35 11 37 11c16 0 30 -9 42 -27c8 -14 12 -25 12 -33v-14
c0 -9.33301 -19.333 -18.666 -58 -27.999c-6 -6 -15.333 -9 -28 -9l-16 2c-22 -4 -90 -12.333 -204 -25l-86 -16c0 -6 17.667 -51.667 53 -137c4 0 11 -24 21 -72l12 -14l-2 -4v-10l4 -6v-14c-6 -16 -9 -24.667 -9 -26v-4c0.666992 -3.33301 2.33398 -5 5.00098 -5h23
c66 7.33301 133 12 201 14l10 -3c0.666992 0 5 1 13 3c79.333 0 152 -10 218 -30c22 -8 48.333 -23.667 79 -47c20.667 0 35.334 -9 44.001 -27c0 -38.667 -10.667 -58 -32 -58c0 -3.33301 -5.66699 -5 -17 -5h-2c-3.33301 0 -32.666 17 -87.999 51
c-28.667 10.667 -75.667 19 -141 25c-23.333 -1.33301 -39.666 -2 -48.999 -2c-5.33301 0 -12.333 0.666992 -21 2c-79.333 -0.666992 -156.333 -9 -231 -25c-23.333 -8 -48.333 -19.667 -75 -35h-23c-24.667 24 -37 42.667 -37 56v37c0 13.333 4.66699 30.333 14 51l7 32
c0 3.33301 -0.666992 6.66602 -2 9.99902c4.66699 8 9.33398 29.333 14.001 64c-33.333 88.667 -58.333 143 -75 163h-2c-30 -6.66699 -81.667 -13 -155 -19h-12c-47.333 6.66699 -71 18.334 -71 35.001c0 23.333 -1.66699 35 -5 35c0 32 14 48 42 48
c16 -9.33301 26 -14 30 -14c10 0 38.333 2.33301 85 7v10c-54.667 38.667 -107 92.667 -157 162c-38.667 74.667 -58 139.334 -58 194.001v7c0 62 14 107.667 42 137c18.667 36.667 58.667 86 120 148l118 102c98.667 73.333 185.334 118 260.001 134c0 4 7 8 21 12l14 -2
c0 4.66699 8.33301 7 25 7z" />
    <glyph glyph-name="currency" unicode="&#xa4;" horiz-adv-x="572" 
d="M508 976c4.66699 0 17.6699 -4.66504 39.0029 -13.998c8 -15.333 12 -31.333 12 -48c0 -4.66699 -22.333 -24.667 -67 -60c-62.667 -59.333 -97.334 -98 -104.001 -116v-2c10.667 -29.333 20.667 -63.333 30 -102l4 -64c0 -26.667 -10 -58.334 -30 -95.001
c0 -3.33301 17 -33.333 51 -90c22 -55.333 48.333 -83 79 -83c7.33301 -8.66699 11 -16.334 11 -23.001v-12c-2.66699 -13.333 -15 -20 -37 -20c-34.667 6.66699 -60 19 -76 37l-39 55c-10.667 33.333 -23.667 58 -39 74c-42 -30.667 -77.667 -46 -107 -46h-9
c-1.33301 0 -2 -1 -2 -3c-2.66699 2 -15 3.66699 -37 5c-2 0 -16.667 -16.333 -44 -49l-78 -76c-2 0 -4.33301 -0.666992 -7 -2c-32.667 4.66699 -49 13 -49 25c-6 6.66699 -9 13 -9 19v2c0 8 14.667 27.333 44 58c32 32.667 48 55 48 67
c0 5.33301 -8.33301 16.666 -25 33.999c-14 38.667 -21 64.334 -21 77.001v32c0 68 26.333 136.333 79 205c-62.667 44 -103.667 91 -123 141c0 10.667 -0.666992 16 -2 16c4.66699 15.333 17.667 23 39 23c26.667 -11.333 42 -24.333 46 -39
c27.333 -47.333 48.333 -71 63 -71c19.333 8.66699 37.666 13 54.999 13h16c3.33301 0 6.66602 1 9.99902 3c37.333 -7.33301 68 -17.333 92 -30c69.333 58.667 104 91.667 104 99c0 26 27.667 46 83 60zM263.003 768.002l-1.99902 -3.99902c7.33301 -12 11 -23.667 11 -35
c-3.33301 -5.33301 -29.333 -20 -78 -44l-12 2h-2c-38.667 -45.333 -58 -95.333 -58 -150c-1.33301 0 -2 -1.33301 -2 -4c0 -46 14.667 -71.333 44 -76c10 0 19.333 -5.33301 28 -16h20c47.333 0 89.666 37.667 126.999 113c4.66699 19.333 7 33.666 7 42.999v33
c0 42.667 -15.333 82.667 -46 120c-20 12 -32.333 18 -37 18z" />
    <glyph glyph-name="yen" unicode="&#xa5;" horiz-adv-x="1336" 
d="M1240 1431l3.99609 -2.00098h21c2 0 3 0.666992 3 2c32 -4.66699 53.667 -11.667 65 -21c4.66699 -7.33301 7 -17.333 7 -30v-7c0 -18 -42.667 -28.333 -128 -31l-35 -7v-7c23.333 -29.333 35 -49.333 35 -60c-7.33301 -22 -23.666 -47 -48.999 -75
c-6 -7.33301 -73 -69.666 -201 -186.999c-106.667 -114.667 -165 -183 -175 -205h42c1.33301 0 2 -1 2 -3l5 3h32c10 0 20.333 0.666992 31 2l14 -2c1.33301 0 7.33301 0.666992 18 2l12 -2c18 2.66699 35 4 51 4c5.33301 0 11 -0.666992 17 -2c36 2 54 3.66699 54 5l16 -3
h42c38 0 88.667 -0.666992 152 -2c23.333 0 39.666 -17 48.999 -51c1.33301 -2.66699 2 -6 2 -10c-8 -8 -18 -13.333 -30 -16c-41.333 1.33301 -75.666 2 -102.999 2h-21c-8 0 -19.667 1 -35 3v-3c-1.33301 0 -2 1 -2 3l-28 -3h-17c-10 0 -20 1 -30 3
c-14 -2.66699 -51.333 -5 -112 -7c-14 1.33301 -25.667 2 -35 2c-61.333 0 -105.666 -2.33301 -132.999 -7c-2 0 -4.33301 0.666992 -7 2c-47.333 0 -75.333 -10 -84 -30c-37.333 -45.333 -56 -79.666 -56 -102.999c-2 -13.333 -3 -23.333 -3 -30c2 -26 3 -45.333 3 -58
c-2 -11.333 -3 -17.666 -3 -18.999c2 -4.66699 3.66699 -7 5 -7c16.667 0 38.334 0.666992 65.001 2l12 -2c6 3.33301 12.333 5 19 5c24.667 -2 38.667 -3 42 -3v3l4 -3c4 0 17.333 1.66699 40 5l9 -2c13.333 1.33301 24.333 2 33 2l14 -2
c9.33301 1.33301 35.666 2.66602 78.999 3.99902l10 -2c8.66699 1.33301 14.667 2 18 2c25.333 -1.33301 39.666 -2 42.999 -2l4 2c2 0 4.33301 -0.666992 7 -2c20.667 1.33301 37 2 49 2h17c1.33301 0 2 1 2 3l5 -3c18.667 1.33301 28 3 28 5l4 -2
c13.333 1.33301 24.333 2 33 2c22 -6 33 -17.667 33 -35c0 -25.333 -46.667 -40 -140 -44c-208.667 -3.33301 -313 -7.33301 -313 -12c-8.66699 1.33301 -15.667 2 -21 2h-14c-2 0 -3 -0.666992 -3 -2l-4 2c-51.333 -4 -81 -7.66699 -89 -11
c-6.66699 -51.333 -22.334 -116 -47.001 -194c-4.66699 -10.667 -8.33398 -39.667 -11.001 -87c0 -16.667 7 -38.334 21 -65.001c2.66699 -14 4 -24 4 -30c-11.333 -8 -20.666 -12 -27.999 -12c-24 0 -45.667 29.667 -65 89c-3.33301 29.333 -5 44.666 -5 45.999v12
c0 38 15.667 116.667 47 236v2l-5 3h-163c-1.33301 0 -2 -1 -2 -3c-3.33301 2 -5.66602 3 -6.99902 3c-60 0 -96 14 -108 42c-1.33301 2 -2 5.66699 -2 11c0 26.667 10.667 40 32 40c15.333 -8 39 -12 71 -12c0.666992 0 3.66699 1 9 3c6.66699 -3.33301 19 -5 37 -5h147
l3 16v17c0 13.333 0.666992 27.333 2 42c0 4.66699 -7 23.334 -21 56.001c0 8 -2.33301 13.333 -7 16l2 16v14c-10.667 34.667 -20.667 52 -30 52c-35.333 0 -85 -4 -149 -12c-6.66699 1.33301 -13 2 -19 2v-2l-5 2c-17.333 -2.66699 -30.666 -4 -39.999 -4
c-42 0 -70 12.333 -84 37v7c0 28 16.333 42 49 42h7c15.333 0 23.333 -0.666992 24 -2c13.333 1.33301 24 2 32 2h61c46.667 3.33301 71 5 73 5l2 4v3c-60 86 -110 182.333 -150 289c-28 93.333 -60.667 172.666 -98 237.999h-4c-88.667 -5.33301 -133 -11.333 -133 -18
c-36 18.667 -54 38 -54 58c-3.33301 0 -5.66602 7.66699 -6.99902 23c0 4.66699 7 12.667 21 24c23.333 -3.33301 41.333 -5 54 -5c34.667 0 118.667 8.66699 252 26l72 14c2 0 4.33301 -1 7 -3c8.66699 2 15.667 3 21 3h10l23 -19c0 -14 3 -21 9 -21
c0 -25.333 -33.333 -41.666 -100 -48.999l-96 -21v-2c23.333 -43.333 57 -129.666 101 -258.999l32 -71c36 -66 80.333 -134.333 133 -205c76.667 2.66699 115 8 115 16c35.333 43.333 67 80 95 110c16 26 41 53.333 75 82l63 72c20.667 17.333 37.667 34.666 51 51.999
c7.33301 0 21.333 12.333 42 37c12.667 0 23.667 11 33 33c27.333 20.667 41.333 33.667 42 39c9.33301 10.667 19.666 20 30.999 28c16.667 14 26 26.667 28 38c-3.33301 10.667 -5 20 -5 28v4h-5c-25.333 -4.66699 -47.666 -7 -66.999 -7c-22 8 -33 31.333 -33 70
c4 18.667 9.33301 28 16 28s15.334 -0.666992 26.001 -2c42 4 63 8 63 12c13.333 -2 21 -3 23 -3l68 10c14 -2 22.667 -3 26 -3c9.33301 1.33301 14 3 14 5z" />
    <glyph glyph-name="brokenbar" unicode="&#xa6;" horiz-adv-x="207" 
d="M86 1641c42 0.666992 64.001 -11.668 66.001 -37.001c4.66699 -25.333 7.66699 -46 9 -62c1.33301 -19.333 -1.66699 -103.333 -9 -252c2 -40.667 2.66699 -69.667 2 -87c0 -2 1 -3 3 -3l-1 -21c1.33301 -18.667 3.66602 -57.334 6.99902 -116.001c0 -2 1.33301 -5 4 -9
l-2 -12c8 -71.333 13.333 -109.666 16 -114.999c1.33301 -19.333 -14 -38.666 -46 -57.999c-44 -4 -68.333 23.667 -73 83l-1 6c4.66699 14 5 69 1 165c0 2 -1 3 -3 3c1.33301 4.66699 1 29.667 -1 75l-3 -1l3 7c-5.33301 60.667 -2.66602 154.667 8.00098 282
c-0.666992 6.66699 0.333008 19.667 3 39c-0.666992 6 -2.33398 13 -5.00098 21c2 25.333 1.66699 51.333 -1 78c6 5.33301 13.667 10 23 14zM126.001 563.998c43.333 -20 60.665 -57.9971 51.998 -113.997c-8.66699 -148.667 -12 -321.334 -10 -518.001
c-8 -80.667 -12.333 -134.334 -13 -161.001c-3.33301 -24.667 -22.333 -37.667 -57 -39c-41.333 6 -60.333 20 -57 42c0.666992 2.66699 0 11.667 -2 27c4 10.667 6.33301 18.334 7 23.001c0 3.33301 -1 9.66602 -3 18.999l5 17l1 3
c0.666992 4.66699 0.333984 8.66699 -0.999023 12c2 3.33301 3.33301 7.33301 4 12l2 12c0.666992 4 0.333984 8 -0.999023 12l4 5c2.66699 18.667 6 166 10 442l4 6v136l3 23c16 28 28.333 41.333 37 40c6.66699 -0.666992 11.667 -0.333984 15 0.999023z" />
    <glyph glyph-name="section" unicode="&#xa7;" horiz-adv-x="901" 
d="M728 1447c8 -0.666992 12.6719 -0.999023 14.0049 -0.999023c0.666992 0 3.66699 1 9 3c82.667 -5.33301 125 -26 127 -62v-4c1.33301 -20 -4.66699 -34.333 -18 -43c-7.33301 0 -30.666 5.66699 -69.999 17l-13 2c-3.33301 -0.666992 -5 -1.66699 -5 -3l-16 1l-30 -1
c-6.66699 -0.666992 -14.334 -0.333984 -23.001 0.999023c-19.333 -2.66699 -35 -6 -47 -10c-8 1.33301 -12.667 2 -14 2c-156 -26 -241.333 -52.333 -256 -79c-8.66699 -14 -12 -35.333 -10 -64c1.33301 -33.333 78.333 -91 231 -173
c181.333 -101.333 275 -205.666 281 -312.999v-12c4 -62.667 -43 -108.667 -141 -138c-62 -12.667 -100.333 -19.334 -115 -20.001c-4.66699 -0.666992 -18.334 0 -41.001 2l-5 -3c-24.667 3.33301 -39.334 5 -44.001 5l1 -5c76 -54.667 116 -119.334 120 -194.001
c-0.666992 -8.66699 -1 -15 -1 -19h2c-2.66699 -68.667 -23 -137.667 -61 -207c-27.333 -46 -87.666 -83.667 -180.999 -113c-62 -14 -115 -22.333 -159 -25l-21 -1c-1.33301 0 -2 -0.666992 -2 -2c-64 2.66699 -117 12 -159 28c-53.333 27.333 -81 55.333 -83 84
c0 2.66699 -1.66699 6.33398 -5 11.001l6 14l12 -1h4c1.33301 0 2 0.666992 2 2c5.33301 0.666992 26.666 -9.33301 63.999 -30c49.333 -17.333 88.666 -25.333 117.999 -24l16 4c19.333 -0.666992 30.666 -1.66699 33.999 -3c87.333 12.667 152.666 29.334 195.999 50.001
c42.667 15.333 78.667 44.666 108 87.999c26.667 62 39 109.333 37 142c-2.66699 53.333 -41 99.333 -115 138c-11.333 8 -35.666 20.333 -72.999 37c0 2 -21.333 13 -64 33c-92.667 53.333 -141 117.666 -145 192.999l-1 14c-3.33301 56 24.334 104 83.001 144
c7.33301 6.66699 43.333 20.667 108 42c65.333 18 109 27.333 131 28v5c-54 24.667 -113 66.334 -177 125.001c-24.667 38 -38 72.333 -40 103c-3.33301 66 13 114.333 49 145c15.333 8 34 15.667 56 23l14 -1c10.667 0.666992 15.667 4 15 10l30 2l20 12
c10 -2.66699 16.333 -3.66699 19 -3l-1 2c3.33301 -1.33301 5.66602 -2 6.99902 -2c5.33301 0 35.666 7.66699 90.999 23c1.33301 0 2 -0.666992 2 -2c66.667 10 109.667 17.667 129 23zM580.005 892.001l-15.9961 -0.998047c-2 0 -3 -0.666992 -3 -2
c-2.66699 1.33301 -5 2 -7 2c-92.667 -16 -158.334 -36.667 -197.001 -62c-32.667 -22 -48.334 -44 -47.001 -66c-1.33301 0 -2 -1 -2 -3c1.33301 -24.667 9 -42.334 23 -53.001c2.66699 7.33301 4 14.333 4 21l-3 15c3.33301 0.666992 8.33301 5.66699 15 15l9 1l114 -67
c77.333 -37.333 137.666 -54.666 180.999 -51.999l4 3c2 0 4.33301 -0.666992 7 -2c48 2.66699 101.333 18.667 160 48c19.333 12 28.666 24.667 27.999 38c-2.66699 42.667 -44.667 96 -126 160c-8 -0.666992 -25.667 2.66602 -53 9.99902l-48 -2
c-7.33301 -0.666992 -15 -0.333984 -23 0.999023c-5.33301 -2 -12 -3.33301 -20 -4z" />
    <glyph glyph-name="dieresis" unicode="&#xa8;" horiz-adv-x="522" 
d="M376 1405c57.333 0 94.667 -41.333 112 -124c0 -40 -17.333 -60 -52 -60c-56 0 -84 10.667 -84 32c-10 20 -18 46.667 -24 80v8c0 22 16 43.333 48 64zM80.001 1385c72 -22.667 107.999 -60 107.999 -112c-8.66699 -28 -22 -45.333 -40 -52
c-28.667 0 -48.667 -1.33301 -60 -4c-15.333 0 -35.333 28 -60 84l4 24c-6 0 -10 6.66699 -12 20c16.667 24 30 36 40 36c4.66699 2.66699 11.334 4 20.001 4z" />
    <glyph glyph-name="copyright" unicode="&#xa9;" horiz-adv-x="1487" 
d="M661 1334c70 0 119.334 -23.333 148.001 -70h15c36.667 0 88.334 -12.333 155.001 -37c58.667 -13.333 159.667 -68.666 303 -165.999c69.333 -74 115 -130.667 137 -170c27.333 -56.667 45.666 -121 54.999 -193c0 -103.333 -40.667 -204.333 -122 -303
c-88.667 -82.667 -178.334 -147.667 -269.001 -195c-62.667 -38 -104.667 -61.667 -126 -71c0 -10.667 -82.667 -42.667 -248 -96c-96 -22 -177 -33 -243 -33h-8c-6.66699 0 -14 2.33301 -22 7l-26 -3c-10 4 -40.667 8.66699 -92 14c-10 7.33301 -42 19.666 -96 36.999
c-118.667 74 -186.667 155.333 -204 244c-12 40 -18 83.333 -18 130c0 199.333 96 411 288 635l115 115c0 2 -1.33301 9.33301 -4 22l11 22v4h-7l-8 -4l-3 8v3l33 22c13.333 -2 23.333 -3 30 -3c2.66699 3.33301 31 13 85 29c42.667 30 83 47.333 121 52zM129.001 395
c0 -2 1.33398 -2.99805 4.00098 -2.99805l-4 -8c0 -114 50.667 -187.667 152 -221c55.333 -20 104.666 -30 147.999 -30v4l7 -4h48c120.667 12 181 23 181 33l8 -3h18c13.333 8.66699 52.666 23.334 117.999 44.001c6.66699 7.33301 59.667 30.666 159 69.999
c30 26.667 59.667 44 89 52c4.66699 7.33301 35.334 27 92.001 59c85.333 72 141 134.667 167 188c19.333 45.333 29 89.666 29 132.999v19c0 113.333 -61.667 210.666 -185 291.999c-136 91.333 -292.333 137 -469 137c0 2 -14.667 3 -44 3c-34 0 -92 -37 -174 -111
c-151.333 -151.333 -246.333 -280.666 -285 -387.999c-39.333 -110.667 -59 -199.334 -59 -266.001zM702.002 1083c58.667 -16.667 88.3311 -28.001 88.998 -34.001c10 -12.667 15 -33.334 15 -62.001c-8.66699 -22.667 -42 -34 -100 -34c-56 -15.333 -119 -57 -189 -125
c-93.333 -104 -140 -195.333 -140 -274c0 -71.333 29.667 -116.666 89 -135.999c20 -4 33.333 -9 40 -15c50 2 84.667 3 104 3c17.333 6 26 10 26 12c4.66699 -2.66699 8.33398 -4 11.001 -4c80 23.333 139 49 177 77c62.667 38.667 108.334 77 137.001 115l40 19
c40 -7.33301 60 -34.666 60 -81.999c0 -40.667 -63 -98.334 -189 -173.001c-38 -27.333 -100.667 -54.666 -188 -81.999c0 -7.33301 -31 -13.333 -93 -18c-77.333 0 -151 24.667 -221 74c-37.333 14 -72 55.667 -104 125l-18 82c0 114 29.333 207.333 88 280
c55.333 84 122 148.333 200 193c58 39.333 113.333 59 166 59z" />
    <glyph glyph-name="guillemotleft" unicode="&#xab;" horiz-adv-x="944" 
d="M565 840h7.99902c30 -11.333 45 -25.333 45 -42c3.33301 0 5 -4.33301 5 -13c0 -23.333 -36 -50.666 -108 -81.999c-64 -45.333 -122.333 -82.333 -175 -111c-57.333 -39.333 -105.666 -75.333 -144.999 -108v-3h61c91.333 8.66699 146 13 164 13h10
c30.667 0 51 -22.667 61 -68v-11c-8 -11.333 -22 -19.333 -42 -24h-6c-6 2 -9.33301 3 -10 3c-160.667 -19.333 -269.667 -29 -327 -29c-65.333 3.33301 -98 11.333 -98 24c-3.33301 7.33301 -6 26.666 -8 57.999c0 16 17.667 34.333 53 55c54.667 44 96.667 74 126 90
c129.333 96 249 176 359 240c14 5.33301 23 8 27 8zM767.999 763c12.667 0 28.332 -20 46.999 -60c0 -10.667 2 -16 6 -16c0 -15.333 -37 -40 -111 -74l-5 -8c1.33301 0 2 -0.666992 2 -2c2 0 4.66699 0.666992 8 2c142.667 -8.66699 214 -29 214 -61l8 -36
c-15.333 -12.667 -48.666 -19 -99.999 -19c-9.33301 0 -37.666 1.66699 -84.999 5c-20.667 0 -63.667 -0.666992 -129 -2c-1.33301 0 -13 0.666992 -35 2c-8.66699 -1.33301 -17.334 -2 -26.001 -2c-36.667 6.66699 -55 19.667 -55 39h-3l3 13v3l-3 16
c0 24.667 16.667 47.667 50 69c50.667 40 101.667 74 153 102c24.667 19.333 45 29 61 29z" />
    <glyph glyph-name="registered" unicode="&#xae;" horiz-adv-x="1578" 
d="M763 1434l89.0029 -10.998c4.66699 2.66699 8.33398 4 11.001 4l51 -19l8 4c78.667 -20.667 118 -52.667 118 -96c0 -9.33301 -10 -19 -30 -29v-26h18c76 -23.333 143.667 -53 203 -89c151.333 -79.333 254.666 -182.333 309.999 -309
c10.667 -22.667 20.334 -64.667 29.001 -126v-3c0 -113.333 -38 -213 -114 -299c-101.333 -106 -170 -166.333 -206 -181c-84.667 -66 -141.334 -99 -170.001 -99c-47.333 -42 -171.333 -90 -372 -144c-27.333 -4.66699 -63 -8.33398 -107 -11.001
c-96 10 -172.333 26 -229 48c-130.667 58 -231.334 149 -302.001 273c-46.667 94 -70 188.667 -70 284v44c0 32 2.33301 54 7 66c0 2.66699 -1 4 -3 4c7.33301 63.333 19.666 113.666 36.999 150.999c4 0 7.66699 6 11 18l-8 4c60 137.333 122.667 226 188 266
c4 0 11.333 9.66699 22 29c8 0 19.333 10 34 30l22 14h7c2.66699 0 4 -1 4 -3l14 7c-0.666992 19.333 -8 29 -22 29v11c0 2 5 8.33301 15 19v4c-7.33301 0 -11 2.33301 -11 7v4c12.667 0 20 3.66699 22 11v3h-11l4 8c4.66699 -2.66699 8.33398 -4 11.001 -4
c12 7.33301 28 11 48 11l22 -4c37.333 0 92.666 19.667 165.999 59c61.333 20 122.666 33.667 183.999 41zM369.003 1327v-7h11v7h-11zM347.003 1065v-3.00098h14c10.667 0 157 33 439 99c22.667 0 46 2.66699 70 8c4 -2.66699 10 -4 18 -4c5.33301 2.66699 9 4 11 4
c-22.667 14.667 -96.334 26.667 -221.001 36c-21.333 5.33301 -50.666 8 -87.999 8h-37c-38 -7.33301 -106.667 -56.666 -206 -147.999zM944.003 1165l-4 -7c31.333 -13.333 58.333 -38 81 -74v-8c0 -61.333 -70 -164.333 -210 -309
c-40.667 -45.333 -76.334 -88.333 -107.001 -129v-15c0 -2.66699 1.33301 -4 4 -4l-4 -7v-11c7.33301 -14.667 34.333 -36.667 81 -66c0 -8 48 -30.333 144 -67c32 -10 81 -21 147 -33c24 -6.66699 45 -27.667 63 -63c-7.33301 -12 -11 -21.667 -11 -29v-8h4
c7.33301 0 33 18.667 77 56c6 0 44 32 114 96c81.333 96 122 174.667 122 236v47c0 72 -46.667 150.667 -140 236c-107.333 78 -227.666 131 -360.999 159zM564.003 947.001c14.667 -28.667 22.001 -65.333 22.001 -110c0 -2.66699 -1.33301 -4 -4 -4l4 -37v-37
c0.666992 -4.66699 3.33398 -7 8.00098 -7h3c153.333 160 230.666 248.333 231.999 265c-4.66699 2.66699 -8.33398 4 -11.001 4c-169.333 -30 -254 -54.667 -254 -74zM232.004 940.002c-30 -40.667 -56.999 -96 -80.999 -166c-8.66699 0 -18.334 -65 -29.001 -195
c9.33301 -88 25.333 -157 48 -207c46 -92 133 -160.667 261 -206c31.333 -10 74.333 -17.333 129 -22h8l22 3c4.66699 -2 8.33398 -3 11.001 -3c115.333 14.667 214.666 39 297.999 73c94.667 40.667 153.667 71.667 177 93v7c-11.333 0 -23.333 1.33301 -36 4l-15 -4
c-84.667 0 -191.667 38 -321 114c-30 20 -69.333 58.333 -118 115c-10 -27.333 -15 -65.666 -15 -114.999h4l-4 -7v-59c8 -18 15.667 -50 23 -96c0 -22.667 -15 -36 -45 -40h-14c-31.333 0 -61 33 -89 99c-4.66699 31.333 -8.33398 70.666 -11.001 117.999l15 206h-4
c0 2.66699 1.33301 4 4 4l-4 26v15c0 10 1.33301 23.333 4 40c-2.66699 4.66699 -4 9.66699 -4 15c0 2.66699 1.33301 4 4 4l-8 70c2.66699 3.33301 4 10.666 4 21.999c-2.66699 7.33301 -5 11 -7 11c2 4.66699 3 8.33398 3 11.001c-3.33301 34.667 -10.666 52 -21.999 52
c-32 -12.667 -66.333 -24 -103 -34c-7.33301 0 -33 17.333 -77 52h-8z" />
    <glyph glyph-name="macron" unicode="&#xaf;" horiz-adv-x="670" 
d="M595 1678c10 -5.33301 20.668 -8.00195 32.001 -8.00195c6 0 11.333 1.33301 16 4c48 0 77.333 -17.333 88 -52v-4c-11.333 -38.667 -19.333 -58.667 -24 -60c-13.333 -21.333 -88 -32 -224 -32l-8 -4c-4.66699 2.66699 -10 4 -16 4c-14.667 0 -48 -2.66699 -100 -8
l-24 4c-53.333 -5.33301 -149.333 -10.666 -288 -15.999c-1.33301 0 -18.666 1.33301 -51.999 4v-4c-30 0 -62 29.333 -96 88v12c5.33301 40 22.666 60 51.999 60l48 -4h116c2.66699 0 4 1.33301 4 4c2.66699 0 4 -1.33301 4 -4c24 2.66699 76 5.33398 156 8.00098l20 -8
c21.333 5.33301 46.666 8 75.999 8h4c16.667 0 36.667 -1.33301 60 -4c21.333 5.33301 44 8 68 8h72c6 0 11.333 1.33301 16 4z" />
    <glyph glyph-name="degree" unicode="&#xb0;" horiz-adv-x="608" 
d="M253 1652c104 -38.667 175.999 -90.667 215.999 -156c74.667 -88 112 -174.667 112 -260c-9.33301 -37.333 -28 -65.333 -56 -84c-63.333 -24 -123.333 -36 -180 -36l-16 4l-40 -4c-81.333 0 -156 28 -224 84c-37.333 44 -56 88 -56 132c0 106 66.667 183.333 200 232v52
c18.667 24 33.334 36 44.001 36zM140.999 1308c0 -37.333 45.333 -58.668 136 -64.001h12c104 4 156 17.333 156 40v40c-32 85.333 -60 128 -84 128c-11.333 -7.33301 -47.333 -14 -108 -20c-74.667 -39.333 -112 -80.666 -112 -123.999z" />
    <glyph glyph-name="plusminus" unicode="&#xb1;" horiz-adv-x="645" 
d="M323 852c30.667 -8 45.998 -25.332 45.998 -51.999c1.33301 0 4 -4.33301 8 -13c-12 -58.667 -18 -92.334 -18 -101.001c4 -3.33301 18.667 -7 44 -11c6.66699 2 12.667 3 18 3c11.333 -3.33301 19.333 -5 24 -5h65c8 0 16.667 -1 26 -3c30 2 53.333 5.33301 70 10
c24 -14 36 -32 36 -54c2 0 3 -2.66699 3 -8c0 -31.333 -36.333 -47 -109 -47c-84 2 -150.667 4.66699 -200 8c-18 -36 -30.333 -82 -37 -138c2 -2.66699 3 -8 3 -16c-17.333 -30.667 -35.666 -46 -54.999 -46c-12.667 0 -24.667 11 -36 33c1.33301 10 2 17 2 21
c-3.33301 19.333 -5 29.666 -5 30.999c3.33301 16 5 27.333 5 34v24c-11.333 52 -37.333 78 -78 78c-60.667 10.667 -91 37.334 -91 80.001h-2c6 36.667 16.333 55 31 55c84 -31.333 143.667 -47 179 -47h16c6.66699 0 20.334 53 41.001 159c6 3.33301 10.667 5 14 5z
M30.998 373.001l8.00195 0.000976562c32 -13.333 65 -20 99 -20c1.33301 0 2 0.666992 2 2l13 -2h11c5.33301 0 8 0.666992 8 2l13 -2h20c24 0 139.333 -5.33301 346 -16c9.33301 2 14.666 3 15.999 3c14 0 31.333 -21 52 -63v-2c-19.333 -28 -48 -42 -86 -42l-5 3
c-108 1.33301 -175.667 3.66602 -203 6.99902c-1.33301 0 -2 -0.666992 -2 -2l-27 2h-119c-7.33301 0 -17 1 -29 3l-5 -3c-88.667 6 -133 14.667 -133 26c-6.66699 14.667 -10 28.667 -10 42v23c5.33301 26 15.666 39 30.999 39z" />
    <glyph glyph-name="uni00B2" unicode="&#xb2;" horiz-adv-x="490" 
d="M335 1710l3 0.00195312c43.333 0 85.333 -14.667 126 -44c0 -4.66699 4 -13.334 12 -26.001v-38c-16.667 -63.333 -92 -140.333 -226 -231c-20 -17.333 -35.333 -28 -46 -32v-9l26 -21c2 -2.66699 3 -8.33398 3 -17.001c6 0 46 6.66699 120 20
c13.333 0 23 -11.667 29 -35c0 -30.667 -40 -59 -120 -85c-20 -7.33301 -39.333 -11 -58 -11l-65 8c-18.667 -13.333 -39 -20 -61 -20c-48.667 21.333 -73 48.666 -73 81.999c-4 0 -7 7.66699 -9 23c0 38.667 34 77.667 102 117c120 86.667 197 146.334 231 179.001
c0 2 7 11.667 21 29v6c0 4 -2 6 -6 6h-20c-52 0 -111.667 -12.667 -179 -38c-50.667 10.667 -76 34 -76 70v3c0 22 68.333 42.333 205 61c6.66699 2 27 3 61 3z" />
    <glyph glyph-name="uni00B3" unicode="&#xb3;" horiz-adv-x="339" 
d="M87 1734c12 -5.33301 60.667 -17.332 146 -35.999c38.667 -16.667 70 -44 94 -82c8 -22 12 -34.333 12 -37c0 -34.667 -42.333 -73 -127 -115v-6c82.667 -68.667 124 -128.334 124 -179.001c0 -48.667 -39.333 -92 -118 -130c-73.333 -24 -145 -36 -215 -36v-3l-7 3h-36
c-54.667 0 -90 30.333 -106 91c0 37.333 23.333 62.333 70 75c14 -3.33301 21 -15.333 21 -36c-2 -3.33301 -3 -7.33301 -3 -12v-6c0 -4.66699 11 -7.66699 33 -9l6 3c2.66699 0 5.66699 -1 9 -3c62 0 125.667 12 191 36c30 17.333 47.333 30.333 52 39v7
c-12 28 -47.333 59 -106 93c-38.667 33.333 -58 67 -58 101c0 25.333 20.333 43.333 61 54c46.667 18.667 74 34 82 46c0 6.66699 -44.667 14.667 -134 24c-36 24 -54 46 -54 66v7c0 20 21 35 63 45z" />
    <glyph glyph-name="acute" unicode="&#xb4;" horiz-adv-x="389" 
d="M362 1383l-21.002 -29.999c-72 -45.333 -121.333 -87 -148 -125c-57.333 -81.333 -110.666 -117.333 -159.999 -108l-13 9c-11.333 8.66699 -15.333 28 -12 58c6 9.33301 13 17.333 21 24c2.66699 4 11 18 25 42c29.333 41.333 64 74 104 98
c94.667 53.333 155.334 72.333 182.001 57l20 -14c3.33301 -2.66699 4 -6.33398 2 -11.001z" />
    <glyph glyph-name="mu" unicode="&#xb5;" horiz-adv-x="590" 
d="M496 556c55.333 -18 83 -41.667 83 -71c-4.66699 -29.333 -7 -45.666 -7 -48.999v-43c0 -47.333 -12 -124 -36 -230l3 -12l-3 -15l3 -16c-4 -52.667 -16.333 -79 -37 -79h-3c-27.333 0 -49 18.333 -65 55h-3c-56.667 -51.333 -102.667 -77 -138 -77h-24
c-49.333 0 -93.333 23.667 -132 71h-3c-6 -22.667 -11.333 -92.334 -16 -209.001c0 -85.333 10.333 -157 31 -215c-8 -42.667 -23.333 -64 -46 -64h-15c-22 0 -42.667 21.333 -62 64l-21 163l3 6v12c0 4.66699 -1 9 -3 13c2 3.33301 3 7.33301 3 12c0 2 -1 5 -3 9l3 6l-3 31
l3 28h-3l3 6v21c2 88 27.667 257.667 77 509c0 41.333 15.333 62 46 62h3c79.333 -9.33301 119 -32 119 -68c-30.667 -106.667 -50 -187.334 -58 -242.001c0 -54 11.333 -91 34 -111h12c62.667 16.667 104.667 44.334 126 83.001c57.333 100.667 86 182.667 86 246v33
c0 8.66699 -1 20 -3 34c10.667 24.667 26 37 46 37z" />
    <glyph glyph-name="paragraph" unicode="&#xb6;" horiz-adv-x="942" 
d="M798 1433c74 0 120.667 -18.333 140 -55v-7c0 -14 -11.333 -25.333 -34 -34l-7 3h-27c-11.333 0 -17 -2 -17 -6l-21 3c-121.333 0 -239.333 -33 -354 -99c-60 -24.667 -121.667 -60 -185 -106c-14 -7.33301 -25.333 -17.333 -34 -30
c-75.333 -48 -127.666 -115.333 -156.999 -202v-37c0 -52 53.667 -94 161 -126h10v13c34.667 173.333 58.667 260 72 260c18 5.33301 27 8.66602 27 9.99902c38.667 -9.33301 58 -34.333 58 -75c2 0 3 -2.33301 3 -7l-31 -143c-8.66699 -26.667 -13 -50.667 -13 -72
c0.666992 -4.66699 3 -7 7 -7h78c12 0 24.667 51.333 38 154c6 14 15 65 27 153c14.667 27.333 28.334 41 41.001 41h7c24.667 0 47.334 -28.333 68.001 -85c0 -14 -14.667 -88 -44 -222v-20h20c10.667 0 54 17 130 51c16 0 25 -30.667 27 -92c0 -34 -68.333 -67 -205 -99
c-6 -20.667 -11.667 -47 -17 -79l4 -17c-4.66699 -13.333 -9.33398 -65.333 -14.001 -156l3 -7l-3 -21v-3c0 -2.66699 1 -4 3 -4l-3 -6c2 -67.333 12.333 -149.333 31 -246l-4 -7v-34c-5.33301 -11.333 -14.333 -17 -27 -17c-48 0 -75.333 33 -82 99
c-16 119.333 -24 191 -24 215v27c0 9.33301 1.33301 22 4 38l-4 6c4.66699 88 9.33398 149.667 14.001 185c-2.66699 11.333 -6 17 -10 17h-48l-41 3c-6.66699 -14 -12.334 -68.667 -17.001 -164c1.33301 -77.333 4.66602 -116 9.99902 -116l-3 -13
c1.33301 -30 3.66602 -45 6.99902 -45c-2.66699 -4 -4 -7.33301 -4 -10c0 -7.33301 1.33301 -13 4 -17c0 -68 -12.667 -102 -38 -102c-45.333 20 -68 43.667 -68 71c-1.33301 0 -3.66602 3.66699 -6.99902 11l3 17v20c0 32 -3.33301 59.333 -10 82l4 7
c0 16.667 -2.33301 52 -7 106c6.66699 87.333 10 144 10 170c-84.667 27.333 -156.334 73 -215.001 137c-22.667 58 -34 97.667 -34 119v34c0 78.667 50 166.334 150 263.001c92 74 176 128.333 252 163c90 44.667 181 75.667 273 93c48.667 11.333 89.667 17 123 17z" />
    <glyph glyph-name="periodcentered" unicode="&#xb7;" horiz-adv-x="224" 
d="M73 687l7.99902 -3.99805l8 4c32.667 0 63.334 -17.333 92.001 -52c0 -13.333 5.33301 -20 16 -20v-16l16 -44v-12c-30.667 -28 -58.667 -42.667 -84 -44c-2 0 -12.667 1.33301 -32 4c-5.33301 -2.66699 -9.33301 -4 -12 -4c0 3.33301 -14.667 12.666 -44 27.999
c-24 43.333 -36 80.666 -36 111.999c18 32 40.667 48 68 48z" />
    <glyph glyph-name="periodcentered" unicode="&#x2219;" horiz-adv-x="224" 
d="M73 687l7.99902 -3.99805l8 4c32.667 0 63.334 -17.333 92.001 -52c0 -13.333 5.33301 -20 16 -20v-16l16 -44v-12c-30.667 -28 -58.667 -42.667 -84 -44c-2 0 -12.667 1.33301 -32 4c-5.33301 -2.66699 -9.33301 -4 -12 -4c0 3.33301 -14.667 12.666 -44 27.999
c-24 43.333 -36 80.666 -36 111.999c18 32 40.667 48 68 48z" />
    <glyph glyph-name="cedilla" unicode="&#xb8;" horiz-adv-x="430" 
d="M264 7l18.002 -1v1c14 -4.66699 22 -18.667 24 -42l-17 -98v-4c2.66699 0 17.667 0.666992 45 2c43.333 -8 65 -18 65 -30c4 0 8.33301 -7.66699 13 -23v-19c0 -46.667 -47 -96.667 -141 -150c-46.667 -23.333 -105.334 -41.333 -176.001 -54h-7c-32.667 0 -59 13 -79 39
c-2 4 -3.66699 16.333 -5 37c2.66699 23.333 8 35 16 35c9.33301 4 17 9.33301 23 16c8 0 12 -12 12 -36c-1.33301 -4 -2 -8.66699 -2 -14c5.33301 -4.66699 10 -7 14 -7s7 0.666992 9 2l9 -2c47.333 0 87.666 10 120.999 30c10.667 0 23 4.66699 37 14
c10 7.33301 21.667 14 35 20c43.333 38 65 58.333 65 61v5c-38.667 0 -62.667 -7.33301 -72 -22c-8.66699 -4 -15 -6 -19 -6c-24.667 5.33301 -37 12 -37 20l2 3c-2.66699 8 -4 13.333 -4 16c0 3.33301 1.33301 6.66602 4 9.99902l-2 4l17 47l23 102
c0 14.667 3 29.334 9 44.001z" />
    <glyph glyph-name="uni00B9" unicode="&#xb9;" horiz-adv-x="242" 
d="M217 1352h0.999023c16 -4.66699 24 -12.334 24 -23.001h1c-5.33301 -18 -13.666 -35.333 -24.999 -52c-33.333 -49.333 -61 -102.333 -83 -159c-5.33301 -11.333 -8 -19.333 -8 -24h3c10.667 2.66699 26.334 8 47.001 16c10.667 3.33301 16.667 5 18 5h4
c3.33301 0 7 -2.66699 11 -8v-3c-4 -12 -19.333 -23.667 -46 -35c-16 -7.33301 -32.667 -14 -50 -20c-2 -4 -3.66699 -12.333 -5 -25l-8 -6h-8c-6.66699 0 -12 6.33301 -16 19h-1c-8 -2.66699 -22 -5.66699 -42 -9c-16 0 -26.667 6.66699 -32 20l-2 4c0 9.33301 3 14 9 14
c50.667 4 76 11 76 21c10 32.667 23.333 65 40 97c13.333 30.667 31.333 64 54 100c0 0.666992 2.33301 5.66699 7 15v2c-14 -5.33301 -33 -16.666 -57 -33.999c-6 -5.33301 -10.333 -8 -13 -8c-10 0 -18.333 5.33301 -25 16v3c0 5.33301 11.333 15.333 34 30
c6.66699 2.66699 21 11 43 25c29.333 12.667 45.666 19 48.999 19z" />
    <glyph glyph-name="ordmasculine" unicode="&#xba;" horiz-adv-x="252" 
d="M122 1343c23.333 -6.66699 36.999 -13 40.999 -19l21 -16h2c2 0 9 4.33301 21 13c2.66699 2 10.334 3.66699 23.001 5c11.333 -5.33301 17 -14.333 17 -27c0 -4 -2 -9.33301 -6 -16v-1l2 -4c-14 -8 -22.667 -14 -26 -18c12 -39.333 18 -73.666 18 -102.999
c0 -18 -5 -38.333 -15 -61c-1.33301 0 -5.33301 -4.33301 -12 -13c-14 -18 -32 -30 -54 -36c-6.66699 -4.66699 -19.334 -8.33398 -38.001 -11.001l-2 1h-7c-2.66699 0 -6 -0.333008 -10 -1c-25.333 8 -42.666 17 -51.999 27c-22.667 28 -34 55.333 -34 82
c-0.666992 0 -1 1.33301 -1 4v10c0 10 2.66699 27 8 51c4 4 9.33301 16.333 16 37c20 46 44.667 76.667 74 92c9.33301 0.666992 14 2 14 4zM42.999 1141c0 -23.333 10 -39.666 30 -48.999c1.33301 -0.666992 2.66602 -1 3.99902 -1l14 47l11 33l29 64
c-1.33301 4 -2.66602 6.33301 -3.99902 7c-1.33301 -0.666992 -2.33301 -1 -3 -1c-9.33301 11.333 -14 20 -14 26c-2 4.66699 -3.33301 7 -4 7c-26.667 -22 -46.667 -58.667 -60 -110c-0.666992 -10.667 -1.66699 -18.334 -3 -23.001zM134.999 1249l0.000976562 -2
c0 -1.33301 0.666992 -2 2 -2l16 25v1c0 2 -0.666992 3 -2 3h-1c-6.66699 0 -11.334 -8 -14.001 -24c-0.666992 0 -1 -0.333008 -1 -1zM114 1091v-3.00098c28 0 54.667 15.333 80 46c6 14.667 9 32.667 9 54c-2.66699 16.667 -6.33398 33.334 -11.001 50.001h-1
c-7.33301 0 -24.666 -26 -51.999 -78c0 -2 -4.33301 -12.667 -13 -32c-6.66699 -14.667 -10.667 -27 -12 -37z" />
    <glyph glyph-name="guillemotright" unicode="&#xbb;" horiz-adv-x="944" 
d="M325 782h5.99707c15.333 0 27 -7 35 -21c18 -6 122.333 -32.667 313 -80c72.667 -20 148.334 -45 227.001 -75c9.33301 0 20 -28.667 32 -86c0 -28.667 -49.667 -64.334 -149 -107.001c-146.667 -81.333 -220 -127 -220 -137c-4.66699 0 -25.667 -17 -63 -51
c-10 0 -15 -1 -15 -3c-31.333 12 -47 24 -47 36c0 2 1 12 3 30l-3 20c4.66699 24 26.334 50 65.001 78c40.667 25.333 66.667 43 78 53c100 58.667 151.667 90.667 155 96v6c-139.333 39.333 -236.666 63 -291.999 71l-99 27c-33.333 14.667 -50 29.667 -50 45
c0 6.66699 -2 29.334 -6 68.001c2 0 6 8 12 24c6.66699 4 12.667 6 18 6zM29.9971 719c13.333 -2 37.002 -13.667 71.002 -35c237.333 -60 359.666 -90 366.999 -90c19.333 0 40 -12.667 62 -38c10 -20 15 -34 15 -42c0 -40 -18.667 -65 -56 -75l-108 -44
c-14 -5.33301 -29.667 -13.333 -47 -24l-6 3c-64.667 -28 -110.334 -50 -137.001 -66l-66 -62c-6 0 -14 -2 -24 -6c-39.333 14 -59 30 -59 48v35c0 29.333 26.667 57.333 80 84c76 44 127.667 68.667 155 74c20 9.33301 30 15.333 30 18v6
c-25.333 13.333 -75 26.333 -149 39c-99.333 23.333 -149 53 -149 89l-9 33v9c0 19.333 10 34 30 44z" />
    <glyph glyph-name="onequarter" unicode="&#xbc;" horiz-adv-x="1212" 
d="M656 1400c42.667 -15.333 64 -48.665 64 -99.998c0 -12 -29.333 -92 -88 -240l-200 -484c-66.667 -182.667 -118.667 -296 -156 -340c-22.667 -24 -36 -36 -40 -36h-8c-34.667 35.333 -56 68.666 -64 99.999c0 5.33301 12 20 36 44c34.667 74.667 66.667 154.667 96 240
c107.333 244.667 199.333 480.667 276 708c8 17.333 12 30.666 12 39.999h-4c10.667 13.333 16 25.333 16 36c13.333 21.333 33.333 32 60 32zM256 1384c28 -9.33301 51.998 -24 71.998 -44l-4 -40v-8c13.333 -40 20 -66.667 20 -80c-16 -88 -30.667 -185.333 -44 -292l8 -4
c14.667 2.66699 25.334 4 32.001 4c26.667 -10.667 40 -36 40 -76v-8c-7.33301 -50.667 -28.666 -76 -63.999 -76l-64 -36c-13.333 5.33301 -22.666 8 -27.999 8c-9.33301 -5.33301 -49.333 -16 -120 -32c-69.333 27.333 -104 70 -104 128c0 28 20 48 60 60
c14 -5.33301 26 -12 36 -20h28c24 0 40 9.33301 48 28v24c0 2.66699 -1.33301 4 -4 4l4 8v40c0 31.333 4 95.333 12 192l-8 4h-8c-36.667 -26.667 -59.334 -40 -68.001 -40c-38.667 0 -66.667 30.667 -84 92c-2.66699 4 -4 12 -4 24c0 26 30.667 48.667 92 68l120 60
c18 8 28.667 12 32 12zM827.998 1112l4 0.000976562c37.333 -11.333 56 -31.333 56 -60c2.66699 0 4 -1.33301 4 -4v-32c0 -25.333 -20 -68 -60 -128c-24 -56.667 -36 -92.667 -36 -108v-4c0 -72 9.33301 -108 28 -108c17.333 -5.33301 29.333 -8 36 -8
c52.667 0 86 16 100 48c1.33301 0 6.66602 1.33301 15.999 4h28c24 111.333 38.667 194 44 248c12.667 29.333 36.667 44 72 44c19.333 0 38 -25.333 56 -76h-4c8 -13.333 12 -24 12 -32c-98.667 -432.667 -148 -700.667 -148 -804c-11.333 -57.333 -31.333 -88 -60 -92
c-37.333 46.667 -56 81.334 -56 104.001v80c0 33.333 13.333 137.333 40 312l-8 4c-10 -5.33301 -20.667 -8 -32 -8h-16c-110.667 0 -186.667 58.667 -228 176c-8 45.333 -12 74.666 -12 87.999c0 85.333 32 182.666 96 291.999c22.667 42.667 45.334 64 68.001 64z" />
    <glyph glyph-name="onehalf" unicode="&#xbd;" horiz-adv-x="1231" 
d="M232 1460h3.99805c42.667 0 77.334 -40 104.001 -120l-28 -80v-4c8.66699 -75.333 16.667 -119.333 24 -132c-2.66699 -14 -4 -22 -4 -24c0 -35.333 2.66699 -72.666 8 -111.999c-2.66699 -29.333 -4 -56 -4 -80v-128c20 0 41.333 -24 64 -72
c0 -39.333 -14.667 -66 -44 -80c-17.333 -6 -38.666 -19.333 -63.999 -40c-1.33301 0 -45.333 -8 -132 -24h-12c-36 3.33301 -72 16.666 -108 39.999c-22 31.333 -35.333 56.666 -40 75.999c14 37.333 32.667 56 56 56l64 -12c5.33301 12 8 29.333 8 52
c0 8.66699 -1.33301 15.334 -4 20.001l4 20c0 20 -2.66699 48 -8 84l4 20c-2 48 -4.66699 72 -8 72l4 8v16l-8 28c5.33301 6.66699 13.333 62.667 24 168c-46.667 0 -85.334 28 -116.001 84v12c12.667 42.667 24.667 64 36 64c16.667 0.666992 67.334 26 152.001 76
c2.66699 8 10.667 12 24 12zM647.998 1424c18.667 0 39.999 -17.332 63.999 -51.999l24 -76c-24 -147.333 -66.667 -326 -128 -536c-53.333 -156 -125.333 -354.667 -216 -596c-18.667 -63.333 -30.667 -114 -36 -152c-15.333 -8 -32.666 -12 -51.999 -12
c-45.333 46 -68 74 -68 84c0 43.333 68 260.666 204 651.999c53.333 134 105.333 331.333 156 592c0 49.333 17.333 81.333 52 96zM791.997 1036l23.998 -0.000976562c42.667 -13.333 113.334 -25.333 212.001 -36c98.667 -34.667 148 -73.334 148 -116.001
c21.333 -34 32 -58 32 -72c0 -57.333 -62.667 -154.666 -188 -291.999v-8h4l76 24c18 0 38 -34.667 60 -104c0 -32 -52 -66.667 -156 -104c-84.667 -37.333 -156.667 -56 -216 -56h-20c-28 0 -54.667 26.667 -80 80c0 18.667 -1.33301 28 -4 28
c0 20.667 21.333 48.667 64 84c30.667 40.667 78.667 90 144 148c104 128.667 156 199.334 156 212.001v8c0 10.667 -40 18.667 -120 24v-4c-55.333 10.667 -87.333 16 -96 16l-8 -4c-43.333 28.667 -68.666 62 -75.999 100c0 32 14.667 56 44 72z" />
    <glyph glyph-name="threequarters" unicode="&#xbe;" horiz-adv-x="1377" 
d="M852 1244c40 -22 60.0029 -51.3379 60.0029 -88.0049v-44c0 -31.333 -74.667 -180.666 -224 -447.999c-104 -185.333 -156 -325.333 -156 -420c2.66699 -10.667 4 -20 4 -28c0 -28.667 -10.667 -50 -32 -64h-8c-58.667 20.667 -88 71.334 -88 152.001
c10.667 86.667 28 158.667 52 216v8c0 5.33301 -4 8 -12 8c-18.667 -5.33301 -45.334 -10.666 -80.001 -15.999c-2.66699 0 -4 1.33301 -4 4l-48 -4c-144.667 0 -235.334 28 -272.001 84c-4.66699 0 -19.334 25.333 -44.001 76v32c14 24 27.333 36 40 36h4
c12 0 29.333 -16 52 -48c38 -18.667 76.667 -28 116 -28h80c80 8.66699 120 24.667 120 48v4c0 58.667 -48 109.334 -144 152.001c-32 18.667 -54.667 53.334 -68 104.001c0 2.66699 -1.33301 6.66699 -4 12l4 24l-8 4c-29.333 -2.66699 -44 -6.66699 -44 -12l-8 4
c-30.667 -10.667 -46.667 -16 -48 -16c-39.333 0 -70 28 -92 84v4c-0 34 9.33301 55.333 28 64c71.333 21.333 138 32 200 32c83.333 0 135.333 -22.667 156 -68c18.667 -44.667 28 -76.667 28 -96c0 -1.33301 -6.66699 -18.666 -20 -51.999
c67.333 -62.667 115.333 -129.334 144 -200.001c4 -24 9.33301 -36 16 -36c10 5.33301 50 77.333 120 216c52 84 92 174.667 120 272c20.667 18.667 40.667 28 60 28zM1044 1012c21.333 0 43.999 -20.001 67.999 -60.001c2.66699 -25.333 5.33398 -40 8.00098 -44
c-2.66699 -4.66699 -4 -10 -4 -16l4 -16c-21.333 -36.667 -42.666 -108.667 -63.999 -216l-4 -20c4 -13.333 13.333 -20 28 -20c82.667 0 124 28 124 84c5.33301 53.333 8 93.333 8 120c-2.66699 36.667 -4 59.334 -4 68.001c12.667 37.333 30 56 52 56
c0 2.66699 2.66699 4 8 4c56 -20 84 -53.333 84 -100l4 -24c0 -94.667 -36 -272 -108 -532c-10.667 -46 -17.334 -98 -20.001 -156c2.66699 -16 5.33398 -24 8.00098 -24l-4 -8c0 -10.667 2.66699 -28 8 -52c-12.667 -37.333 -20.667 -56 -24 -56c-52 0 -88 54.667 -108 164
c0 20 -1.33301 34.667 -4 44c8 74 20 156.667 36 248h-4c-26.667 -2.66699 -46.667 -4 -60 -4c-68.667 0 -119.334 50.667 -152.001 152c-2.66699 26.667 -4 46.667 -4 60c0 55.333 25.333 163.333 76 324c20 16 36 24 48 24z" />
    <glyph glyph-name="questiondown" unicode="&#xbf;" horiz-adv-x="769" 
d="M510 1435l20 -3.99902l21 4c16.667 0 38.667 -39.667 66 -119c0 -34.667 -20.667 -59.334 -62 -74.001h-4c-30.667 4.66699 -67.667 43 -111 115c0 36.667 23.333 62.667 70 78zM543 1102c66.667 0 106.33 -32.999 118.997 -98.999c5.33301 -10.667 8 -25.667 8 -45v-20
c0 -46.667 -54.667 -112.667 -164 -198c-202 -188.667 -313 -309.334 -333 -362.001c-16.667 -30.667 -25 -49.667 -25 -57v-29c0 -30.667 50.667 -67.667 152 -111c40.667 -24.667 120.334 -37 239.001 -37c30.667 0 75.667 5.33301 135 16c38 0 69.667 -28.667 95 -86
c0 -41.333 -31.667 -62 -95 -62c-47.333 -8 -100.666 -12 -159.999 -12c-167.333 0 -312.666 61.667 -435.999 185c-47.333 50.667 -73.333 94.667 -78 132v28c0 112 152 298.667 456 560c41.333 40 62 68.667 62 86v8c-13.333 20 -20 39.333 -20 58c0 30 15 45 45 45z" />
    <glyph glyph-name="Agrave" unicode="&#xc0;" horiz-adv-x="1540" 
 />
    <glyph glyph-name="Aacute" unicode="&#xc1;" horiz-adv-x="1313" 
d="M1259 1713h2c0 -6.66699 9.66699 -16.334 29 -29.001c5.33301 -6 8 -11.667 8 -17v-7c-32 -37.333 -67.667 -65.666 -107 -84.999c-117.333 -83.333 -185.666 -125 -204.999 -125c-10.667 0 -25 8 -43 24c-13.333 21.333 -20 39 -20 53
c11.333 19.333 19.666 29 24.999 29c27.333 0 84.333 28 171 84c0 2.66699 4 6 12 10l5 -2h7c0.666992 4 17.667 16 51 36c2.66699 0 18 7.33301 46 22c10 4.66699 16.333 7 19 7zM912 1414c68 -16 115.335 -41.332 142.002 -75.999l5 -10v-31
c0 -26.667 52.333 -356 157 -988c24 -102.667 44.333 -168.334 61 -197.001c0 -54 -27 -91.333 -81 -112c-52.667 -0 -108.334 57.333 -167.001 172c-65.333 88 -166.666 187.667 -303.999 299c-82.667 78 -138.334 117 -167.001 117c0 -4.66699 -69.333 -85.667 -208 -243
c-74.667 -98 -120.334 -165.667 -137.001 -203c-29.333 -24 -49.666 -36 -60.999 -36c-83.333 0 -134 52.667 -152 158v5c29.333 25.333 88.333 91 177 197c9.33301 4.66699 72 77.334 188 218.001v5c-32.667 22.667 -88.334 43 -167.001 61c-44 12 -72.667 30.667 -86 56
c-20.667 29.333 -31 56.333 -31 81c6 40.667 19.667 61 41 61h10l30 -5c6 3.33301 12.667 5 20 5c174 -60.667 270.333 -96.334 289 -107.001h21c48 42.667 132.333 157.667 253 345c64 86.667 96 149.334 96 188.001c16 21.333 39.667 34.666 71 39.999zM674.002 730.001
l0.000976562 -5c8.66699 -14 62.667 -58 162 -132c0 -3.33301 52.333 -49 157 -137h11v5c-37.333 273.333 -73 464.333 -107 573c-10.667 -4 -56.334 -66.667 -137.001 -188c-39.333 -49.333 -68 -88 -86 -116z" />
    <glyph glyph-name="Acircumflex" unicode="&#xc2;" horiz-adv-x="1540" 
 />
    <glyph glyph-name="Atilde" unicode="&#xc3;" horiz-adv-x="1286" 
d="M869 1736l3 -0.00195312c54 -12 81 -32.333 81 -61c-7.33301 -41.333 -11 -66.666 -11 -75.999v-24c1.33301 -11.333 4 -17 8 -17c33.333 4.66699 56 14.334 68 29.001c0 3.33301 6.66699 8.33301 20 15c48.667 -16.667 73 -37.334 73 -62.001c0 -30 -36 -59 -108 -87
c-3.33301 -2 -7.33301 -3 -12 -3h-17c-63.333 0 -109 31 -137 93c-7.33301 29.333 -13.333 44 -18 44c-20.667 -9.33301 -55.667 -37.666 -105 -84.999l-20 -3c-34 0 -59.333 20.667 -76 62v6c0 28 18.333 47.333 55 58c86 55.333 151.333 92.333 196 111zM779 1457
c84.667 -23.333 126.998 -49.6641 126.998 -78.9971c24.667 -130 86.334 -404 185.001 -822c52.667 -192.667 104 -330.334 154 -413.001c5.33301 0 12.333 -7 21 -21v-21c0 -40.667 -28 -74.334 -84 -101.001c-76 0 -134.333 47.667 -175 143
c-122.667 172 -257 343.333 -403 514l-85 74c-9.33301 0 -51.666 -51 -126.999 -153c-48 -56.667 -113.333 -152.334 -196 -287.001c-54.667 -14 -84.667 -21 -90 -21c-67.333 24 -101 48.667 -101 74l-5 64c58 57.333 155 179.333 291 366c35.333 36.667 53 57.667 53 63
v16c0 11.333 -21 20.333 -63 27h-21c-4 0 -6 -2 -6 -6c-77.333 35.333 -116 76 -116 122v21l69 48c72 0 155 -24.667 249 -74c140 214.667 214 340 222 376c0 53.333 33.667 83.333 101 90zM614.998 880l206 -211.999c0 -10.667 16 -28.334 48 -53.001
c7.33301 0 11 3.33301 11 10l-117 466h-11c-52 -64 -97.667 -134.333 -137 -211z" />
    <glyph glyph-name="Adieresis" unicode="&#xc4;" horiz-adv-x="1540" 
 />
    <glyph glyph-name="Aring" unicode="&#xc5;" horiz-adv-x="1540" 
 />
    <glyph glyph-name="AE" unicode="&#xc6;" horiz-adv-x="1610" 
d="M770 1435c110.667 0 165.996 -11 165.996 -33l67 -19c62 0 185.333 1.33301 370 4c30.667 6.66699 53 10 67 10c53.333 0 107 -22.333 161 -67l5 -28c-13.333 -47.333 -65.666 -71 -156.999 -71c-64.667 -16 -156.334 -24 -275.001 -24v-5
c-6.66699 3.33301 -11.667 5 -15 5c-33.333 -6.66699 -55.333 -10 -66 -10h-52c-32 -18 -48 -56 -48 -114c-12.667 -104 -19 -159.333 -19 -166c12 -9.33301 26.333 -14 43 -14h33c17.333 0 52.333 4.66699 105 14l9 -5c64 10 122.667 15 176 15
c19.333 0 44.666 -16 75.999 -48c6 0 12.333 -12.667 19 -38c-27.333 -63.333 -87.666 -95 -180.999 -95l-237 -38l-24 5c-21.333 -10 -34 -15 -38 -15v-14c0 -14.667 -1.66699 -30.334 -5 -47.001l5 -19c-3.33301 -32 -8 -103.333 -14 -214c3.33301 -72 5 -126 5 -162l9 -4
h24c18.667 9.33301 96.334 28.333 233.001 57c56 25.333 95.333 45.666 118 60.999c14 0 52 -25.333 114 -76v-14c0 -68 -114 -129.667 -342 -185c-15.333 -12.667 -70.666 -27 -165.999 -43c-12 -25.333 -40.333 -38 -85 -38c-51.333 20.667 -84.666 49.334 -99.999 86.001
l-10 80c6.66699 22 10 41 10 57c0 3.33301 -1.66699 5 -5 5c3.33301 6 5 10.667 5 14c0 22.667 -1.66699 57.667 -5 105l5 57l-5 9c6 36.667 9 59 9 67l-4 19c2.66699 17.333 4 31.666 4 42.999l-4 33c6 24.667 10.667 64.334 14 119.001l-19 14l-33 -5
c-12.667 3.33301 -24 5 -34 5v-5c-35.333 9.33301 -65.333 14 -90 14c-4.66699 0 -45.667 -60 -123 -180c-78 -103.333 -155.667 -193.666 -233 -270.999c-21.333 -56.667 -57.666 -85 -108.999 -85c-60.667 0 -102 36.333 -124 109v5c0 8.66699 49 57.667 147 147
c114 125.333 172.667 199.666 176 222.999c46.667 54.667 88 115 124 181c0 47.333 19 77.333 57 90c98.667 168.667 165 290.667 199 366c0 40.667 9.66699 72.334 29 95.001c6 25.333 18.667 38 38 38zM773.996 1041c-60 -86.667 -89.998 -137.333 -89.998 -152
c1.33301 -6.66699 4.66602 -10 9.99902 -10h71c9.33301 0 15.666 46 18.999 138c-3.33301 6 -5 10.667 -5 14c3.33301 0 5 1.66699 5 5z" />
    <glyph glyph-name="Ccedilla" unicode="&#xc7;" horiz-adv-x="1139" 
d="M996 1428c60.667 0 107.336 -28 140.003 -84c-6.66699 -22 -20 -39.333 -40 -52c-2.66699 0 -6.66699 1.33301 -12 4c-104 -10.667 -184 -29.334 -240 -56.001c-132 -69.333 -281.333 -186.666 -448 -351.999c-63.333 -68.667 -122 -139.334 -176 -212.001
c-30.667 -55.333 -50.667 -103.333 -60 -144v-40c0 -57.333 60 -113.333 180 -168c47.333 -21.333 108.666 -32 183.999 -32h8c2.66699 0 4 1.33301 4 4l8 -4c138.667 25.333 208 45.333 208 60c14.667 0 50.667 32 108 96c14 2.66699 22 4 24 4
c21.333 0 38.666 -25.333 51.999 -76v-28c0 -50 -68 -108.667 -204 -176c-38 -16 -110 -29.333 -216 -40c-8 -10 -12 -22 -12 -36c0 -45.333 10.667 -68 32 -68c53.333 -46 80 -87.333 80 -124c2.66699 -3.33301 4 -12.666 4 -27.999c0 -66 -45.333 -136.667 -136 -212
c-60.667 -28.667 -119.334 -50 -176.001 -64c-2.66699 0 -4 1.33301 -4 4l-48 -4h-16c-9.33301 0 -21.333 1.33301 -36 4c-4.66699 -2.66699 -11.334 -4 -20.001 -4c-43.333 6.66699 -84.666 25.334 -123.999 56.001c-40 68.667 -60 111.334 -60 128.001v12
c0 30.667 24 50.667 72 60h12c8 -2.66699 12 -10.667 12 -24v-16c32 -2.66699 48 -16 48 -40l20 -12c83.333 0 167.333 24 252 72c5.33301 8.66699 8 16.667 8 24v8c-46 44.667 -74 92.667 -84 144c9.33301 10.667 14.666 36 15.999 76l-4 8l4 16
c-4.66699 50.667 -22 76 -52 76c-126.667 55.333 -210.667 136.666 -252 243.999c-8.66699 19.333 -18 56.666 -28 111.999c14.667 98 73.334 211.333 176.001 340c126 138.667 198 210.667 216 216c96 90.667 205.333 176 328 256c82.667 48 166.667 72 252 72z" />
    <glyph glyph-name="Egrave" unicode="&#xc8;" horiz-adv-x="1151" 
 />
    </font>
</defs>
</svg>
